<svg version="1.1" xmlns="http://www.w3.org/2000/svg" xmlns:xlink="http://www.w3.org/1999/xlink" width="88.79847" height="34.38392" viewBox="0,0,88.79847,34.38392"><g transform="translate(-199.55184,-165.32191)"><g data-paper-data="{&quot;isPaintingLayer&quot;:true}" fill-rule="nonzero" stroke="none" stroke-linecap="butt" stroke-linejoin="miter" stroke-miterlimit="10" stroke-dasharray="" stroke-dashoffset="0" style="mix-blend-mode: normal"><path d="M279.75838,173.10623c1.36242,6.46265 -0.91983,12.87503 -5.46855,17.05138c-0.42734,0.09391 -0.85976,0.17095 -1.29484,0.22948c-0.17295,-0.04335 -0.29137,-0.05182 -0.29137,-0.05182l-1.64028,-0.11368c-1.43586,-0.28943 -2.78043,-0.48012 -4.14494,-0.8782c0.20747,-0.73936 -0.23047,-1.44007 -0.23047,-1.44007l-0.87156,-1.30994c-0.64688,-0.64536 -1.26626,-1.26752 -1.84105,-1.8927c-0.86238,-3.87082 -1.54927,-7.58344 -1.63693,-11.62475c0.47068,-0.87803 0.92231,-1.75563 1.32947,-2.63676c0,0 0.19552,-0.42364 0.16591,-0.93438c0.69759,-0.49713 1.41703,-0.97508 2.16233,-1.43356c0,0 0.55829,-0.34357 0.78121,-0.95184c0.46746,-0.11766 0.94048,-0.22615 1.4183,-0.3274c0,0 0.55011,-0.11788 0.95967,-0.53188c0.86829,-0.06209 1.75675,-0.11826 2.67334,-0.18373c0,0 0.60475,-0.04319 1.07691,-0.4347c1.46353,0.53818 2.87423,1.16825 4.19005,1.77808c0,0 0.173,0.07985 0.4312,0.12976c1.02763,1.6827 1.79341,3.55265 2.23161,5.55671z" fill="#000000" stroke-width="1.6814"/><path d="" fill="#000000" stroke-width="1.6814"/><path d="" fill="#000000" stroke-width="1.6814"/><path d="" fill="#000000" stroke-width="1.6814"/><path d="" fill="#000000" stroke-width="1.6814"/><path d="" fill="#000000" stroke-width="1.6814"/><path d="" fill="#000000" stroke-width="1.6814"/><path d="M281.18388,171.09624c2.307,9.98746 -0.39847,19.91898 -6.54838,27.53306c-1.98872,-0.45943 -3.85737,-0.55724 -5.84272,-1.22618c-2.03533,-0.68577 -3.8211,-1.78161 -5.54553,-2.98644c-0.8791,-1.75324 -1.89159,-3.69259 -3.15288,-5.29733c0.35458,-3.66559 1.19012,-8.85805 0.28149,-11.89262c0.49485,-1.47394 0.96895,-2.97305 1.47645,-4.30218c0.21547,5.84189 1.66253,12.42564 5.99056,16.13538c2.55599,2.19084 8.48606,0.76907 8.48606,-3.1041c0,-0.12879 -0.00312,-0.25257 -0.00921,-0.37154c0.1286,-0.34419 0.24142,-0.70762 0.33691,-1.0896c0.58385,-2.33539 1.06941,-4.70124 1.54729,-7.03886c0.58967,-2.88445 0.29325,-7.71382 0.25203,-9.88229c0.6497,0.28233 1.30358,0.56316 1.95808,0.81162c0.29694,0.88717 0.5543,1.79131 0.76984,2.71108z" fill="#231f20" stroke-width="1.6814"/><path d="" fill="#231f20" stroke-width="1.6814"/><path d="" fill="#231f20" stroke-width="1.6814"/><path d="" fill="#231f20" stroke-width="1.6814"/><path d="" fill="#231f20" stroke-width="1.6814"/><path d="" fill="#ffffff" stroke-width="0.5"/><path d="M279.07893,168.20583c0.19577,0 0.38403,-0.03214 0.55979,-0.09144c0.11314,0.22556 0.27361,0.42329 0.46838,0.58014l1.23076,1.00699c0.2457,0.43479 0.49535,0.86729 0.75068,1.29649l0.99858,0.73519c0.0786,0.30382 0.14524,0.61633 0.1993,0.93741c0.36539,0.84461 0.7261,1.68586 0.90053,2.60162c0.40647,2.13405 0.01804,4.20475 -0.24072,6.30766c-0.60376,4.76415 -2.42453,9.83667 -4.18938,14.2488c-0.49057,1.22643 -0.96235,2.92999 -2.22186,3.67926c-0.08638,-0.01117 -0.17278,-0.02212 -0.25922,-0.03287c-0.05895,-0.02561 -0.11959,-0.04809 -0.1817,-0.06719l-1.83672,-0.61223l-0.11404,0.34212l-0.00647,-0.00081c-0.22481,-0.11898 -0.45372,-0.22656 -0.68704,-0.32003l0.02359,0.00716c0.19527,-0.34178 0.38815,-0.67424 0.57594,-1.0009c0.57695,-0.14586 0.9626,-0.57971 0.9626,-0.57971l1.23285,-1.45796c1.25081,-2.37014 1.31682,-4.6759 2.12541,-7.16972c1.7532,-5.40715 3.57058,-12.66822 1.09285,-18.04827l-0.00907,-0.11168c0,0 0,-0.05174 0.01177,-0.13168c-0.04552,-0.08194 -0.09243,-0.16269 -0.14071,-0.24222c0.04244,0.15106 0.08365,0.30256 0.12363,0.4545c-0.38402,-0.82718 -0.87004,-1.60961 -1.47398,-2.33365c0.03451,0.00203 0.06928,0.00305 0.10429,0.00305z" fill="#ffffff" stroke-width="0.5"/><path d="M273.20142,198.47342l-0.09939,-0.00919c0.00294,-0.01813 0.00581,-0.03617 0.00861,-0.05414l0.37016,0.11245c-0.09243,-0.01894 -0.18555,-0.03537 -0.27938,-0.04912z" fill="#ffffff" stroke-width="0.5"/><path d="" fill="#ffffff" stroke-width="0.5"/><path d="" fill="#ffffff" stroke-width="0.5"/><path d="M281.98115,169.8579c1.10089,1.13503 2.1431,2.39998 3.2358,3.70156c1.13312,1.34973 1.56274,3.08165 2.81909,4.31426c0,0 0.70711,0.70711 0,1.41422c-0.70711,0.70711 -1.41422,0 -1.41422,0c-1.44952,-1.47117 -2.60041,-3.19126 -3.75328,-4.86386c0.25044,4.61306 -1.23257,9.08233 -1.81865,13.77098c-1.24525,3.32067 -1.91847,6.20536 -3.61473,9.32908c0.59798,0.04228 1.18866,0.06165 1.76877,0.0567c0.33333,0 0.66667,0 1,0h0.375c0,0 1,0 1,1c0,1 -1,1 -1,1c-0.33333,0 -1.04167,0 -1.375,0c-5.99587,-0.04003 -12.78632,-2.22235 -17.7885,-5.64461c-0.21348,-0.0683 -0.37054,-0.21331 -0.4712,-0.33488c-0.11233,-0.09758 -0.36441,-0.35467 -0.38675,-0.71295l-0.03987,-0.08143c-1.61898,-4.31728 -1.32978,-8.09834 -1.30618,-12.59831c0.65388,-2.67446 1.32571,-5.4569 2.4937,-7.90915c0.00076,-0.01286 0.00201,-0.02934 0.00406,-0.04882c0.2297,-0.34172 0.42606,-0.70283 0.58184,-1.07523c1.29211,-2.26357 3.1192,-4.15356 5.91508,-5.27251c1.74752,-0.69939 3.59899,-0.57351 5.43498,-0.57017c3.1318,0.39115 5.40451,1.76105 7.40409,3.60891c0.01342,0.00062 0.02666,0.00153 0.03972,0.00274c0.25244,0.28375 0.53719,0.54097 0.84512,0.76938c0.01731,0.04807 0.03436,0.0961 0.05115,0.14411zM267.86831,188.61377c7.8779,4.52475 9.69439,-7.19975 10.33756,-12.34508c-0.00452,-2.19206 0.14546,-4.44078 -0.07562,-6.62163l-0.41956,-0.69509c0,0 -0.04612,-0.08071 -0.08563,-0.20698c-1.1504,-0.70943 -2.48755,-1.21329 -4.10827,-1.41609c-1.52663,0.00314 -3.11139,-0.15121 -4.56503,0.42983c-2.55993,1.02325 -4.14991,2.81249 -5.24863,4.93663c-0.02078,5.07019 -0.40519,12.66944 4.16517,15.91841zM270.1418,191.4539c-1.29336,-0.08548 -2.2451,-0.52584 -3.35224,-1.156c-3.76074,-2.69627 -4.74918,-7.49823 -5.00323,-12.16666c-0.20324,0.77946 -0.39428,1.55841 -0.58988,2.32178c0.02479,4.19103 -0.3156,7.62658 1.19382,11.65169l0.06037,0.11718c3.58252,2.48682 8.33315,4.36955 12.88849,5.06618l0.12157,-0.32837c0.63518,-1.10845 1.12194,-2.17501 1.54089,-3.23743c-1.61102,0.2255 -3.02275,-1.32411 -3.18022,-2.84937c-1.03523,0.45715 -2.24991,0.67549 -3.67957,0.581zM280.202,176.39297c-0.4298,3.43844 -0.99911,7.96737 -2.8723,11.16205c0.58145,0.12642 1.11356,0.45104 1.48375,0.96845c0.09457,-0.26577 0.19241,-0.53456 0.29451,-0.80685c0.69817,-5.5854 2.98003,-11.07677 1.15156,-16.72482c-0.01913,-0.02114 -0.0383,-0.04223 -0.05753,-0.06327c0.09066,1.81593 0.00329,3.65572 0,5.46444zM277.36083,189.77193c-0.2371,-1.00813 -2.04541,0.31708 -1.71103,1.23437c0.57188,1.56882 1.42731,0.14409 1.58398,-0.543l-0.02986,-0.13246c0,0 0,-0.2909 0.1569,-0.5589z" fill="#000000" stroke-width="0.5"/><path d="M276.61608,188.93683c0.19488,-0.01941 0.4212,0.0282 0.66909,0.20527c0.81374,0.58124 0.2325,1.39497 0.2325,1.39497l-0.61726,0.86415c-0.18063,0.25966 -0.4812,0.42961 -0.82148,0.42961c-0.55228,0 -1,-0.44771 -1,-1c0,-0.18687 0.05125,-0.36176 0.14047,-0.51139l0.49129,-0.85975c0,0 0.32357,-0.56625 0.90539,-0.52286z" fill="#ffffff" stroke-width="0.5"/><path d="M266.42529,174.65314c-0.78949,-0.82808 -1.15843,-2.00361 -0.77215,-3.08468c0.14164,-0.45954 0.42274,-0.88925 0.87637,-1.24929c0.06058,-0.05312 0.12407,-0.10534 0.19054,-0.15659c3.35979,-2.59034 5.76511,3.39422 3.52208,5.2917c-1.2528,1.0598 -2.84401,0.40841 -3.81684,-0.80114z" fill="#ffffff" stroke-width="0.5"/><path d="M210.37538,167.67452c0.25819,-0.04991 0.4312,-0.12976 0.4312,-0.12976c1.31582,-0.60983 2.72652,-1.23989 4.19006,-1.77808c0.47216,0.3915 1.07691,0.4347 1.07691,0.4347c0.9166,0.06547 1.80506,0.12164 2.67334,0.18373c0.40956,0.41399 0.95967,0.53188 0.95967,0.53188c0.47782,0.10126 0.95084,0.20974 1.4183,0.3274c0.22292,0.60827 0.78121,0.95184 0.78121,0.95184c0.7453,0.45848 1.46474,0.93643 2.16233,1.43356c-0.02962,0.51074 0.16591,0.93438 0.16591,0.93438c0.40716,0.88114 0.85879,1.75874 1.32947,2.63676c-0.08766,4.04131 -0.77454,7.75393 -1.63692,11.62475c-0.57479,0.62518 -1.19418,1.24734 -1.84106,1.8927l-0.87156,1.30994c0,0 -0.43794,0.7007 -0.23047,1.44007c-1.36451,0.39808 -2.70908,0.58876 -4.14494,0.8782l-1.64028,0.11368c0,0 -0.11842,0.00846 -0.29137,0.05182c-0.43508,-0.05853 -0.8675,-0.13557 -1.29484,-0.22948c-4.54872,-4.17635 -6.83097,-10.58874 -5.46856,-17.05138c0.43819,-2.00406 1.20397,-3.87401 2.23161,-5.55671z" data-paper-data="{&quot;index&quot;:null}" fill="#000000" stroke-width="1.6814"/><path d="M207.48811,168.51016c0.6545,-0.24846 1.30838,-0.52929 1.95808,-0.81162c-0.04122,2.16847 -0.33765,6.99784 0.25203,9.88229c0.47788,2.33761 0.96344,4.70347 1.54729,7.03886c0.09549,0.38198 0.20831,0.74541 0.33692,1.0896c-0.00609,0.11898 -0.00921,0.24275 -0.00921,0.37154c0,3.87318 5.93008,5.29495 8.48606,3.1041c4.32802,-3.70973 5.77509,-10.29348 5.99056,-16.13538c0.5075,1.32913 0.98159,2.82824 1.47644,4.30218c-0.90863,3.03456 -0.07309,8.22702 0.28149,11.89262c-1.26128,1.60474 -2.27379,3.54409 -3.15288,5.29733c-1.72443,1.20483 -3.51021,2.30067 -5.54554,2.98644c-1.98535,0.66894 -3.854,0.76675 -5.84272,1.22618c-6.14991,-7.61408 -8.85538,-17.5456 -6.54838,-27.53306c0.21554,-0.91977 0.47291,-1.82391 0.76985,-2.71108z" data-paper-data="{&quot;index&quot;:null}" fill="#231f20" stroke-width="1.6814"/><path d="M208.92751,168.32778c-0.60394,0.72404 -1.08997,1.50647 -1.47398,2.33365c0.03999,-0.15194 0.08119,-0.30344 0.12364,-0.4545c-0.04827,0.07953 -0.09519,0.16028 -0.1407,0.24222c0.01177,0.07994 0.01177,0.13168 0.01177,0.13168l-0.00907,0.11168c-2.47773,5.38005 -0.66035,12.64112 1.09285,18.04827c0.80858,2.49382 0.87459,4.79958 2.12541,7.16972l1.23286,1.45796c0,0 0.38564,0.43385 0.96259,0.57971c0.18779,0.32666 0.38067,0.65912 0.57594,1.0009l0.02358,-0.00716c-0.23333,0.09347 -0.46223,0.20106 -0.68704,0.32003l-0.00647,0.00081l-0.11404,-0.34212l-1.83672,0.61223c-0.06211,0.0191 -0.12275,0.04158 -0.1817,0.06719c-0.08644,0.01074 -0.17284,0.0217 -0.25922,0.03287c-1.25951,-0.74928 -1.73129,-2.45284 -2.22186,-3.67926c-1.76485,-4.41213 -3.58562,-9.48465 -4.18938,-14.2488c-0.25877,-2.10291 -0.64719,-4.1736 -0.24072,-6.30766c0.17443,-0.91576 0.53513,-1.75701 0.90053,-2.60162c0.05406,-0.32108 0.1207,-0.63358 0.1993,-0.93741l0.99858,-0.73519c0.25532,-0.42919 0.50497,-0.8617 0.75068,-1.29649l1.23076,-1.00699c0.19476,-0.15685 0.35524,-0.35458 0.46838,-0.58014c0.17576,0.0593 0.36402,0.09144 0.55979,0.09144c0.03501,0 0.06978,-0.00102 0.10429,-0.00305z" data-paper-data="{&quot;index&quot;:null}" fill="#ffffff" stroke-width="0.5"/><path d="M214.42136,198.64754l0.37015,-0.11245c0.0028,0.01797 0.00568,0.03601 0.00862,0.05414l-0.0994,0.00919c-0.09383,0.01376 -0.18694,0.03018 -0.27937,0.04912z" data-paper-data="{&quot;index&quot;:null}" fill="#ffffff" stroke-width="0.5"/><path d="M205.97215,169.83879c0.30793,-0.22841 0.59268,-0.48563 0.84512,-0.76938c0.01306,-0.0012 0.0263,-0.00212 0.03972,-0.00274c1.99958,-1.84786 4.27229,-3.21776 7.40409,-3.60891c1.83599,-0.00334 3.68745,-0.12922 5.43498,0.57017c2.79587,1.11895 4.62296,3.00894 5.91508,5.27251c0.15578,0.3724 0.35213,0.73351 0.58183,1.07523c0.00205,0.01949 0.0033,0.03597 0.00406,0.04882c1.16799,2.45225 1.83982,5.23468 2.4937,7.90915c0.02361,4.49997 0.3128,8.28103 -1.30618,12.59831l-0.03987,0.08143c-0.02234,0.35828 -0.27442,0.61538 -0.38675,0.71295c-0.10066,0.12158 -0.25773,0.26659 -0.4712,0.33488c-5.00217,3.42226 -11.79263,5.60458 -17.7885,5.64461c-0.33334,0 -1.04166,0 -1.375,0c0,0 -1,0 -1,-1c0,-1 1,-1 1,-1h0.375c0.33334,0 0.66666,0 1,0c0.58011,0.00495 1.17078,-0.01441 1.76877,-0.0567c-1.69627,-3.12372 -2.36948,-6.00841 -3.61473,-9.32908c-0.58608,-4.68865 -2.06909,-9.15792 -1.81865,-13.77098c-1.15286,1.6726 -2.30376,3.39269 -3.75328,4.86386c0,0 -0.70711,0.70711 -1.41422,0c-0.70711,-0.70711 0,-1.41422 0,-1.41422c1.25635,-1.23262 1.68597,-2.96454 2.81909,-4.31426c1.09269,-1.30158 2.1349,-2.56653 3.2358,-3.70156c0.01678,-0.04801 0.03383,-0.09605 0.05115,-0.14411zM224.19901,172.82036c-1.09871,-2.12414 -2.68869,-3.91338 -5.24862,-4.93663c-1.45363,-0.58104 -3.0384,-0.42669 -4.56503,-0.42983c-1.62072,0.2028 -2.95786,0.70667 -4.10827,1.41609c-0.03951,0.12627 -0.08563,0.20698 -0.08563,0.20698l-0.41956,0.69509c-0.22108,2.18086 -0.0711,4.42958 -0.07561,6.62163c0.64317,5.14533 2.45965,16.86983 10.33756,12.34508c4.57036,-3.24896 4.18595,-10.84822 4.16517,-15.91841zM214.08079,190.9979c-0.15747,1.52526 -1.56919,3.07487 -3.18022,2.84937c0.41895,1.06241 0.90572,2.12897 1.5409,3.23743l0.12157,0.32837c4.55534,-0.69663 9.30597,-2.57936 12.88849,-5.06618l0.06037,-0.11718c1.50942,-4.02512 1.16903,-7.46066 1.19382,-11.65169c-0.1956,-0.76336 -0.38665,-1.54231 -0.58989,-2.32178c-0.25405,4.66843 -1.24249,9.47039 -5.00323,12.16666c-1.10714,0.63016 -2.05889,1.07052 -3.35224,1.156c-1.42966,0.09449 -2.64434,-0.12384 -3.67957,-0.581zM207.70016,171.05353c-0.01923,0.02104 -0.0384,0.04212 -0.05753,0.06327c-1.82846,5.64804 0.45338,11.13942 1.15156,16.72482c0.1021,0.27229 0.19994,0.54108 0.29451,0.80685c0.37019,-0.5174 0.90231,-0.84203 1.48376,-0.96845c-1.87319,-3.19468 -2.4425,-7.72361 -2.8723,-11.16205c-0.00329,-1.80872 -0.09065,-3.6485 0,-5.46444zM210.69822,190.45583l-0.02986,0.13246c0.15668,0.68709 1.0121,2.11182 1.58398,0.543c0.33438,-0.91729 -1.47392,-2.24249 -1.71102,-1.23437c0.15689,0.268 0.1569,0.5589 0.1569,0.5589z" data-paper-data="{&quot;index&quot;:null}" fill="#000000" stroke-width="0.5"/><path d="M212.19146,189.58469l0.49129,0.85975c0.08921,0.14963 0.14047,0.32452 0.14047,0.51139c0,0.55229 -0.44771,1 -1,1c-0.34027,0 -0.64085,-0.16995 -0.82148,-0.42961l-0.61726,-0.86415c0,0 -0.58124,-0.81373 0.2325,-1.39497c0.24789,-0.17707 0.47421,-0.22468 0.66909,-0.20527c0.58182,-0.04339 0.90538,0.52286 0.90538,0.52286z" data-paper-data="{&quot;index&quot;:null}" fill="#ffffff" stroke-width="0.5"/><path d="M217.66002,175.57927c-2.24303,-1.89747 0.1623,-7.88203 3.52209,-5.2917c0.06646,0.05124 0.12995,0.10346 0.19053,0.15659c0.45362,0.36004 0.73473,0.78975 0.87637,1.24929c0.38628,1.08107 0.01734,2.2566 -0.77215,3.08468c-0.97283,1.20955 -2.56404,1.86093 -3.81684,0.80114z" data-paper-data="{&quot;index&quot;:null}" fill="#ffffff" stroke-width="0.5"/></g></g></svg>