<svg xmlns="http://www.w3.org/2000/svg" xmlns:xlink="http://www.w3.org/1999/xlink" version="1.1" width="107.62451553344727" height="27.66461944580078" viewBox="0.3877401351928711 -0.44905996322631836 107.62451553344727 27.66461944580078">
  <!-- Exported by Scratch - http://scratch.mit.edu/ -->
  <g id="ID0.2149061099626124">
    <path id="ID0.18979227542877197" fill="none" stroke="#000000" stroke-width="4.153498649597168" stroke-linecap="round" d="M 12.7663 7.776 L 2.9017 2.0649 "/>
    <path id="ID0.1952766994945705" fill="#FFFFFF" stroke="#000000" stroke-width="4.153498649597168" stroke-linecap="round" d="M 18.9965 2.6149 L 29.3803 2.0957 L 38.2065 6.2492 L 43.9175 22.8632 L 10.6895 23.9016 L 12.2471 10.4027 L 18.9965 2.6149 Z "/>
    <path id="ID0.05081108910962939" fill="#663B00" stroke="#663B00" stroke-width="4.153498649597168" d="M 26.4823 5.2108 C 23.9757 5.2108 21.7037 6.1703 20.0589 7.7216 C 18.4141 9.2729 17.3965 11.4141 17.3965 13.7774 C 17.3965 16.1408 18.4141 18.2819 20.0589 19.8332 C 21.7037 21.3846 23.9757 22.344 26.4823 22.344 C 28.9889 22.344 31.2609 21.3846 32.9057 19.8332 C 34.5505 18.2819 35.5681 16.1408 35.5681 13.7774 C 35.5681 11.4141 34.5505 9.2729 32.9057 7.7216 C 31.2609 6.1703 28.9889 5.2108 26.4823 5.2108 Z "/>
    <path id="ID0.7617317023687065" fill="#000000" stroke="#000000" stroke-width="5.027919769287109" d="M 26.3003 10.6191 C 25.2596 10.6191 24.3168 11.0062 23.6355 11.6322 C 22.9517 12.2582 22.5294 13.123 22.5294 14.0758 C 22.5294 15.0286 22.9517 15.8934 23.6355 16.5193 C 24.3168 17.1453 25.2596 17.5325 26.3003 17.5325 C 27.3411 17.5325 28.2838 17.1453 28.9651 16.5193 C 29.6489 15.8934 30.0713 15.0286 30.0713 14.0758 C 30.0713 13.123 29.6489 12.2582 28.9651 11.6322 C 28.2838 11.0062 27.3411 10.6191 26.3003 10.6191 Z "/>
    <path id="ID0.1952766994945705" fill="none" stroke="#000000" stroke-width="4.153498649597168" stroke-linecap="round" d="M 18.9965 3.1149 L 29.3803 2.5957 L 38.2065 6.7492 L 43.9175 23.3632 L 10.6895 24.4016 L 12.2471 10.9027 L 18.9965 3.1149 Z "/>
  </g>
  <g id="ID0.2149061099626124">
    <path id="ID0.18979227542877197" fill="none" stroke="#000000" stroke-width="4.153498649597168" stroke-linecap="round" d="M 95.6337 8.076 L 105.4983 2.3649 "/>
    <path id="ID0.1952766994945705" fill="#FFFFFF" stroke="#000000" stroke-width="4.153498649597168" stroke-linecap="round" d="M 89.4035 2.9149 L 79.0197 2.3957 L 70.1935 6.5492 L 64.4825 23.1632 L 97.7105 24.2016 L 96.1529 10.7027 L 89.4035 2.9149 Z "/>
    <path id="ID0.05081108910962939" fill="#663B00" stroke="#663B00" stroke-width="4.153498649597168" d="M 81.9177 5.5108 C 84.4243 5.5108 86.6963 6.4703 88.3411 8.0216 C 89.9859 9.5729 91.0035 11.7141 91.0035 14.0774 C 91.0035 16.4408 89.9859 18.5819 88.3411 20.1332 C 86.6963 21.6846 84.4243 22.644 81.9177 22.644 C 79.4111 22.644 77.1391 21.6846 75.4943 20.1332 C 73.8495 18.5819 72.8319 16.4408 72.8319 14.0774 C 72.8319 11.7141 73.8495 9.5729 75.4943 8.0216 C 77.1391 6.4703 79.4111 5.5108 81.9177 5.5108 Z "/>
    <path id="ID0.7617317023687065" fill="#000000" stroke="#000000" stroke-width="5.027919769287109" d="M 82.0997 10.9191 C 83.1404 10.9191 84.0832 11.3062 84.7645 11.9322 C 85.4483 12.5582 85.8706 13.423 85.8706 14.3758 C 85.8706 15.3286 85.4483 16.1934 84.7645 16.8193 C 84.0832 17.4453 83.1404 17.8325 82.0997 17.8325 C 81.0589 17.8325 80.1162 17.4453 79.4349 16.8193 C 78.7511 16.1934 78.3287 15.3286 78.3287 14.3758 C 78.3287 13.423 78.7511 12.5582 79.4349 11.9322 C 80.1162 11.3062 81.0589 10.9191 82.0997 10.9191 Z "/>
    <path id="ID0.1952766994945705" fill="none" stroke="#000000" stroke-width="4.153498649597168" stroke-linecap="round" d="M 89.4035 3.4149 L 79.0197 2.8957 L 70.1935 7.0492 L 64.4825 23.6632 L 97.7105 24.7016 L 96.1529 11.2027 L 89.4035 3.4149 Z "/>
  </g>
</svg>