<svg xmlns="http://www.w3.org/2000/svg" xmlns:xlink="http://www.w3.org/1999/xlink" version="1.1" width="109.18424875830613" height="29.802948785771953" viewBox="1.4078746671726177 -0.7504252557704976 109.18424875830613 29.802948785771953">
  <!-- Exported by Scratch - http://scratch.mit.edu/ -->
  <g id="ID0.09857076732441783">
    <g id="ID0.9068241277709603">
      <g id="ID0.021897551137953997">
        <path id="ID0.5593094071373343" fill="#000000" stroke="#000000" stroke-width="2.5684649722800073" d="M 82.4157 8.9945 C 85.0219 8.9945 87.3829 9.9678 89.093 11.5419 C 90.803 13.1148 91.8609 15.2873 91.8609 17.6846 C 91.8609 20.0818 90.803 22.2543 89.093 23.8272 C 87.3829 25.4014 85.0219 26.3747 82.4157 26.3747 C 79.8095 26.3747 77.4485 25.4014 75.7385 23.8272 C 74.0284 22.2543 72.9705 20.0818 72.9705 17.6846 C 72.9705 15.2873 74.0284 13.1148 75.7385 11.5419 C 77.4485 9.9678 79.8095 8.9945 82.4157 8.9945 Z "/>
        <path id="ID0.9373912685550749" fill="#000000" stroke="#000000" stroke-width="2.238095283508301" stroke-linecap="round" d="M 68.55 14.8821 L 68.1583 17.8476 L 66.3119 17.9036 L 67.1512 12.0845 L 67.9905 10.0143 L 69.2774 8 L 72.9143 4.7548 L 79.0691 1.9571 L 82.8179 1.6774 L 84.7202 1.8452 L 86.2869 2.181 L 88.9726 2.6286 L 92.2179 3.9155 L 95.1274 6.4333 L 97.0857 8.5595 L 98.0929 10.9095 L 108.1643 10.35 L 99.1 13.5393 L 100.0512 19.0226 L 97.5333 18.7429 L 95.2952 11.7488 L 91.9381 6.9929 L 89.1964 5.65 L 84.2726 4.6429 L 79.4607 4.8107 L 75.7679 6.0976 L 72.019 8.2238 L 68.9417 12.5881 L 68.55 14.8821 Z "/>
      </g>
      <g id="ID0.021897551137953997">
        <path id="ID0.5593094071373343" fill="#000000" stroke="#000000" stroke-width="2.5684649722800073" d="M 29.6843 9.2445 C 27.0781 9.2445 24.7171 10.2178 23.007 11.7919 C 21.297 13.3648 20.2391 15.5373 20.2391 17.9346 C 20.2391 20.3318 21.297 22.5043 23.007 24.0772 C 24.7171 25.6514 27.0781 26.6247 29.6843 26.6247 C 32.2905 26.6247 34.6515 25.6514 36.3615 24.0772 C 38.0716 22.5043 39.1295 20.3318 39.1295 17.9346 C 39.1295 15.5373 38.0716 13.3648 36.3615 11.7919 C 34.6515 10.2178 32.2905 9.2445 29.6843 9.2445 Z "/>
        <path id="ID0.9373912685550749" fill="#000000" stroke="#000000" stroke-width="2.238095283508301" stroke-linecap="round" d="M 43.45 15.1821 L 43.8417 18.1476 L 45.6881 18.2036 L 44.8488 12.3845 L 44.0095 10.3143 L 42.7226 8.3 L 39.0857 5.0548 L 32.9309 2.2571 L 29.1821 1.9774 L 27.2798 2.1452 L 25.7131 2.481 L 23.0274 2.9286 L 19.7821 4.2155 L 16.8726 6.7333 L 14.9143 8.8595 L 13.9071 11.2095 L 3.8357 10.65 L 12.9 13.8393 L 11.9488 19.3226 L 14.4667 19.0429 L 16.7048 12.0488 L 20.0619 7.2929 L 22.8036 5.95 L 27.7274 4.9429 L 32.5393 5.1107 L 36.2321 6.3976 L 39.981 8.5238 L 43.0583 12.8881 L 43.45 15.1821 Z "/>
      </g>
    </g>
    <path id="ID0.18508467869833112" fill="#663B00" stroke="#663B00" stroke-width="4.855650735845194" d="M 30.0176 10.7003 C 32.1416 10.5976 34.4344 11.0159 36.1774 12.3681 C 37.4504 13.356 38.4771 15.0982 38.4588 16.9226 C 38.4314 19.1754 37.5006 21.477 35.9515 23.0448 C 34.4025 24.6126 32.2648 25.5825 29.9035 25.5825 C 27.5423 25.5825 25.4046 24.6126 23.8555 23.0448 C 22.3064 21.477 21.3619 19.1754 21.3482 16.9226 C 21.3368 14.9956 22.676 13.161 24.0859 12.1115 C 25.8015 10.8337 27.9894 10.5078 30.0176 10.7003 Z "/>
    <path id="ID0.18508467869833112" fill="#000000" stroke="#000000" stroke-width="2.8308139356166904" d="M 29.963 12.5515 C 31.2565 12.5515 32.4275 13.1425 33.2761 14.0979 C 34.1247 15.0532 34.6496 16.3729 34.6496 17.8286 C 34.6496 19.2843 34.1247 20.604 33.2761 21.5593 C 32.4275 22.5147 31.2565 23.1057 29.963 23.1057 C 28.6694 23.1057 27.4984 22.5147 26.6498 21.5593 C 25.8012 20.604 25.2763 19.2843 25.2763 17.8286 C 25.2763 16.3729 25.8012 15.0532 26.6498 14.0979 C 27.4984 13.1425 28.6694 12.5515 29.963 12.5515 Z "/>
    <path id="ID0.18508467869833112" fill="#000000" stroke="#000000" stroke-width="2.8308139356166904" d="M 82.713 12.7515 C 84.0065 12.7515 85.1775 13.3425 86.0261 14.2979 C 86.8747 15.2532 87.3996 16.5729 87.3996 18.0286 C 87.3996 19.4843 86.8747 20.804 86.0261 21.7593 C 85.1775 22.7147 84.0065 23.3057 82.713 23.3057 C 81.4194 23.3057 80.2484 22.7147 79.3998 21.7593 C 78.5512 20.804 78.0263 19.4843 78.0263 18.0286 C 78.0263 16.5729 78.5512 15.2532 79.3998 14.2979 C 80.2484 13.3425 81.4194 12.7515 82.713 12.7515 Z "/>
    <path id="ID0.18508467869833112" fill="#663B00" stroke="#663B00" stroke-width="4.855650735845194" d="M 82.7676 10.8503 C 84.8916 10.7476 87.1844 11.1659 88.9274 12.5181 C 90.2004 13.506 91.2271 15.2482 91.2088 17.0726 C 91.1814 19.3254 90.2506 21.627 88.7015 23.1948 C 87.1525 24.7626 85.0148 25.7325 82.6535 25.7325 C 80.2923 25.7325 78.1546 24.7626 76.6055 23.1948 C 75.0564 21.627 74.1119 19.3254 74.0982 17.0726 C 74.0868 15.1456 75.426 13.311 76.8359 12.2615 C 78.5515 10.9837 80.7394 10.6578 82.7676 10.8503 Z "/>
    <path id="ID0.18508467869833112" fill="#000000" stroke="#000000" stroke-width="2.8308139356166904" d="M 82.463 12.8015 C 83.7565 12.8015 84.9275 13.3925 85.7761 14.3479 C 86.6247 15.3032 87.1496 16.6229 87.1496 18.0786 C 87.1496 19.5343 86.6247 20.854 85.7761 21.8093 C 84.9275 22.7647 83.7565 23.3557 82.463 23.3557 C 81.1694 23.3557 79.9984 22.7647 79.1498 21.8093 C 78.3012 20.854 77.7763 19.5343 77.7763 18.0786 C 77.7763 16.6229 78.3012 15.3032 79.1498 14.3479 C 79.9984 13.3925 81.1694 12.8015 82.463 12.8015 Z "/>
  </g>
</svg>