<svg xmlns="http://www.w3.org/2000/svg" xmlns:xlink="http://www.w3.org/1999/xlink" version="1.1" width="99.20394785875654" height="23.469048337882516" viewBox="-0.5491248750417217 -0.6551249408452495 99.20394785875654 23.469048337882516">
  <!-- Exported by Scratch - http://scratch.mit.edu/ -->
  <g id="ID0.9706580005586147">
    <g id="ID0.9903368996456265">
      <path id="ID0.5593094071373343" fill="#000000" stroke="#000000" stroke-width="2.192402145317595" d="M 19.9981 4.8 C 22.327 4.8 24.4368 5.584 25.965 6.852 C 27.4931 8.119 28.4385 9.869 28.4385 11.8 C 28.4385 13.731 27.4931 15.481 25.965 16.748 C 24.4368 18.016 22.327 18.8 19.9981 18.8 C 17.6691 18.8 15.5593 18.016 14.0312 16.748 C 12.503 15.481 11.5577 13.731 11.5577 11.8 C 11.5577 9.869 12.503 8.119 14.0312 6.852 C 15.5593 5.584 17.6691 4.8 19.9981 4.8 Z "/>
      <path id="ID0.0717811151407659" fill="#000000" stroke="#000000" stroke-width="1.722446892823072" stroke-linecap="round" d="M 2.9302 11.7448 L 13.3311 5.6 L 23.7321 5.0053 L 29.5104 6.9875 L 35.2887 11.5466 L 38.0623 10.1591 L 31.8217 5.0053 L 25.8123 1.6356 L 16.7981 1.4374 L 11.2509 2.4285 L 1.5434 9.3662 Z "/>
    </g>
    <g id="ID0.9903368996456265">
      <path id="ID0.5593094071373343" fill="#000000" stroke="#000000" stroke-width="2.192402145317595" d="M 78.4981 5.8 C 80.827 5.8 82.9368 6.584 84.465 7.852 C 85.9931 9.119 86.9385 10.869 86.9385 12.8 C 86.9385 14.731 85.9931 16.481 84.465 17.748 C 82.9368 19.016 80.827 19.8 78.4981 19.8 C 76.1691 19.8 74.0593 19.016 72.5312 17.748 C 71.003 16.481 70.0577 14.731 70.0577 12.8 C 70.0577 10.869 71.003 9.119 72.5312 7.852 C 74.0593 6.584 76.1691 5.8 78.4981 5.8 Z "/>
      <path id="ID0.0717811151407659" fill="#000000" stroke="#000000" stroke-width="1.722446892823072" stroke-linecap="round" d="M 61.4302 12.7448 L 71.8311 6.6 L 82.2321 6.0053 L 88.0104 7.9875 L 93.7887 12.5466 L 96.5623 11.1591 L 90.3217 6.0053 L 84.3123 2.6356 L 75.2981 2.4374 L 69.7509 3.4285 L 60.0434 10.3662 Z "/>
    </g>
  </g>
  <g id="ID0.6876808349043131">
    <path id="ID0.18508467869833112" fill="#663B00" stroke="#663B00" stroke-width="4.185049848502633" d="M 78.7066 8.2551 C 80.6004 8.1691 82.6446 8.5195 84.1987 9.6522 C 85.3337 10.4797 86.249 11.9391 86.2328 13.4673 C 86.2084 15.3545 85.3784 17.2824 83.9973 18.5957 C 82.6162 19.909 80.7102 20.7214 78.6049 20.7214 C 76.4996 20.7214 74.5937 19.909 73.2126 18.5957 C 71.8314 17.2824 70.9893 15.3545 70.9771 13.4673 C 70.9669 11.8531 72.1609 10.3163 73.418 9.4372 C 74.9476 8.3668 76.8983 8.0939 78.7066 8.2551 Z "/>
    <path id="ID0.18508467869833112" fill="#000000" stroke="#000000" stroke-width="2.4319300672167667" d="M 78.4786 10.0948 C 79.6319 10.0948 80.6759 10.5898 81.4325 11.3901 C 82.1891 12.1904 82.6571 13.2958 82.6571 14.5152 C 82.6571 15.7346 82.1891 16.8401 81.4325 17.6404 C 80.6759 18.4406 79.6319 18.9357 78.4786 18.9357 C 77.3253 18.9357 76.2812 18.4406 75.5246 17.6404 C 74.768 16.8401 74.3 15.7346 74.3 14.5152 C 74.3 13.2958 74.768 12.1904 75.5246 11.3901 C 76.2812 10.5898 77.3253 10.0948 78.4786 10.0948 Z "/>
  </g>
  <g id="ID0.6876808349043131">
    <path id="ID0.18508467869833112" fill="#663B00" stroke="#663B00" stroke-width="4.185049848502633" d="M 20.2566 7.4051 C 22.1504 7.3191 24.1946 7.6695 25.7487 8.8022 C 26.8837 9.6297 27.799 11.0891 27.7828 12.6173 C 27.7584 14.5045 26.9284 16.4324 25.5473 17.7457 C 24.1662 19.059 22.2602 19.8714 20.1549 19.8714 C 18.0496 19.8714 16.1437 19.059 14.7626 17.7457 C 13.3814 16.4324 12.5393 14.5045 12.5271 12.6173 C 12.5169 11.0031 13.7109 9.4663 14.968 8.5872 C 16.4976 7.5168 18.4483 7.2439 20.2566 7.4051 Z "/>
    <path id="ID0.18508467869833112" fill="#000000" stroke="#000000" stroke-width="2.4319300672167667" d="M 20.0286 9.2448 C 21.1819 9.2448 22.2259 9.7398 22.9825 10.5401 C 23.7391 11.3404 24.2071 12.4458 24.2071 13.6652 C 24.2071 14.8846 23.7391 15.9901 22.9825 16.7904 C 22.2259 17.5906 21.1819 18.0857 20.0286 18.0857 C 18.8753 18.0857 17.8312 17.5906 17.0746 16.7904 C 16.318 15.9901 15.85 14.8846 15.85 13.6652 C 15.85 12.4458 16.318 11.3404 17.0746 10.5401 C 17.8312 9.7398 18.8753 9.2448 20.0286 9.2448 Z "/>
  </g>
</svg>