<svg xmlns="http://www.w3.org/2000/svg" xmlns:xlink="http://www.w3.org/1999/xlink" version="1.1" width="90.71275871025631" height="25.994315793386193" viewBox="0.018619452778949608 0.7338630307361029 90.71275871025631 25.994315793386193">
  <!-- Exported by Scratch - http://scratch.mit.edu/ -->
  <g id="ID0.9197121113538742">
    <path id="ID0.061451652087271214" fill="#FFFFFF" stroke="#FFFFFF" stroke-width="4.214559247365685" stroke-linecap="round" d="M 71.1743 5.2531 C 74.5038 6.0875 77.9745 6.804 80.9732 8.3086 C 83.7674 9.5772 87.6617 10.6182 88.3486 13.4714 C 89.004 16.0992 86.922 18.904 84.4818 20.6383 C 81.3209 22.8783 77.5573 24.1132 73.1235 24.1132 C 68.6898 24.1132 64.8588 23.0048 61.7653 20.6383 C 59.2303 18.7038 57.3274 15.3132 58.0038 12.3124 C 58.5054 8.8439 61.5693 5.9232 64.7471 4.3048 C 66.6584 3.2933 68.8858 4.6841 71.1743 5.2531 Z "/>
    <path id="ID0.9226711289957166" fill="#000000" stroke="#663B00" stroke-width="3.469029437726789" d="M 70.2783 7.2957 C 72.4326 7.2957 74.3839 8.1213 75.7958 9.4569 C 77.2094 10.7907 78.0836 12.6328 78.0836 14.6674 C 78.0836 16.702 77.2094 18.544 75.7958 19.8779 C 74.3839 21.2134 72.4326 22.0391 70.2783 22.0391 C 68.124 22.0391 66.1727 21.2134 64.7608 19.8779 C 63.3472 18.544 62.473 16.702 62.473 14.6674 C 62.473 12.6328 63.3472 10.7907 64.7608 9.4569 C 66.1727 8.1213 68.124 7.2957 70.2783 7.2957 Z "/>
    <path id="ID0.061451652087271214" fill="none" stroke="#000000" stroke-width="4.214559247365685" stroke-linecap="round" d="M 71.7988 3.3373 C 75.632 3.5375 79.6147 4.5659 82.9674 6.8144 C 85.4793 8.496 88.3326 10.8667 88.5517 13.9791 C 89.0237 16.6216 87.1251 19.4117 84.6849 21.146 C 81.5239 23.386 77.7603 24.6209 73.3266 24.6209 C 68.8929 24.6209 64.8764 23.2933 61.9684 21.146 C 59.0582 19.0008 57.2586 16.0379 57.2586 12.7674 C 57.2586 9.4969 59.3532 6.2306 61.9684 4.3889 C 64.6425 2.5008 68.4483 2.7073 71.7988 3.3373 Z "/>
    <path id="ID0.6023254403844476" fill="none" stroke="#000000" stroke-width="4.061302661895752" stroke-linecap="round" d="M 87.4521 17.322 L 85.2184 10.7224 L 76.8927 6.6611 L 71.0038 4.6305 L 62.272 5.8488 L 59.8352 6.458 "/>
  </g>
  <g id="ID0.9197121113538742">
    <path id="ID0.061451652087271214" fill="#FFFFFF" stroke="#FFFFFF" stroke-width="4.214559247365685" stroke-linecap="round" d="M 19.9971 3.5172 C 16.0123 3.9092 12.4236 6.1387 9.25 8.4693 C 7.3008 9.8918 6.0027 12.2646 5.4569 14.6858 C 4.9469 16.5571 4.5971 19.2944 6.2682 20.5883 C 9.3912 23.0096 13.1927 24.0632 17.6265 24.0632 C 22.0602 24.0632 25.9628 23.0875 28.9847 20.5883 C 31.5155 18.5021 32.6197 14.7385 32.2194 11.5249 C 32.1625 9.2153 29.8445 7.5485 27.7941 6.2567 C 25.4782 4.7669 22.7366 3.2475 19.9971 3.5172 Z "/>
    <path id="ID0.9226711289957166" fill="#000000" stroke="#663B00" stroke-width="3.469029437726789" d="M 20.4717 7.2457 C 18.3174 7.2457 16.3661 8.0713 14.9542 9.4069 C 13.5406 10.7407 12.6664 12.5828 12.6664 14.6174 C 12.6664 16.652 13.5406 18.494 14.9542 19.8279 C 16.3661 21.1634 18.3174 21.9891 20.4717 21.9891 C 22.626 21.9891 24.5773 21.1634 25.9892 19.8279 C 27.4028 18.494 28.277 16.652 28.277 14.6174 C 28.277 12.5828 27.4028 10.7407 25.9892 9.4069 C 24.5773 8.0713 22.626 7.2457 20.4717 7.2457 Z "/>
    <path id="ID0.061451652087271214" fill="none" stroke="#000000" stroke-width="4.214559247365685" stroke-linecap="round" d="M 18.9512 3.2873 C 15.118 3.4875 11.1353 4.5159 7.7826 6.7644 C 5.2707 8.446 2.4174 10.8167 2.1983 13.9291 C 1.7263 16.5716 3.6249 19.3617 6.0651 21.096 C 9.2261 23.336 12.9897 24.5709 17.4234 24.5709 C 21.8571 24.5709 25.8736 23.2433 28.7816 21.096 C 31.6918 18.9508 33.4914 15.9879 33.4914 12.7174 C 33.4914 9.4469 31.3968 6.1806 28.7816 4.3389 C 26.1075 2.4508 22.3017 2.6573 18.9512 3.2873 Z "/>
    <path id="ID0.6023254403844476" fill="none" stroke="#000000" stroke-width="4.061302661895752" stroke-linecap="round" d="M 3.2979 17.272 L 5.5316 10.6724 L 13.8573 6.6111 L 19.7462 4.5805 L 28.478 5.7988 L 30.9148 6.408 "/>
  </g>
</svg>