<svg xmlns="http://www.w3.org/2000/svg" xmlns:xlink="http://www.w3.org/1999/xlink" version="1.1" width="86.03763389587402" height="28.89923095703125" viewBox="0.9811851978302002 0.4466853141784668 86.03763389587402 28.89923095703125">
  <!-- Exported by Scratch - http://scratch.mit.edu/ -->
  <g id="ID0.2903512082993984">
    <path id="ID0.9226711289957166" fill="#000000" stroke="#663B00" stroke-width="2.9948427035656096" d="M 67.8909 10.6111 C 69.7507 10.6111 71.4353 11.3239 72.6542 12.4769 C 73.8746 13.6284 74.6293 15.2187 74.6293 16.9751 C 74.6293 18.7316 73.8746 20.3219 72.6542 21.4734 C 71.4353 22.6264 69.7507 23.3392 67.8909 23.3392 C 66.0311 23.3392 64.3465 22.6264 63.1276 21.4734 C 61.9072 20.3219 61.1525 18.7316 61.1525 16.9751 C 61.1525 15.2187 61.9072 13.6284 63.1276 12.4769 C 64.3465 11.3239 66.0311 10.6111 67.8909 10.6111 Z "/>
    <path id="ID0.9635360310785472" fill="none" stroke="#000000" stroke-width="4.426229476928711" stroke-linecap="round" d="M 82.5926 27.1328 L 84.8057 19.9402 Z "/>
    <path id="ID0.9450755049474537" fill="none" stroke="#000000" stroke-width="4.426229476928711" stroke-linecap="round" d="M 84.8057 19.9402 L 84.5844 11.0877 L 80.1582 5.5549 L 72.4123 3.0098 L 64.6664 3.6738 L 59.1336 6.1082 "/>
  </g>
  <g id="ID0.2903512082993984">
    <path id="ID0.9226711289957166" fill="#000000" stroke="#663B00" stroke-width="2.9948427035656096" d="M 20.1091 10.2611 C 18.2493 10.2611 16.5647 10.9739 15.3458 12.1269 C 14.1254 13.2784 13.3707 14.8687 13.3707 16.6251 C 13.3707 18.3816 14.1254 19.9719 15.3458 21.1234 C 16.5647 22.2764 18.2493 22.9892 20.1091 22.9892 C 21.9689 22.9892 23.6535 22.2764 24.8724 21.1234 C 26.0928 19.9719 26.8475 18.3816 26.8475 16.6251 C 26.8475 14.8687 26.0928 13.2784 24.8724 12.1269 C 23.6535 10.9739 21.9689 10.2611 20.1091 10.2611 Z "/>
    <path id="ID0.9635360310785472" fill="none" stroke="#000000" stroke-width="4.426229476928711" stroke-linecap="round" d="M 5.4074 26.7828 L 3.1943 19.5902 Z "/>
    <path id="ID0.9450755049474537" fill="none" stroke="#000000" stroke-width="4.426229476928711" stroke-linecap="round" d="M 3.1943 19.5902 L 3.4156 10.7377 L 7.8418 5.2049 L 15.5877 2.6598 L 23.3336 3.3238 L 28.8664 5.7582 "/>
  </g>
</svg>