<svg xmlns="http://www.w3.org/2000/svg" xmlns:xlink="http://www.w3.org/1999/xlink" version="1.1" width="83.59234718379606" height="26.01424697932829" viewBox="0.6288771435756007 0.7147772118586817 83.59234718379606 26.01424697932829">
  <!-- Exported by Scratch - http://scratch.mit.edu/ -->
  <g id="ID0.18397949263453484">
    <path id="ID0.011761995032429695" fill="#000000" stroke="#000000" stroke-width="3.4375" d="M 67.9164 5.1422 C 70.1095 5.1422 72.0964 5.9844 73.5367 7.3456 C 74.9753 8.7069 75.8656 10.5872 75.8656 12.6617 C 75.8656 14.7362 74.9753 16.6166 73.5367 17.9778 C 72.0964 19.3391 70.1095 20.1813 67.9164 20.1813 C 65.7233 20.1813 63.7364 19.3391 62.2961 17.9778 C 60.8575 16.6166 59.9672 14.7362 59.9672 12.6617 C 59.9672 10.5872 60.8575 8.7069 62.2961 7.3456 C 63.7364 5.9844 65.7233 5.1422 67.9164 5.1422 Z "/>
    <path id="ID0.23291047476232052" fill="#FFFFFF" stroke="#FFFFFF" stroke-width="3.879845657917158" d="M 70.4029 3.55 C 73.447 3.55 76.2057 4.866 78.2019 6.994 C 80.2 9.12 81.4601 12.272 81.4357 15.3 C 81.4131 18.014 80.0366 20.646 78.0554 22.05 C 75.8526 23.716 72.8874 24.026 70.262 24.05 C 67.3005 23.736 64.1362 23.052 61.8114 21.25 C 60.0856 19.91 58.9945 17.32 58.9945 15.05 C 59.2856 12.1 60.6433 9.03 62.6039 6.994 C 64.6151 4.902 67.3588 3.55 70.4029 3.55 Z "/>
    <g id="ID0.6685607857070863">
      <path id="ID0.9226711289957166" fill="#000000" stroke="#663B00" stroke-width="3.262442111968994" d="M 68.4468 6.6909 C 70.4728 6.6909 72.3079 7.4673 73.6358 8.7234 C 74.9652 9.9778 75.7873 11.7102 75.7873 13.6236 C 75.7873 15.537 74.9652 17.2694 73.6358 18.5238 C 72.3079 19.7798 70.4728 20.5563 68.4468 20.5563 C 66.4209 20.5563 64.5857 19.7798 63.2579 18.5238 C 61.9285 17.2694 61.1063 15.537 61.1063 13.6236 C 61.1063 11.7102 61.9285 9.9778 63.2579 8.7234 C 64.5857 7.4673 66.4209 6.6909 68.4468 6.6909 Z "/>
      <path id="ID0.024549963418394327" fill="none" stroke="#000000" stroke-width="3.4375" stroke-linecap="round" d="M 59.7656 7.4297 L 64.0625 3.4766 L 68.9609 3.3047 L 74.9766 3.7344 L 80.5625 8.4609 L 82.2813 12.7578 L 82.2813 19.6328 L 77.9844 24.7891 "/>
    </g>
  </g>
  <g id="ID0.18397949263453484">
    <path id="ID0.011761995032429695" fill="#000000" stroke="#000000" stroke-width="3.4375" d="M 16.9336 4.4922 C 14.7405 4.4922 12.7536 5.3344 11.3133 6.6956 C 9.8747 8.0569 8.9844 9.9372 8.9844 12.0117 C 8.9844 14.0862 9.8747 15.9666 11.3133 17.3278 C 12.7536 18.6891 14.7405 19.5313 16.9336 19.5313 C 19.1267 19.5313 21.1136 18.6891 22.5539 17.3278 C 23.9925 15.9666 24.8828 14.0862 24.8828 12.0117 C 24.8828 9.9372 23.9925 8.0569 22.5539 6.6956 C 21.1136 5.3344 19.1267 4.4922 16.9336 4.4922 Z "/>
    <path id="ID0.23291047476232052" fill="#FFFFFF" stroke="#FFFFFF" stroke-width="3.879845657917158" d="M 14.4471 2.9 C 11.403 2.9 8.6443 4.216 6.6481 6.344 C 4.65 8.47 3.3899 11.622 3.4143 14.65 C 3.4369 17.364 4.8134 19.996 6.7946 21.4 C 8.9974 23.066 11.9626 23.376 14.588 23.4 C 17.5495 23.086 20.7138 22.402 23.0386 20.6 C 24.7644 19.26 25.8555 16.67 25.8555 14.4 C 25.5644 11.45 24.2067 8.38 22.2461 6.344 C 20.2349 4.252 17.4912 2.9 14.4471 2.9 Z "/>
    <g id="ID0.6685607857070863">
      <path id="ID0.9226711289957166" fill="#000000" stroke="#663B00" stroke-width="3.262442111968994" d="M 16.4032 6.0409 C 14.3772 6.0409 12.5421 6.8173 11.2142 8.0734 C 9.8848 9.3278 9.0627 11.0602 9.0627 12.9736 C 9.0627 14.887 9.8848 16.6194 11.2142 17.8738 C 12.5421 19.1298 14.3772 19.9063 16.4032 19.9063 C 18.4291 19.9063 20.2643 19.1298 21.5921 17.8738 C 22.9215 16.6194 23.7437 14.887 23.7437 12.9736 C 23.7437 11.0602 22.9215 9.3278 21.5921 8.0734 C 20.2643 6.8173 18.4291 6.0409 16.4032 6.0409 Z "/>
      <path id="ID0.024549963418394327" fill="none" stroke="#000000" stroke-width="3.4375" stroke-linecap="round" d="M 25.0844 6.7797 L 20.7875 2.8266 L 15.8891 2.6547 L 9.8734 3.0844 L 4.2875 7.8109 L 2.5688 12.1078 L 2.5688 18.9828 L 6.8656 24.1391 "/>
    </g>
  </g>
</svg>