<svg xmlns="http://www.w3.org/2000/svg" xmlns:xlink="http://www.w3.org/1999/xlink" version="1.1" width="95.86848068237305" height="26.182279586791992" viewBox="0.16576027870178223 0.23096036911010742 95.86848068237305 26.182279586791992">
  <!-- Exported by Scratch - http://scratch.mit.edu/ -->
  <g id="ID0.9220602582208812">
    <path id="ID0.32139866054058075" fill="#FFFFFF" stroke="#000000" stroke-width="4.687679290771484" d="M 75.2858 2.9748 C 80.1845 2.9748 84.6237 4.1561 87.8371 6.0663 C 91.0505 7.9742 93.0404 10.611 93.0404 13.5221 C 93.0404 16.4331 91.0505 19.0699 87.8371 20.9778 C 84.6237 22.8881 80.1845 24.0694 75.2858 24.0694 C 70.3872 24.0694 65.948 22.8881 62.7346 20.9778 C 59.5212 19.0699 57.5312 16.4331 57.5312 13.5221 C 57.5312 10.611 59.5212 7.9742 62.7346 6.0663 C 65.948 4.1561 70.3872 2.9748 75.2858 2.9748 Z "/>
    <path id="ID0.8102533821947873" fill="#000000" stroke="#663B00" stroke-width="4.535322010601292" d="M 75.2352 4.8766 C 77.1173 4.8766 78.8232 5.8766 80.0565 7.4932 C 81.2919 9.1098 82.0568 11.3406 82.0568 13.8048 C 82.0568 16.269 81.2919 18.4998 80.0565 20.1164 C 78.8232 21.733 77.1173 22.733 75.2352 22.733 C 73.3531 22.733 71.6472 21.733 70.4139 20.1164 C 69.1785 18.4998 68.4137 16.269 68.4137 13.8048 C 68.4137 11.3406 69.1785 9.1098 70.4139 7.4932 C 71.6472 5.8766 73.3531 4.8766 75.2352 4.8766 Z "/>
    <path id="ID0.32139866054058075" fill="none" stroke="#000000" stroke-width="4.687679290771484" d="M 75.9358 2.9748 C 80.8345 2.9748 85.2737 4.1561 88.4871 6.0663 C 91.7005 7.9742 93.6904 10.611 93.6904 13.5221 C 93.6904 16.4331 91.7005 19.0699 88.4871 20.9778 C 85.2737 22.8881 80.8345 24.0694 75.9358 24.0694 C 71.0372 24.0694 66.598 22.8881 63.3846 20.9778 C 60.1712 19.0699 58.1812 16.4331 58.1812 13.5221 C 58.1812 10.611 60.1712 7.9742 63.3846 6.0663 C 66.598 4.1561 71.0372 2.9748 75.9358 2.9748 Z "/>
  </g>
  <g id="ID0.9220602582208812">
    <path id="ID0.32139866054058075" fill="#FFFFFF" stroke="#000000" stroke-width="4.687679290771484" d="M 20.9142 2.5748 C 16.0155 2.5748 11.5763 3.7561 8.3629 5.6663 C 5.1495 7.5742 3.1596 10.211 3.1596 13.1221 C 3.1596 16.0331 5.1495 18.6699 8.3629 20.5778 C 11.5763 22.4881 16.0155 23.6694 20.9142 23.6694 C 25.8128 23.6694 30.252 22.4881 33.4654 20.5778 C 36.6788 18.6699 38.6688 16.0331 38.6688 13.1221 C 38.6688 10.211 36.6788 7.5742 33.4654 5.6663 C 30.252 3.7561 25.8128 2.5748 20.9142 2.5748 Z "/>
    <path id="ID0.8102533821947873" fill="#000000" stroke="#663B00" stroke-width="4.535322010601292" d="M 20.9648 4.4766 C 19.0827 4.4766 17.3768 5.4766 16.1435 7.0932 C 14.9081 8.7098 14.1432 10.9406 14.1432 13.4048 C 14.1432 15.869 14.9081 18.0998 16.1435 19.7164 C 17.3768 21.333 19.0827 22.333 20.9648 22.333 C 22.8469 22.333 24.5528 21.333 25.7861 19.7164 C 27.0215 18.0998 27.7863 15.869 27.7863 13.4048 C 27.7863 10.9406 27.0215 8.7098 25.7861 7.0932 C 24.5528 5.4766 22.8469 4.4766 20.9648 4.4766 Z "/>
    <path id="ID0.32139866054058075" fill="none" stroke="#000000" stroke-width="4.687679290771484" d="M 20.2642 2.5748 C 15.3655 2.5748 10.9263 3.7561 7.7129 5.6663 C 4.4995 7.5742 2.5096 10.211 2.5096 13.1221 C 2.5096 16.0331 4.4995 18.6699 7.7129 20.5778 C 10.9263 22.4881 15.3655 23.6694 20.2642 23.6694 C 25.1628 23.6694 29.602 22.4881 32.8154 20.5778 C 36.0288 18.6699 38.0188 16.0331 38.0188 13.1221 C 38.0188 10.211 36.0288 7.5742 32.8154 5.6663 C 29.602 3.7561 25.1628 2.5748 20.2642 2.5748 Z "/>
  </g>
</svg>