<svg xmlns="http://www.w3.org/2000/svg" xmlns:xlink="http://www.w3.org/1999/xlink" version="1.1" width="114.30583801865578" height="33.451521307229996" viewBox="-0.5278219133615494 -0.31169910728931427 114.30583801865578 33.451521307229996">
  <!-- Exported by Scratch - http://scratch.mit.edu/ -->
  <g id="ID0.05930587695911527">
    <path id="ID0.2911133565939963" fill="#000000" stroke="#000000" d="M 28.8871 8.5423 L 32.9516 8.5423 L 32.9516 22.9991 L 28.8871 22.9991 L 28.8871 8.5423 Z " stroke-width="0.5679482092217422"/>
    <path id="ID0.2911133565939963" fill="#000000" stroke="#000000" d="M 32.0629 9.2923 L 27.9984 9.2923 L 27.9984 23.7491 L 32.0629 23.7491 L 32.0629 9.2923 Z " stroke-width="0.5679482092217422"/>
    <path id="ID0.07257126178592443" d="M 43.4249 13.2493 C 43.4249 13.2493 36.3112 -3.7411 21.5756 1.9753 C 9.984 9.883 0.5837 10.9945 0.5837 10.9945 C 2.9655 12.8047 5.6014 14.202 9.984 13.2493 C 10.6192 15.6629 8.3008 17.1873 4.6805 18.3306 C 10.2381 17.4413 14.5571 17.4096 17.0025 18.6799 C 15.6369 21.2523 13.2868 23.0307 9.7617 23.9834 C 12.9692 25.095 16.1768 25.8254 19.4161 23.9834 C 20.4006 25.8889 20.0512 27.6356 16.272 29.0329 C 19.9242 30.335 22.1155 29.3187 23.5128 27.0639 L 23.7669 31.4783 L 43.4249 13.2493 Z " stroke-width="0.31757766008377075"/>
    <path id="ID0.9788038195110857" fill="#FFFFFF" stroke="#000000" stroke-width="1.270310640335083" stroke-linecap="round" stroke-linejoin="round" d="M 43.9966 24.2693 C 40.9796 29.4458 33.6435 31.6371 26.5616 29.8586 C 25.7041 29.6681 24.8466 29.3823 23.9892 29.0329 C 23.7034 28.9377 23.4493 28.8106 23.1635 28.7153 C 15.1605 25.1902 11.4766 17.4413 14.97 11.4709 C 18.4633 5.4687 27.7684 3.4997 35.7713 7.0248 C 36.5017 7.3424 37.2322 7.7235 37.8991 8.1046 C 44.4412 11.979 47.1724 18.8387 43.9966 24.2693 Z "/>
    <path id="ID0.7153200088068843" fill="#E8E7E7" d="M 26.5616 29.8586 L 23.9892 29.0329 C 23.7034 28.9377 23.4493 28.8106 23.1635 28.7153 C 15.1605 25.1902 11.4766 17.4413 14.97 11.4709 C 18.4633 5.4687 27.7684 3.4997 35.7713 7.0248 C 36.5017 7.3424 38.2484 8.3904 38.9153 8.7715 C 19.0667 8.8032 16.3038 20.8077 26.5616 29.8586 Z " stroke-width="0.31757766008377075"/>
    <path id="ID0.43500413512811065" fill="none" stroke="#000000" stroke-width="2.2230436205863953" stroke-linecap="round" stroke-linejoin="round" d="M 43.9966 24.2693 C 40.9796 29.4458 33.6435 31.6371 26.5616 29.8586 C 25.7041 29.6681 24.8466 29.3823 23.9892 29.0329 C 23.7034 28.9377 23.4493 28.8106 23.1635 28.7153 C 15.1605 25.1902 11.4766 17.4413 14.97 11.4709 C 18.4633 5.4687 27.7684 3.4997 35.7713 7.0248 C 36.5017 7.3424 37.2322 7.7235 37.8991 8.1046 C 44.4412 11.979 47.1724 18.8387 43.9966 24.2693 Z "/>
    <path id="ID0.21841015992686152" fill="#2395D2" stroke="#000000" stroke-width="1.270310640335083" stroke-linecap="round" stroke-linejoin="round" d="M 36.4294 17.4913 C 36.4294 18.2218 36.3977 18.9204 36.3342 19.6191 C 35.8578 24.2557 33.9206 27.7491 31.5705 27.7491 C 29.3157 27.7491 27.442 24.5098 26.9021 20.159 C 26.7751 19.3015 26.7433 18.4123 26.7433 17.4913 C 26.7433 11.8385 28.9028 7.2336 31.6023 7.2336 C 34.2699 7.2336 36.4294 11.8067 36.4294 17.4913 Z "/>
    <path id="ID0.9270740249194205" fill="#995900" stroke="#000000" stroke-width="1.9054659605026245" stroke-linecap="round" stroke-linejoin="round" d="M 36.4294 17.4913 C 36.4294 18.2218 36.3977 18.9204 36.3342 19.6191 C 35.8578 24.2557 33.9206 27.7491 31.5705 27.7491 C 29.3157 27.7491 27.442 24.5098 26.9021 20.159 C 26.7751 19.3015 26.7433 18.4123 26.7433 17.4913 C 26.7433 11.8385 28.9028 7.2336 31.6023 7.2336 C 34.2699 7.2336 36.4294 11.8067 36.4294 17.4913 Z "/>
    <path id="ID0.7417806307785213" fill="#663B00" d="M 35.9484 17.51 C 35.9484 18.1927 35.9201 18.8457 35.8636 19.4987 C 34.8176 21.3983 33.2627 22.5856 31.5099 22.5856 C 29.9267 22.5856 28.4849 21.6061 27.4672 20.0033 C 27.3541 19.2019 27.3258 18.3708 27.3258 17.51 C 27.3258 12.2266 29.2482 7.9228 31.6512 7.9228 C 34.026 7.9228 35.9484 12.197 35.9484 17.51 Z " stroke-width="0.2898489009521195"/>
    <path id="ID0.827600906137377" fill="#FFFFFF" d="M 31.4205 14.8372 C 31.0788 14.8372 30.7691 15.1291 30.5449 15.6003 C 30.3207 16.0719 30.1819 16.723 30.1819 17.4413 C 30.1819 18.1597 30.3207 18.8107 30.5449 19.2823 C 30.7691 19.7536 31.0788 20.0455 31.4205 20.0455 C 31.7622 20.0455 32.0719 19.7536 32.2961 19.2823 C 32.5203 18.8107 32.6591 18.1597 32.6591 17.4413 C 32.6591 16.723 32.5203 16.0719 32.2961 15.6003 C 32.0719 15.1291 31.7622 14.8372 31.4205 14.8372 Z " stroke-width="0.31757766008377075"/>
    <path id="ID0.2911133565939963" fill="#000000" stroke="#000000" d="M 84.3629 9.5423 L 80.2984 9.5423 L 80.2984 23.9991 L 84.3629 23.9991 L 84.3629 9.5423 Z " stroke-width="0.5679482092217422"/>
    <path id="ID0.2911133565939963" fill="#000000" stroke="#000000" d="M 81.1371 10.2923 L 85.2016 10.2923 L 85.2016 24.7491 L 81.1371 24.7491 L 81.1371 10.2923 Z " stroke-width="0.5679482092217422"/>
    <path id="ID0.07257126178592443" d="M 69.8253 13.7993 C 69.8253 13.7993 76.939 -3.1911 91.6746 2.5253 C 103.2662 10.433 112.6665 11.5445 112.6665 11.5445 C 110.2847 13.3547 107.6488 14.7521 103.2662 13.7993 C 102.6311 16.2129 104.9494 17.7373 108.5698 18.8806 C 103.0122 17.9914 98.6931 17.9596 96.2478 19.2299 C 97.6133 21.8023 99.9634 23.5807 103.4885 24.5335 C 100.281 25.645 97.0735 26.3754 93.8342 24.5335 C 92.8497 26.4389 93.199 28.1856 96.9782 29.5829 C 93.326 30.885 91.1348 29.8688 89.7374 27.614 L 89.4833 32.0283 L 69.8253 13.7993 Z " stroke-width="0.31757768988609314"/>
    <path id="ID0.9788038195110857" fill="#FFFFFF" stroke="#000000" stroke-width="1.2703107595443726" stroke-linecap="round" stroke-linejoin="round" d="M 69.2536 24.8193 C 72.2706 29.9958 79.6067 32.1871 86.6887 30.4086 C 87.5461 30.2181 88.4036 29.9323 89.261 29.5829 C 89.5469 29.4877 89.8009 29.3606 90.0867 29.2654 C 98.0897 25.7402 101.7736 17.9914 98.2803 12.0209 C 94.7869 6.0187 85.4819 4.0497 77.4789 7.5748 C 76.7485 7.8924 76.0181 8.2735 75.3511 8.6546 C 68.809 12.529 66.0779 19.3887 69.2536 24.8193 Z "/>
    <path id="ID0.7153200088068843" fill="#E8E7E7" d="M 86.6887 30.4086 L 89.261 29.5829 C 89.5469 29.4877 89.8009 29.3606 90.0867 29.2654 C 98.0897 25.7402 101.7736 17.9914 98.2803 12.0209 C 94.7869 6.0187 85.4819 4.0497 77.4789 7.5748 C 76.7485 7.8924 75.0018 8.9404 74.3349 9.3215 C 94.1835 9.3532 96.9464 21.3577 86.6887 30.4086 Z " stroke-width="0.31757768988609314"/>
    <path id="ID0.43500413512811065" fill="none" stroke="#000000" stroke-width="2.223043829202652" stroke-linecap="round" stroke-linejoin="round" d="M 69.2536 24.8193 C 72.2706 29.9958 79.6067 32.1871 86.6887 30.4086 C 87.5461 30.2181 88.4036 29.9323 89.261 29.5829 C 89.5469 29.4877 89.8009 29.3606 90.0867 29.2654 C 98.0897 25.7402 101.7736 17.9914 98.2803 12.0209 C 94.7869 6.0187 85.4819 4.0497 77.4789 7.5748 C 76.7485 7.8924 76.0181 8.2735 75.3511 8.6546 C 68.809 12.529 66.0779 19.3887 69.2536 24.8193 Z "/>
    <path id="ID0.21841015992686152" fill="#2395D2" stroke="#000000" stroke-width="1.2703107595443726" stroke-linecap="round" stroke-linejoin="round" d="M 76.8708 18.2414 C 76.8708 18.9718 76.9025 19.6705 76.9661 20.3691 C 77.4424 25.0058 79.3797 28.4991 81.7297 28.4991 C 83.9845 28.4991 85.8582 25.2598 86.3981 20.909 C 86.5251 20.0515 86.5569 19.1623 86.5569 18.2414 C 86.5569 12.5885 84.3974 7.9836 81.698 7.9836 C 79.0303 7.9836 76.8708 12.5567 76.8708 18.2414 Z "/>
    <path id="ID0.9270740249194205" fill="#995900" stroke="#000000" stroke-width="1.9054661393165588" stroke-linecap="round" stroke-linejoin="round" d="M 76.8708 18.2414 C 76.8708 18.9718 76.9025 19.6705 76.9661 20.3691 C 77.4424 25.0058 79.3797 28.4991 81.7297 28.4991 C 83.9845 28.4991 85.8582 25.2598 86.3981 20.909 C 86.5251 20.0515 86.5569 19.1623 86.5569 18.2414 C 86.5569 12.5885 84.3974 7.9836 81.698 7.9836 C 79.0303 7.9836 76.8708 12.5567 76.8708 18.2414 Z "/>
    <path id="ID0.7417806307785213" fill="#663B00" d="M 77.3516 18.26 C 77.3516 18.9427 77.3799 19.5957 77.4364 20.2487 C 78.4824 22.1483 80.0373 23.3356 81.7901 23.3356 C 83.3733 23.3356 84.8151 22.3561 85.8328 20.7533 C 85.9459 19.9519 85.9742 19.1208 85.9742 18.26 C 85.9742 12.9766 84.0518 8.6728 81.6488 8.6728 C 79.274 8.6728 77.3516 12.947 77.3516 18.26 Z " stroke-width="0.2898489009521195"/>
    <path id="ID0.827600906137377" fill="#FFFFFF" d="M 81.8297 15.3872 C 82.1714 15.3872 82.4811 15.6791 82.7053 16.1504 C 82.9295 16.622 83.0683 17.273 83.0683 17.9914 C 83.0683 18.7097 82.9295 19.3607 82.7053 19.8324 C 82.4811 20.3036 82.1714 20.5955 81.8297 20.5955 C 81.488 20.5955 81.1784 20.3036 80.9542 19.8324 C 80.73 19.3607 80.5912 18.7097 80.5912 17.9914 C 80.5912 17.273 80.73 16.622 80.9542 16.1504 C 81.1784 15.6791 81.488 15.3872 81.8297 15.3872 Z " stroke-width="0.31757768988609314"/>
  </g>
</svg>