<svg xmlns="http://www.w3.org/2000/svg" xmlns:xlink="http://www.w3.org/1999/xlink" version="1.1" width="79.02232110500336" height="20.349284529685974" viewBox="-0.6301558017730713 -0.09580236673355103 79.02232110500336 20.349284529685974">
  <!-- Exported by Scratch - http://scratch.mit.edu/ -->
  <path id="L_Eye_3_" d="M 21.1716 18.6074 C 20.8764 18.6074 20.5737 18.5677 20.2653 18.4825 C 18.5623 17.9849 17.5822 16.1968 18.0855 14.4938 C 18.3144 13.6991 18.3617 12.8779 18.2369 12.0567 C 17.7487 8.9706 14.7704 6.8665 11.6446 7.3585 C 8.4979 7.8542 6.3333 10.7719 6.8176 13.8637 C 7.0939 15.6178 5.8962 17.264 4.1383 17.5383 C 2.3711 17.8146 0.7381 16.6187 0.4638 14.859 C -0.5769 8.2705 3.987 2.0491 10.6436 0.997 C 17.2775 -0.0323 23.5482 4.4635 24.5983 11.0482 C 24.8746 12.8174 24.7648 14.5809 24.2577 16.2952 C 23.8471 17.6973 22.5642 18.6074 21.1716 18.6074 L 21.1716 18.6074 L 21.1716 18.6074 L 21.1716 18.6074 L 21.1716 18.6074 Z " stroke-width="1.892163634300232"/>
  <path id="L_Eye_3_" d="M 73.8716 19.3074 C 73.5764 19.3074 73.2737 19.2677 72.9653 19.1825 C 71.2623 18.6849 70.2822 16.8968 70.7855 15.1938 C 71.0144 14.3991 71.0617 13.5779 70.9369 12.7567 C 70.4487 9.6706 67.4704 7.5665 64.3446 8.0585 C 61.1979 8.5542 59.0333 11.4719 59.5176 14.5637 C 59.7939 16.3178 58.5962 17.964 56.8383 18.2383 C 55.0711 18.5146 53.4381 17.3187 53.1638 15.559 C 52.1231 8.9705 56.687 2.7491 63.3436 1.697 C 69.9775 0.6677 76.2482 5.1635 77.2983 11.7482 C 77.5746 13.5174 77.4648 15.2809 76.9577 16.9952 C 76.5471 18.3973 75.2642 19.3074 73.8716 19.3074 L 73.8716 19.3074 L 73.8716 19.3074 L 73.8716 19.3074 L 73.8716 19.3074 Z " stroke-width="1.892163634300232"/>
</svg>