<svg version="1.1" xmlns="http://www.w3.org/2000/svg" xmlns:xlink="http://www.w3.org/1999/xlink" width="91.58022" height="29.40371" viewBox="0,0,91.58022,29.40371"><g transform="translate(-195.60989,-160.7792)"><g data-paper-data="{&quot;isPaintingLayer&quot;:true}" fill-rule="nonzero" stroke-linejoin="miter" stroke-miterlimit="10" stroke-dasharray="" stroke-dashoffset="0" style="mix-blend-mode: normal"><g><path d="M266.8728,164.0638c3.9103,-0.723 8.5773,1.361 11.1842,3.9653c2.149,2.1508 2.0332,5.5013 2.4829,8.3543c-0.1535,1.8468 -0.3204,3.9147 -1.6158,5.4114c-2.3645,2.6827 -5.9812,4.5479 -9.6949,5.872c-2.8169,0.981 -6.4982,1.0385 -9.1562,-0.5757c-2.6392,-1.6142 -3.7164,-4.5847 -4.3089,-7.4838c-0.5682,-2.8048 -0.4578,-6.0148 1.0772,-8.5201c2.4318,-3.0465 5.8816,-6.2427 10.0315,-7.0234z" fill="#ffffff" stroke="#ffffff" stroke-width="5.01097" stroke-linecap="butt"/><g><path d="M267.1878,166.6419c2.5304,0 4.8223,0.9697 6.4807,2.5384c1.6604,1.5667 2.6872,3.7303 2.6872,6.1201c0,2.3897 -1.0268,4.5533 -2.6872,6.12c-1.6584,1.5687 -3.9503,2.5384 -6.4807,2.5384c-2.5303,0 -4.8222,-0.9697 -6.4806,-2.5384c-1.6604,-1.5667 -2.6872,-3.7303 -2.6872,-6.12c0,-2.3898 1.0268,-4.5534 2.6872,-6.1201c1.6584,-1.5687 3.9503,-2.5384 6.4806,-2.5384z" fill="#000000" stroke="#663b00" stroke-width="4.07459" stroke-linecap="butt"/><path d="M254.991,164.0311l13.953,-1.0733l8.0498,3.2199l5.9031,6.4398l2.1466,13.953" fill="none" stroke="#000000" stroke-width="4.29322" stroke-linecap="round"/></g></g><g><path d="M225.9587,171.2372c1.535,2.5053 1.6454,5.7153 1.0772,8.5201c-0.5925,2.8991 -1.6697,5.8696 -4.3089,7.4838c-2.658,1.6142 -6.3393,1.5567 -9.1562,0.5757c-3.7137,-1.3241 -7.3304,-3.1893 -9.6949,-5.872c-1.2954,-1.4967 -1.4623,-3.5646 -1.6158,-5.4114c0.4497,-2.853 0.3339,-6.2035 2.4829,-8.3543c2.6069,-2.6043 7.2739,-4.6883 11.1842,-3.9653c4.1499,0.7807 7.5997,3.9769 10.0315,7.0234z" fill="#ffffff" stroke="#ffffff" stroke-width="5.01097" stroke-linecap="butt"/><g><path d="M222.0928,169.3303c1.6604,1.5667 2.6872,3.7303 2.6872,6.1201c0,2.3897 -1.0268,4.5533 -2.6872,6.12c-1.6584,1.5687 -3.9503,2.5384 -6.4806,2.5384c-2.5304,0 -4.8223,-0.9697 -6.4807,-2.5384c-1.6604,-1.5667 -2.6872,-3.7303 -2.6872,-6.12c0,-2.3898 1.0268,-4.5534 2.6872,-6.1201c1.6584,-1.5687 3.9503,-2.5384 6.4807,-2.5384c2.5303,0 4.8222,0.9697 6.4806,2.5384z" fill="#000000" stroke="#663b00" stroke-width="4.07459" stroke-linecap="butt"/><path d="M197.7565,186.7205l2.1466,-13.953l5.9031,-6.4398l8.0498,-3.2199l13.953,1.0733" fill="none" stroke="#000000" stroke-width="4.29322" stroke-linecap="round"/></g></g></g></g></svg>