<svg version="1.1" xmlns="http://www.w3.org/2000/svg" xmlns:xlink="http://www.w3.org/1999/xlink" width="22.76591" height="9.91298" viewBox="0,0,22.76591,9.91298"><g transform="translate(-362.96022,-143.85177)"><g data-paper-data="{&quot;isPaintingLayer&quot;:true}" fill="none" fill-rule="nonzero" stroke="#000000" stroke-linecap="butt" stroke-linejoin="miter" stroke-miterlimit="10" stroke-dasharray="" stroke-dashoffset="0" style="mix-blend-mode: normal"><path d="M367.7678,145.6426c0.5681,0.0667 1.0462,0.433 1.3613,0.9715c0.3142,0.5383 0.4646,1.2477 0.376,2.0015c-0.0886,0.7539 -0.3993,1.4091 -0.8297,1.8599c-0.4313,0.4508 -0.9814,0.6963 -1.5494,0.6295c-0.5681,-0.0667 -1.0462,-0.433 -1.3613,-0.9715c-0.3142,-0.5383 -0.4646,-1.2477 -0.376,-2.0015c0.0886,-0.7538 0.3993,-1.4091 0.8297,-1.8599c0.4313,-0.4508 0.9813,-0.6963 1.5494,-0.6295z" stroke-width="4.80669"/><path d="M381.0663,146.1401c0.4997,-0.1041 1.0148,0.1032 1.4447,0.5223c0.4291,0.4193 0.772,1.0496 0.9268,1.7927c0.1548,0.743 0.0921,1.4578 -0.1338,2.0136c-0.2268,0.5559 -0.6162,0.9517 -1.1159,1.0558c-0.4998,0.1041 -1.0148,-0.1032 -1.4447,-0.5224c-0.4291,-0.4193 -0.772,-1.0496 -0.9268,-1.7926c-0.1548,-0.7431 -0.0921,-1.4579 0.1338,-2.0136c0.2268,-0.556 0.6162,-0.9517 1.1159,-1.0558z" stroke-width="4.57666"/></g></g></svg>