<svg version="1.1" xmlns="http://www.w3.org/2000/svg" xmlns:xlink="http://www.w3.org/1999/xlink" width="31.9804" height="21.0617" viewBox="0,0,31.9804,21.0617"><g transform="translate(-231.5098,-137.68221)"><g data-paper-data="{&quot;isPaintingLayer&quot;:true}" fill="none" fill-rule="nonzero" stroke="#000000" stroke-width="3" stroke-linecap="round" stroke-linejoin="miter" stroke-miterlimit="10" stroke-dasharray="" stroke-dashoffset="0" style="mix-blend-mode: normal"><path d="M258.3872,139.18221c0,0 0.5917,2.0879 0.9661,3.1031c0.3607,0.9787 0.9645,1.8706 1.2383,2.8773c0.2918,1.0717 0.2569,2.2104 0.4451,3.3056c0.1913,1.1156 0.5699,2.2034 0.694,3.3288c0.1939,1.7556 0.2595,5.2969 0.2595,5.2969"/><path d="M233.0098,157.24391c0,0 0.0656,-3.5413 0.2595,-5.2969c0.1241,-1.1254 0.5027,-2.2132 0.694,-3.3288c0.1882,-1.0952 0.1533,-2.2339 0.4451,-3.3056c0.2738,-1.0067 0.8776,-1.8986 1.2383,-2.8773c0.3744,-1.0152 0.9661,-3.1031 0.9661,-3.1031"/><path d="M234.5,147.05001l25.75,0.25"/></g></g></svg>