<svg xmlns="http://www.w3.org/2000/svg" xmlns:xlink="http://www.w3.org/1999/xlink" version="1.1" width="100.4045156193554" height="15.919515009003826" viewBox="1.9256923818201088 0.9976924085229897 100.4045156193554 15.919515009003826">
  <!-- Exported by Scratch - http://scratch.mit.edu/ -->
  <path id="ID0.8466213163919747" fill="#663B00" stroke="#663B00" stroke-width="2.2068151188671066" stroke-linecap="round" d="M 72.0237 8.3085 L 64.0494 15.8138 L 73.3707 9.6064 L 78.5971 6.9542 L 82.9075 5.6563 L 85.9248 5.2613 L 88.8343 5.2613 L 92.9293 6.2206 L 95.8388 7.5185 L 100.3109 10.5658 L 101.2268 10.9043 L 100.0415 8.3085 L 96.8086 5.3741 L 92.606 2.8347 L 91.4206 2.5526 L 89.3731 2.1011 L 84.4161 2.2704 L 80.7523 3.1169 L 77.1423 5.092 L 72.0237 8.3085 Z "/>
  <path id="ID0.8466213163919747" fill="#663B00" stroke="#663B00" stroke-width="2.1478548983283146" stroke-linecap="round" d="M 31.9565 8.1616 L 39.8555 15.3461 L 30.6222 9.404 L 25.4452 6.8651 L 21.1754 5.6227 L 18.1866 5.2445 L 15.3046 5.2445 L 11.2483 6.1629 L 8.3663 7.4053 L 3.9365 10.3223 L 3.0291 10.6465 L 4.2033 8.1616 L 7.4056 5.3526 L 11.5686 2.9217 L 12.7427 2.6516 L 14.7709 2.2195 L 19.681 2.3815 L 23.3103 3.1918 L 26.8862 5.0825 L 31.9565 8.1616 Z "/>
</svg>