<svg xmlns="http://www.w3.org/2000/svg" xmlns:xlink="http://www.w3.org/1999/xlink" version="1.1" width="101.5369975566864" height="45.02139163017273" viewBox="0.9474538564682007 0.17225396633148193 101.5369975566864 45.02139163017273">
  <!-- Exported by Scratch - http://scratch.mit.edu/ -->
  <path id="ID0.21504630660638213" fill="none" stroke="#000000" stroke-width="3.531092405319214" d="M 24.341 1.9378 C 30.3085 1.9378 35.7146 4.2613 39.6306 8.0183 C 43.5466 11.7719 45.9689 16.9591 45.9689 22.683 C 45.9689 28.4069 43.5466 33.5941 39.6306 37.3476 C 35.7146 41.1047 30.3085 43.4281 24.341 43.4281 C 18.3734 43.4281 12.9673 41.1047 9.0513 37.3476 C 5.1353 33.5941 2.713 28.4069 2.713 22.683 C 2.713 16.9591 5.1353 11.7719 9.0513 8.0183 C 12.9673 4.2613 18.3734 1.9378 24.341 1.9378 Z "/>
  <path id="ID0.21504630660638213" fill="none" stroke="#000000" stroke-width="3.531092405319214" d="M 79.091 1.9378 C 85.0585 1.9378 90.4646 4.2613 94.3806 8.0183 C 98.2966 11.7719 100.7189 16.9591 100.7189 22.683 C 100.7189 28.4069 98.2966 33.5941 94.3806 37.3476 C 90.4646 41.1047 85.0585 43.4281 79.091 43.4281 C 73.1234 43.4281 67.7173 41.1047 63.8013 37.3476 C 59.8853 33.5941 57.463 28.4069 57.463 22.683 C 57.463 16.9591 59.8853 11.7719 63.8013 8.0183 C 67.7173 4.2613 73.1234 1.9378 79.091 1.9378 Z "/>
  <path id="ID0.761134488042444" fill="#000000" stroke="#000000" stroke-width="1" d="M 45.25 18 L 57.5 18 L 57.5 24.5 L 45.25 24.5 L 45.25 18 Z "/>
</svg>