<svg xmlns="http://www.w3.org/2000/svg" xmlns:xlink="http://www.w3.org/1999/xlink" version="1.1" width="115.93101492898256" height="41.41871253030092" viewBox="0.11269359103545007 -0.5421063471664542 115.93101492898256 41.41871253030092">
  <!-- Exported by Scratch - http://scratch.mit.edu/ -->
  <g id="ID0.265473616309464">
    <path id="ID0.336079437751323" fill="none" stroke="#000000" d="M 26.6532 1.9739 C 33.2803 1.9739 39.2864 3.9919 43.6367 7.2556 C 47.987 10.5155 50.6777 15.021 50.6777 19.9922 C 50.6777 24.9635 47.987 29.469 43.6367 32.7289 C 39.2864 35.9925 33.2803 38.0106 26.6532 38.0106 C 20.0262 38.0106 14.02 35.9925 9.6698 32.7289 C 5.3195 29.469 2.6287 24.9635 2.6287 19.9922 C 2.6287 15.021 5.3195 10.5155 9.6698 7.2556 C 14.02 3.9919 20.0262 1.9739 26.6532 1.9739 Z " stroke-width="3.696075677871704"/>
    <path id="ID0.336079437751323" fill="none" stroke="#000000" d="M 89.5032 2.3239 C 96.1303 2.3239 102.1364 4.3419 106.4867 7.6056 C 110.837 10.8655 113.5277 15.371 113.5277 20.3422 C 113.5277 25.3135 110.837 29.819 106.4867 33.0789 C 102.1364 36.3425 96.1303 38.3606 89.5032 38.3606 C 82.8762 38.3606 76.87 36.3425 72.5198 33.0789 C 68.1695 29.819 65.4787 25.3135 65.4787 20.3422 C 65.4787 15.371 68.1695 10.8655 72.5198 7.6056 C 76.87 4.3419 82.8762 2.3239 89.5032 2.3239 Z " stroke-width="3.696075677871704"/>
    <path id="ID0.5695689511485398" fill="none" stroke="#000000" stroke-linecap="round" d="M 50.4098 20.1822 L 67.1332 20.1822 Z " stroke-width="5.032012853787254"/>
  </g>
</svg>