<svg version="1.1" xmlns="http://www.w3.org/2000/svg" xmlns:xlink="http://www.w3.org/1999/xlink" width="37.25" height="7.66104" viewBox="0,0,37.25,7.66104"><g transform="translate(-357.5,-254.05754)"><g data-paper-data="{&quot;isPaintingLayer&quot;:true}" fill="none" fill-rule="nonzero" stroke="#000000" stroke-width="3" stroke-linecap="round" stroke-linejoin="miter" stroke-miterlimit="10" stroke-dasharray="" stroke-dashoffset="0" style="mix-blend-mode: normal"><path d="M359,259c0,0 2.31,0.771 3.5,1c0.984,0.189 2.019,0.454 3,0.25c1.093,-0.228 2.038,-0.932 3,-1.5c0.875,-0.517 1.618,-1.246 2.5,-1.75c0.873,-0.499 1.777,-0.996 2.75,-1.25c0.97,-0.253 2.036,-0.525 3,-0.25c2.041,0.583 3.887,1.734 5.75,2.75c0.892,0.487 1.551,1.391 2.5,1.75c1.136,0.429 2.378,0.547 3.5,0.25c1.701,-0.216 4.75,-1.75 4.75,-1.75"/></g></g></svg>