<svg version="1.1" xmlns="http://www.w3.org/2000/svg" xmlns:xlink="http://www.w3.org/1999/xlink" width="38.5" height="10.5" viewBox="0,0,38.5,10.5"><g transform="translate(-420.75,-252)"><g data-paper-data="{&quot;isPaintingLayer&quot;:true}" fill="none" fill-rule="nonzero" stroke="#000000" stroke-width="3" stroke-linecap="round" stroke-linejoin="miter" stroke-miterlimit="10" stroke-dasharray="" stroke-dashoffset="0" style="mix-blend-mode: normal"><path d="M422.25,260.75c0,0 1.428,-1.435 2.25,-2.25c0.888,-0.876 1.921,-1.621 3,-2.25c0.935,-0.545 2.016,-0.799 3,-1.25c1.015,-0.465 1.883,-1.5 3,-1.5c1.117,0 2.042,0.929 3,1.5c0.93,0.551 1.846,1.63 3,1.75c0.966,0.104 1.867,-0.636 2.75,-1c0.792,-0.474 1.367,-1.341 2.25,-1.5c1.353,-0.23 3.226,0.044 4.75,0.5c1.347,0.41 2.536,1.444 3.75,2.25c0.882,0.578 1.555,1.315 2.25,2c0.891,0.643 2.5,2 2.5,2"/></g></g></svg>