<svg version="1.1" xmlns="http://www.w3.org/2000/svg" xmlns:xlink="http://www.w3.org/1999/xlink" width="28.13909" height="8.20762" viewBox="0,0,28.13909,8.20762"><g transform="translate(-297.2718,-199.68671)"><g data-paper-data="{&quot;isPaintingLayer&quot;:true}" fill="none" fill-rule="nonzero" stroke="#000000" stroke-width="2.46139" stroke-linecap="round" stroke-linejoin="miter" stroke-miterlimit="10" stroke-dasharray="" stroke-dashoffset="0" style="mix-blend-mode: normal"><path d="M310.9302,201.46401c0,0 -1.2058,3.0488 -1.9449,3.8261c-1.1864,1.221 -2.51,1.7578 -3.7925,1.913c-1.2501,0.1694 -2.5298,-0.2186 -3.7924,-0.8199c-0.5018,-0.3214 -0.9861,-1.0921 -1.4392,-1.913c-0.5399,-0.9784 -1.4587,-3.5528 -1.4587,-3.5528"/><path d="M324.1802,201.86401c0,0 -1.2058,3.0488 -1.9449,3.8261c-1.1864,1.221 -2.51,1.7578 -3.7925,1.913c-1.2501,0.1694 -2.5298,-0.2186 -3.7924,-0.8199c-0.5018,-0.3214 -0.9861,-1.0921 -1.4392,-1.913c-0.5399,-0.9784 -1.4587,-3.5528 -1.4587,-3.5528"/></g></g></svg>