<svg version="1.1" xmlns="http://www.w3.org/2000/svg" xmlns:xlink="http://www.w3.org/1999/xlink" width="36.02038" height="18.04858" viewBox="0,0,36.02038,18.04858"><g transform="translate(-293.56481,-250.91571)"><g data-paper-data="{&quot;isPaintingLayer&quot;:true}" fill="none" fill-rule="nonzero" stroke="#000000" stroke-width="2.65119" stroke-linecap="round" stroke-linejoin="miter" stroke-miterlimit="10" stroke-dasharray="" stroke-dashoffset="0" style="mix-blend-mode: normal"><g><path d="M294.8904,252.5413c0,0 1.1904,1.6491 1.6719,2.5549c0.428,0.8046 0.8627,1.6426 1.0449,2.555c0.3804,1.9008 0.8201,3.8714 0.627,5.8066c-0.1004,1.0025 -0.9062,1.7588 -1.4629,2.555c-0.423,0.6048 -1.4629,1.6259 -1.4629,1.6259"/><path d="M327.8416,267.3387c0,0 -1.0399,-1.0211 -1.4629,-1.6259c-0.5567,-0.7962 -1.3625,-1.5525 -1.4629,-2.555c-0.1931,-1.9352 0.2466,-3.9058 0.627,-5.8066c0.1822,-0.9124 0.6169,-1.7504 1.0449,-2.555c0.4815,-0.9058 1.6719,-2.5549 1.6719,-2.5549"/><path d="M324.566,260.2061h-26.5408"/></g></g></g></svg>