<svg version="1.1" xmlns="http://www.w3.org/2000/svg" xmlns:xlink="http://www.w3.org/1999/xlink" width="28.72554" height="14.29583" viewBox="0,0,28.72554,14.29583"><g transform="translate(-426.84128,-197.685)"><g data-paper-data="{&quot;isPaintingLayer&quot;:true}" fill-rule="nonzero" stroke-linecap="round" stroke-linejoin="miter" stroke-miterlimit="10" stroke-dasharray="" stroke-dashoffset="0" style="mix-blend-mode: normal"><g><path d="M430.47261,204.2727l-0.9963,-2.1818l-1.0275,-2.8687l5.1372,0.6061l7.1608,0.404l7.0986,-0.0808l3.3314,-0.5252l2.9577,-0.5657l-0.3113,1.3333l-0.685,1.899l-1.2453,2.6262l-1.4011,1.697l-1.868,1.8585l-2.9578,1.4142l-3.5804,1.01h-2.1794l-2.4907,-0.606l-2.6464,-1.6565l-2.4908,-2.1818z" fill="#000000" stroke="#000000" stroke-width="2.16407"/><path d="M434.42641,202.3847l2.5738,0.3258l3.4783,0.4886l3.9304,-0.093l-0.5566,0.093l4.6608,-0.6515l0.1044,2.4201l-2.5739,1.3496l-2.7478,0.6516l-2.5391,0.2327l-2.9565,-0.3258l-3.2695,-1.1868z" fill="#ffffff" stroke="#ffffff" stroke-width="1.77548"/></g></g></g></svg>