<svg version="1.1" xmlns="http://www.w3.org/2000/svg" xmlns:xlink="http://www.w3.org/1999/xlink" width="12.24705" height="18.87095" viewBox="0,0,12.24705,18.87095"><g transform="translate(-370.66892,-192.18343)"><g data-paper-data="{&quot;isPaintingLayer&quot;:true}" fill="none" fill-rule="nonzero" stroke="#000000" stroke-linecap="round" stroke-linejoin="miter" stroke-miterlimit="10" stroke-dasharray="" stroke-dashoffset="0" style="mix-blend-mode: normal"><path d="M372.29991,201.9599c0,0 4.8708,0.6617 6.1288,1.1028c1.9773,0.7089 2.8767,1.5266 3.1708,2.3308c0.3153,0.7833 -0.2505,1.6034 -1.1545,2.4197c-0.4897,0.327 -1.6911,0.6577 -2.9733,0.9703c-1.5281,0.3725 -5.5678,1.0359 -5.5678,1.0359" stroke-width="2.46997"/><path d="M372.34671,193.4225c0,0 4.887,0.661 6.1492,1.1018c1.9838,0.7086 2.886,1.5262 3.181,2.3304c0.3162,0.7833 -0.2518,1.6035 -1.1589,2.4198c-0.4914,0.3272 -1.6969,0.658 -2.9835,0.9709c-1.5333,0.3727 -5.5867,1.0368 -5.5867,1.0368" stroke-width="2.47813"/></g></g></svg>