<svg version="1.1" xmlns="http://www.w3.org/2000/svg" xmlns:xlink="http://www.w3.org/1999/xlink" width="39.75412" height="13.09644" viewBox="0,0,39.75412,13.09644"><defs><radialGradient cx="376.7919" cy="153.4455" r="25.4965" gradientUnits="userSpaceOnUse" id="color-1"><stop offset="0" stop-color="#ff090d"/><stop offset="1" stop-color="#960a10"/></radialGradient></defs><g transform="translate(-356.30513,-144.5)"><g data-paper-data="{&quot;isPaintingLayer&quot;:true}" fill-rule="nonzero" stroke-width="2" stroke-linecap="round" stroke-linejoin="miter" stroke-miterlimit="10" stroke-dasharray="" stroke-dashoffset="0" style="mix-blend-mode: normal"><g><path d="M357.6,146.5l14.5,-0.6l0.9,0.8l1.25,0.8l2.25,0.1l1.4,-0.9l0.85,-1.2h16c-0.15,0.55 -0.581,2.054 -1,2.7c-0.43,0.662 -1.088,1.147 -1.65,1.7c-0.52,0.512 -1.012,1.067 -1.6,1.5c-0.619,0.455 -1.338,0.76 -2,1.15c-0.637,0.376 -1.247,0.802 -1.9,1.15c-0.598,0.319 -1.206,0.638 -1.85,0.85c-1.593,0.523 -3.202,1.044 -4.85,1.35c-1.973,0.366 -3.938,0.866 -5.9,0.7c-2.498,-0.292 -4.893,-1.288 -7.25,-2.05c-0.751,-0.243 -1.476,-0.579 -2.15,-1c-1.859,-1.335 -2.474,-1.708 -3.35,-2.25c-0.573,-0.349 -1.232,-0.573 -1.75,-1c-0.546,-0.451 -1.064,-0.977 -1.4,-1.6c-0.266,-0.495 -0.938,-1.532 -0.35,-1.65z" fill="url(#color-1)" stroke="#561610"/><path d="M393.75,146.5l-7.35,3.3l-7.25,1.3h-7.4l-5.85,-1l-7.15,-2.2" fill="none" stroke="#551510"/></g></g></g></svg>