<svg xmlns="http://www.w3.org/2000/svg" xmlns:xlink="http://www.w3.org/1999/xlink" version="1.1" width="106.34214735031128" height="37.052104473114014" viewBox="0.028925657272338867 0.5890107154846191 106.34214735031128 37.052104473114014">
  <!-- Exported by Scratch - http://scratch.mit.edu/ -->
  <g id="ID0.1910773441195488">
    <path id="ID0.3560335310176015" fill="none" stroke="#000000" stroke-linecap="round" d="M 26.447 3.483 C 32.3655 4.3107 38.2775 6.1566 42.8691 9.7235 C 45.6445 11.5792 47.2735 15.3628 46.9747 18.5914 C 46.5575 23.0812 44.8135 27.7451 41.3189 30.8982 C 37.8275 34.048 33.0027 35.9989 27.6786 35.9989 C 22.3546 35.9989 18.0388 33.6177 14.0384 30.8982 C 9.6668 27.9291 3.8829 24.9271 2.1422 19.9052 C 0.9335 14.7059 1.9451 7.3685 6.4119 4.4684 C 12.1104 0.7701 19.8321 2.5634 26.447 3.483 Z " stroke-width="3.284430980682373"/>
    <path id="ID0.3560335310176015" fill="none" stroke="#000000" stroke-linecap="round" d="M 79.953 3.483 C 74.0345 4.3107 68.1225 6.1566 63.5309 9.7235 C 60.7555 11.5792 59.1265 15.3628 59.4253 18.5914 C 59.8425 23.0812 61.5865 27.7451 65.0811 30.8982 C 68.5725 34.048 73.3973 35.9989 78.7214 35.9989 C 84.0454 35.9989 88.3612 33.6177 92.3616 30.8982 C 96.7332 27.9291 102.5171 24.9271 104.2578 19.9052 C 105.4665 14.7059 104.4549 7.3685 99.9881 4.4684 C 94.2896 0.7701 86.5679 2.5634 79.953 3.483 Z " stroke-width="3.284430980682373"/>
    <path id="ID0.30794960958883166" fill="none" stroke="#000000" stroke-linecap="round" d="M 47.4673 18.763 L 58.9628 19.2557 Z " stroke-width="3.284430980682373"/>
  </g>
</svg>