<svg xmlns="http://www.w3.org/2000/svg" xmlns:xlink="http://www.w3.org/1999/xlink" version="1.1" width="188.5" height="187.5" viewBox="0.5 0.5 188.5 187.5">
  <!-- Exported by Scratch - http://scratch.mit.edu/ -->
  <g id="ID0.2138257105834782">
    <path id="ID0.5561431520618498" fill="#663B00" stroke="#8E4D28" stroke-width="2" stroke-linecap="round" d="M 133 74.5 L 147.5 95 L 158.5 106.5 L 173.5 129 L 188 187 L 184.5 120.5 L 179.5 80 L 175.5 71 L 169.75 62.75 L 164.5 54.5 L 157.75 46.25 L 150.5 39 L 144.75 35 L 136.5 30.25 L 125.5 26.5 L 117.25 25.25 L 109.25 24.75 L 101.5 24.5 L 93 25 L 84.5 29 L 78 33 L 59 47 L 43.5 66.5 L 33 90.5 L 31.5 138.5 L 36 186 L 46 130 L 74 119 L 95.5 101 L 133 74.5 Z "/>
    <path id="ID0.9846921036951244" fill="#001966" stroke="#000000" stroke-width="1.9999999751535176" d="M 54.3114 44.2336 L 72.327 29.9355 L 75.7462 34.2436 L 57.7305 48.5417 L 54.3114 44.2336 Z "/>
    <path id="ID0.23606509109959006" fill="#663B00" stroke="#8E4D28" stroke-width="2" stroke-linecap="round" d="M 42.5 34 L 29 37 L 19.5 48 L 24.5 136 L 19 131 L 16.5 138 L 11.5 132 L 10 136.5 L 7 133 L 4.5 137 L 1.5 46.5 L 9.5 14 L 39.5 1.5 L 48 3 L 59 12 L 70 32.5 L 57 44.5 L 49.5 35 L 44 34 Z "/>
  </g>
</svg>