<svg xmlns="http://www.w3.org/2000/svg" xmlns:xlink="http://www.w3.org/1999/xlink" version="1.1" width="163.71818827493732" height="107.11918162210529" viewBox="0.5267598683449406 0.03945994921652263 163.71818827493732 107.11918162210529">
  <!-- Exported by Scratch - http://scratch.mit.edu/ -->
  <g id="ID0.43591013737022877">
    <path id="ID0.07325528981164098" fill="#663B00" stroke="#8E4D28" d="M 131.3987 1.6206 C 140.0246 1.6206 147.8393 4.5883 153.4991 9.3857 C 159.1589 14.1832 162.6638 20.8073 162.6638 28.1173 C 162.6638 35.4272 159.1589 42.0514 153.4991 46.8488 C 147.8393 51.6463 140.0246 54.6139 131.3987 54.6139 C 122.7727 54.6139 114.958 51.6463 109.2983 46.8488 C 103.6385 42.0514 100.1336 35.4272 100.1336 28.1173 C 100.1336 20.8073 103.6385 14.1832 109.2983 9.3857 C 114.958 4.5883 122.7727 1.6206 131.3987 1.6206 Z " stroke-width="3.162280071812316"/>
    <path id="ID0.01496666157618165" fill="#663B00" stroke="#8E4D28" stroke-linecap="round" d="M 72.6548 70.0409 L 98.6289 70.5084 L 118.5103 83.445 L 141.5984 105.5775 L 149.6151 86.5623 L 152.0201 70.5084 L 147.5307 50.0905 L 134.5437 33.569 L 112.8986 20.3207 L 84.0385 13.3069 L 60.7901 12.5276 L 31.93 22.6586 L 16.6983 36.6863 L 4.5129 51.4932 L 2.1079 74.0933 L 2.5889 86.5623 L 8.5212 101.9927 L 17.0189 89.0561 L 31.6093 75.496 L 44.7567 69.4174 L 72.6548 70.0409 Z " stroke-width="3.162280071812316"/>
  </g>
</svg>