<svg xmlns="http://www.w3.org/2000/svg" xmlns:xlink="http://www.w3.org/1999/xlink" version="1.1" width="166.87112140655518" height="194.65591144561768" viewBox="-0.7855558395385742 0.2867443561553955 166.87112140655518 194.65591144561768">
  <!-- Exported by Scratch - http://scratch.mit.edu/ -->
  <path id="ID0.6180554362945259" fill="#663B00" stroke="#8D4C28" stroke-width="6.150311470031738" stroke-linecap="round" d="M 7.8036 86.0836 L 14.7227 105.3034 L 26.5621 95.0016 L 39.4777 83.0085 L 50.087 70.7079 L 56.2373 54.5633 L 59.4663 46.8754 L 100.9809 47.4904 L 103.5947 55.4858 L 112.5127 70.4003 L 122.5069 82.3935 L 136.0376 95.0016 L 146.9544 105.3034 L 153.1047 83.7773 L 150.7984 59.9448 L 145.1093 45.4916 L 137.5752 26.4256 L 120.5081 11.3574 L 103.5947 5.9758 L 80.9923 3.3619 L 57.4674 5.3608 L 42.0916 9.3585 L 33.0199 16.8926 L 23.4869 28.8857 L 14.1077 44.8766 L 10.8788 67.6327 L 7.8036 86.0836 Z "/>
  <path id="ID0.043893029913306236" fill="#663B00" stroke="#8D4C28" stroke-width="2.9070312839462935" stroke-linecap="round" d="M 135.9135 131.0421 L 146.5047 100.1852 L 158.0587 117.294 L 152.5568 129.8201 L 162.7353 141.4296 L 154.2073 155.1778 L 163.0104 168.6204 L 151.4564 188.7843 L 141.828 178.3968 L 129.9989 190.0064 L 118.72 178.3968 L 104.6901 190.6174 L 94.6491 164.4959 L 103.8648 160.5243 L 112.3928 156.5526 L 125.8725 146.4706 L 135.9135 131.0421 Z "/>
  <path id="ID0.043893029913306236" fill="#663B00" stroke="#8D4C28" stroke-width="2.907031409229182" stroke-linecap="round" d="M 29.3865 132.2922 L 18.7953 101.4353 L 7.2413 118.5441 L 12.7432 131.0701 L 2.5647 142.6797 L 11.0927 156.4278 L 2.2896 169.8705 L 13.8436 190.0344 L 23.472 179.6469 L 35.3011 191.2564 L 46.58 179.6469 L 60.6099 191.8675 L 70.6509 165.746 L 61.4352 161.7743 L 52.9072 157.8026 L 39.4275 147.7207 L 29.3865 132.2922 Z "/>
</svg>