<svg xmlns="http://www.w3.org/2000/svg" xmlns:xlink="http://www.w3.org/1999/xlink" version="1.1" width="240" height="213.875929861" viewBox="-0.11304983388663681 0.30775013674019425 240 213.875929861">
  <!-- Exported by Scratch - http://scratch.mit.edu/ -->
  <path id="ID0.8385081188753247" fill="#663B00" stroke="#8D4C28" stroke-linecap="round" d="M 52.95 104.1405 L 54.7851 106.0075 L 57.9548 106.1631 L 61.7919 105.6964 L 64.9616 102.5847 L 67.9645 94.0274 L 71.4679 85.6258 L 87.9839 63.9994 L 104.5 48.1297 L 118.0131 41.7507 L 118.3467 34.5937 L 119.8482 7.5218 L 123.3516 41.2839 L 144.7056 46.7294 L 163.724 67.2667 L 167.2274 77.3798 L 171.0645 86.2482 L 173.7337 93.7163 L 180.5737 101.1844 L 185.0781 102.8958 L 189.7493 100.7176 L 190.7502 98.0727 L 197.4234 81.7362 L 197.4234 63.0659 L 192.4185 48.2853 L 187.08 36.4608 L 179.5727 22.9248 L 164.5582 10.478 L 147.5417 1.9208 L 119.6813 4.2545 L 98.4941 3.0099 L 76.9733 9.5445 L 65.6289 15.9235 L 57.6212 22.9248 L 48.6124 35.994 L 46.9442 56.5313 L 46.9442 78.0021 L 49.4466 95.1165 L 52.95 104.1405 Z " stroke-width="3.2260996677732736"/>
  <g id="ID0.6140080406330526">
    <path id="ID0.8236553422175348" fill="#663B00" stroke="#8D4C28" stroke-width="1.7379392385482788" stroke-linecap="round" d="M 56.1873 107.0114 L 60.4887 122.479 L 66.4845 132.9936 L 74.0011 140.9881 L 81.4743 149.9819 L 95.5081 162.4951 L 77.4336 172.6186 L 60.4887 174.3565 L 46.5851 168.2737 L 37.8954 157.8461 L 32.6816 144.3771 L 33.1161 127.4322 L 42.2403 115.2666 L 56.1873 107.0114 Z "/>
    <path id="ID0.22793092904612422" fill="#663B00" stroke="#8D4C28" stroke-width="2" d="M 44.25 162 C 49.699 162 54.636 163.709 58.212 166.469 C 61.787 169.23 64 173.043 64 177.25 C 64 181.457 61.787 185.27 58.212 188.031 C 54.636 190.791 49.699 192.5 44.25 192.5 C 38.801 192.5 33.864 190.791 30.288 188.031 C 26.713 185.27 24.5 181.457 24.5 177.25 C 24.5 173.043 26.713 169.23 30.288 166.469 C 33.864 163.709 38.801 162 44.25 162 Z "/>
    <path id="ID0.23196275951340795" fill="#663B00" stroke="#8D4C28" stroke-width="2" stroke-linecap="round" d="M 1.5 204.5 L 4 195.5 L 14 183.5 L 22.5 181 L 37.5 183 L 49 187 L 56 194.5 L 58 201.5 L 53.5 213 L 40 211.5 L 44 197.5 L 38 215 L 20.5 211.5 L 17 208 L 24 194 L 16.5 208 L 8.5 208 L 1.5 204.5 Z "/>
    <path id="ID0.595746167935431" fill="none" stroke="#8D4C28" stroke-width="2" stroke-linecap="round" d="M 50.5 162 L 55.5 150 "/>
  </g>
  <g id="ID0.6140080406330526">
    <path id="ID0.8236553422175348" fill="#663B00" stroke="#8D4C28" stroke-width="1.7379392385482788" stroke-linecap="round" d="M 186.3127 104.0114 L 183.3148 119.6528 L 178.492 126.9956 L 168.9768 139.9867 L 161.9816 149.9799 L 150.9891 160.0165 L 165.0664 169.6186 L 182.0113 171.3565 L 195.9149 165.2737 L 204.6046 154.8461 L 209.8184 141.3771 L 209.3839 124.4322 L 200.2597 112.2666 L 186.3127 104.0114 Z "/>
    <path id="ID0.22793092904612422" fill="#663B00" stroke="#8D4C28" stroke-width="2" d="M 198.25 159 C 192.801 159 187.864 160.709 184.288 163.469 C 180.713 166.23 178.5 170.043 178.5 174.25 C 178.5 178.457 180.713 182.27 184.288 185.031 C 187.864 187.791 192.801 189.5 198.25 189.5 C 203.699 189.5 208.636 187.791 212.212 185.031 C 215.787 182.27 218 178.457 218 174.25 C 218 170.043 215.787 166.23 212.212 163.469 C 208.636 160.709 203.699 159 198.25 159 Z "/>
    <path id="ID0.23196275951340795" fill="#663B00" stroke="#8D4C28" stroke-width="2" stroke-linecap="round" d="M 241 201.5 L 238.5 192.5 L 228.5 180.5 L 220 178 L 205 180 L 193.5 184 L 186.5 191.5 L 184.5 198.5 L 189 210 L 202.5 208.5 L 198.5 194.5 L 204.5 212 L 222 208.5 L 225.5 205 L 218.5 191 L 226 205 L 234 205 L 241 201.5 Z "/>
    <path id="ID0.595746167935431" fill="none" stroke="#8D4C28" stroke-width="2" stroke-linecap="round" d="M 192 159 L 187 147 "/>
  </g>
</svg>