<svg xmlns="http://www.w3.org/2000/svg" xmlns:xlink="http://www.w3.org/1999/xlink" version="1.1" width="163.5" height="186.5" viewBox="0 0.5 163.5 186.5">
  <!-- Exported by Scratch - http://scratch.mit.edu/ -->
  <path id="ID0.5561431520618498" fill="#663B00" stroke="#8E4D28" stroke-width="2" stroke-linecap="round" d="M 105 51.5 L 112.75 65.5 L 117.25 72.5 L 121.75 78.5 L 128 86.25 L 136 96.25 L 145.5 106 L 145 118.5 L 142.5 133.5 L 135.5 147.5 L 126 164.5 L 118 177 L 106.5 186 L 122.5 182.5 L 128.75 180.25 L 134 177.75 L 139 173.25 L 143 167.5 L 152 154.5 L 156.5 146.25 L 160 138.5 L 162.25 127.75 L 162.5 118.5 L 162.5 106 L 162.25 105.25 L 161.75 97.25 L 160.5 90.25 L 159.25 84 L 158 76 L 155.25 66 L 151.5 57 L 149 51.25 L 144.5 44 L 141.5 39 L 136.5 31.5 L 131.5 25.75 L 127.25 20.75 L 122 15.5 L 114 10 L 106.5 6.5 L 97.5 3.5 L 90.25 2.25 L 81.5 1.5 L 70 2.5 L 63.75 4.5 L 57 6.5 L 50 10 L 44.5 13.25 L 37.25 18.25 L 31 24 L 26.5 29.25 L 22 34 L 18.75 38.25 L 15.5 43.5 L 12.5 48.75 L 9.5 54.25 L 7 60.25 L 5 65 L 3.25 71 L 2 75.75 L 1.5 81.25 L 1 88.25 L 1.5 96.75 L 1.75 103 L 2.25 110.75 L 3.5 117.75 L 3.75 122.75 L 4.75 128.75 L 5.5 133 L 7 137.5 L 9.5 142.75 L 12.5 149 L 15.75 154 L 20 160.5 L 25.25 166.75 L 30.5 172 L 34.75 175.75 L 40 179.5 L 45.5 182 L 61.5 186 L 52.5 179 L 45.5 172.5 L 35 159.5 L 26.5 148 L 24.5 142.5 L 20.5 134.5 L 19 128.5 L 17.5 121 L 18 107 L 28.25 102.75 L 36.25 100.25 L 46 96 L 52.75 92 L 60.5 86.5 L 67.75 79.75 L 75 74 L 81.25 69 L 87.25 64.25 L 93.5 58.25 L 105 51.5 Z "/>
</svg>