<svg xmlns="http://www.w3.org/2000/svg" xmlns:xlink="http://www.w3.org/1999/xlink" version="1.1" width="173.95475578308105" height="184.31245231628418" viewBox="0.6726274490356445 0.012027502059936523 173.95475578308105 184.31245231628418">
  <!-- Exported by Scratch - http://scratch.mit.edu/ -->
  <g id="ID0.00960229430347681">
    <path id="ID0.594620356336236" fill="#663B00" stroke="#8E4D28" stroke-linecap="round" d="M 25.187 100.4419 L 63.1447 61.6934 L 73.5831 54.8926 L 86.552 51.4132 L 81.491 71.4991 L 70.5781 93.0085 L 87.501 85.417 L 99.0464 76.8765 L 109.0104 60.9026 L 117.0764 49.5153 L 135.8971 91.7433 L 145.5447 113.569 L 167.5285 79.8815 L 159.6207 62.0097 L 150.1312 46.6684 L 137.4787 25.3172 L 112.9643 5.5476 L 79.7513 1.5936 L 54.4461 7.9199 L 31.9878 22.4704 L 14.116 43.5053 L 8.106 59.9537 L 3.5195 80.9886 L 25.187 100.4419 Z " stroke-width="3.163145065307617"/>
    <path id="ID0.3121076859533787" fill="#663B00" stroke="#8E4D28" stroke-linecap="round" d="M 3.9939 81.5223 L 24.3962 99.7103 L 33.0949 116.3169 L 53.6553 138.4589 L 25.0289 129.6021 L 47.4872 177.5237 L 24.3962 160.6009 L 32.3041 182.7429 L 12.5344 174.0443 L 4.6266 147.1575 L 2.2542 113.9445 L 3.9939 81.5223 Z " stroke-width="3.163145065307617"/>
    <path id="ID0.3121076859533787" fill="#663B00" stroke="#8E4D28" stroke-linecap="round" d="M 167.5103 81.5499 L 161.0258 88.9833 L 145.052 114.9211 L 142.2051 118.7169 L 121.6447 140.8589 L 137.6186 139.1191 L 151.0619 132.0021 L 139.5165 179.1329 L 158.9698 146.5525 L 152.4854 181.5053 L 162.7656 176.4443 L 170.6734 149.5575 L 173.0458 116.3445 L 167.5103 81.5499 Z " stroke-width="3.163145065307617"/>
    <path id="ID0.8335427162237465" fill="#663B00" stroke="#663B00" stroke-width="1.6151202917099" stroke-linecap="round" d="M 18.506 103.894 L 5.5043 86.9756 L 6.9983 80.4747 L 26.9854 95.8184 L 18.506 103.894 Z "/>
    <path id="ID0.015212352853268385" fill="#663B00" stroke="#663B00" stroke-width="1.6151202917099" stroke-linecap="round" d="M 164.6744 78.8596 L 144.9699 106.5186 L 151.9957 118.0263 L 166.2895 86.5314 L 164.6744 78.8596 Z "/>
  </g>
</svg>