<svg xmlns="http://www.w3.org/2000/svg" xmlns:xlink="http://www.w3.org/1999/xlink" version="1.1" width="209.56254313725344" height="108.9891407324683" viewBox="0.21807945600095935 0.16017938485685534 209.56254313725344 108.9891407324683">
  <!-- Exported by Scratch - http://scratch.mit.edu/ -->
  <path id="ID0.07325528981164098" fill="#663B00" stroke="#8D4C28" d="M 174.0244 1.8814 C 183.4145 1.8814 191.9216 5.112 198.0828 10.3345 C 204.244 15.5569 208.0594 22.768 208.0594 30.7255 C 208.0594 38.6831 204.244 45.8941 198.0828 51.1166 C 191.9216 56.3391 183.4145 59.5696 174.0244 59.5696 C 164.6342 59.5696 156.1272 56.3391 149.966 51.1166 C 143.8048 45.8941 139.9893 38.6831 139.9893 30.7255 C 139.9893 22.768 143.8048 15.5569 149.966 10.3345 C 156.1272 5.112 164.6342 1.8814 174.0244 1.8814 Z " stroke-width="3.442441208542515"/>
  <path id="ID0.07325528981164098" fill="#663B00" stroke="#8D4C28" d="M 35.9744 4.7814 C 45.3645 4.7814 53.8716 8.012 60.0328 13.2345 C 66.194 18.4569 70.0094 25.668 70.0094 33.6255 C 70.0094 41.5831 66.194 48.7941 60.0328 54.0166 C 53.8716 59.2391 45.3645 62.4696 35.9744 62.4696 C 26.5842 62.4696 18.0772 59.2391 11.916 54.0166 C 5.7548 48.7941 1.9393 41.5831 1.9393 33.6255 C 1.9393 25.668 5.7548 18.4569 11.916 13.2345 C 18.0772 8.012 26.5842 4.7814 35.9744 4.7814 Z " stroke-width="3.442441208542515"/>
  <path id="ID0.01496666157618165" fill="#663B00" stroke="#8D4C28" stroke-linecap="round" d="M 104.6548 72.7392 L 130.6289 73.1956 L 150.5103 85.8236 L 173.5984 107.4281 L 181.6151 88.8665 L 184.0201 73.1956 L 179.5307 53.2647 L 166.5437 37.1374 L 144.8986 24.2052 L 116.0385 17.3587 L 92.7901 16.598 L 63.93 26.4874 L 48.6983 40.1803 L 36.5129 54.634 L 34.1079 76.6949 L 34.5889 88.8665 L 40.5212 103.9288 L 49.0189 91.3008 L 63.6093 78.0642 L 76.7567 72.1306 L 104.6548 72.7392 Z " stroke-width="3.125853795309626"/>
</svg>