<svg xmlns="http://www.w3.org/2000/svg" xmlns:xlink="http://www.w3.org/1999/xlink" version="1.1" width="217.02154111862183" height="194.10714292526245" viewBox="0.5642285346984863 0.07142853736877441 217.02154111862183 194.10714292526245">
  <!-- Exported by Scratch - http://scratch.mit.edu/ -->
  <g id="ID0.37778185214847326">
    <path id="ID0.5945174810476601" fill="#663B00" stroke="#8E4D28" stroke-width="2.1262996760495394" stroke-linecap="round" d="M 44.9875 90 L 36.9598 103 L 25.5077 111.5 L 29.9988 93 L 34.4898 72 L 37.2967 53.5 L 44.3139 40 L 47.4576 27.5 L 60.9868 15.5 L 76.4808 6 L 97.9815 1.5 L 116.956 4 L 136.4919 8.5 L 156.9822 19.5 L 167.8167 35.5 L 174.8339 49.25 L 179.0443 70.5 L 184.4896 89 L 186.9597 98.5 L 188.4754 107.5 L 189.9911 118 L 180.5039 109 L 174.4971 98 L 163.6064 76.75 L 156.3085 84.5 L 146.4844 58.25 L 134.4148 78.5 L 119.2577 55 L 107.4687 79.25 L 94.5571 56 L 82.4875 77.75 L 71.8213 62.75 L 61.4359 84.25 L 50.489 72.5 L 44.9875 90 Z "/>
    <g id="ID0.6578387226909399">
      <path id="ID0.2741851485334337" fill="#663B00" stroke="#8E4D28" stroke-width="2.857142925262451" stroke-linecap="round" d="M 189.0143 48.4643 L 176.8714 50.6071 L 181.1572 58.4643 L 192.5857 64.8929 L 196.8714 129.1786 L 194.7286 192.0357 L 199.7286 179.1786 L 201.8714 192.0357 L 208.3 176.3214 L 216.1572 192.75 L 214.7286 73.4643 L 201.8714 54.1786 L 189.7286 49.1786 L 191.8714 49.1786 Z "/>
      <path id="ID0.44970284309238195" fill="#001966" stroke="#000000" stroke-width="2" d="M 173.5 45.5 L 178 45.5 L 178 56.5 L 173.5 56.5 L 173.5 45.5 Z "/>
    </g>
    <g id="ID0.6578387226909399">
      <path id="ID0.2741851485334337" fill="#663B00" stroke="#8E4D28" stroke-width="2.857142925262451" stroke-linecap="round" d="M 29.1357 45.2143 L 41.2786 47.3571 L 36.9928 55.2143 L 25.5643 61.6429 L 21.2786 125.9286 L 23.4214 188.7857 L 18.4214 175.9286 L 16.2786 188.7857 L 9.85 173.0714 L 1.9928 189.5 L 3.4214 70.2143 L 16.2786 50.9286 L 28.4214 45.9286 L 26.2786 45.9286 Z "/>
      <path id="ID0.44970284309238195" fill="#001966" stroke="#000000" stroke-width="2" d="M 44.65 42.25 L 40.15 42.25 L 40.15 53.25 L 44.65 53.25 L 44.65 42.25 Z "/>
    </g>
  </g>
</svg>