<svg xmlns="http://www.w3.org/2000/svg" xmlns:xlink="http://www.w3.org/1999/xlink" version="1.1" width="152.67597826750588" height="87.33534868986916" viewBox="0.026402193151356723 0.6138469754084368 152.67597826750588 87.33534868986916">
  <!-- Exported by Scratch - http://scratch.mit.edu/ -->
  <path id="ID0.6779168676584959" fill="#663B00" stroke="#8D4C28" stroke-width="6.024260127857443" stroke-linecap="round" d="M 16.8973 33.5475 C 14.4189 35.5333 11.417 36.9896 9.8467 40.1184 C 7.724 43.2485 7.1258 47.3012 6.3214 51.4681 C 5.3856 56.2695 4.4327 61.1426 4.1848 66.0701 C 3.8644 72.2786 1.1018 82.3049 5.5202 84.3226 C 10.9566 87.1501 17.7444 79.5132 23.8944 75.7605 C 27.2723 73.699 29.6033 70.2171 32.9747 67.3975 C 34.5099 66.0143 35.7725 64.6378 38.3695 64.7426 C 42.3424 64.8488 46.1476 67.6219 50.1205 67.3975 C 54.1724 67.1692 57.9082 64.4864 61.8715 63.4152 C 66.1008 62.2722 70.3674 60.5266 74.6907 60.7603 C 78.7427 60.9793 82.3876 64.6471 86.4417 64.7426 C 90.4862 64.8382 94.2636 61.8169 98.2995 61.955 C 102.2436 61.5806 106.0488 63.4444 109.9971 64.1453 C 114.0672 64.6311 118.5101 62.6346 122.2822 64.8754 C 129.7633 69.2785 134.9337 82.3128 143.0067 81.9995 C 148.4762 81.5867 148.6792 68.4449 149.4697 62.0877 C 150.132 56.7739 149.2689 50.9676 147.3331 46.1583 C 145.5331 41.6848 141.964 38.609 138.787 35.5386 C 135.5127 32.374 131.574 30.3987 128.1043 27.5739 C 121.2535 21.9973 114.9325 15.3348 107.8071 10.317 C 104.1846 7.7657 100.1166 6.1541 96.0561 5.0072 C 92.2243 3.9253 88.23 3.4581 84.3052 3.6798 C 80.3323 3.9041 76.4673 5.4506 72.5542 6.3347 C 68.6411 7.2187 64.6618 7.7909 60.8032 8.9896 C 56.1092 10.4484 51.5605 12.6162 46.9157 14.2994 C 43.0218 15.7105 38.9635 16.5388 35.1647 18.2817 C 32.5517 19.4884 30.4269 22.2349 28.0073 24.1225 C 24.1081 27.0549 20.633 30.501 16.8973 33.5475 Z "/>
</svg>