<svg xmlns="http://www.w3.org/2000/svg" xmlns:xlink="http://www.w3.org/1999/xlink" version="1.1" width="183.17029076491673" height="180.87629967604954" viewBox="0.9221502260621444 0.1868501619752303 183.17029076491673 180.87629967604954">
  <!-- Exported by Scratch - http://scratch.mit.edu/ -->
  <path id="ID0.5945174810476601" fill="#663B00" stroke="#8E4D28" stroke-width="2.1262996760495394" stroke-linecap="round" d="M 54.474 171.5 L 11.0235 170 L 1.9853 175 L 5.4658 153.5 L 8.4973 116.5 L 11.4726 86.5 L 14.9531 59.5 L 17.9845 42.5 L 25.507 27.5 L 39.5414 16.5 L 49.3655 11.25 L 65.084 4.75 L 85.855 1.25 L 102.4156 2.25 L 120.099 5.5 L 138.0069 11 L 151.4799 19.5 L 163.4934 36.5 L 167.9844 60.5 L 172.4754 105.5 L 175.5068 126 L 176.9664 141 L 183.0293 180 L 172.8122 172.25 L 131.4949 172 L 139.4665 138.5 L 143.0031 117.5 L 143.4522 67 L 42.0115 67 L 38.98 104 L 41.5062 133 L 54.474 171.5 Z "/>
</svg>