<svg xmlns="http://www.w3.org/2000/svg" xmlns:xlink="http://www.w3.org/1999/xlink" version="1.1" width="157.54239910624983" height="189.15090435527327" viewBox="0.4940501760315761 0.4379502843689784 157.54239910624983 189.15090435527327">
  <!-- Exported by Scratch - http://scratch.mit.edu/ -->
  <path id="ID0.8385081188753247" fill="#663B00" stroke="#8E4D28" stroke-linecap="round" d="M 20.4582 131.1871 L 12.951 114.8506 L 30.4679 101.6258 L 45.4825 86.8452 L 54.6581 72.0646 L 69.339 47.0153 L 85.6881 65.53 L 102.2041 82.022 L 119.0538 96.4915 L 140.5747 109.4051 L 138.9064 129.6312 L 127.2284 152.1911 L 137.2381 166.1939 L 124.726 177.8628 L 133.0674 187.1979 L 135.5698 177.0848 L 146.4137 164.638 L 141.4088 152.1911 L 145.5795 148.3015 L 150.5844 139.7443 L 153.0868 128.8533 L 149.7502 114.0727 L 156.4234 97.7362 L 156.4234 79.0659 L 151.4185 64.2853 L 143.0771 48.7267 L 132.2333 37.0578 L 123.8918 29.2785 L 118.0528 5.1627 L 102.2041 13.72 L 83.0189 2.051 L 66.336 13.72 L 42.1459 4.3848 L 37.1411 29.2785 L 25.4631 41.7254 L 13.7851 54.9501 L 3.7754 70.5087 L 2.1071 84.5114 L 2.1071 102.4038 L 6.2778 133.5209 L 20.4582 154.5249 L 14.6192 166.9718 L 27.9655 178.6407 L 28.7997 187.9758 L 37.1411 174.7511 L 26.2972 165.4159 L 34.6386 151.4132 L 20.4582 131.1871 Z " stroke-width="3.2260996677732736"/>
</svg>