<svg xmlns="http://www.w3.org/2000/svg" xmlns:xlink="http://www.w3.org/1999/xlink" version="1.1" width="233.86812104351085" height="189.34762848979992" viewBox="1.015937141742503 0.4840372126958721 233.86812104351085 189.34762848979992">
  <!-- Exported by Scratch - http://scratch.mit.edu/ -->
  <path id="ID0.38712474843487144" fill="#663B00" stroke="#8D4C28" stroke-width="2.8861650433645294" stroke-linecap="round" d="M 104.9636 2.6567 L 113.1627 6.8381 L 127.3248 1.9598 L 142.9776 5.4443 L 162.3573 18.6853 L 183.9731 43.0766 L 192.9176 68.1648 L 195.8991 98.1313 L 192.1722 123.9164 L 182.4824 148.3077 L 169.0657 165.0332 L 172.7925 146.9139 L 158.6304 166.427 L 163.8481 137.8543 L 167.5749 103.7064 L 166.8296 82.1027 L 163.1027 98.8282 L 148.1952 70.2555 L 147.4498 97.4344 L 130.3063 70.2555 L 131.797 108.5847 L 117.6349 96.0406 L 109.4358 86.981 L 101.9821 71.6493 L 113.1627 103.7064 L 99.0006 93.253 L 90.0561 84.8903 L 82.6024 73.0431 L 93.0376 100.222 L 82.6024 92.5561 L 75.1487 85.5872 L 66.9496 77.9213 L 68.4403 99.5251 L 71.4218 126.704 L 78.1301 160.8518 L 79.6209 168.5177 L 62.4773 144.8232 L 71.4218 167.8208 L 58.0051 153.186 L 47.5699 132.976 L 42.3522 112.7661 L 40.1161 97.4344 L 39.3707 79.3151 L 42.3522 60.499 L 51.2967 41.6828 L 63.2227 24.9573 L 75.894 14.5039 L 85.5839 8.2318 L 96.0191 3.3536 L 104.9636 2.6567 Z "/>
  <path id="ID0.9153478546068072" fill="#663B00" stroke="#8D4C28" stroke-width="2.9515255845264687" stroke-linecap="round" d="M 182.326 40.7514 L 165.0365 22.9016 L 173.6813 16.7228 L 190.1848 13.9767 L 202.7589 16.7228 L 213.7613 24.2747 L 222.406 37.3188 L 229.4789 53.7955 L 233.4083 72.3319 L 233.4083 92.2413 L 232.6224 110.0912 L 224.7636 132.0602 L 216.9048 151.9696 L 209.8319 170.506 L 207.4742 188.3559 L 203.5448 163.6407 L 198.0436 176.6848 L 198.0436 153.3427 L 198.8295 134.1198 L 198.0436 111.4642 L 198.0436 88.1222 L 196.4718 69.5858 L 190.1848 53.109 L 182.326 40.7514 Z "/>
  <path id="ID0.9153478546068072" fill="#663B00" stroke="#8D4C28" stroke-width="2.9515255845264687" stroke-linecap="round" d="M 53.574 39.1014 L 70.8635 21.2516 L 62.2187 15.0728 L 45.7152 12.3267 L 33.1411 15.0728 L 22.1387 22.6247 L 13.494 35.6688 L 6.4211 52.1455 L 2.4917 70.6819 L 2.4917 90.5913 L 3.2776 108.4412 L 11.1364 130.4102 L 18.9952 150.3196 L 26.0681 168.856 L 28.4258 186.7059 L 32.3552 161.9907 L 37.8564 175.0348 L 37.8564 151.6927 L 37.0705 132.4698 L 37.8564 109.8142 L 37.8564 86.4722 L 39.4282 67.9358 L 45.7152 51.459 L 53.574 39.1014 Z "/>
</svg>