<svg xmlns="http://www.w3.org/2000/svg" xmlns:xlink="http://www.w3.org/1999/xlink" version="1.1" width="146.68078881179173" height="98.37629967604954" viewBox="0.9266501383241073 0.4368501619752303 146.68078881179173 98.37629967604954">
  <!-- Exported by Scratch - http://scratch.mit.edu/ -->
  <path id="ID0.5945174810476601" fill="#663B00" stroke="#8E4D28" stroke-width="2.1262996760495394" stroke-linecap="round" d="M 14.9014 82 L 11.2525 97 L 4.7967 83.75 L 1.9898 63.25 L 4.7967 44.75 L 11.8139 31.25 L 23.0414 16.75 L 32.8655 11.5 L 48.584 5 L 69.355 1.5 L 85.9156 2.5 L 103.599 5.75 L 123.2471 13.5 L 135.3167 26.75 L 142.3339 40.5 L 146.5443 61.75 L 146.5443 81.5 L 142.6146 94.25 L 138.1236 97.75 L 135.8781 96.25 L 131.1064 68 L 123.8085 75.75 L 113.9844 49.5 L 101.9148 69.75 L 86.7577 46.25 L 74.9687 70.5 L 62.0571 47.25 L 49.9875 69 L 39.3213 54 L 28.9359 75.5 L 17.989 63.75 L 15.1821 82.5 Z "/>
</svg>