<svg xmlns="http://www.w3.org/2000/svg" xmlns:xlink="http://www.w3.org/1999/xlink" version="1.1" width="158.41154040255444" height="97.15344561495677" viewBox="0.9582752517943823 0.6580753854995215 158.41154040255444 97.15344561495677">
  <!-- Exported by Scratch - http://scratch.mit.edu/ -->
  <path id="ID0.09842819441109896" fill="#663B00" stroke="#8E4D28" stroke-width="1.6632493869294238" stroke-linecap="round" d="M 154.2082 93.0011 L 151.6101 75.0967 L 147.2801 61.569 L 150.3111 66.7413 L 158.5382 62.3647 L 130.3928 25.7601 L 132.9908 11.8345 L 121.7327 12.2324 L 109.6085 24.1686 L 116.9696 1.4897 L 102.6804 2.6833 L 92.7212 6.2642 L 83.6281 13.8239 L 76.7 24.1686 L 75.401 5.4685 L 50.7196 9.8451 L 32.9663 18.2005 L 19.5431 31.7283 L 10.017 45.256 L 3.9549 58.7838 L 1.7899 74.6989 L 12.615 77.8819 L 14.7801 73.9031 L 12.615 83.4521 L 13.048 96.9799 L 43.7915 89.4203 L 81.0301 77.0861 L 74.968 89.8181 L 94.0203 80.2691 L 84.0611 93.0011 L 106.1444 91.8075 L 126.0627 77.484 L 135.5889 87.4309 L 145.981 92.6033 L 153.3421 94.1948 Z "/>
</svg>