<svg xmlns="http://www.w3.org/2000/svg" xmlns:xlink="http://www.w3.org/1999/xlink" version="1.1" width="134.37173874807814" height="160.07057602835158" viewBox="0.9070738174892524 0.1512854912258247 134.37173874807814 160.07057602835158">
  <defs>
    <radialGradient id="grad_1" cx="0.5215" cy="0.5614" r="0.72982">
      <stop offset="0" stop-color="#975800" stop-opacity="1"/>
      <stop offset="1" stop-color="#744300" stop-opacity="1"/>
    </radialGradient>
    <radialGradient id="grad_2" cx="0.6331" cy="0.9801000000000001" r="1.27413">
      <stop offset="0" stop-color="#975800" stop-opacity="1"/>
      <stop offset="1" stop-color="#744300" stop-opacity="1"/>
    </radialGradient>
  <radialGradient id="grad_1-,0,0,0.9362252354621887,-175,-70" cx="70.9403" cy="89.896" r="107.2905" gradientUnits="userSpaceOnUse">
      <stop offset="0" stop-color="#975800" stop-opacity="1"/>
      <stop offset="1" stop-color="#744300" stop-opacity="1"/>
    </radialGradient><radialGradient id="grad_2-,0,0,0.9362252354621887,-175,-70" cx="85.72" cy="156.1064" r="187.3092" gradientUnits="userSpaceOnUse">
      <stop offset="0" stop-color="#975800" stop-opacity="1"/>
      <stop offset="1" stop-color="#744300" stop-opacity="1"/>
    </radialGradient></defs>
  <!-- Exported by Scratch - http://scratch.mit.edu/ -->
  <path id="ID0.3985812682658434" fill="url(#grad_1-,0,0,0.9362252354621887,-175,-70)" stroke="url(#grad_2-,0,0,0.9362252354621887,-175,-70)" stroke-width="1.9372752471015733" stroke-linecap="round" d="M 59 1.1531 C 80.719 0.4229 104.456 11.827 118 27.3674 C 132.3 43.7663 133.02 68.0062 134 89.1583 C 134.794 106.2847 134.977 126.6859 122.75 139.4804 C 109.932 153.2785 87.55 159.6439 68 159.2347 C 47.794 158.8116 26.071 150.9136 11.75 137.5143 C 1.401 127.5192 1.633 110.5052 2 96.6481 C 2.603 73.8454 2.775 48.9933 15 29.2399 C 23.889 14.8772 41.499 1.7635 59 1.1531 Z " style="stroke-linejoin: round; stroke-linecap: round;"/>
</svg>