<svg version="1.1" xmlns="http://www.w3.org/2000/svg" xmlns:xlink="http://www.w3.org/1999/xlink" width="41.02007" height="15.37328" viewBox="0,0,41.02007,15.37328"><g transform="translate(-221.07436,-170.09956)"><g data-paper-data="{&quot;isPaintingLayer&quot;:true}" fill-rule="nonzero" stroke="#488f18" stroke-linecap="butt" stroke-linejoin="miter" stroke-miterlimit="10" stroke-dasharray="" stroke-dashoffset="0" style="mix-blend-mode: normal"><g><path d="M230.7594,171.3909c2.3154,0 4.4138,0.7051 5.9337,1.8454c1.52,1.1389 2.46,2.7131 2.46,4.4499c0,1.7369 -0.94,3.311 -2.46,4.45c-1.5199,1.1402 -3.6183,1.8453 -5.9337,1.8453c-2.3153,0 -4.4137,-0.7051 -5.9337,-1.8453c-1.5199,-1.139 -2.46,-2.7131 -2.46,-4.45c0,-1.7368 0.9401,-3.311 2.46,-4.4499c1.52,-1.1403 3.6184,-1.8454 5.9337,-1.8454z" fill="none" stroke-width="2.58268"/><path d="M230.976,171.7138c0.7425,0 1.4151,0.5966 1.902,1.5612c0.4869,0.9646 0.7883,2.296 0.7883,3.7655c0,1.4696 -0.3014,2.801 -0.7883,3.7656c-0.4869,0.9646 -1.1595,1.5612 -1.902,1.5612c-0.7426,0 -1.4151,-0.5966 -1.9021,-1.5612c-0.4869,-0.9646 -0.7882,-2.296 -0.7882,-3.7656c0,-1.4695 0.3013,-2.8009 0.7882,-3.7655c0.487,-0.9646 1.1595,-1.5612 1.9021,-1.5612z" fill="#488f18" stroke-width="2.63703"/><path d="M252.4094,171.5909c2.3154,0 4.4138,0.7051 5.9337,1.8454c1.52,1.1389 2.46,2.7131 2.46,4.4499c0,1.7369 -0.94,3.311 -2.46,4.45c-1.5199,1.1402 -3.6183,1.8453 -5.9337,1.8453c-2.3153,0 -4.4137,-0.7051 -5.9337,-1.8453c-1.5199,-1.139 -2.46,-2.7131 -2.46,-4.45c0,-1.7368 0.9401,-3.311 2.46,-4.4499c1.52,-1.1403 3.6184,-1.8454 5.9337,-1.8454z" fill="none" stroke-width="2.58268"/><path d="M252.576,171.9138c0.7425,0 1.4151,0.5966 1.902,1.5612c0.4869,0.9646 0.7883,2.296 0.7883,3.7655c0,1.4696 -0.3014,2.801 -0.7883,3.7656c-0.4869,0.9646 -1.1595,1.5612 -1.902,1.5612c-0.7426,0 -1.4151,-0.5966 -1.9021,-1.5612c-0.4869,-0.9646 -0.7882,-2.296 -0.7882,-3.7656c0,-1.4695 0.3013,-2.8009 0.7882,-3.7655c0.487,-0.9646 1.1595,-1.5612 1.9021,-1.5612z" fill="#488f18" stroke-width="2.63703"/></g></g></g></svg>