<svg version="1.1" xmlns="http://www.w3.org/2000/svg" xmlns:xlink="http://www.w3.org/1999/xlink" width="29.9767" height="33.25137" viewBox="0,0,29.9767,33.25137"><defs><linearGradient x1="226.6946" y1="163.0535" x2="226.6946" y2="194.1727" gradientUnits="userSpaceOnUse" id="color-1"><stop offset="0" stop-color="#e1fb32"/><stop offset="1" stop-color="#8dea40"/></linearGradient></defs><g transform="translate(-225.62754,-161.98646)"><g data-paper-data="{&quot;isPaintingLayer&quot;:true}" fill-rule="nonzero" stroke="#488f18" stroke-linejoin="miter" stroke-miterlimit="10" stroke-dasharray="" stroke-dashoffset="0" style="mix-blend-mode: normal"><path d="M240.6164,163.0535c3.8407,0 7.3209,1.4594 9.8409,3.817c2.52,2.3582 3.9678,5.8272 4.0799,9.2076c0.1099,3.3286 -1.4107,6.5913 -3.4267,9.0906c-2.7713,3.7242 -5.8803,8.8801 -10.4941,9.0021c-4.3969,0.1169 -7.4944,-5.0065 -10.2443,-8.5059c-2.0339,-2.7176 -3.7251,-6.1207 -3.6765,-9.5868c0.0471,-3.3634 1.5598,-6.8494 4.0798,-9.2076c2.5201,-2.3576 6.0003,-3.817 9.841,-3.817z" fill="url(#color-1)" stroke-width="2.13408" stroke-linecap="butt"/><path d="M236.738,175.5755c0.5133,0 0.9779,0.2083 1.3144,0.5453c0.337,0.3365 0.5453,0.8011 0.5453,1.3144c0,0.5133 -0.2083,0.978 -0.5453,1.3144c-0.3365,0.3371 -0.8011,0.5454 -1.3144,0.5454c-0.5133,0 -0.978,-0.2083 -1.3144,-0.5454c-0.3371,-0.3364 -0.5454,-0.8011 -0.5454,-1.3144c0,-0.5133 0.2083,-0.9779 0.5454,-1.3144c0.3364,-0.337 0.8011,-0.5453 1.3144,-0.5453z" fill="#488f18" stroke-width="0.57223" stroke-linecap="butt"/><path d="M244.988,175.3255c0.5133,0 0.9779,0.2083 1.3144,0.5453c0.337,0.3365 0.5453,0.8011 0.5453,1.3144c0,0.5133 -0.2083,0.978 -0.5453,1.3144c-0.3365,0.3371 -0.8011,0.5454 -1.3144,0.5454c-0.5133,0 -0.978,-0.2083 -1.3144,-0.5454c-0.3371,-0.3364 -0.5454,-0.8011 -0.5454,-1.3144c0,-0.5133 0.2083,-0.9779 0.5454,-1.3144c0.3364,-0.337 0.8011,-0.5453 1.3144,-0.5453z" fill="#488f18" stroke-width="0.57223" stroke-linecap="butt"/><path d="M239.9158,183.3359h0.695l1.1372,-0.0948l1.6742,-0.8529l1.0424,-0.0316l0.9792,0.4107l0.4739,0.9477l-0.1264,0.7897l-0.5054,0.6002l-1.9269,0.8529l-1.9901,0.2843l-2.0849,-0.0632l-1.7058,-0.3475l-1.6426,-0.8845l-0.6002,-0.7265l-0.1895,-0.6002l0.2843,-0.695l0.8213,-0.5686h1.0108l0.9161,0.3475z" fill="#488f18" stroke-width="0.63178" stroke-linecap="round"/></g></g></svg>