<svg version="1.1" xmlns="http://www.w3.org/2000/svg" xmlns:xlink="http://www.w3.org/1999/xlink" width="36.92883" height="31.24688" viewBox="0,0,36.92883,31.24688"><g transform="translate(-221.06438,-163.19498)"><g data-paper-data="{&quot;isPaintingLayer&quot;:true}" fill-rule="nonzero" stroke="#ffffff" stroke-width="2.62323" stroke-linejoin="miter" stroke-miterlimit="10" stroke-dasharray="" stroke-dashoffset="0" style="mix-blend-mode: normal"><g><path d="M229.7538,164.5066c2.0356,0 3.8798,0.7528 5.215,1.97c1.3365,1.2172 2.1628,2.8974 2.1628,4.752c0,1.8546 -0.8263,3.5348 -2.1628,4.752c-1.3352,1.2172 -3.1794,1.97 -5.215,1.97c-2.0356,0 -3.8797,-0.7528 -5.215,-1.97c-1.3365,-1.2172 -2.1628,-2.8974 -2.1628,-4.752c0,-1.8546 0.8263,-3.5348 2.1628,-4.752c1.3353,-1.2172 3.1794,-1.97 5.215,-1.97z" fill="none" stroke-linecap="butt"/><path d="M249.3038,165.0066c2.0356,0 3.8798,0.7528 5.215,1.97c1.3365,1.2172 2.1628,2.8974 2.1628,4.752c0,1.8546 -0.8263,3.5348 -2.1628,4.752c-1.3352,1.2172 -3.1794,1.97 -5.215,1.97c-2.0356,0 -3.8797,-0.7528 -5.215,-1.97c-1.3365,-1.2172 -2.1628,-2.8974 -2.1628,-4.752c0,-1.8546 0.8263,-3.5348 2.1628,-4.752c1.3353,-1.2172 3.1794,-1.97 5.215,-1.97z" fill="none" stroke-linecap="butt"/><path d="M237.1037,171.3926h5.2465" fill="none" stroke-linecap="round"/><path d="M230.2457,189.4272l5.5743,-7.8696l3.9349,-0.3279l3.6069,0.6558l5.9023,6.8859l-2.9512,-0.6558l-0.8525,3.4102l-3.4102,-3.7381l-0.9837,2.7544l-0.9837,-2.7544l-3.607,3.2135l-0.9837,-3.2135z" fill="#ffffff" stroke-linecap="round"/><path d="M222.376,193.4932z" fill="none" stroke-linecap="round"/></g></g></g></svg>