<svg xmlns="http://www.w3.org/2000/svg" xmlns:xlink="http://www.w3.org/1999/xlink" version="1.1" width="22.96617781313524" height="10.72602068575487" viewBox="0.8602224032468326 0.928406540591193 22.96617781313524 10.72602068575487">
  <!-- Exported by Scratch - http://scratch.mit.edu/ -->
  <path id="ID0.784924637991935" fill="none" stroke="#000000" stroke-width="4.80668532045946" d="M 5.6678 3.3426 C 6.2359 3.4093 6.714 3.7756 7.0291 4.3141 C 7.3433 4.8524 7.4937 5.5618 7.4051 6.3156 C 7.3165 7.0695 7.0058 7.7247 6.5754 8.1755 C 6.1441 8.6263 5.594 8.8718 5.026 8.805 C 4.4579 8.7383 3.9798 8.372 3.6647 7.8335 C 3.3505 7.2952 3.2001 6.5858 3.2887 5.832 C 3.3773 5.0782 3.688 4.4229 4.1184 3.9721 C 4.5497 3.5213 5.0997 3.2758 5.6678 3.3426 Z "/>
  <path id="ID0.784924637991935" fill="none" stroke="#000000" stroke-width="4.576661943597614" d="M 18.9663 3.8401 C 19.466 3.736 19.9811 3.9433 20.411 4.3624 C 20.8401 4.7817 21.183 5.412 21.3378 6.1551 C 21.4926 6.8981 21.4299 7.6129 21.204 8.1687 C 20.9772 8.7246 20.5878 9.1204 20.0881 9.2245 C 19.5883 9.3286 19.0733 9.1213 18.6434 8.7021 C 18.2143 8.2828 17.8714 7.6525 17.7166 6.9095 C 17.5618 6.1664 17.6245 5.4516 17.8504 4.8959 C 18.0772 4.3399 18.4666 3.9442 18.9663 3.8401 Z "/>
</svg>