<svg xmlns="http://www.w3.org/2000/svg" xmlns:xlink="http://www.w3.org/1999/xlink" version="1.1" width="31.834125518798828" height="32.00020217895508" viewBox="0.1442023515701294 0 31.834125518798828 32.00020217895508">
  <!-- Exported by Scratch - http://scratch.mit.edu/ -->
  <path id="ID0.6366521073505282" fill="none" stroke="#000000" stroke-width="3" stroke-linecap="round" d="M 10.15 1.5 C 10.15 1.5 9.763 8.501 9.65 12 C 9.596 13.664 10.665 15.68 9.65 17 C 8.59 18.378 6.082 17.515 4.65 18.5 C 3.278 19.443 1.748 20.838 1.65 22.5 C 1.549 24.211 2.783 25.966 4.15 27 C 5.844 28.281 8.362 28.621 10.65 29.25 C 12.789 29.791 14.967 30.506 17.4 30.5 C 19.556 30.514 21.814 29.801 23.65 29 C 25.255 28.292 26.953 27.535 28.15 26.25 C 29.292 25.024 30.846 23.365 30.4 21.75 C 29.952 20.125 27.727 19.595 26.15 19 C 24.774 18.483 22.453 19.816 22.15 18.5 C 20.893 14.928 22.253 11.001 22.4 7.25 C 22.465 5.587 22.4 2.25 22.4 2.25 "/>
</svg>