<svg xmlns="http://www.w3.org/2000/svg" xmlns:xlink="http://www.w3.org/1999/xlink" version="1.1" width="21.501981735229492" height="30.018739700317383" viewBox="0.24802696704864502 0.5 21.501981735229492 30.018739700317383">
  <!-- Exported by Scratch - http://scratch.mit.edu/ -->
  <path id="ID0.5756487692706287" fill="none" stroke="#000000" stroke-width="3" stroke-linecap="round" d="M 5 2.5 C 5 2.5 3.137 5.716 2.75 7.5 C 2.041 10.771 1.806 14.154 1.75 17.5 C 1.722 19.183 1.993 20.895 2.5 22.5 C 3.005 24.098 3.522 25.86 4.75 27 C 6.008 28.168 7.789 28.868 9.5 29 C 11.211 29.132 12.982 28.551 14.5 27.75 C 16.065 26.924 17.479 25.694 18.5 24.25 C 19.323 23.087 19.291 21.606 19.5 20.25 C 19.839 18.302 20.252 16.389 20.25 14.5 C 20.252 12.692 19.904 10.918 19.5 9.25 C 19.104 7.612 18.524 5.997 17.75 4.5 C 17.26 3.553 15.75 2 15.75 2 "/>
</svg>