<svg xmlns="http://www.w3.org/2000/svg" xmlns:xlink="http://www.w3.org/1999/xlink" version="1.1" width="161.51992066014554" height="111.99883301366117" viewBox="0.7058897847496122 0.4974897736869901 161.51992066014554 111.99883301366117">
  <!-- Exported by Scratch - http://scratch.mit.edu/ -->
  <path id="ID0.19694963609799743" fill="#FF0000" stroke="#000000" stroke-width="3.410820318348676" stroke-linecap="round" d="M 4.1825 84.1003 L 32.9632 77.5521 L 51.56 75.0965 L 79.0125 74.2779 L 105.1366 75.0965 L 132.1462 78.3706 L 150.743 88.6022 L 158.2703 89.83 L 159.5987 58.3166 L 157.3848 46.4479 L 144.9869 28.8495 L 123.7334 10.8419 L 104.251 3.8844 L 80.3408 3.0658 L 56.8734 5.9307 L 38.7194 10.4326 L 21.4509 23.1198 L 13.4809 33.7607 L 6.3964 50.1313 L 2.4113 66.0926 L 4.1825 84.1003 Z "/>
  <path id="ID0.28499495098367333" fill="none" stroke="#000000" stroke-width="3.410820318348676" stroke-linecap="round" d="M 160.5204 59.5 L 138.3813 45.1757 L 116.2422 37.3997 L 87.4615 35.7626 L 61.7801 36.5812 L 43.1833 41.0831 L 5.9897 55.8166 "/>
  <path id="ID0.5002529239282012" fill="none" stroke="#000000" stroke-width="3.410820318348676" stroke-linecap="round" d="M 16.1737 52.1332 L 17.9448 79.9632 "/>
  <path id="ID0.7512626550160348" fill="none" stroke="#000000" stroke-width="3.410820318348676" stroke-linecap="round" d="M 48.4967 39.0367 L 48.4967 73.8243 "/>
  <path id="ID0.013642692938446999" fill="none" stroke="#000000" stroke-width="3.410820318348676" stroke-linecap="round" d="M 65.3224 36.9904 L 65.7652 72.5965 "/>
  <path id="ID0.03371403319761157" fill="none" stroke="#000000" stroke-width="3.410820318348676" stroke-linecap="round" d="M 81.2625 36.1719 L 81.7053 72.1872 "/>
  <path id="ID0.5524330562911928" fill="none" stroke="#000000" stroke-width="3.410820318348676" stroke-linecap="round" d="M 97.6454 36.1719 L 97.2026 73.8243 "/>
  <path id="ID0.17437500087544322" fill="none" stroke="#000000" stroke-width="3.410820318348676" stroke-linecap="round" d="M 116.685 37.809 L 116.2422 73.415 "/>
  <path id="ID0.7169513395056129" fill="none" stroke="#000000" stroke-width="3.410820318348676" stroke-linecap="round" d="M 150.7792 52.9518 L 149.8936 86.5115 "/>
  <path id="ID0.4839161168783903" fill="none" stroke="#000000" stroke-width="3.410820318348676" stroke-linecap="round" d="M 81.2625 2.2029 L 81.7053 33.307 "/>
  <path id="ID0.08394036162644625" fill="none" stroke="#000000" stroke-width="3.410820318348676" stroke-linecap="round" d="M 119.3417 9.5697 L 129.5257 23.8939 L 134.3963 44.7665 L 133.9535 77.5077 "/>
  <path id="ID0.5076341656967998" fill="none" stroke="#000000" stroke-width="3.410820318348676" stroke-linecap="round" d="M 41.855 9.1604 L 34.3277 24.3032 L 31.2282 33.307 L 29.8999 44.7665 L 32.1138 75.8706 "/>
  <path id="ID0.9864794430322945" fill="#663B00" stroke="#8E4D28" stroke-width="3.4037976865383723" stroke-linecap="round" d="M 134.839 80.2334 L 158.7492 90.9081 L 158.7492 97.4271 L 155.6498 105.1683 L 149.8936 110.7909 L 142.3663 100.1976 L 134.839 80.2334 Z "/>
  <path id="ID0.9864794430322945" fill="#663B00" stroke="#8E4D28" stroke-width="3.410820318348676" stroke-linecap="round" d="M 29.4411 78.6559 L 4.8224 85.2041 L 5.9737 91.0975 L 9.9587 98.4643 L 15.0064 105.6674 L 22.5337 95.0265 L 29.4411 78.6559 Z "/>
</svg>