<svg xmlns="http://www.w3.org/2000/svg" xmlns:xlink="http://www.w3.org/1999/xlink" version="1.1" width="157.6277034846433" height="190.87629967604954" viewBox="0.4198502020295516 0.6868501619752303 157.6277034846433 190.87629967604954">
  <!-- Exported by Scratch - http://scratch.mit.edu/ -->
  <path id="ID0.5945174810476601" fill="#663B00" stroke="#8E4D28" stroke-width="2.1262996760495394" stroke-linecap="round" d="M 20.9628 184.5 L 6.9845 185.5 L 4.9636 143.5 L 1.483 94 L 3.9531 60 L 6.9845 43 L 14.507 28 L 28.5414 17 L 38.3655 11.75 L 54.084 5.25 L 74.855 1.75 L 91.4156 2.75 L 109.099 6 L 127.0069 11.5 L 140.4799 20 L 152.4934 37 L 156.9844 61 L 154.9634 108 L 154.9634 163 L 153.4477 190.5 L 139.7501 189.75 L 136.9994 158.5 L 132.4522 67.5 L 128.9717 64 L 119.9897 60.5 L 127.0069 85 L 97.9837 57 L 105.5061 84.5 L 73.9568 57 L 84.4545 84.5 L 47.0107 61.5 L 59.4733 87 L 25.4538 65 L 24.4995 113.5 L 22.9838 153.5 L 20.9628 184.5 Z "/>
</svg>