<svg xmlns="http://www.w3.org/2000/svg" xmlns:xlink="http://www.w3.org/1999/xlink" version="1.1" width="162" height="186.5" viewBox="0.5 0 162 186.5">
  <!-- Exported by Scratch - http://scratch.mit.edu/ -->
  <path id="ID0.5561431520618498" fill="#663B00" stroke="#8E4D28" stroke-width="2" stroke-linecap="round" d="M 103 48.5 L 116 95.5 L 133 92.5 L 129.5 60.5 L 127 51.75 L 133.5 61.5 L 143 92.5 L 143 110.5 L 137.5 131 L 132.5 144 L 122.5 158 L 111 170.5 L 103.5 182 L 118.5 183 L 127.5 151.5 L 128.5 184 L 139.5 185.5 L 147 129.5 L 149 185 L 156.5 185 L 159 159 L 161.5 136 L 160.5 117.5 L 158 98.5 L 149.5 56 L 134.5 30.5 L 120.5 15 L 95.5 2.5 L 63 1 L 48 9 L 29 23 L 13.5 42.5 L 3 66.5 L 1.5 114.5 L 2 127 L 6.5 180 L 12.5 179.75 L 21.5 152 L 24 180 L 34 180.5 L 39 158 L 44.5 181.5 L 59.5 183 L 50.5 170 L 31.5 147.5 L 21.5 134 L 16.5 116.5 L 16.5 101 L 18.5 83 L 30.5 54.25 L 27.5 95 L 44 96 L 48.5 51.5 L 56 96 L 75 97 L 78 40.5 L 88 97.5 L 105.5 95.5 L 103 48.5 Z "/>
</svg>