<svg xmlns="http://www.w3.org/2000/svg" xmlns:xlink="http://www.w3.org/1999/xlink" version="1.1" width="186.7385573387146" height="134.92163228988647" viewBox="2.030653476715088 0.9616177082061768 186.7385573387146 134.92163228988647">
  <!-- Exported by Scratch - http://scratch.mit.edu/ -->
  <g id="ID0.10610278276726604">
    <path id="ID0.6641360907815397" fill="#663B00" stroke="#8D4C28" stroke-width="2.869493007659912" stroke-linecap="round" stroke-linejoin="round" d="M 167.17 81.2194 C 161.431 104.7492 167.4569 112.0664 166.883 134.4485 C 181.9478 101.3058 195.8649 75.4804 180.9435 48.6506 C 181.8044 53.2418 181.374 52.094 177.9306 56.9722 C 177.6436 33.1554 156.8398 18.8079 143.0662 18.234 C 148.0878 19.8122 147.8009 22.3948 146.7966 25.5512 C 102.4629 -17.3477 89.2632 14.9341 54.9728 2.7387 C 57.8423 10.9168 63.4378 17.0862 81.6591 19.3818 C 26.9952 13.2124 44.4991 46.2116 9.7783 48.0767 C 12.7912 54.6766 20.2519 62.9981 34.169 58.12 C 8.9174 66.585 23.6953 88.3931 3.4654 108.623 C 12.9347 108.7665 21.3997 106.0405 26.8518 95.9973 C 25.1301 107.9057 28.2865 118.6663 33.882 128.4225 C 35.7472 131.7224 38.7601 127.4182 37.7558 122.1096 C 35.8907 111.7795 34.7429 101.7362 40.9123 92.1234 C 40.0514 97.432 36.0341 102.5971 39.4775 105.6101 C 41.6296 95.4234 50.812 84.2323 61.2857 73.0413 L 116.6669 59.9851 L 133.5969 60.1286 L 162.0049 52.6679 "/>
    <path id="ID0.4687123238109052" fill="#663B00" d="M 171.3307 109.0535 C 159.9962 101.4493 141.488 89.9713 149.0922 74.6195 C 82.233 102.1667 56.1206 92.6973 37.4689 69.7414 C 45.7904 73.4717 53.9685 76.6282 58.9901 73.1848 C 49.6642 69.4544 45.36 64.5763 42.4905 59.4112 C 48.9468 62.7111 55.1163 65.0067 59.9944 62.5677 C 48.2295 56.8287 45.7904 48.0767 46.5078 38.177 C 57.8423 50.8027 75.9201 54.1027 96.7239 53.6722 C 78.7896 48.5072 67.5986 42.3377 70.0376 34.3032 C 98.3021 46.4985 120.1103 22.9687 139.6228 44.7768 L 164.8744 51.3766 C 176.0654 68.1632 174.2002 87.3888 171.3307 109.0535 Z " stroke-width="1.434746503829956"/>
    <path id="ID0.7292710389010608" fill="#663B00" d="M 176.3523 109.3404 L 165.8787 74.4761 L 155.692 75.05 C 155.692 88.1062 168.6047 102.0232 176.3523 109.3404 Z " stroke-width="1.434746503829956"/>
    <path id="ID0.46942083025351167" fill="#663B00" stroke="#8D4C28" stroke-width="2.869493007659912" stroke-linecap="round" stroke-linejoin="round" d="M 171.4742 109.0535 C 160.1397 101.4493 146.9228 86.7216 149.3791 74.6195 C 92.8444 94.1407 98.3394 92.7719 71.9745 91.6213 C 58.4219 91.0302 52.4677 88.2023 37.6124 69.7414 C 43.2939 71.7357 54.1119 76.6282 59.1335 73.1848 C 49.9512 69.4544 45.5035 64.5763 42.634 59.4112 C 49.0903 62.7111 55.1163 65.0067 59.9944 62.5677 C 48.2295 56.8287 45.7904 48.0767 46.6513 38.177 C 57.9858 50.8027 76.0636 54.1027 96.7239 53.6722 C 78.9331 48.5072 67.742 42.3377 70.0376 34.3032 C 98.3021 46.4985 119.9668 22.9687 139.4794 44.7768 "/>
  </g>
</svg>