<svg xmlns="http://www.w3.org/2000/svg" xmlns:xlink="http://www.w3.org/1999/xlink" version="1.1" width="239.60772758584096" height="210.8789983377941" viewBox="-0.6288532309774244 -1.0031532340291822 239.60772758584096 210.8789983377941">
  <!-- Exported by Scratch - http://scratch.mit.edu/ -->
  <path id="ID0.5945174810476601" fill="#663B00" stroke="#8E4D28" stroke-width="2.0938467115177954" stroke-linecap="round" d="M 43.1231 88.0304 L 43.2438 61.3818 L 46.2624 45.5298 L 52.7221 33.705 L 57.1896 23.2512 L 63.6493 17.4674 L 71.1957 12.1119 L 81.7003 7.3992 L 88.4015 4.8286 L 99.0268 2.6864 L 106.3921 1.8295 L 111.5237 0.9727 L 119.7342 1.1869 L 128.488 2.3436 L 135.7326 2.6007 L 142.9771 3.5861 L 148.4709 4.5287 L 155.7154 5.9853 L 161.7526 8.1275 L 166.703 11.2979 L 170.3857 13.8257 L 174.9739 16.3963 L 179.5621 20.2522 L 182.8825 24.3223 L 186.6255 30.1061 L 194.1719 41.8881 L 198.6998 60.0965 L 199.7261 78.0907 L 192.4815 109.1522 L 187.7122 118.0636 L 181.7355 125.5612 L 185.5992 100.455 L 182.9429 80.747 L 177.5698 103.0256 L 174.7324 111.5514 L 165.1937 122.7335 L 167.8501 115.0217 L 170.9894 80.2329 L 172.2572 67.2085 L 169.4801 56.8404 L 163.9863 48.9144 L 164.7711 57.8258 L 163.7448 64.338 L 161.7526 70.1219 L 156.2588 74.192 L 156.5003 69.1365 L 154.2665 61.9388 L 147.022 53.4986 L 140.7434 47.929 L 135.974 45.0585 L 135.7326 45.5298 L 139.2341 52.2562 L 145.5127 59.2825 L 149.4972 63.8667 L 140.7434 63.6097 L 133.4988 58.5541 L 140.0189 70.5931 L 146.7805 76.8483 L 153.2402 81.6896 L 156.9832 86.0168 L 146.2372 88.416 L 133.4988 88.9301 L 122.0283 84.9885 L 114.5423 78.4763 L 106.5129 70.9787 L 113.033 85.9739 L 97.5176 78.005 L 90.0315 66.9943 L 87.4959 57.9972 L 86.53 53.7557 L 87.013 49.2571 L 87.9789 45.2299 L 90.756 37.9893 L 82.0021 51.9991 L 79.8892 60.3536 L 77.6554 71.1929 L 76.3876 88.3303 L 85.0811 121.8767 L 76.9913 117.5923 L 71.6183 112.4511 L 67.8753 103.8824 L 66.2453 100.455 L 63.0456 85.4598 L 61.9589 111.5942 L 61.4759 124.1045 L 54.2314 118.0636 L 49.462 111.5514 L 46.3831 100.8834 L 43.1231 88.0304 Z "/>
  <path id="ID0.2741851485334337" fill="#663B00" stroke="#8E4D28" stroke-width="2.3580215882539046" stroke-linecap="round" d="M 193.9253 41 L 186.7027 47 L 189.7121 60.5 L 192.1196 63 L 197.2356 75.5 L 198.7404 99 L 194.9571 131.9286 L 193.9253 158 L 201.1479 179 L 211.3799 192 L 214.3894 206 L 216.7969 192 L 213.1856 180 L 216.195 162 L 232.4459 122 L 235.2834 107 L 236.3152 89.5 L 233.7786 72 L 237.003 49.5 L 233.9936 39 L 231.5001 32 L 225.4812 29.5 L 217.4848 29.5 L 206.006 32.5 L 193.9253 41 Z "/>
  <path id="ID0.44970284309238195" fill="#001966" stroke="#000000" stroke-width="3.9517064676768947" d="M 185.8198 39.3209 L 190.4501 36.9785 L 195.7123 65.6928 L 191.082 68.0352 L 185.8198 39.3209 Z "/>
  <path id="ID0.2741851485334337" fill="#663B00" stroke="#8E4D28" stroke-width="2.3580215882539046" stroke-linecap="round" d="M 44.4247 42.9 L 51.6473 48.9 L 48.6379 62.4 L 46.2304 64.9 L 41.1144 77.4 L 39.6096 100.9 L 43.3929 133.8286 L 44.4247 159.9 L 37.2021 180.9 L 26.9701 193.9 L 23.9606 207.9 L 21.5531 193.9 L 25.1644 181.9 L 22.155 163.9 L 5.9041 123.9 L 3.0666 108.9 L 2.0348 91.4 L 4.5714 73.9 L 1.347 51.4 L 4.3564 40.9 L 6.8499 33.9 L 12.8688 31.4 L 20.8652 31.4 L 32.344 34.4 L 44.4247 42.9 Z "/>
  <path id="ID0.44970284309238195" fill="#001966" stroke="#000000" stroke-width="3.9517064676768947" d="M 52.5302 41.7709 L 47.8999 39.4285 L 42.6377 68.1428 L 47.268 70.4852 L 52.5302 41.7709 Z "/>
</svg>