<svg xmlns="http://www.w3.org/2000/svg" xmlns:xlink="http://www.w3.org/1999/xlink" version="1.1" width="234.13843235485547" height="211.8580215882539" viewBox="0.60578925851587 0.3209892058730477 234.13843235485547 211.8580215882539">
  <!-- Exported by Scratch - http://scratch.mit.edu/ -->
  <path id="ID0.5945174810476601" fill="#663B00" stroke="#8E4D28" stroke-width="2.1262996760495394" stroke-linecap="round" d="M 53.0332 103.5 L 43.4898 72 L 46.2967 53.5 L 53.3139 40 L 56.4576 27.5 L 62.4643 20.75 L 69.4815 14.5 L 79.2495 9 L 85.4808 6 L 95.361 3.5 L 102.2098 2.5 L 106.9815 1.5 L 114.6162 1.75 L 119.6125 2.75 L 125.956 4 L 131.9627 5.25 L 138.587 6.25 L 145.4919 8.5 L 152.3407 11.5 L 156.7195 13.75 L 161.7157 16.5 L 165.9822 19.5 L 170.2486 24 L 173.3362 28.75 L 176.8167 35.5 L 183.8339 49.25 L 188.0443 70.5 L 188.9986 91.5 L 185.0128 108.5 L 180.0166 96.5 L 172.6064 76.75 L 165.3085 84.5 L 155.4844 43 L 150.9934 59.5 L 145.4919 70.5 L 137.0151 81.5 L 134.4889 68 L 131.9627 58.5 L 130.5032 48.5 L 111.0234 83.5 L 103.5571 56 L 91.4875 77.75 L 89.9718 64 L 87.5017 51 L 82.0002 39.5 L 74.983 53.5 L 70.9972 67.5 L 70.4359 84.25 L 59.489 72.5 L 53.0332 103.5 Z "/>
  <g id="ID0.5125084854662418">
    <path id="ID0.2741851485334337" fill="#663B00" stroke="#8E4D28" stroke-width="2.3580215882539046" stroke-linecap="round" d="M 191.1753 46 L 183.9527 52 L 186.9621 65.5 L 189.3696 68 L 194.4856 80.5 L 195.9904 104 L 192.2071 136.9286 L 191.1753 163 L 198.3979 184 L 208.6299 197 L 211.6394 211 L 214.0469 197 L 210.4356 185 L 213.445 167 L 229.6959 127 L 232.5334 112 L 233.5652 94.5 L 231.0286 77 L 228.0622 59 L 225.0528 49.5 L 220.0657 44 L 212.5422 40 L 204.5457 40.5 L 191.1753 46 Z "/>
    <path id="ID0.44970284309238195" fill="#001966" stroke="#000000" stroke-width="2.211286716151196" d="M 183.1795 52.5387 L 185.7705 51.2279 L 188.7151 67.2958 L 186.1241 68.6065 L 183.1795 52.5387 Z "/>
  </g>
  <g id="ID0.5125084854662418">
    <path id="ID0.2741851485334337" fill="#663B00" stroke="#8E4D28" stroke-width="2.3580215882539046" stroke-linecap="round" d="M 44.1747 44.5 L 51.3973 50.5 L 48.3879 64 L 45.9804 66.5 L 40.8644 79 L 39.3596 102.5 L 43.1429 135.4286 L 44.1747 161.5 L 36.9521 182.5 L 26.7201 195.5 L 23.7106 209.5 L 21.3031 195.5 L 24.9144 183.5 L 21.905 165.5 L 5.6541 125.5 L 2.8166 110.5 L 1.7848 93 L 4.3214 75.5 L 7.2878 57.5 L 10.2972 48 L 15.2843 42.5 L 22.8078 38.5 L 30.8043 39 L 44.1747 44.5 Z "/>
    <path id="ID0.44970284309238195" fill="#001966" stroke="#000000" stroke-width="2.211286716151196" d="M 52.1705 51.0387 L 49.5795 49.7279 L 46.6349 65.7958 L 49.2259 67.1065 L 52.1705 51.0387 Z "/>
  </g>
</svg>