<svg xmlns="http://www.w3.org/2000/svg" xmlns:xlink="http://www.w3.org/1999/xlink" version="1.1" width="222.66097175532198" height="196.0972815697751" viewBox="1.6748127368409595 0.1030127433259449 222.66097175532198 196.0972815697751">
  <!-- Exported by Scratch - http://scratch.mit.edu/ -->
  <path id="ID0.7448368058539927" fill="#663B00" stroke="#8E4D28" stroke-linecap="round" d="M 86.6111 68.6001 L 84.7845 90.5191 L 101.2238 80.4729 L 113.0966 67.6868 L 126.796 47.5943 L 143.2353 73.1665 L 163.3278 96.9122 L 176.1139 110.9769 L 182.5069 115.178 L 204.0606 110.9769 L 222.5092 106.0451 L 210.6364 98.0081 L 194.3797 78.6463 L 183.4202 42.1145 L 168.8075 24.762 L 148.7151 10.1493 L 118.5764 1.9296 L 87.5244 4.6695 L 60.1256 20.1955 L 48.2528 35.7215 L 39.1198 54.9007 L 31.8135 72.2532 L 26.5164 80.4729 L 20.6713 85.4047 L 15.5569 92.5283 L 3.5014 104.4012 L 22.4979 110.4289 L 40.9464 114.2647 L 86.6111 68.6001 Z " stroke-width="3.6531739234924316"/>
  <path id="ID0.45906719844788313" fill="#663B00" stroke="#8E4D28" stroke-linecap="round" d="M 172.5281 99.2898 L 176.5755 119.9221 L 174.3792 145.822 L 166.2718 162.815 L 161.5975 194.0118 L 168.3291 182.9888 L 179.5372 194.3737 L 184.8258 169.6056 L 184.0854 150.9927 L 197.8221 122.3035 L 185.7263 111.1332 L 178.7717 94.0223 Z " stroke-width="3.6531742823657765"/>
  <path id="ID0.45906719844788313" fill="#663B00" stroke="#8E4D28" stroke-linecap="round" d="M 57.6218 97.5898 L 53.5744 118.2222 L 55.7707 144.122 L 63.8781 161.1151 L 68.5524 192.3119 L 61.8208 181.2889 L 50.6127 192.6737 L 45.3241 167.9056 L 46.0646 149.2928 L 32.3278 120.6035 L 44.4237 109.4332 L 51.3782 92.3223 Z " stroke-width="3.6531745141110497"/>
  <path id="ID0.12019760021939874" fill="#663B00" stroke="#663B00" stroke-width="2" stroke-linecap="round" d="M 48.25 109 L 42.75 117 L 39 99.5 L 51.5 84.5 L 59.75 90 L 48.25 109 Z "/>
  <path id="ID0.7527032485231757" fill="#663B00" stroke="#663B00" stroke-width="2" stroke-linecap="round" d="M 180.5 87.25 L 167.25 94.5 L 170.5 99.75 L 179.5 108.25 L 181.75 110 L 187.25 106 L 180.5 87.25 Z "/>
  <path id="ID0.541575200855732" fill="none" stroke="#8E4D28" stroke-width="2" stroke-linecap="round" d="M 186 110.5 L 177 111.5 "/>
  <path id="ID0.5254091937094927" fill="none" stroke="#8E4D28" stroke-width="2" stroke-linecap="round" d="M 39.5 112.5 L 53.5 116 "/>
</svg>