<svg xmlns="http://www.w3.org/2000/svg" xmlns:xlink="http://www.w3.org/1999/xlink" version="1.1" width="232.34538536940892" height="109.12629967604954" viewBox="18.186750979846323 0.4368501619752303 232.34538536940892 109.12629967604954">
  <!-- Exported by Scratch - http://scratch.mit.edu/ -->
  <path id="ID0.5945174810476601" fill="#663B00" stroke="#8E4D28" stroke-width="2.1262996760495394" stroke-linecap="round" d="M 69.0332 103.5 L 59.4898 72 L 62.2967 53.5 L 69.3139 40 L 72.4576 27.5 L 85.9868 15.5 L 101.4808 6 L 122.9815 1.5 L 141.956 4 L 161.4919 8.5 L 181.9822 19.5 L 192.8167 35.5 L 199.8339 49.25 L 204.0443 70.5 L 204.9986 91.5 L 201.0128 108.5 L 196.0166 96.5 L 188.6064 76.75 L 181.3085 84.5 L 171.4844 43 L 166.9934 59.5 L 161.4919 70.5 L 153.0151 81.5 L 150.4889 68 L 147.9627 58.5 L 146.5032 48.5 L 127.0234 83.5 L 119.5571 56 L 107.4875 77.75 L 105.9718 64 L 103.5017 51 L 98.0002 39.5 L 90.983 53.5 L 86.9972 67.5 L 86.4359 84.25 L 75.489 72.5 L 69.0332 103.5 Z "/>
  <g id="ID0.5125084854662418">
    <path id="ID0.2741851485334337" fill="#663B00" stroke="#8E4D28" stroke-width="1.671899871214601" stroke-linecap="round" d="M 73.3626 26.3042 L 79.4939 32.668 L 73.9073 36.8566 L 71.0108 36.6591 L 63.4939 39.3122 L 57.5266 48.5673 L 55.0941 64.6344 L 51.1921 76.3229 L 39.9445 81.5019 L 27.1845 81.6779 L 21.5032 86.0802 L 21.7333 78.8288 L 27.6413 75.5981 L 28.0237 66.3201 L 19.2499 40.6724 L 20.5019 34.4816 L 24.1394 27.958 L 39.7418 21.3693 L 58.8261 18.7066 L 73.3626 26.3042 Z "/>
    <path id="ID0.44970284309238195" fill="#001966" stroke="#000000" stroke-width="1.3970312186447629" d="M 80.2328 33.3256 L 77.8738 31.4025 L 71.8658 36.7229 L 74.2249 38.6461 L 80.2328 33.3256 Z "/>
  </g>
  <g id="ID0.5125084854662418">
    <path id="ID0.2741851485334337" fill="#663B00" stroke="#8E4D28" stroke-width="1.6909361437018515" stroke-linecap="round" d="M 189.562 31.4347 L 184.2505 38.6756 L 190.4071 41.9648 L 193.2867 41.3249 L 201.1775 42.7978 L 208.3842 51.0443 L 212.9433 66.5769 L 218.3991 77.5494 L 230.3653 80.9504 L 243.1891 79.1666 L 249.469 82.6529 L 248.2818 75.5096 L 241.929 73.2179 L 240.3218 64.0916 L 245.7413 37.355 L 243.6689 31.4185 L 239.1595 25.5185 L 222.6386 21.3902 L 203.1427 21.6828 L 189.562 31.4347 Z "/>
    <path id="ID0.44970284309238195" fill="#001966" stroke="#000000" stroke-width="1.4055173298584085" d="M 183.66 39.4149 L 185.7729 37.1491 L 192.5016 41.4942 L 190.3887 43.76 L 183.66 39.4149 Z "/>
  </g>
</svg>