<svg xmlns="http://www.w3.org/2000/svg" xmlns:xlink="http://www.w3.org/1999/xlink" version="1.1" width="183.6194027033933" height="130.62629967604954" viewBox="0.9520500616486922 -0.0631498380247697 183.6194027033933 130.62629967604954">
  <!-- Exported by Scratch - http://scratch.mit.edu/ -->
  <path id="ID0.5945174810476601" fill="#663B00" stroke="#8E4D28" stroke-width="2.1262996760495394" stroke-linecap="round" d="M 95.0354 60 L 82.0114 60 L 70.0541 62 L 62.0264 65 L 50.5182 70 L 40.5257 80.5 L 33.5085 90 L 30.5332 107.5 L 27.0526 125.5 L 16.4988 116 L 8.5272 105 L 3.531 89.5 L 2.0152 81 L 2.0152 70.5 L 3.531 57 L 7.0115 44 L 13.5235 32 L 21.5512 23 L 33.0032 13.5 L 47.0377 6.5 L 58.4897 3 L 77.352 1.25 L 94.5301 1 L 110.0241 3 L 123.5533 5.5 L 136.3527 9.75 L 147.5241 15 L 159.0323 22.5 L 167.0039 29.5 L 173.0106 39 L 177.5016 48.5 L 180.4208 59.25 L 183.0031 72 L 183.5083 87.5 L 182.4979 103 L 178.5121 112 L 172.5053 122 L 161.0533 129.5 L 158.0218 115 L 156.5061 103 L 152.5203 91.5 L 145.5031 81.5 L 136.0159 72 L 121.5323 65.5 L 111.5398 61.5 L 95.0354 60 Z "/>
</svg>