<svg xmlns="http://www.w3.org/2000/svg" xmlns:xlink="http://www.w3.org/1999/xlink" version="1.1" width="146.68078881179173" height="98.37629967604954" viewBox="0.42665013832410725 0.1868501619752303 146.68078881179173 98.37629967604954">
  <!-- Exported by Scratch - http://scratch.mit.edu/ -->
  <path id="ID0.5945174810476601" fill="#663B00" stroke="#8E4D28" stroke-width="2.1262996760495394" stroke-linecap="round" d="M 14.4014 81.75 L 10.7525 96.75 L 4.2967 83.5 L 1.4898 63 L 4.2967 44.5 L 11.3139 31 L 22.5414 16.5 L 32.3655 11.25 L 48.084 4.75 L 68.855 1.25 L 85.4156 2.25 L 103.099 5.5 L 122.7471 13.25 L 134.8167 26.5 L 141.8339 40.25 L 146.0443 61.5 L 146.0443 81.25 L 142.1146 94 L 137.6236 97.5 L 135.3781 96 L 123.9822 66 L 112.9792 87 L 107.9829 61 L 96.98 80 L 89.0084 61 L 75.0301 78 L 63.0167 56 L 55.9995 81 L 41.0107 61 L 33.9935 86 L 16.0294 66 L 14.6821 82.25 Z "/>
</svg>