<svg xmlns="http://www.w3.org/2000/svg" xmlns:xlink="http://www.w3.org/1999/xlink" version="1.1" width="146.17560082351048" height="104.62629967604954" viewBox="0.9318501667436019 0.9368501619752303 146.17560082351048 104.62629967604954">
  <!-- Exported by Scratch - http://scratch.mit.edu/ -->
  <path id="ID0.5945174810476601" fill="#663B00" stroke="#8E4D28" stroke-width="2.1262996760495394" stroke-linecap="round" d="M 74.0196 71 L 59.9852 68 L 43.986 67 L 32.0287 66 L 21.0257 59 L 19.4538 67 L 8.0017 104.5 L 3.4546 90 L 1.995 75 L 2.5003 56 L 4.4651 16.5 L 22.5414 30.5 L 30.0077 8.5 L 48.084 18.75 L 60.4905 2 L 72.953 14.5 L 86.4822 2.5 L 97.9904 17 L 115.9545 6.5 L 122.7471 27.25 L 138.9709 17 L 143.9672 54 L 146.0443 75.5 L 146.0443 95.25 L 140.4866 100 L 135.9956 80.5 L 127.0136 60 L 116.0106 62 L 101.0219 66 L 74.0196 71 Z "/>
</svg>