<svg version="1.1" xmlns="http://www.w3.org/2000/svg" xmlns:xlink="http://www.w3.org/1999/xlink" width="51.63437" height="46.36557" viewBox="0,0,51.63437,46.36557"><g transform="translate(-214.18281,-156.81722)"><g data-paper-data="{&quot;isPaintingLayer&quot;:true}" fill-rule="nonzero" stroke="#000000" stroke-linejoin="miter" stroke-miterlimit="10" stroke-dasharray="" stroke-dashoffset="0" style="mix-blend-mode: normal"><path d="M240,158.66131c6.6139,0 12.6072,2.391 16.9471,6.2541c4.3399,3.8625 7.026,9.1972 7.026,15.0846c0,5.8874 -2.6861,11.222 -7.026,15.0846c-4.3399,3.8631 -10.3332,6.2541 -16.9471,6.2541c-6.614,0 -12.6072,-2.391 -16.9472,-6.2541c-4.3399,-3.8626 -7.0259,-9.1972 -7.0259,-15.0846c0,-5.8874 2.686,-11.2221 7.0259,-15.0846c4.34,-3.8631 10.3332,-6.2541 16.9472,-6.2541z" fill="#ffffff" stroke-width="3.68817" stroke-linecap="butt"/><path d="M246.55,170.8123c0.8189,0 1.5602,0.3323 2.0969,0.87c0.5377,0.5368 0.87,1.2781 0.87,2.0969c0,0.8189 -0.3323,1.5602 -0.87,2.097c-0.5367,0.5377 -1.278,0.8699 -2.0969,0.8699c-0.8188,0 -1.5601,-0.3322 -2.0969,-0.8699c-0.5377,-0.5368 -0.87,-1.2781 -0.87,-2.097c0,-0.8188 0.3323,-1.5601 0.87,-2.0969c0.5368,-0.5377 1.2781,-0.87 2.0969,-0.87z" fill="#000000" stroke-width="0.9129" stroke-linecap="butt"/><path d="M233.45,171.0623c0.8189,0 1.5602,0.3323 2.0969,0.87c0.5377,0.5368 0.87,1.2781 0.87,2.0969c0,0.8189 -0.3323,1.5602 -0.87,2.097c-0.5367,0.5377 -1.278,0.8699 -2.0969,0.8699c-0.8188,0 -1.5601,-0.3322 -2.0969,-0.8699c-0.5377,-0.5368 -0.87,-1.2781 -0.87,-2.097c0,-0.8188 0.3323,-1.5601 0.87,-2.0969c0.5368,-0.5377 1.2781,-0.87 2.0969,-0.87z" fill="#000000" stroke-width="0.9129" stroke-linecap="butt"/><path d="M238.7313,184.0349h1.1087l1.8142,-0.168l2.6709,-1.5122l1.663,-0.0561l1.5623,0.7282l0.7559,1.6802l-0.2016,1.4003l-0.8063,1.0641l-3.0741,1.5123l-3.1749,0.504l-3.326,-0.112l-2.7213,-0.6161l-2.6206,-1.5682l-0.9575,-1.2882l-0.3023,-1.0642l0.4535,-1.2322l1.3103,-1.0082h1.6126l1.4615,0.6161z" fill="#000000" stroke-width="1.06552" stroke-linecap="round"/></g></g></svg>