<svg version="1.1" xmlns="http://www.w3.org/2000/svg" xmlns:xlink="http://www.w3.org/1999/xlink" width="51.63437" height="46.36557" viewBox="0,0,51.63437,46.36557"><g transform="translate(-214.18282,-156.81722)"><g data-paper-data="{&quot;isPaintingLayer&quot;:true}" fill-rule="nonzero" stroke-linejoin="miter" stroke-miterlimit="10" stroke-dasharray="" stroke-dashoffset="0" style="mix-blend-mode: normal"><path d="M240,158.6613c6.6139,0 12.6072,2.391 16.9471,6.2541c4.3399,3.8625 7.026,9.1972 7.026,15.0846c0,5.8874 -2.6861,11.222 -7.026,15.0846c-4.3399,3.8631 -10.3332,6.2541 -16.9471,6.2541c-6.614,0 -12.6072,-2.391 -16.9472,-6.2541c-4.3399,-3.8626 -7.0259,-9.1972 -7.0259,-15.0846c0,-5.8874 2.686,-11.2221 7.0259,-15.0846c4.34,-3.8631 10.3332,-6.2541 16.9472,-6.2541z" fill="#ffffff" stroke="#000000" stroke-width="3.68817" stroke-linecap="butt"/><path d="M250.7731,192.0629c0,0 -0.224,-1.396 -0.25,-2.1c-0.024,-0.666 0.017,-1.339 0.1,-2c0.107,-0.854 0.13,-1.747 0.3,-2.6c0.216,-0.661 0.53,-1.282 0.85,-1.9c0.412,-0.799 0.831,-1.657 1.5,-2.25c0.737,-0.644 3.25,-1.5 3.25,-1.5" fill="none" stroke="#995900" stroke-width="2" stroke-linecap="round"/><path d="M224.2731,179.8629c0,0 2.513,0.856 3.25,1.5c0.669,0.593 1.088,1.451 1.5,2.25c0.32,0.618 0.634,1.239 0.85,1.9c0.17,0.853 0.193,1.746 0.3,2.6c0.083,0.661 0.124,1.334 0.1,2c-0.026,0.704 -0.25,2.1 -0.25,2.1" fill="none" stroke="#995900" stroke-width="2" stroke-linecap="round"/></g></g></svg>