<svg version="1.1" xmlns="http://www.w3.org/2000/svg" xmlns:xlink="http://www.w3.org/1999/xlink" width="53.02946" height="52.88696" viewBox="0,0,53.02946,52.88696"><g transform="translate(-361.51372,-237.36642)"><g data-paper-data="{&quot;isPaintingLayer&quot;:true}" fill-rule="nonzero" stroke-linejoin="miter" stroke-miterlimit="10" stroke-dasharray="" stroke-dashoffset="0" style="mix-blend-mode: normal"><g><path d="M361.9153,237.768h52.2263v52.0838h-52.2263z" fill="#e5e5e5" stroke="#003fff" stroke-width="0.80316" stroke-linecap="butt"/><path d="M393.4206,269.1918l-0.0389,-7.3761l9.8509,0.3008l0.3072,-8.8069l8.9136,11.8573l-9.4791,12.1083l0.1885,-7.9885z" fill="#ccffff" stroke="#000000" stroke-width="0.32933" stroke-linecap="round"/><g fill="#ffffff" stroke="#cccccc" stroke-linecap="butt"><path d="M379.4388,271.729c1.5434,0.0123 3.7614,-0.769 4.6344,0.0766c2.55,2.3245 3.9899,5.3827 4.2572,8.1568c0.1918,2.0326 -0.9959,4.3296 -2.6061,5.82c-1.6091,1.4904 -3.8325,2.4133 -6.2855,2.4133c-2.453,0 -4.6764,-0.9229 -6.2855,-2.4133c-1.6102,-1.4904 -2.8259,-3.7874 -2.6061,-5.82c0.3212,-2.8966 1.8764,-6.0728 4.5267,-8.5015c0.8298,-0.7934 2.773,0.2658 4.3649,0.2681z" stroke-width="1.86985"/><path d="M379.4585,256.3355c1.8433,-0.0308 4.0223,-0.1798 5.7874,0.5541c2.3541,1.1157 5.5488,2.4087 6.0045,4.7411c0.6294,3.2251 -1.3369,6.9613 -3.4985,9.3577c-2.1602,2.3963 -5.1451,3.8802 -8.4381,3.8802c-3.2931,0 -6.4791,-1.644 -8.4381,-3.8802c-2.3107,-2.6402 -3.3003,-6.3481 -3.2092,-9.7272c-0.0767,-1.6402 1.5409,-3.3187 3.2555,-4.0637c2.5349,-1.1009 5.6717,-0.8238 8.5365,-0.862z" stroke-width="2.68695"/></g><g><path d="M380.2712,254.5886c3.4764,0.2762 6.593,0.9476 8.8198,1.8092c2.2269,0.8615 3.5642,1.9132 3.4818,2.95c-0.0823,1.0367 -1.569,1.8641 -3.9039,2.3632c-2.335,0.4991 -5.5185,0.6699 -8.9949,0.3937c-3.4764,-0.2762 -6.593,-0.9476 -8.8198,-1.8092c-2.2269,-0.8615 -3.5642,-1.9132 -3.4819,-2.95c0.0824,-1.0367 1.5691,-1.8641 3.904,-2.3632c2.335,-0.499 5.5185,-0.6699 8.9949,-0.3937z" fill="#000000" stroke="#7f7f7f" stroke-width="0.48733" stroke-linecap="butt"/><path d="M381.4742,237.9219c2.1639,0.1719 4.0961,0.688 5.4696,1.3827c1.3735,0.6945 2.1885,1.5679 2.1181,2.4548c-0.0705,0.8869 -1.0133,1.6206 -2.4792,2.0895c-1.466,0.4691 -3.4553,0.6736 -5.6192,0.5017c-2.1639,-0.172 -4.0961,-0.688 -5.4695,-1.3827c-1.3735,-0.6945 -2.1886,-1.5679 -2.1182,-2.4548c0.0705,-0.8869 1.0133,-1.6207 2.4792,-2.0896c1.466,-0.4691 3.4553,-0.6736 5.6192,-0.5016z" fill="#000000" stroke="#7f7f7f" stroke-width="0.51592" stroke-linecap="butt"/><path d="M378.1348,244.1258l5.0042,0.527l3.6818,-0.7425l2.3492,-1.8836l-1.6729,16.1697l-1.9797,0.4896l-5.5491,-0.1821l-4.7266,-0.7637l-3.0347,-0.888l1.1688,-16.3391l1.4978,2.3185z" fill="#000000" stroke="#7f7f7f" stroke-width="0.51592" stroke-linecap="round"/><path d="M372.4438,257.1298l0.0859,-2.7103l7.1491,1.2149l4.896,0.2597l3.2552,-0.259l-0.4717,2.6797l-3.6409,0.2282l-4.7675,-0.2494l-2.9469,-0.3635z" fill="#ccffff" stroke="#000000" stroke-width="0.51592" stroke-linecap="round"/></g><g fill="#666666" stroke="#000000" stroke-width="0.07466" stroke-linecap="round"><path d="M378.3934,277.3746l-1.7322,-1.7283l3.1583,0.3759l2.6712,-0.7506l-1.5791,2.1421z"/><path d="M377.4543,284.7358l1.0713,-7.3612h2.2539l0.6678,7.3612l-1.9432,1.5013z"/></g></g></g></g></svg>