<svg xmlns="http://www.w3.org/2000/svg" xmlns:xlink="http://www.w3.org/1999/xlink" version="1.1" width="145.10264225760326" height="9.492641647251691" viewBox="0.7386791906792695 0.6286791763741547 145.10264225760326 9.492641647251691">
  <!-- Exported by Scratch - http://scratch.mit.edu/ -->
  <path id="ID0.5579480095766485" fill="#FF00BF" stroke="#666666" stroke-width="1.7426416472516906" d="M 5.39 1.5 C 6.4326 1.5 7.3779 1.92 8.0619 2.599 C 8.7466 3.278 9.17 4.215 9.17 5.25 C 9.17 6.285 8.7466 7.222 8.0619 7.901 C 7.3779 8.58 6.4326 9 5.39 9 C 4.3474 9 3.4021 8.58 2.7181 7.901 C 2.0334 7.222 1.61 6.285 1.61 5.25 C 1.61 4.215 2.0334 3.278 2.7181 2.599 C 3.4021 1.92 4.3474 1.5 5.39 1.5 Z "/>
  <path id="ID0.5579480095766485" fill="#FF00BF" stroke="#666666" stroke-width="1.7426416472516906" d="M 141.19 1.75 C 142.2326 1.75 143.1779 2.17 143.8619 2.849 C 144.5466 3.528 144.97 4.465 144.97 5.5 C 144.97 6.535 144.5466 7.472 143.8619 8.151 C 143.1779 8.83 142.2326 9.25 141.19 9.25 C 140.1474 9.25 139.2021 8.83 138.5181 8.151 C 137.8334 7.472 137.41 6.535 137.41 5.5 C 137.41 4.465 137.8334 3.528 138.5181 2.849 C 139.2021 2.17 140.1474 1.75 141.19 1.75 Z "/>
</svg>