<svg version="1.1" xmlns="http://www.w3.org/2000/svg" xmlns:xlink="http://www.w3.org/1999/xlink" width="52.2266" height="26.71356" viewBox="0,0,52.2266,26.71356"><g transform="translate(-218.7235,-233.4586)"><g data-paper-data="{&quot;isPaintingLayer&quot;:true}" fill="#000000" fill-rule="nonzero" stroke="#000000" stroke-linejoin="miter" stroke-miterlimit="10" stroke-dasharray="" stroke-dashoffset="0" style="mix-blend-mode: normal"><path d="M261.7868,233.8997c2.4064,0 4.5865,0.8279 6.1654,2.1662c1.579,1.3384 2.5568,3.1864 2.5568,5.2256c0,2.0393 -0.9778,3.8873 -2.5568,5.2257c-1.5789,1.3383 -3.759,2.1662 -6.1654,2.1662c-2.4064,0 -4.5865,-0.8279 -6.1655,-2.1662c-1.5789,-1.3384 -2.5567,-3.1864 -2.5567,-5.2257c0,-2.0392 0.9778,-3.8872 2.5567,-5.2256c1.579,-1.3383 3.7591,-2.1662 6.1655,-2.1662z" stroke-width="0.8822" stroke-linecap="butt"/><path d="M227.8868,234.1497c2.4064,0 4.5865,0.8279 6.1654,2.1662c1.579,1.3384 2.5568,3.1864 2.5568,5.2256c0,2.0393 -0.9778,3.8873 -2.5568,5.2257c-1.5789,1.3383 -3.759,2.1662 -6.1654,2.1662c-2.4064,0 -4.5865,-0.8279 -6.1655,-2.1662c-1.5789,-1.3384 -2.5567,-3.1864 -2.5567,-5.2257c0,-2.0392 0.9778,-3.8872 2.5567,-5.2256c1.579,-1.3383 3.7591,-2.1662 6.1655,-2.1662z" stroke-width="0.8822" stroke-linecap="butt"/><path d="M238.1112,250.4436l-3.3049,1.5206l-3.6676,3.3922l-2.1361,3.2361l-1.4913,-3.86l-0.1209,-3.1192l0.6046,-5.6535l3.063,-3.7041l3.8289,-3.5091l7.2547,-2.5344l5.844,0.195l7.2547,1.7545l5.441,3.3142l3.2646,4.1329l1.1285,5.1077l-0.6046,4.016l-2.0152,4.7568l-5.8037,-5.5366l-4.9977,-3.2362l-6.5292,-0.1169z" stroke-width="0.79305" stroke-linecap="round"/></g></g></svg>