<svg version="1.1" xmlns="http://www.w3.org/2000/svg" xmlns:xlink="http://www.w3.org/1999/xlink" width="41.14065" height="29.72472" viewBox="0,0,41.14065,29.72472"><g transform="translate(-418.51591,-124.25387)"><g data-paper-data="{&quot;isPaintingLayer&quot;:true}" fill="#000000" fill-rule="nonzero" stroke-miterlimit="10" stroke-dasharray="" stroke-dashoffset="0" style="mix-blend-mode: normal"><g><path d="M453.7601,135.6454l-6.2586,1.6436l-3.7299,-0.0316l-12.2011,2.8764c-2.3075,2.4656 -4.3305,4.9311 -4.8046,7.1753c-0.7586,-0.6638 0.1264,-1.8017 0.3161,-2.9712c-1.3592,2.1178 -1.1063,4.3304 -0.6954,6.6063c0.2212,1.1695 -0.4425,2.1178 -0.8535,1.3908c-1.2327,-2.1495 -1.9281,-4.5201 -1.5488,-7.1437c-1.2012,2.2126 -3.0661,2.8132 -5.1523,2.7816c4.4569,-4.4569 1.2012,-9.2615 6.7644,-11.1264c-3.0661,1.0747 -4.7098,-0.7586 -5.3736,-2.2126c7.6494,-0.411 3.7931,-7.681 15.8362,-6.3219c-4.0144,-0.5057 -5.2471,-1.8649 -5.8793,-3.6666c7.5546,2.6868 10.4626,-4.4253 20.2298,5.0258c0.2213,-0.6954 0.2845,-1.2643 -0.8218,-1.612c3.0344,0.1264 7.6178,3.2873 7.681,8.5344c0.7586,-1.0747 0.8534,-0.8218 0.6638,-1.8333c3.2873,5.9109 0.2212,11.6005 -3.0977,18.9022c0.1264,-4.931 -1.2012,-6.543 0.0632,-11.7269" stroke="#666666" stroke-width="0.63218" stroke-linecap="round" stroke-linejoin="round"/><path d="M455.8147,148.0677c-2.4972,-1.6752 -6.5747,-4.204 -4.8995,-7.5862c-14.7298,6.069 -20.4827,3.9828 -24.5918,-1.0747c1.8333,0.8219 3.635,1.5173 4.7413,0.7587c-2.0546,-0.8219 -3.0028,-1.8966 -3.635,-3.0345c1.4224,0.727 2.7816,1.2327 3.8563,0.6954c-2.592,-1.2644 -3.1293,-3.1925 -2.9713,-5.3736c2.4972,2.7816 6.4799,3.5086 11.0632,3.4138c-3.9511,-1.1379 -6.4166,-2.4971 -5.8793,-4.2672c6.227,2.6868 11.0316,-2.4971 15.3304,2.3075l5.5632,1.454c2.4656,3.6982 2.0546,7.9339 1.4225,12.7068z" stroke="none" stroke-width="0.31609" stroke-linecap="butt" stroke-linejoin="miter"/><path d="M452.3693,140.5764l2.2442,-0.1265l2.3075,7.6811c-1.7069,-1.6121 -4.5517,-4.6782 -4.5517,-7.5546z" stroke="none" stroke-width="0.31609" stroke-linecap="butt" stroke-linejoin="miter"/><path d="M455.8463,148.0677c-2.4972,-1.6752 -5.409,-4.9199 -4.8678,-7.5862c-12.4553,4.3008 -11.2447,3.9992 -17.0531,3.7457c-2.9858,-0.1302 -4.2976,-0.7532 -7.5704,-4.8204c1.2517,0.4394 3.635,1.5173 4.7413,0.7587c-2.0229,-0.8219 -3.0028,-1.8966 -3.635,-3.0345c1.4224,0.727 2.75,1.2327 3.8247,0.6954c-2.592,-1.2644 -3.1293,-3.1925 -2.9397,-5.3736c2.4972,2.7816 6.4799,3.5086 11.0316,3.4138c-3.9195,-1.1379 -6.385,-2.4971 -5.8793,-4.2672c6.227,2.6868 11,-2.4971 15.2988,2.3075" stroke="#666666" stroke-width="0.63218" stroke-linecap="round" stroke-linejoin="round"/></g></g></g></svg>