<svg version="1.1" xmlns="http://www.w3.org/2000/svg" xmlns:xlink="http://www.w3.org/1999/xlink" width="32.97223" height="24.29805" viewBox="0,0,32.97223,24.29805"><g transform="translate(-223.51373,-168.07323)"><g data-paper-data="{&quot;isPaintingLayer&quot;:true}" fill="#000000" fill-rule="nonzero" stroke="#000000" stroke-width="0.47962" stroke-linecap="round" stroke-linejoin="miter" stroke-miterlimit="10" stroke-dasharray="" stroke-dashoffset="0" style="mix-blend-mode: normal"><path d="M240.00005,184.00385l-3.1657,-0.6767l-3.6088,-0.2256l-2.6972,-0.2256l-2.4818,-1.5789l-0.3546,1.8045l-2.5832,8.4586l-1.0256,-3.2706l-0.3293,-3.3835l0.114,-4.2857l0.4432,-8.9098l4.0774,3.1579l1.6841,-4.9624l4.0774,2.312l2.7984,-3.7782l2.8111,2.8196l3.0517,-2.7068l2.5958,3.2707l4.0521,-2.3684l1.5322,4.6804l3.6595,-2.312l1.1269,8.3459l0.4685,4.8496v4.4549l-1.2536,1.0714l-1.013,-4.3985l-2.026,-4.6241l-2.4819,0.4512l-3.3809,0.9022z"/></g></g></svg>