<svg version="1.1" xmlns="http://www.w3.org/2000/svg" xmlns:xlink="http://www.w3.org/1999/xlink" width="33.96072" height="27.19068" viewBox="0,0,33.96072,27.19068"><g transform="translate(-223.01865,-166.61991)"><g data-paper-data="{&quot;isPaintingLayer&quot;:true}" fill="#000000" fill-rule="nonzero" stroke="#000000" stroke-width="0.53224" stroke-linecap="round" stroke-linejoin="miter" stroke-miterlimit="10" stroke-dasharray="" stroke-dashoffset="0" style="mix-blend-mode: normal"><path d="M226.27245,188.8209l-0.8438,4.0869l-1.4928,-3.6101l-0.6491,-5.5854l0.6491,-5.0405l1.6226,-3.6782l2.5963,-3.9507l2.2717,-1.4304l3.6347,-1.771l4.803,-0.9536l3.8295,0.2725l4.089,0.8855l4.5435,2.1115l2.7909,3.6101l1.6227,3.7463l0.9735,5.7898v5.381l-0.9086,3.4739l-1.0385,0.9536l-0.5193,-0.4087l-2.6352,-8.1738l-2.5443,5.7217l-1.1553,-7.084l-2.5443,5.1768l-1.8433,-5.1768l-3.2323,4.6318l-2.778,-5.9941l-1.6227,6.8115l-3.4659,-5.4492l-1.6227,6.8115l-4.154,-5.4492l-0.3115,4.4275z"/></g></g></svg>