<svg version="1.1" xmlns="http://www.w3.org/2000/svg" xmlns:xlink="http://www.w3.org/1999/xlink" width="34.21201" height="41.12821" viewBox="0,0,34.21201,41.12821"><g transform="translate(-359.10059,-126.93359)"><g data-paper-data="{&quot;isPaintingLayer&quot;:true}" fill-rule="nonzero" stroke-linecap="butt" stroke-linejoin="miter" stroke-miterlimit="10" stroke-dasharray="" stroke-dashoffset="0" style="mix-blend-mode: normal"><path d="M376.2066,128.7347c4.2223,0 8.0494,2.1032 10.8192,5.4997c2.7716,3.3966 4.4857,8.0865 4.4857,13.2633c0,5.1768 -1.7141,9.8667 -4.4857,13.2632c-2.7698,3.3966 -6.5969,5.4998 -10.8192,5.4998c-4.2223,0 -8.0495,-2.1032 -10.8192,-5.4998c-2.7716,-3.3965 -4.4857,-8.0864 -4.4857,-13.2632c0,-5.1768 1.7141,-9.8667 4.4857,-13.2633c2.7697,-3.3965 6.5969,-5.4997 10.8192,-5.4997z" fill="#ffffff" stroke="#cccccc" stroke-width="3.60221"/><g stroke="#000000"><path d="M367.8401,141.2482c1.8322,0 3.4919,0.7134 4.6942,1.8668c1.2023,1.1524 1.946,2.745 1.946,4.5023c0,1.7574 -0.7437,3.3499 -1.946,4.5023c-1.2023,1.1535 -2.862,1.8668 -4.6942,1.8668c-1.8321,0 -3.4919,-0.7133 -4.6941,-1.8668c-1.2023,-1.1524 -1.946,-2.7449 -1.946,-4.5023c0,-1.7573 0.7437,-3.3499 1.946,-4.5023c1.2022,-1.1534 2.862,-1.8668 4.6941,-1.8668z" fill="none" stroke-width="1.0841"/><path d="M384.6901,141.2482c1.8322,0 3.4919,0.7134 4.6942,1.8668c1.2023,1.1524 1.946,2.745 1.946,4.5023c0,1.7574 -0.7437,3.3499 -1.946,4.5023c-1.2023,1.1535 -2.862,1.8668 -4.6942,1.8668c-1.8321,0 -3.4919,-0.7133 -4.6941,-1.8668c-1.2023,-1.1524 -1.946,-2.7449 -1.946,-4.5023c0,-1.7573 0.7437,-3.3499 1.946,-4.5023c1.2022,-1.1534 2.862,-1.8668 4.6941,-1.8668z" fill="none" stroke-width="1.0841"/><path d="M374.1615,146.0778h3.761v1.9956h-3.761z" fill="#000000" stroke-width="0.30702"/></g></g></g></svg>