<svg version="1.1" xmlns="http://www.w3.org/2000/svg" xmlns:xlink="http://www.w3.org/1999/xlink" width="34.21201" height="41.12821" viewBox="0,0,34.21201,41.12821"><g transform="translate(-229.00059,-180.93359)"><g data-paper-data="{&quot;isPaintingLayer&quot;:true}" fill-rule="nonzero" stroke-linejoin="miter" stroke-miterlimit="10" stroke-dasharray="" stroke-dashoffset="0" style="mix-blend-mode: normal"><path d="M246.1066,182.7347c4.2223,0 8.0494,2.1032 10.8192,5.4997c2.7716,3.3966 4.4857,8.0865 4.4857,13.2633c0,5.1768 -1.7141,9.8667 -4.4857,13.2632c-2.7698,3.3966 -6.5969,5.4998 -10.8192,5.4998c-4.2223,0 -8.0495,-2.1032 -10.8192,-5.4998c-2.7716,-3.3965 -4.4857,-8.0864 -4.4857,-13.2632c0,-5.1768 1.7141,-9.8667 4.4857,-13.2633c2.7697,-3.3965 6.5969,-5.4997 10.8192,-5.4997z" fill="#ffffff" stroke="#cccccc" stroke-width="3.60221" stroke-linecap="butt"/><g fill="none" stroke="#000000" stroke-width="0.85041" stroke-linecap="round"><path d="M238.4519,199.0195c1.5324,0.2143 3.0631,0.6922 4.252,1.6158c0.7186,0.4805 1.1404,1.4601 1.063,2.2961c-0.108,1.1625 -0.5595,2.3701 -1.4644,3.1865c-0.904,0.8155 -2.1532,1.3207 -3.5317,1.3207c-1.3785,0 -2.496,-0.6166 -3.5318,-1.3207c-1.1319,-0.7688 -2.6295,-1.5461 -3.0802,-2.8464c-0.3129,-1.3462 -0.051,-3.246 1.1056,-3.9969c1.4754,-0.9575 3.4747,-0.4932 5.1875,-0.2551z"/><path d="M257.43559,199.2746c1.1566,0.7509 1.4185,2.6507 1.1056,3.9969c-0.4507,1.3003 -1.9483,2.0776 -3.0802,2.8464c-1.0358,0.7041 -2.1533,1.3207 -3.5318,1.3207c-1.3785,0 -2.6277,-0.5052 -3.5317,-1.3207c-0.9049,-0.8164 -1.3564,-2.024 -1.4644,-3.1865c-0.0774,-0.836 0.3444,-1.8156 1.063,-2.2961c1.1889,-0.9236 2.7196,-1.4015 4.252,-1.6158c1.7128,-0.2381 3.7121,-0.7024 5.1875,0.2551z"/><path d="M243.8945,202.9463l2.9764,0.1276z"/></g></g></g></svg>