<svg version="1.1" xmlns="http://www.w3.org/2000/svg" xmlns:xlink="http://www.w3.org/1999/xlink" width="34.21201" height="41.12821" viewBox="0,0,34.21201,41.12821"><g transform="translate(-229.4506,-126.9336)"><g data-paper-data="{&quot;isPaintingLayer&quot;:true}" fill-rule="nonzero" stroke-linejoin="miter" stroke-miterlimit="10" stroke-dasharray="" stroke-dashoffset="0" style="mix-blend-mode: normal"><path d="M246.5566,128.73471c4.2223,0 8.0494,2.1032 10.8192,5.4997c2.7716,3.3966 4.4857,8.0865 4.4857,13.2633c0,5.1768 -1.7141,9.8667 -4.4857,13.2632c-2.7698,3.3966 -6.5969,5.4998 -10.8192,5.4998c-4.2223,0 -8.0495,-2.1032 -10.8192,-5.4998c-2.7716,-3.3965 -4.4857,-8.0864 -4.4857,-13.2632c0,-5.1768 1.7141,-9.8667 4.4857,-13.2633c2.7697,-3.3965 6.5969,-5.4997 10.8192,-5.4997z" fill="#ffffff" stroke="#cccccc" stroke-width="3.60221" stroke-linecap="butt"/><g fill="none" stroke="#000000" stroke-width="0.9523"><path d="M232.0932,140.6917h12.1418v9.0468h-12.1418z" stroke-linecap="butt"/><path d="M248.7432,140.6917h12.1418v9.0468h-12.1418z" stroke-linecap="butt"/><path d="M244.4254,144.2842l3.6664,0.0953z" stroke-linecap="round"/></g></g></g></svg>