<svg version="1.1" xmlns="http://www.w3.org/2000/svg" xmlns:xlink="http://www.w3.org/1999/xlink" width="33.91726" height="11.52944" viewBox="0,0,33.91726,11.52944"><g transform="translate(-359.05334,-199.30073)"><g data-paper-data="{&quot;isPaintingLayer&quot;:true}" fill="#000000" fill-rule="nonzero" stroke="#000000" stroke-width="2.11576" stroke-linecap="round" stroke-linejoin="miter" stroke-miterlimit="10" stroke-dasharray="" stroke-dashoffset="0" style="mix-blend-mode: normal"><path d="M360.2765,207.65c-0.6153,0.015 0.6521,-1.538 1.1128,-2.3c0.3249,-0.447 0.7589,-0.824 1.224,-1.3c0.7367,-0.75 1.3353,-1.6 2.3368,-2.15c0.7233,-0.55 1.6135,-0.95 2.5593,-1.2c0.8902,-0.3 1.9474,-0.2 3.0045,-0.3c1.1684,-0.1 2.5037,-0.15 3.839,-0.05c1.0571,-0.1 2.1698,-0.15 3.3382,0c1.1684,0.2 2.615,0.35 3.7278,0.85c0.9458,0.4 1.6135,1.15 2.3924,1.8c0.8902,0.75 1.7804,1.75 2.5593,2.75c0.5564,0.95 1.6692,3.4 2.0586,3.55l-4.0615,0.4c0,0 -0.8346,-2.05 -1.2797,-2.85c-0.5564,-0.85 -1.224,-1.65 -1.8917,-2.3c-0.612,-0.55 -1.1127,-1.15 -1.836,-1.5c-0.8346,-0.4 -1.8917,-0.55 -2.7819,-0.7c-0.8902,-0.15 -1.7248,-0.1 -2.5037,0c-1.0015,-0.1 -2.003,-0.05 -2.8932,0.05c-0.7789,0.05 -1.5578,0 -2.2255,0.25c-0.7233,0.2 -1.3909,0.55 -1.9473,1c-0.7233,0.45 -1.2496,1.166 -1.7248,1.8c-0.9714,0.905 -3.6565,2.155 -1.7804,3z"/></g></g></svg>