<svg version="1.1" xmlns="http://www.w3.org/2000/svg" xmlns:xlink="http://www.w3.org/1999/xlink" width="36.16477" height="36.98311" viewBox="0,0,36.16477,36.98311"><g transform="translate(-289.7462,-123.86603)"><g data-paper-data="{&quot;isPaintingLayer&quot;:true}" fill-rule="nonzero" stroke="#000000" stroke-width="0.38386" stroke-linejoin="miter" stroke-miterlimit="10" stroke-dasharray="" stroke-dashoffset="0" style="mix-blend-mode: normal"><g><path d="M307.9657,143.1163l-4.1265,3.4547l-5.3741,2.1113l-1.9193,10.7481l-0.8637,-9.1167l0.2879,-9.2127l2.0153,-4.6063l2.9749,-3.7427l3.6467,-2.687l1.2476,-0.7677l1.6314,-0.7678l1.6314,-0.0959l1.4875,0.048l1.5354,0.0959l1.5835,0.2399l2.1112,0.7198l1.5834,0.9117l1.1036,0.7677l1.3915,1.3915l1.2956,1.5834l1.0076,1.5834l1.1036,1.5835l0.7677,1.7273l0.9597,7.7732l0.6717,12.7634l-2.783,-11.1319l-2.8789,-4.3185l-2.1113,-2.2072l-2.783,-3.9346z" fill="#000000" stroke-linecap="round"/><path d="M300.0145,132.269l3.4578,-2.7442l0.6562,0.8268l-3.4578,2.7443z" fill="#001966" stroke-linecap="butt"/><path d="M297.8081,130.3026l-2.5911,0.5758l-1.8233,2.1112l0.9596,16.89l-1.0556,-0.9597l-0.4798,1.3435l-0.9597,-1.1516l-0.2879,0.8637l-0.5758,-0.6717l-0.4798,0.7677l-0.5758,-17.3698l1.5355,-6.2377l5.7579,-2.3992l1.6314,0.2879l2.1112,1.7274l2.1113,3.9346l-2.4951,2.3032l-1.4395,-1.8234l-1.0556,-0.1919z" fill="#000000" stroke-linecap="round"/></g></g></g></svg>