<svg version="1.1" xmlns="http://www.w3.org/2000/svg" xmlns:xlink="http://www.w3.org/1999/xlink" width="38.66062" height="41.93326" viewBox="0,0,38.66062,41.93326"><g transform="translate(-355.02035,-234.02715)"><g data-paper-data="{&quot;isPaintingLayer&quot;:true}" fill="#000000" fill-rule="nonzero" stroke="#000000" stroke-linecap="round" stroke-linejoin="miter" stroke-miterlimit="10" stroke-dasharray="" stroke-dashoffset="0" style="mix-blend-mode: normal"><g><path d="M355.6529,252.0077l1.0182,-4.6694l1.3341,-3.6512l3.9672,-4.6694l4.9854,-3.23l5.6173,-1.4043l7.3727,0.8777l5.4418,4.3885l2.8086,4.7396l2.1065,3.4055l1.7554,3.9672l-4.88,7.4781l-2.1416,-4.8449l-4.1779,-9.3739l-1.7905,2.5278l-2.2118,3.5459l-2.5629,1.8958l-3.7566,1.6852l2.4225,-4.7747l1.1234,-4.4587l-2.8788,0.7724l-2.3172,1.5096l-8.426,8.6015z" stroke-width="0.70217"/><path d="M355.7583,252.1375l4.5289,4.0374l1.931,3.6864l4.564,4.9151l-6.3546,-1.966l4.9854,10.6378l-5.1258,-3.7566l1.7554,4.9151l-4.3885,-1.9309l-1.7554,-5.9684l-0.5266,-7.3727z" stroke-width="0.70217"/><path d="M393.3279,259.8347l-0.5266,7.3727l-1.7554,5.9684l-2.282,1.1234l1.4394,-7.7589l-4.3183,7.2323l2.5629,-10.4622l-2.9842,1.5798l-3.5459,0.3862l4.564,-4.9151l0.632,-0.8426l3.5459,-5.7577l1.4395,-1.6501z" stroke-width="0.70217"/><path d="M359.0094,257.0895l-2.8861,-3.7556l0.3316,-1.4431l4.4368,3.4061z" stroke-width="0.35853"/><path d="M391.8148,253.2353l-3.173,6.9913l-1.5596,-2.5545l4.3741,-6.1398z" stroke-width="0.35853"/></g></g></g></svg>