<svg version="1.1" xmlns="http://www.w3.org/2000/svg" xmlns:xlink="http://www.w3.org/1999/xlink" width="33.78011" height="18.94302" viewBox="0,0,33.78011,18.94302"><g transform="translate(-357.46384,-127.41914)"><g data-paper-data="{&quot;isPaintingLayer&quot;:true}" fill="#000000" fill-rule="nonzero" stroke="#000000" stroke-width="1.37652" stroke-linecap="round" stroke-linejoin="miter" stroke-miterlimit="10" stroke-dasharray="" stroke-dashoffset="0" style="mix-blend-mode: normal"><path d="M363.2903,132.4493c0.5529,-0.4313 1.0384,-1.0589 1.6354,-1.3346c0.868,-0.3983 1.7953,-0.5875 2.6851,-0.91c1.0613,-0.3846 2.1006,-0.8799 3.1732,-1.2132c0.8817,-0.2739 1.7909,-0.4047 2.685,-0.6067c0.8942,-0.202 1.7773,-0.5554 2.6851,-0.6066c0.8968,-0.0507 1.8095,0.0561 2.685,0.3033c0.9278,0.2621 1.8574,0.6303 2.6851,1.2133c1.6281,1.1465 3.0724,2.6689 4.6378,3.9431c0.7928,0.6455 1.6928,1.0968 2.441,1.8199c0.7259,0.7016 1.5414,1.4044 1.9527,2.4265c0.4423,1.099 0.6395,2.4257 0.4882,3.6399c-0.1806,1.4525 -0.227,4.4554 -1.4768,4.5497c-1.8446,0.0716 -3.026,-2.9067 -4.7354,-3.9128c-0.8619,-0.512 -1.8771,-0.0558 -2.8071,-0.1668c-0.9022,-0.1602 -1.7717,-0.586 -2.6729,-0.5005c-0.9221,-0.0315 -1.7853,0.6588 -2.7094,0.637c-0.9264,-0.0219 -1.7592,-0.8599 -2.6851,-0.91c-0.9878,-0.0533 -1.9627,0.3455 -2.9291,0.6067c-0.9056,0.2447 -1.7592,0.8578 -2.6851,0.9099c-0.9077,0.0513 -1.7772,-0.5823 -2.685,-0.6066c-0.5934,-0.024 -0.8819,0.2906 -1.2327,0.6066c-0.7703,0.6443 -1.303,1.4399 -2.0748,1.9109c-1.4052,0.8575 -2.9562,2.6025 -4.1984,1.9564c-1.0096,-0.461 -0.3784,-2.752 -0.3051,-4.1706c0.0566,-1.1259 0.2743,-2.2394 0.4881,-3.3365c0.1838,-0.9521 0.3205,-1.8781 0.8056,-2.5933c0.3588,-0.715 1.0447,-1.0477 1.611,-1.5015c0.8536,-0.6961 1.6476,-1.4835 2.5386,-2.1535z"/></g></g></svg>