<svg version="1.1" xmlns="http://www.w3.org/2000/svg" xmlns:xlink="http://www.w3.org/1999/xlink" width="54.87402" height="42.63001" viewBox="0,0,54.87402,42.63001"><g transform="translate(-282.84454,-182.26268)"><g data-paper-data="{&quot;isPaintingLayer&quot;:true}" fill-rule="nonzero" stroke="#000000" stroke-linejoin="miter" stroke-miterlimit="10" stroke-dasharray="" stroke-dashoffset="0" style="mix-blend-mode: normal"><g><path d="M298.354,203.2524l-1.7746,-6.4181l0.5219,-3.7694l1.3049,-2.7506l0.5845,-2.5469l1.117,-1.3754l1.3048,-1.2734l1.8164,-1.1206l1.1587,-0.6113l1.8372,-0.5094l1.2736,-0.2037l0.8873,-0.2038l1.4197,0.051l0.929,0.2037l1.1796,0.2547l1.117,0.2547l1.2318,0.2037l1.2839,0.4585l1.2736,0.6112l0.8142,0.4585l0.9291,0.5603l0.7933,0.6113l0.7934,0.9168l0.5741,0.9678l0.6472,1.3754l1.3049,2.8015l0.7829,4.3298l0.1774,4.2787l-0.7411,3.4638l-0.9291,-2.445l-1.3779,-4.0241l-1.3571,1.5791l-1.8268,-8.4557l-0.8351,3.3619l-1.023,2.2413l-1.5762,2.2412l-0.4698,-2.7506l-0.4697,-1.9357l-0.2714,-2.0375l-3.6223,7.1313l-1.3884,-5.6031l-2.2443,4.4316l-0.2819,-2.8016l-0.4593,-2.6488l-1.023,-2.3431l-1.3048,2.8525l-0.7412,2.8525l-0.1044,3.4128l-2.0356,-2.394z" fill="#000000" stroke-width="0.41256" stroke-linecap="round"/><g><path d="M295.3971,189.6834l2.2314,1.2225l-0.9298,2.7506l-0.7438,0.5094l-1.5805,2.5469l-0.4649,4.7882l1.1688,6.7092l0.3188,5.3121l-2.2314,4.2787l-3.1612,2.6488l-0.9297,2.8525l-0.7438,-2.8525l1.1157,-2.445l-0.9298,-3.6675l-5.0207,-8.1501l-0.3719,-2.6487l0.186,-3.26l3.1611,-5.7051l4.4629,-4.89z" fill="#000000" stroke-width="0.5573" stroke-linecap="round"/><path d="M296.9794,194.283l-0.8005,-0.2671l0.9097,-3.2738l0.8005,0.267z" fill="#001966" stroke-width="0.51057" stroke-linecap="butt"/></g><g><path d="M329.1157,190.2834l4.4629,4.89l3.1611,5.7051l0.6907,2.8525l-0.8766,3.0562l-5.0207,8.1501l-0.9298,3.6675l1.1157,2.445l-0.7438,2.8525l-0.9297,-2.8525l-3.1612,-2.6488l-2.2314,-4.2787l0.3188,-5.3121l1.1688,-6.7092l-0.4649,-4.7882l-1.5805,-2.5469l-0.7438,-0.5094l-0.9298,-2.7506l2.2314,-1.2225z" fill="#000000" stroke-width="0.5573" stroke-linecap="round"/><path d="M322.1609,191.6591l0.8005,-0.267l0.9097,3.2738l-0.8005,0.2671z" fill="#001966" stroke-width="0.51057" stroke-linecap="butt"/></g></g></g></g></svg>