<svg version="1.1" xmlns="http://www.w3.org/2000/svg" xmlns:xlink="http://www.w3.org/1999/xlink" width="34.93678" height="24.46228" viewBox="0,0,34.93678,24.46228"><g transform="translate(-229.00302,-126.5694)"><g data-paper-data="{&quot;isPaintingLayer&quot;:true}" fill-rule="nonzero" stroke-linecap="round" stroke-linejoin="miter" stroke-miterlimit="10" stroke-dasharray="" stroke-dashoffset="0" style="mix-blend-mode: normal"><g><path d="M229.377,140.7897l0.8634,-3.4582l1.535,-3.5469l1.7268,-2.3055l3.7414,-2.7488l3.9333,-0.9754l5.0845,-0.6207l5.1804,0.1773l4.2211,1.5075l4.6049,3.9015l2.6861,3.813l0.4797,2.5714l-0.2878,6.8278l-1.6309,-0.266l-4.0292,-2.2168l-5.852,-0.7094l-5.6601,-0.1773l-5.9479,0.1773l-4.0292,0.532l-6.2357,1.4188z" fill="#ff0000" stroke="#000000" stroke-width="0.739"/><path d="M230.0894,138.5549l8.0584,-3.1922l4.0293,-0.9753l5.5641,-0.1774l6.2357,0.3547l4.7967,1.6848l4.7967,3.1035" fill="none" stroke="#000000" stroke-width="0.739"/><path d="M232.2959,137.7569l0.3837,6.0297" fill="none" stroke="#000000" stroke-width="0.739"/><path d="M239.299,134.9194v7.5371" fill="none" stroke="#000000" stroke-width="0.739"/><path d="M242.9445,134.476l0.096,7.7145" fill="none" stroke="#000000" stroke-width="0.739"/><path d="M246.3982,134.2987l0.0959,7.8031" fill="none" stroke="#000000" stroke-width="0.739"/><path d="M249.8518,142.4565l0.0959,-8.1578" fill="none" stroke="#000000" stroke-width="0.739"/><path d="M253.9769,142.3679l0.096,-7.7145" fill="none" stroke="#000000" stroke-width="0.739"/><path d="M261.4598,137.9342l-0.1919,7.2712" fill="none" stroke="#000000" stroke-width="0.739"/><path d="M246.3982,126.9389l0.0959,6.7391" fill="none" stroke="#000000" stroke-width="0.739"/><path d="M254.6485,128.535l2.2065,3.1035l1.0552,4.5223l-0.0959,7.0938" fill="none" stroke="#000000" stroke-width="0.739"/><path d="M235.7495,142.8999l-0.4797,-6.7391l0.2878,-2.4828l0.6716,-1.9508l1.6308,-3.2809" fill="none" stroke="#000000" stroke-width="0.739"/><path d="M258.0062,143.846l5.1804,2.3128v1.4124l-0.6715,1.6772l-1.2472,1.2182l-1.6308,-2.2951z" fill="#000000" stroke="#666666" stroke-width="0.73748"/><path d="M233.7629,147.0202l-1.6308,2.3055l-1.0937,-1.5606l-0.8634,-1.5961l-0.2494,-1.2769l5.3339,-1.4188z" fill="#000000" stroke="#666666" stroke-width="0.739"/></g></g></g></svg>