<svg version="1.1" xmlns="http://www.w3.org/2000/svg" xmlns:xlink="http://www.w3.org/1999/xlink" width="38.48603" height="25.46462" viewBox="0,0,38.48603,25.46462"><g transform="translate(-422.1773,-233.45866)"><g data-paper-data="{&quot;isPaintingLayer&quot;:true}" fill="#000000" fill-rule="nonzero" stroke="#000000" stroke-width="0.74327" stroke-linejoin="miter" stroke-miterlimit="10" stroke-dasharray="" stroke-dashoffset="0" style="mix-blend-mode: normal"><g><path d="M452.9431,233.8303c2.0274,0 3.8642,0.6975 5.1945,1.8251c1.3303,1.1276 2.1541,2.6846 2.1541,4.4027c0,1.7182 -0.8238,3.2751 -2.1541,4.4027c-1.3303,1.1277 -3.1671,1.8252 -5.1945,1.8252c-2.0275,0 -3.8643,-0.6975 -5.1946,-1.8252c-1.3303,-1.1276 -2.1541,-2.6845 -2.1541,-4.4027c0,-1.7181 0.8238,-3.2751 2.1541,-4.4027c1.3303,-1.1276 3.1671,-1.8251 5.1946,-1.8251z" stroke-linecap="butt"/><path d="M432.574,249.7821l-3.0902,1.4287l-3.4293,3.1872l-1.9974,3.0407l-1.3943,-3.6268l-0.1131,-2.9308l0.5653,-5.312l2.8641,-3.4802l3.5801,-3.2971l6.7833,-2.3812l5.4644,0.1831l6.7834,1.6486l5.0875,3.1139l3.0525,3.8832l1.0552,4.7991l-0.5653,3.7734l-1.8843,4.4694l-5.4266,-5.2021l-4.673,-3.0407l-6.105,-0.1099z" stroke-linecap="round"/></g></g></g></svg>