<svg xmlns="http://www.w3.org/2000/svg" xmlns:xlink="http://www.w3.org/1999/xlink" version="1.1" width="94.3499984741211" height="18.75" viewBox="1.4000000953674316 0 94.3499984741211 18.75">
  <!-- Exported by Scratch - http://scratch.mit.edu/ -->
  <path id="ID0.7257939539849758" fill="#663B00" stroke="#8E4D28" stroke-width="2" stroke-linecap="round" d="M 33.25 17.5 L 29.9 15.25 L 25.4 10.6 L 20 7.1 L 14.75 5.4 L 8.25 5.4 L 2.4 7.25 L 4.5 4 L 8.25 1.9 L 11.75 1.1 L 19.75 1.4 L 23.25 2.25 L 28.4 5.5 L 32.5 7.6 L 36.1 9.6 L 38 11.75 L 38.5 14.25 L 38 17.1 L 36.25 17.75 L 34.1 17.5 Z "/>
  <g id="ID0.3518518665805459">
    <path id="ID0.41998048359528184" fill="none" stroke="#003FFF" stroke-width="2" stroke-linecap="round" d="M 59.65 17.15 L 61.9 17.4 Z "/>
    <path id="ID0.40504002338275313" fill="none" stroke="#003FFF" stroke-width="2" stroke-linecap="round" d="M 61.9 17.4 L 63.9 17.4 Z "/>
    <path id="ID0.7257939539849758" fill="#663B00" stroke="#8E4D28" stroke-width="2" stroke-linecap="round" d="M 63.9 17.4 L 67.25 15.15 L 71.75 10.5 L 77.15 7 L 82.4 5.3 L 88.9 5.3 L 94.75 7.15 L 92.65 3.9 L 88.9 1.8 L 85.4 1 L 77.4 1.3 L 73.9 2.15 L 68.75 5.4 L 64.65 7.5 L 61.05 9.5 L 59.15 11.65 L 58.65 14.15 L 59.15 17 L 60.9 17.65 L 63.05 17.4 Z "/>
  </g>
</svg>