<svg xmlns="http://www.w3.org/2000/svg" xmlns:xlink="http://www.w3.org/1999/xlink" version="1.1" width="92.62147258844928" height="14.914658776193416" viewBox="0.28377688364706577 0.4489918990584427 92.62147258844928 14.914658776193416">
  <!-- Exported by Scratch - http://scratch.mit.edu/ -->
  <path id="ID0.997973789460957" fill="#663B00" stroke="#663B00" stroke-width="2.3819019707734954" stroke-linecap="round" d="M 63.6532 12.7654 C 61.5411 11.8141 64.5639 10.4069 65.6576 9.3881 C 66.1925 8.6743 66.785 7.8682 67.5993 7.3616 C 68.2257 6.855 68.9773 6.461 69.7916 6.2358 C 70.5432 5.9544 71.4201 6.0107 72.297 5.9544 C 73.2992 5.8418 74.4267 5.7855 75.5541 5.8981 C 76.431 5.7855 77.3706 5.7292 78.3728 5.8981 C 79.3749 6.067 80.565 6.2358 81.5046 6.6862 C 82.3188 7.0802 82.8826 7.7557 83.5716 8.3748 C 84.3232 9.1066 85.0748 10.0072 85.7012 10.9642 C 86.2023 11.8648 87.1418 14.1727 87.1418 14.1727 L 91.7143 13.7223 C 91.2758 13.5535 90.0231 10.7953 89.3968 9.7258 C 88.5198 8.6 87.5177 7.4742 86.5155 6.6299 C 85.6386 5.8981 84.8869 5.0538 83.8221 4.6034 C 82.5694 4.0405 80.9408 3.8717 79.6255 3.6465 C 78.3101 3.4777 77.0574 3.5339 75.8673 3.6465 C 74.364 3.5339 72.8608 3.5902 71.5454 3.7028 C 70.3553 3.8154 69.1652 3.7028 68.163 4.0405 C 67.0982 4.322 66.096 4.7723 65.2818 5.3915 C 64.1543 6.0107 63.4803 6.9676 62.651 7.8119 C 62.1274 8.3478 61.6388 8.7722 61.273 9.2755 C 60.7544 10.1333 59.3275 11.8817 60.0203 11.8648 Z "/>
  <path id="ID0.997973789460957" fill="#663B00" stroke="#663B00" stroke-width="2.3819019707734954" stroke-linecap="round" d="M 1.9725 11.2594 C 3.1438 11.3191 4.974 8.9156 6.6076 7.4881 C 7.3204 6.8689 7.735 5.9682 8.5493 5.4616 C 9.1757 4.955 9.9273 4.561 10.7416 4.3358 C 11.4932 4.0544 12.3701 4.1107 13.247 4.0544 C 14.2492 3.9418 15.3767 3.8855 16.5041 3.9981 C 17.381 3.8855 18.3206 3.8292 19.3228 3.9981 C 20.3249 4.167 21.515 4.3358 22.4546 4.7862 C 23.2688 5.1802 23.8326 5.8557 24.5216 6.4748 C 25.2732 7.2066 26.0248 8.1072 26.6512 9.0642 C 27.1523 9.9648 28.0918 12.2727 28.0918 12.2727 L 32.6643 11.8223 C 32.2258 11.6535 30.9731 8.8953 30.3468 7.8258 C 29.4698 6.7 28.4677 5.5742 27.4655 4.7299 C 26.5886 3.9981 25.8369 3.1538 24.7721 2.7034 C 23.5194 2.1405 21.8908 1.9717 20.5755 1.7465 C 19.2601 1.5777 18.0074 1.6339 16.8173 1.7465 C 15.314 1.6339 13.8108 1.6902 12.4954 1.8028 C 11.3053 1.9154 10.1152 1.8028 9.113 2.1405 C 8.0482 2.422 7.046 2.8723 6.2318 3.4915 C 5.1043 4.1107 4.4303 5.0676 3.601 5.9119 C 3.0774 6.4478 2.4435 6.7664 2.223 7.3755 C 1.7269 8.7275 0.959 11.2628 1.9725 11.2594 Z "/>
</svg>