<svg version="1.1" xmlns="http://www.w3.org/2000/svg" xmlns:xlink="http://www.w3.org/1999/xlink" width="34.21201" height="44.82437" viewBox="0,0,34.21201,44.82437"><g transform="translate(-359.10059,-126.93359)"><g data-paper-data="{&quot;isPaintingLayer&quot;:true}" fill-rule="nonzero" stroke-linejoin="miter" stroke-miterlimit="10" stroke-dasharray="" stroke-dashoffset="0" style="mix-blend-mode: normal"><path d="M376.2066,128.7347c4.2223,0 8.0494,2.1032 10.8192,5.4997c2.7716,3.3966 4.4857,8.0865 4.4857,13.2633c0,5.1768 -1.7141,9.8667 -4.4857,13.2632c-2.7698,3.3966 -6.5969,5.4998 -10.8192,5.4998c-4.2223,0 -8.0495,-2.1032 -10.8192,-5.4998c-2.7716,-3.3965 -4.4857,-8.0864 -4.4857,-13.2632c0,-5.1768 1.7141,-9.8667 4.4857,-13.2633c2.7697,-3.3965 6.5969,-5.4997 10.8192,-5.4997z" fill="#ffffff" stroke="#cccccc" stroke-width="3.60221" stroke-linecap="butt"/><g fill="#000000" stroke="#000000" stroke-linecap="round"><path d="M365.5805,154.0361l0.5854,-3.3958l1.2881,-1.8736l2.9275,-1.8736l1.7564,-0.7026l2.5762,-0.2342l2.8104,0.2342l3.2787,0.5855l1.7565,0.9368l1.8735,1.7565l1.5223,1.8735l0.5855,3.513l-0.3513,1.7565l-0.3513,1.5222l-2.8103,3.9814l0.1171,-9.8363l-1.0539,-1.4051l-0.8197,-1.0539l-2.1078,-1.0539l-6.9088,-0.2342l-1.1709,0.9368l-1.171,1.0539l-0.8197,1.288l-0.1171,9.9534l-2.8104,-3.3959z" stroke-width="0.93679"/><path d="M376.449,169.2654l-1.7426,-7.4038l3.714,-0.3053z" stroke-width="1.1887"/></g></g></g></svg>