<svg version="1.1" xmlns="http://www.w3.org/2000/svg" xmlns:xlink="http://www.w3.org/1999/xlink" width="34.21201" height="41.12821" viewBox="0,0,34.21201,41.12821"><g transform="translate(-229.45059,-126.93359)"><g data-paper-data="{&quot;isPaintingLayer&quot;:true}" fill-rule="nonzero" stroke-linejoin="miter" stroke-miterlimit="10" stroke-dasharray="" stroke-dashoffset="0" style="mix-blend-mode: normal"><path d="M246.5566,128.7347c4.2223,0 8.0494,2.1032 10.8192,5.4997c2.7716,3.3966 4.4857,8.0865 4.4857,13.2633c0,5.1768 -1.7141,9.8667 -4.4857,13.2632c-2.7698,3.3966 -6.5969,5.4998 -10.8192,5.4998c-4.2223,0 -8.0495,-2.1032 -10.8192,-5.4998c-2.7716,-3.3965 -4.4857,-8.0864 -4.4857,-13.2632c0,-5.1768 1.7141,-9.8667 4.4857,-13.2633c2.7697,-3.3965 6.5969,-5.4997 10.8192,-5.4997z" fill="#ffffff" stroke="#cccccc" stroke-width="3.60221" stroke-linecap="butt"/><path d="M234.3834,153.2803l3.4974,-5.0712l5.0713,-2.2734l5.7707,-0.1748l2.9728,0.6995l3.4974,2.0984l3.6723,6.6451l-4.5467,-0.8744l-1.0492,3.4974l-3.3225,-3.3225l-3.1477,4.3718l-3.6723,-4.0221l-2.7979,3.1477l-1.2241,-2.7979l-5.0712,0.5246z" fill="#000000" stroke="#000000" stroke-width="1.39897" stroke-linecap="round"/></g></g></svg>