<svg version="1.1" xmlns="http://www.w3.org/2000/svg" xmlns:xlink="http://www.w3.org/1999/xlink" width="32.76581" height="23.52911" viewBox="0,0,32.76581,23.52911"><g transform="translate(-231.09814,-191.54964)"><g data-paper-data="{&quot;isPaintingLayer&quot;:true}" fill-rule="nonzero" stroke-linejoin="miter" stroke-miterlimit="10" stroke-dasharray="" stroke-dashoffset="0" style="mix-blend-mode: normal"><g><path d="M245.8712,195.2805c3.0724,0.77 6.2751,1.4312 9.0422,2.8196c2.5785,1.1706 6.172,2.1312 6.806,4.7641c0.6047,2.4249 -1.3165,5.0131 -3.5683,6.6135c-2.9168,2.067 -6.3898,3.2065 -10.4811,3.2065c-4.0914,0 -7.6266,-1.0228 -10.4812,-3.2065c-2.3393,-1.7851 -4.0952,-4.9139 -3.471,-7.683c0.4628,-3.2007 3.2902,-5.8959 6.2226,-7.3893c1.7637,-0.9334 3.8191,0.35 5.9308,0.8751z" fill="#ffffff" stroke="#ffffff" stroke-width="3.88911" stroke-linecap="round"/><path d="M245.0939,197.107c1.9879,0 3.7886,0.7618 5.0915,1.9943c1.3044,1.2308 2.1111,2.9306 2.1111,4.8081c0,1.8775 -0.8067,3.5773 -2.1111,4.8081c-1.3029,1.2325 -3.1036,1.9943 -5.0915,1.9943c-1.9879,0 -3.7885,-0.7618 -5.0914,-1.9943c-1.3045,-1.2308 -2.1112,-2.9306 -2.1112,-4.8081c0,-1.8775 0.8067,-3.5773 2.1112,-4.8081c1.3029,-1.2325 3.1035,-1.9943 5.0914,-1.9943z" fill="#000000" stroke="#663b00" stroke-width="3.20115" stroke-linecap="butt"/><path d="M246.4602,193.4942c3.5371,0.1848 7.2123,1.1337 10.3061,3.2086c2.3179,1.5517 4.9508,3.7393 5.1531,6.6114c0.4356,2.4385 -1.3165,5.0131 -3.5683,6.6135c-2.9168,2.067 -6.3898,3.2065 -10.4811,3.2065c-4.0914,0 -7.7977,-1.225 -10.4812,-3.2065c-2.6854,-1.9796 -4.3461,-4.7136 -4.3461,-7.7316c0,-3.0179 1.9329,-6.032 4.3461,-7.7315c2.4676,-1.7423 5.9795,-1.5518 9.0714,-0.9704z" fill="none" stroke="#000000" stroke-width="3.88911" stroke-linecap="round"/><path d="M235.4093,196.4286l2.2487,-0.5622l8.0575,-1.1243l5.4341,1.8739l7.6828,3.7477l2.0612,6.0899" fill="none" stroke="#000000" stroke-width="3.74769" stroke-linecap="round"/></g></g></g></svg>