<svg version="1.1" xmlns="http://www.w3.org/2000/svg" xmlns:xlink="http://www.w3.org/1999/xlink" width="33.38129" height="20.91832" viewBox="0,0,33.38129,20.91832"><g transform="translate(-296.56802,-191.07045)"><g data-paper-data="{&quot;isPaintingLayer&quot;:true}" fill-rule="nonzero" stroke-linejoin="miter" stroke-miterlimit="10" stroke-dasharray="" stroke-dashoffset="0" style="mix-blend-mode: normal"><g><path d="M298.081,205.2851l3.1031,4.8763z" fill="none" stroke="#000000" stroke-width="3.54634" stroke-linecap="round"/><path d="M298.381,205.7351l0.8866,-4.8762l3.9896,-5.3195l7.536,-2.6598l7.536,0.8866l5.7628,2.6598l3.9897,7.0927l-1.3299,6.6494l-27.4842,-0.8866z" fill="#ffffff" stroke="#000000" stroke-width="3.54634" stroke-linecap="round"/><path d="M313.3002,196.1594c1.7734,0 3.3798,0.6796 4.5421,1.7791c1.1637,1.098 1.8833,2.6144 1.8833,4.2893c0,1.6749 -0.7196,3.1913 -1.8833,4.2894c-1.1623,1.0994 -2.7687,1.7791 -4.5421,1.7791c-1.7734,0 -3.3798,-0.6797 -4.5421,-1.7791c-1.1637,-1.0981 -1.8833,-2.6145 -1.8833,-4.2894c0,-1.6749 0.7196,-3.1913 1.8833,-4.2893c1.1623,-1.0995 2.7687,-1.7791 4.5421,-1.7791z" fill="#000000" stroke="#663b00" stroke-width="2.85575" stroke-linecap="butt"/><path d="M298.381,205.7351l0.8866,-4.8762l3.9896,-5.3195l7.536,-2.6598l7.536,0.8866l5.7628,2.6598l3.9897,7.0927l-1.3299,6.6494l-27.4842,-0.8866z" fill="none" stroke="#000000" stroke-width="3.54634" stroke-linecap="round"/></g></g></g></svg>