<svg version="1.1" xmlns="http://www.w3.org/2000/svg" xmlns:xlink="http://www.w3.org/1999/xlink" width="35.8699" height="22.56471" viewBox="0,0,35.8699,22.56471"><g transform="translate(-360.30724,-192.39814)"><g data-paper-data="{&quot;isPaintingLayer&quot;:true}" fill-rule="nonzero" stroke-linejoin="miter" stroke-miterlimit="10" stroke-dasharray="" stroke-dashoffset="0" style="mix-blend-mode: normal"><g><path d="M372.5269,195.4531c1.6758,0.3823 2.7372,2.4456 4.3641,3.0549c2.2362,0.8449 4.9402,0.6598 6.9826,1.7456c1.2534,1.0352 2.0529,2.5923 2.1821,4.146c0.1432,1.7247 -0.0087,4.1127 -1.4838,5.106c-1.9778,1.3477 -4.7691,1.414 -7.1572,1.0474c-3.9033,-0.7716 -8.1208,-1.8469 -11.1722,-4.3641c-1.6252,-1.3599 -1.5798,-4.0482 -1.3093,-6.1098c-0.1082,-1.1225 0.8659,-2.1629 1.7544,-2.6203c1.7405,-0.906 3.7567,-2.011 5.8393,-2.0057z" fill="#ffffff" stroke="#ffffff" stroke-width="3.49132" stroke-linecap="round"/><path d="M394.3476,206.7126z" fill="none" stroke="#000000" stroke-width="3.49132" stroke-linecap="round"/><path d="M373.8332,195.3659c1.7459,0 3.3273,0.6691 4.4715,1.7515c1.1457,1.081 1.8542,2.5739 1.8542,4.2228c0,1.6489 -0.7085,3.1418 -1.8542,4.2228c-1.1442,1.0824 -2.7256,1.7515 -4.4715,1.7515c-1.7459,0 -3.3274,-0.6691 -4.4716,-1.7515c-1.1457,-1.081 -1.8542,-2.5739 -1.8542,-4.2228c0,-1.6489 0.7085,-3.1418 1.8542,-4.2228c1.1442,-1.0824 2.7257,-1.7515 4.4716,-1.7515z" fill="#000000" stroke="#663b00" stroke-width="2.81143" stroke-linecap="butt"/><path d="M362.0529,201.9993l2.0075,-2.9676l3.0549,-3.4914l4.5387,-1.3965h4.8879l4.8878,1.3965l3.3168,2.9677l2.6185,5.6733v4.8006l-2.3567,3.3168" fill="none" stroke="#000000" stroke-width="3.49132" stroke-linecap="round"/></g><path d="M387.9771,204.9043l7.2629,1.1714" fill="none" stroke="#000000" stroke-width="1.87429" stroke-linecap="round"/><path d="M387.2429,212.1514l6.56,1.8743" fill="none" stroke="#000000" stroke-width="1.87429" stroke-linecap="round"/></g></g></svg>