<svg version="1.1" xmlns="http://www.w3.org/2000/svg" xmlns:xlink="http://www.w3.org/1999/xlink" width="24.43016" height="17.75712" viewBox="0,0,24.43016,17.75712"><g transform="translate(-300.66593,-247.45027)"><g data-paper-data="{&quot;isPaintingLayer&quot;:true}" fill="#000000" fill-rule="nonzero" stroke="none" stroke-width="1.89216" stroke-linecap="butt" stroke-linejoin="miter" stroke-miterlimit="10" stroke-dasharray="" stroke-dashoffset="0" style="mix-blend-mode: normal"><path d="M321.5216,265.2074c-0.2952,0 -0.5979,-0.0397 -0.9063,-0.1249c-1.703,-0.4976 -2.6831,-2.2857 -2.1798,-3.9887c0.2289,-0.7947 0.2762,-1.6159 0.1514,-2.4371c-0.4882,-3.0861 -3.4665,-5.1902 -6.5923,-4.6982c-3.1467,0.4957 -5.3113,3.4134 -4.827,6.5052c0.2763,1.7541 -0.9214,3.4003 -2.6793,3.6746c-1.7672,0.2763 -3.4002,-0.9196 -3.6745,-2.6793c-1.0407,-6.5885 3.5232,-12.8099 10.1798,-13.862c6.6339,-1.0293 12.9046,3.4665 13.9547,10.0512c0.2763,1.7692 0.1665,3.5327 -0.3406,5.247c-0.4106,1.4021 -1.6935,2.3122 -3.0861,2.3122z"/></g></g></svg>