<svg version="1.1" xmlns="http://www.w3.org/2000/svg" xmlns:xlink="http://www.w3.org/1999/xlink" width="35.99999" height="22.15064" viewBox="0,0,35.99999,22.15064"><g transform="translate(-357.36215,-246.46895)"><g data-paper-data="{&quot;isPaintingLayer&quot;:true}" fill-rule="nonzero" stroke-linejoin="miter" stroke-miterlimit="10" stroke-dasharray="" stroke-dashoffset="0" style="mix-blend-mode: normal"><g><path d="M373.9629,253.7331c1.9462,0 3.7091,0.7459 4.9846,1.9525c1.2771,1.205 2.0669,2.8691 2.0669,4.7072c0,1.8381 -0.7898,3.5023 -2.0669,4.7073c-1.2755,1.2066 -3.0384,1.9525 -4.9846,1.9525c-1.9462,0 -3.7091,-0.7459 -4.9846,-1.9525c-1.2771,-1.205 -2.0669,-2.8692 -2.0669,-4.7073c0,-1.8381 0.7898,-3.5022 2.0669,-4.7072c1.2755,-1.2066 3.0384,-1.9525 4.9846,-1.9525z" fill="#000000" stroke="#663b00" stroke-width="3.134" stroke-linecap="butt"/><path d="M359.3081,262.8149l2.5297,-4.6703l2.4325,-3.9892l5.254,-4.7676l4.2811,-0.9729h4.9622l4.8648,1.2648l5.8379,3.8919l1.4594,5.3514l0.4865,6.8108" fill="none" stroke="#000000" stroke-width="3.89189" stroke-linecap="round"/></g></g></g></svg>