<svg version="1.1" xmlns="http://www.w3.org/2000/svg" xmlns:xlink="http://www.w3.org/1999/xlink" width="26.99537" height="24.92405" viewBox="0,0,26.99537,24.92405"><g transform="translate(-363.35458,-190.7338)"><g data-paper-data="{&quot;isPaintingLayer&quot;:true}" fill-rule="nonzero" stroke-linejoin="miter" stroke-miterlimit="10" stroke-dasharray="" stroke-dashoffset="0" style="mix-blend-mode: normal"><g><path d="M374.2664,194.2922c2.1931,0 4.18,0.8422 5.6203,2.2034c1.4386,1.3613 2.3289,3.2416 2.3289,5.3161c0,2.0745 -0.8903,3.9549 -2.3289,5.3161c-1.4403,1.3613 -3.4272,2.2035 -5.6203,2.2035c-2.1931,0 -4.18,-0.8422 -5.6203,-2.2035c-1.4386,-1.3612 -2.3289,-3.2416 -2.3289,-5.3161c0,-2.0745 0.8903,-3.9548 2.3289,-5.3161c1.4403,-1.3612 3.4272,-2.2034 5.6203,-2.2034z" fill="#000000" stroke="#000000" stroke-width="3.4375" stroke-linecap="butt"/><path d="M376.7029,192.7c3.0441,0 5.8028,1.316 7.799,3.444c1.9981,2.126 3.2582,5.278 3.2338,8.306c-0.0226,2.714 -1.3991,5.346 -3.3803,6.75c-2.2028,1.666 -5.168,1.976 -7.7934,2c-2.9615,-0.314 -6.1258,-0.998 -8.4506,-2.8c-1.7258,-1.34 -2.8169,-3.93 -2.8169,-6.2c0.2911,-2.95 1.6488,-6.02 3.6094,-8.056c2.0112,-2.092 4.7549,-3.444 7.799,-3.444z" fill="#ffffff" stroke="#ffffff" stroke-width="3.87985" stroke-linecap="butt"/><g><path d="M374.7968,195.8409c2.026,0 3.8611,0.7764 5.189,2.0325c1.3294,1.2544 2.1515,2.9868 2.1515,4.9002c0,1.9134 -0.8221,3.6458 -2.1515,4.9002c-1.3279,1.256 -3.163,2.0325 -5.189,2.0325c-2.0259,0 -3.8611,-0.7765 -5.1889,-2.0325c-1.3294,-1.2544 -2.1516,-2.9868 -2.1516,-4.9002c0,-1.9134 0.8222,-3.6458 2.1516,-4.9002c1.3278,-1.2561 3.163,-2.0325 5.1889,-2.0325z" fill="#000000" stroke="#663b00" stroke-width="3.26244" stroke-linecap="butt"/><path d="M366.1156,196.5797l4.2969,-3.9531l4.8984,-0.1719l6.0157,0.4297l5.5859,4.7265l1.7187,4.2969v6.875l-4.2968,5.1563" fill="none" stroke="#000000" stroke-width="3.4375" stroke-linecap="round"/></g></g></g></g></svg>