<svg version="1.1" xmlns="http://www.w3.org/2000/svg" xmlns:xlink="http://www.w3.org/1999/xlink" width="36.09172" height="24.40332" viewBox="0,0,36.09172,24.40332"><g transform="translate(-361.56338,-244.52147)"><g data-paper-data="{&quot;isPaintingLayer&quot;:true}" fill-rule="nonzero" stroke-miterlimit="10" stroke-dasharray="" stroke-dashoffset="0" style="mix-blend-mode: normal"><path d="M363.5769,254.4245c0,0 5.6586,-13.5151 17.3801,-8.968c9.2206,6.2902 16.6981,7.1744 16.6981,7.1744c-1.8946,1.4399 -3.9913,2.5514 -7.4775,1.7936c-0.5052,1.9199 1.3389,3.1324 4.2188,4.0419c-4.4209,-0.7074 -7.8565,-0.7326 -9.8016,0.2778c1.0862,2.0463 2.9556,3.4609 5.7597,4.2188c-2.5515,0.8841 -5.1029,1.4652 -7.6796,0c-0.7832,1.5157 -0.5053,2.9051 2.5009,4.0166c-2.9051,1.0357 -4.6482,0.2274 -5.7597,-1.5662l-0.2021,3.5114z" fill="#000000" stroke="none" stroke-width="0.25262" stroke-linecap="butt" stroke-linejoin="miter"/><path d="M367.9725,250.332c0.5305,-0.3031 1.1115,-0.6062 1.6925,-0.8589c6.366,-2.804 13.7677,-1.2378 16.5465,3.5367c2.7788,4.7492 -0.1516,10.9131 -6.5175,13.7172c-0.2274,0.0758 -0.4295,0.1768 -0.6569,0.2526c-0.682,0.2779 -1.3641,0.5052 -2.0462,0.6568c-5.6334,1.4147 -11.4688,-0.3284 -13.8687,-4.4461c-2.5262,-4.3198 -0.3537,-9.7763 4.8503,-12.8583z" fill="#ffffff" stroke="#000000" stroke-width="1.01047" stroke-linecap="round" stroke-linejoin="round"/><path d="M373.0006,249.6994c2.1473,0 3.8651,3.663 3.8651,8.1596c0,0.7326 -0.0253,1.44 -0.1263,2.122c-0.4295,3.4609 -1.9199,6.0376 -3.7135,6.0376c-1.8694,0 -3.4104,-2.7788 -3.7893,-6.467c-0.0505,-0.5558 -0.0758,-1.1115 -0.0758,-1.6926c0,-4.5218 1.7178,-8.1596 3.8398,-8.1596z" fill="#995900" stroke="#000000" stroke-width="2.02095" stroke-linecap="round" stroke-linejoin="round"/><path d="M373.0659,251.1902c1.7228,0 3.1011,3.0855 3.1011,6.8734c0,0.6171 -0.0203,1.2129 -0.1014,1.7875c-0.7296,1.1491 -1.7633,1.8513 -2.8983,1.8513c-1.2567,0 -2.3714,-0.8512 -3.1213,-2.2131c-0.0406,-0.4681 -0.0608,-0.9363 -0.0608,-1.4257c0,-3.8091 1.3782,-6.8734 3.0807,-6.8734z" fill="#663b00" stroke="none" stroke-width="0.2078" stroke-linecap="butt" stroke-linejoin="miter"/><path d="M373.1259,255.6876c0.2718,0 0.5181,0.2321 0.6964,0.607c0.1784,0.3751 0.2888,0.893 0.2888,1.4644c0,0.5715 -0.1104,1.0893 -0.2888,1.4645c-0.1783,0.3748 -0.4246,0.607 -0.6964,0.607c-0.2718,0 -0.5181,-0.2322 -0.6965,-0.607c-0.1783,-0.3752 -0.2887,-0.893 -0.2887,-1.4645c0,-0.5714 0.1104,-1.0893 0.2887,-1.4644c0.1784,-0.3749 0.4247,-0.607 0.6965,-0.607z" fill="#ffffff" stroke="none" stroke-width="0.25262" stroke-linecap="butt" stroke-linejoin="miter"/></g></g></svg>