<svg version="1.1" xmlns="http://www.w3.org/2000/svg" xmlns:xlink="http://www.w3.org/1999/xlink" width="36.45405" height="23.02875" viewBox="0,0,36.45405,23.02875"><g transform="translate(-423.22608,-138.12038)"><g data-paper-data="{&quot;isPaintingLayer&quot;:true}" fill-rule="nonzero" stroke-linecap="butt" stroke-linejoin="miter" stroke-miterlimit="10" stroke-dasharray="" stroke-dashoffset="0" style="mix-blend-mode: normal"><g><path d="M441.17811,140.21391c4.3755,0 8.3406,1.0551 11.2108,2.7614c2.8703,1.7041 4.6477,4.0593 4.6477,6.6595c0,2.6001 -1.7774,4.9553 -4.6477,6.6595c-2.8702,1.7062 -6.8353,2.7613 -11.2108,2.7613c-4.3755,0 -8.3406,-1.0551 -11.2108,-2.7613c-2.8702,-1.7042 -4.6477,-4.0594 -4.6477,-6.6595c0,-2.6002 1.7775,-4.9554 4.6477,-6.6595c2.8702,-1.7063 6.8353,-2.7614 11.2108,-2.7614z" fill="#ffffff" stroke="#000000" stroke-width="4.18705"/><path d="M441.13431,141.95191c1.6811,0 3.2049,0.8932 4.3064,2.3371c1.1035,1.444 1.7867,3.4366 1.7867,5.6376c0,2.201 -0.6832,4.1936 -1.7867,5.6376c-1.1015,1.4439 -2.6253,2.3371 -4.3064,2.3371c-1.6811,0 -3.2048,-0.8932 -4.3063,-2.3371c-1.1035,-1.444 -1.7867,-3.4366 -1.7867,-5.6376c0,-2.201 0.6832,-4.1936 1.7867,-5.6376c1.1015,-1.4439 2.6252,-2.3371 4.3063,-2.3371z" fill="#000000" stroke="#663b00" stroke-width="4.05097"/><path d="M441.72811,140.21391c4.3755,0 8.3406,1.0551 11.2108,2.7614c2.8703,1.7041 4.6477,4.0593 4.6477,6.6595c0,2.6001 -1.7774,4.9553 -4.6477,6.6595c-2.8702,1.7062 -6.8353,2.7613 -11.2108,2.7613c-4.3755,0 -8.3406,-1.0551 -11.2108,-2.7613c-2.8702,-1.7042 -4.6477,-4.0594 -4.6477,-6.6595c0,-2.6002 1.7775,-4.9554 4.6477,-6.6595c2.8702,-1.7063 6.8353,-2.7614 11.2108,-2.7614z" fill="none" stroke="#000000" stroke-width="4.18705"/></g></g></g></svg>