<svg version="1.1" xmlns="http://www.w3.org/2000/svg" xmlns:xlink="http://www.w3.org/1999/xlink" width="39.75012" height="22.93031" viewBox="0,0,39.75012,22.93031"><g transform="translate(-358.59786,-137.18645)"><g data-paper-data="{&quot;isPaintingLayer&quot;:true}" fill-rule="nonzero" stroke-linejoin="miter" stroke-miterlimit="10" stroke-dasharray="" stroke-dashoffset="0" style="mix-blend-mode: normal"><g><path d="M388.0227,143.9393l8.5296,-4.9381" fill="none" stroke="#000000" stroke-width="3.59137" stroke-linecap="round"/><path d="M388.4717,146.185l1.3467,11.672l-28.7309,-0.8979l4.9381,-14.3654l7.6317,-3.5914l8.9784,0.4489z" fill="#ffffff" stroke="#000000" stroke-width="3.59137" stroke-linecap="round"/><path d="M376.2296,141.6958c2.1674,0 4.1318,0.8296 5.554,2.171c1.4222,1.3414 2.3021,3.1927 2.3021,5.2362c0,2.0435 -0.8799,3.8949 -2.3021,5.2362c-1.4222,1.3414 -3.3866,2.171 -5.554,2.171c-2.1674,0 -4.1319,-0.8296 -5.5541,-2.171c-1.4222,-1.3413 -2.3021,-3.1927 -2.3021,-5.2362c0,-2.0435 0.8799,-3.8948 2.3021,-5.2362c1.4222,-1.3414 3.3867,-2.171 5.5541,-2.171z" fill="#663b00" stroke="#663b00" stroke-width="3.59137" stroke-linecap="butt"/><path d="M376.3629,146.3319c0.8999,0 1.715,0.3348 2.3041,0.876c0.5913,0.5413 0.9564,1.289 0.9564,2.1129c0,0.8238 -0.3651,1.5716 -0.9564,2.1128c-0.5891,0.5413 -1.4042,0.876 -2.3041,0.876c-0.9,0 -1.7151,-0.3347 -2.3042,-0.876c-0.5912,-0.5412 -0.9564,-1.289 -0.9564,-2.1128c0,-0.8239 0.3652,-1.5716 0.9564,-2.1129c0.5891,-0.5412 1.4042,-0.876 2.3042,-0.876z" fill="#000000" stroke="#000000" stroke-width="4.34745" stroke-linecap="butt"/><path d="M388.4717,146.585l1.3467,11.672l-28.7309,-0.8979l4.9381,-14.3654l7.6317,-3.5914l8.9784,0.4489z" fill="none" stroke="#000000" stroke-width="3.59137" stroke-linecap="round"/></g></g></g></svg>