<svg version="1.1" xmlns="http://www.w3.org/2000/svg" xmlns:xlink="http://www.w3.org/1999/xlink" width="37.55703" height="19.65263" viewBox="0,0,37.55703,19.65263"><g transform="translate(-227.16605,-140.02423)"><g data-paper-data="{&quot;isPaintingLayer&quot;:true}" fill-rule="nonzero" stroke-linejoin="miter" stroke-miterlimit="10" stroke-dasharray="" stroke-dashoffset="0" style="mix-blend-mode: normal"><g fill="#000000" stroke="#000000"><path d="M246.0263,144.0312c2.2298,0 4.2498,0.7506 5.7129,1.9646c1.4631,1.2131 2.3682,2.8886 2.3682,4.7374c0,1.8488 -0.9051,3.5243 -2.3682,4.7374c-1.4631,1.214 -3.4831,1.9647 -5.7129,1.9647c-2.2298,0 -4.2498,-0.7507 -5.7129,-1.9647c-1.4632,-1.2131 -2.3682,-2.8886 -2.3682,-4.7374c0,-1.8488 0.905,-3.5243 2.3682,-4.7374c1.4631,-1.214 3.4831,-1.9646 5.7129,-1.9646z" stroke-width="2.09909" stroke-linecap="butt"/><path d="M228.2569,148.4417l9.2944,-6.6424l5.311,-0.9489l8.6305,0.1897l5.7536,3.2263l5.975,4.9344l-2.6556,1.3285l-5.5323,-4.365l-5.5324,-1.8979l-9.9582,0.5694l-9.9582,5.8833z" stroke-width="1.64913" stroke-linecap="round"/></g><g stroke-linecap="butt"><path d="M246.2457,145.7376c1.8131,-0.0823 3.7703,0.2531 5.2582,1.3376c1.0867,0.7923 1.9631,2.1896 1.9475,3.6528c-0.0233,1.8068 -0.8179,3.6527 -2.1403,4.9101c-1.3223,1.2574 -3.1471,2.0353 -5.1628,2.0353c-2.0157,0 -3.8405,-0.7779 -5.1629,-2.0353c-1.3223,-1.2574 -2.1286,-3.1033 -2.1403,-4.9101c-0.0097,-1.5455 1.1335,-3.0169 2.337,-3.8585c1.4646,-1.0249 3.3322,-1.2862 5.0636,-1.1319z" fill="#663b00" stroke="#663b00" stroke-width="4.00692"/><path d="M246.1015,147.4933c1.1042,0 2.1038,0.474 2.8282,1.2402c0.7244,0.7662 1.1725,1.8246 1.1725,2.9921c0,1.1675 -0.4481,2.2259 -1.1725,2.9921c-0.7244,0.7663 -1.724,1.2403 -2.8282,1.2403c-1.1042,0 -2.1038,-0.474 -2.8282,-1.2403c-0.7244,-0.7662 -1.1725,-1.8246 -1.1725,-2.9921c0,-1.1675 0.4481,-2.2259 1.1725,-2.9921c0.7244,-0.7662 1.724,-1.2402 2.8282,-1.2402z" fill="#000000" stroke="#000000" stroke-width="2.32842"/></g></g></g></svg>