<svg version="1.1" xmlns="http://www.w3.org/2000/svg" xmlns:xlink="http://www.w3.org/1999/xlink" width="25.31348" height="21.66756" viewBox="0,0,25.31348,21.66756"><g transform="translate(-429.14721,-137.55263)"><g data-paper-data="{&quot;isPaintingLayer&quot;:true}" fill-rule="nonzero" stroke-linejoin="miter" stroke-miterlimit="10" stroke-dasharray="" stroke-dashoffset="0" style="mix-blend-mode: normal"><g><path d="M439.7043,139.9778c2.882,-0.5329 6.3217,1.003 8.2429,2.9225c1.5839,1.5851 1.4986,4.0545 1.83,6.1572c-0.1131,1.3612 -0.2362,2.8852 -1.1909,3.9884c-1.7426,1.9771 -4.4082,3.3518 -7.1452,4.3277c-2.0762,0.723 -4.7894,0.7654 -6.7484,-0.4243c-1.9451,-1.1897 -2.739,-3.379 -3.1757,-5.5157c-0.4188,-2.0672 -0.3374,-4.433 0.794,-6.2795c1.7922,-2.2453 4.3348,-4.601 7.3933,-5.1763z" fill="#ffffff" stroke="#ffffff" stroke-width="3.69318" stroke-linecap="butt"/><g><path d="M439.7734,141.8506c1.8648,0 3.5541,0.7147 4.7763,1.8709c1.2237,1.1547 1.9805,2.7493 1.9805,4.5106c0,1.7613 -0.7568,3.3559 -1.9805,4.5105c-1.2222,1.1562 -2.9115,1.8709 -4.7763,1.8709c-1.8649,0 -3.5541,-0.7147 -4.7764,-1.8709c-1.2237,-1.1546 -1.9805,-2.7492 -1.9805,-4.5105c0,-1.7613 0.7568,-3.3559 1.9805,-4.5106c1.2223,-1.1562 2.9115,-1.8709 4.7764,-1.8709z" fill="#000000" stroke="#663b00" stroke-width="3.00305" stroke-linecap="butt"/><path d="M430.7293,139.9494l10.2836,-0.7911l5.9328,2.3732l4.3508,4.7462l1.5821,10.2836" fill="none" stroke="#000000" stroke-width="3.16418" stroke-linecap="round"/></g></g></g></g></svg>