<svg version="1.1" xmlns="http://www.w3.org/2000/svg" xmlns:xlink="http://www.w3.org/1999/xlink" width="36.85725" height="15.86184" viewBox="0,0,36.85725,15.86184"><g transform="translate(-291.7958,-249.68592)"><g data-paper-data="{&quot;isPaintingLayer&quot;:true}" fill="#000000" fill-rule="nonzero" stroke-linejoin="miter" stroke-miterlimit="10" stroke-dasharray="" stroke-dashoffset="0" style="mix-blend-mode: normal"><path d="M308.9735,251.2629c1.8675,0 3.5591,0.7158 4.7831,1.8736c1.2255,1.1563 1.9834,2.7532 1.9834,4.517c0,1.7638 -0.7579,3.3607 -1.9834,4.517c-1.224,1.1578 -2.9156,1.8736 -4.7831,1.8736c-1.8676,0 -3.5592,-0.7158 -4.7832,-1.8736c-1.2255,-1.1563 -1.9833,-2.7532 -1.9833,-4.517c0,-1.7638 0.7578,-3.3607 1.9833,-4.517c1.224,-1.1578 2.9156,-1.8736 4.7832,-1.8736z" stroke="#663b00" stroke-width="3.00733" stroke-linecap="butt"/><path d="M295.7637,253.3274l6.5465,-1.9948l8.8708,-0.1773l9.3265,1.8557l3.7148,3.63l-6.5292,-1.1636l-8.3978,-0.9482l-9.6214,0.85l-5.3266,0.8734z" stroke="#000000" stroke-width="2.93298" stroke-linecap="round"/></g></g></svg>