<svg xmlns="http://www.w3.org/2000/svg" xmlns:xlink="http://www.w3.org/1999/xlink" version="1.1" width="164.81657288449358" height="107.46897766964982" viewBox="0.4719611506792405 0.022761116537699966 164.81657288449358 107.46897766964982">
  <!-- Exported by Scratch - http://scratch.mit.edu/ -->
  <path id="ID0.5466515445150435" fill="#995900" stroke="#000000" stroke-width="2.88407776730607" d="M 82.8803 66.6065 C 105.2187 66.6065 125.4603 68.8165 140.1168 72.3867 C 154.7733 75.9569 163.8465 80.8873 163.8465 86.3281 C 163.8465 91.7688 154.7733 96.6992 140.1168 100.2695 C 125.4603 103.8397 105.2187 106.0497 82.8803 106.0497 C 60.5419 106.0497 40.3003 103.8397 25.6438 100.2695 C 10.9872 96.6992 1.914 91.7688 1.914 86.3281 C 1.914 80.8873 10.9872 75.9569 25.6438 72.3867 C 40.3003 68.8165 60.5419 66.6065 82.8803 66.6065 Z "/>
  <g id="ID0.7703175428323448">
    <path id="ID0.20797536568716168" fill="#995900" stroke="#000000" stroke-width="2.6795330963902257" stroke-linecap="round" d="M 35.5338 8.4642 L 31.2135 22.1733 L 32.0286 83.4782 L 51.5923 85.8917 L 81.7529 87.3399 L 116.8045 86.3744 L 129.0318 83.9609 L 131.4772 23.1387 L 129.1948 6.9678 L 120.5542 1.4648 L 107.6748 2.9612 L 98.5451 9.9606 L 93.8172 21.9802 L 89.4969 28.4969 L 83.0572 29.4623 L 74.8241 25.9867 L 71.4005 15.9945 L 65.2869 3.9749 L 54.1193 2.9612 L 40.7508 2.9612 L 35.5338 8.4642 Z "/>
    <path id="ID0.5904944534413517" fill="#CCCCCC" stroke="#000000" stroke-width="2.6795330963902257" stroke-linecap="round" d="M 33.6589 84.4436 L 32.8438 74.3066 L 78.4923 76.7201 L 109.4681 76.2374 L 129.8469 74.3066 L 128.2166 84.4436 L 105.3923 86.3744 L 75.2317 86.8572 L 56.4832 86.3744 L 33.6589 84.4436 Z "/>
  </g>
</svg>