<svg xmlns="http://www.w3.org/2000/svg" xmlns:xlink="http://www.w3.org/1999/xlink" version="1.1" width="166.14584869760046" height="160.20116180795202" viewBox="-0.19267675587420952 -1.0012768239665557 166.14584869760046 160.20116180795202">
  <!-- Exported by Scratch - http://scratch.mit.edu/ -->
  <path id="ID0.6245466880500317" fill="none" stroke="#000000" stroke-width="3" stroke-linecap="round" d="M 7 139 L 155 140 "/>
  <path id="ID0.5466515445150435" fill="#666666" stroke="#000000" stroke-width="2.88407776730607" d="M 82.8803 57.1065 C 105.2187 57.1065 125.4603 59.3165 140.1168 62.8867 C 154.7733 66.4569 163.8465 71.3873 163.8465 76.8281 C 163.8465 82.2688 154.7733 87.1992 140.1168 90.7695 C 125.4603 94.3397 105.2187 96.5497 82.8803 96.5497 C 60.5419 96.5497 40.3003 94.3397 25.6438 90.7695 C 10.9872 87.1992 1.914 82.2688 1.914 76.8281 C 1.914 71.3873 10.9872 66.4569 25.6438 62.8867 C 40.3003 59.3165 60.5419 57.1065 82.8803 57.1065 Z "/>
  <g id="ID0.11658406490460038">
    <path id="ID0.727931632194668" fill="#666666" stroke="#000000" stroke-width="2.998671732617183" d="M 82.5972 1.1054 C 98.4834 1.1054 112.8783 2.458 123.3011 4.6427 C 133.7238 6.8266 140.1765 9.8435 140.1765 13.1733 C 140.1765 16.5031 133.7238 19.52 123.3011 21.7038 C 112.8783 23.8886 98.4834 25.2412 82.5972 25.2412 C 66.711 25.2412 52.3162 23.8886 41.8934 21.7038 C 31.4706 19.52 25.0179 16.5031 25.0179 13.1733 C 25.0179 9.8435 31.4706 6.8266 41.8934 4.6427 C 52.3162 2.458 66.711 1.1054 82.5972 1.1054 Z "/>
    <path id="ID0.20797536568716168" fill="#666666" stroke="#000000" stroke-width="2.998671732617183" stroke-linecap="round" d="M 37.2889 21.3795 L 25.0179 13.1733 L 25.9619 74.4782 L 48.616 76.8917 L 83.5411 78.3399 L 124.1298 77.3744 L 138.2887 74.9609 L 141.1204 14.1387 L 125.0737 21.8622 L 98.6439 25.7239 L 61.8309 25.2412 L 37.2889 21.3795 Z "/>
    <path id="ID0.5904944534413517" fill="#CCCCCC" stroke="#000000" stroke-width="2.998671732617183" stroke-linecap="round" d="M 27.8497 75.4436 L 26.9058 65.3066 L 79.7655 67.7201 L 115.6345 67.2374 L 139.2326 65.3066 L 137.3447 75.4436 L 110.9149 77.3744 L 75.9898 77.8572 L 54.2795 77.3744 L 27.8497 75.4436 Z "/>
  </g>
  <path id="ID0.7657714528031647" fill="#000000" stroke="#001966" stroke-width="4.101232667896655" d="M 11.9959 123.1184 L 74.8939 123.1184 L 74.8939 155.9218 L 11.9959 155.9218 L 11.9959 123.1184 Z "/>
  <path id="ID0.7657714528031647" fill="#000000" stroke="#001966" stroke-width="4.21335358041297" d="M 85.5459 122.5188 L 148.4439 122.5188 L 148.4439 157.0932 L 85.5459 157.0932 L 85.5459 122.5188 Z "/>
</svg>