<svg xmlns="http://www.w3.org/2000/svg" xmlns:xlink="http://www.w3.org/1999/xlink" version="1.1" width="160.93052567981093" height="120.22702683947891" viewBox="0.14153485525444331 -0.7974651552359742 160.93052567981093 120.22702683947891">
  <!-- Exported by Scratch - http://scratch.mit.edu/ -->
  <g id="ID0.8263306715525687">
    <path id="ID0.20797536568716168" fill="#FF0000" stroke="#000000" stroke-width="2.7940273118315466" stroke-linecap="round" d="M 114.8079 3.6064 L 83.9195 1.3177 L 50.2601 13.4309 L 29.8037 25.6 L 13.8297 55.6319 L 2.2567 114.021 L 38.1166 115.6398 L 68.2716 117.3144 L 103.3165 116.198 L 141.2954 114.635 L 136.3239 104.1964 L 123.1209 69.5314 L 119.7794 58.5346 L 124.7509 56.8041 L 131.9229 61.4373 L 137.4649 77.0114 L 149.0378 92.6414 L 158.4103 61.4373 L 158.4103 45.8073 L 150.0973 30.1773 L 134.6939 12.2587 L 114.8079 3.6064 Z "/>
    <path id="ID0.5904944534413517" fill="#FFFFFF" stroke="#000000" stroke-width="4.230330367310938" stroke-linecap="round" d="M 3.4201 112.9094 L 3.8662 100.1555 L 8.3279 87.5012 L 48.5943 90.3907 L 85.626 89.7929 L 112.0613 90.9886 L 130.2425 90.3907 L 141.8428 112.9094 L 103.3611 115.2011 L 62.0908 116.1975 L 36.4363 115.2011 L 3.4201 112.9094 Z "/>
    <path id="ID0.0631829621270299" fill="#FFFFFF" stroke="#000000" stroke-width="2.2606807120656995" d="M 149.0239 85.6985 C 151.7643 85.6985 154.2475 86.7994 156.0454 88.5791 C 157.8444 90.3588 158.9569 92.8162 158.9569 95.528 C 158.9569 98.2397 157.8444 100.6971 156.0454 102.4768 C 154.2475 104.2565 151.7643 105.3574 149.0239 105.3574 C 146.2835 105.3574 143.8003 104.2565 142.0024 102.4768 C 140.2034 100.6971 139.0909 98.2397 139.0909 95.528 C 139.0909 92.8162 140.2034 90.3588 142.0024 88.5791 C 143.8003 86.7994 146.2835 85.6985 149.0239 85.6985 Z "/>
  </g>
</svg>