<svg xmlns="http://www.w3.org/2000/svg" xmlns:xlink="http://www.w3.org/1999/xlink" version="1.1" width="196.85209057062463" height="40.92349025934533" viewBox="0.7959554328044489 22.016255511196476 196.85209057062463 40.92349025934533">
  <!-- Exported by Scratch - http://scratch.mit.edu/ -->
  <g id="ID0.12263055657967925">
    <path id="ID0.7443293244577944" fill="#FF0000" stroke="#000000" d="M 149.7078 27.4395 C 151.5103 27.4395 153.1445 28.3268 154.3265 29.762 C 155.5107 31.1948 156.2426 33.1755 156.2426 35.3621 C 156.2426 37.5487 155.5107 39.5293 154.3265 40.9622 C 153.1445 42.3973 151.5103 43.2846 149.7078 43.2846 C 147.9053 43.2846 146.271 42.3973 145.0891 40.9622 C 143.9049 39.5293 143.173 37.5487 143.173 35.3621 C 143.173 33.1755 143.9049 31.1948 145.0891 29.762 C 146.271 28.3268 147.9053 27.4395 149.7078 27.4395 Z " stroke-width="2.2682893010933727"/>
    <path id="ID0.23248752858489752" fill="#FF0000" stroke="#000000" stroke-linecap="round" d="M 2.9529 30.0426 L 143.8777 31.1744 L 151.6058 41.021 L 1.9301 41.021 L 2.9529 30.0426 Z " stroke-width="2.2682893010933727"/>
    <path id="ID0.6347153349779546" fill="#FF0000" stroke="#000000" stroke-width="1.8674300364786705" stroke-linecap="round" d="M 196.5139 26.6245 L 181.428 30.0224 L 194.2185 42.2129 L 171.497 32.2485 L 167.0268 31.4472 L 156.3661 31.6526 L 153.0616 28.2433 L 148.2374 27.7338 L 173.2276 23.1504 L 196.5139 26.6245 Z "/>
    <path id="ID0.6347153349779546" fill="#FF0000" stroke="#000000" stroke-width="1.8690361592672193" stroke-linecap="round" d="M 192.5465 49.9692 L 177.8047 48.256 L 185.7696 61.8056 L 164.693 43.758 L 154.7225 40.2627 L 156.6758 35.942 L 155.3612 31.2915 L 192.5465 49.9692 Z "/>
  </g>
</svg>