<svg xmlns="http://www.w3.org/2000/svg" xmlns:xlink="http://www.w3.org/1999/xlink" version="1.1" width="66.09629821777344" height="60.51469802856445" viewBox="0.8064999580383301 1.198199987411499 66.09629821777344 60.51469802856445">
  <!-- Exported by Scratch - http://scratch.mit.edu/ -->
  <g id="ID0.7415710152126849">
    <g id="ID0.7004695702344179">
      <path id="ID0.5531183546409011" fill="#FF00BF" stroke="#000000" stroke-width="0.8453061425419665" stroke-linecap="round" d="M 1.3065 36.0167 L 20.0345 1.6982 L 33.0817 32.731 L 1.3065 36.0167 Z "/>
      <path id="ID0.5531183546409011" fill="#FF00BF" stroke="#000000" stroke-width="0.8453061425419665" stroke-linecap="round" d="M 48.0469 61.2129 L 66.4028 26.694 L 33.3103 32.8706 L 48.0469 61.2129 Z "/>
    </g>
    <path id="ID0.7593393088318408" fill="#FF99E5" stroke="#000000" d="M 33.517 28.1489 C 34.6529 28.1489 35.6824 28.5886 36.4277 29.2994 C 37.1729 30.0102 37.6341 30.9914 37.6341 32.0745 C 37.6341 33.1575 37.1729 34.1387 36.4277 34.8495 C 35.6824 35.5603 34.6529 36 33.517 36 C 32.3811 36 31.3517 35.5603 30.6064 34.8495 C 29.8611 34.1387 29.4 33.1575 29.4 32.0745 C 29.4 30.9914 29.8611 30.0102 30.6064 29.2994 C 31.3517 28.5886 32.3811 28.1489 33.517 28.1489 Z " stroke-width="0.7659574747085571"/>
  </g>
</svg>