<svg xmlns="http://www.w3.org/2000/svg" xmlns:xlink="http://www.w3.org/1999/xlink" version="1.1" width="139.66241889846685" height="109.86448341262701" viewBox="0.10341224247036895 0.34115824276028595 139.66241889846685 109.86448341262701">
  <!-- Exported by Scratch - http://scratch.mit.edu/ -->
  <g id="ID0.6462333328090608">
    <path id="ID0.1295200209133327" fill="#0033CC" stroke="#000000" stroke-width="1.7652221916769744" stroke-linecap="round" d="M 68.7921 16.8728 C 85.6377 16.8728 100.9023 21.9182 111.9552 30.0694 C 123.0081 38.2198 128.3032 50.0432 129.8503 61.8988 C 131.3616 73.4948 130.7189 88.6397 120.6686 95.9326 C 106.9521 106.1656 86.5173 106.8733 68.7921 106.9249 C 51.4718 106.9807 30.7965 106.8589 16.9156 96.7782 C 6.9167 89.2493 6.3934 73.7367 7.7339 61.8988 C 9.0763 50.0213 14.5761 38.2198 25.629 30.0694 C 36.6819 21.9182 51.9465 16.8728 68.7921 16.8728 Z "/>
    <path id="ID0.41994145698845387" fill="#99B2FF" stroke="#000000" stroke-width="1.7652221916769744" stroke-linecap="round" d="M 70.1694 67.6064 C 92.8408 67.6064 109.7424 68.1704 128.261 73.6775 C 134.6083 75.5682 138.9787 82.0494 138.5729 87.477 C 138.9787 93.8213 134.5816 101.1074 128.261 102.9677 C 109.7305 108.43 92.8408 109.0388 70.1694 109.0388 C 47.4979 109.0388 30.6009 108.0867 12.0778 102.9677 C 5.4229 101.1438 0.8366 95.1843 1.3067 89.5909 C 0.8366 83.2357 4.9408 75.8159 12.0778 73.6775 C 30.4384 68.0959 47.4979 67.6064 70.1694 67.6064 Z "/>
    <path id="ID0.6266075219027698" fill="#FFFFFF" stroke="#000000" stroke-width="2.333683546904355" d="M 81.9406 1.508 C 87.3823 1.508 92.3141 3.2306 95.8841 6.0129 C 99.4552 8.7953 101.6656 12.6374 101.6656 16.8785 C 101.6656 21.1197 99.4552 24.9617 95.8841 27.7441 C 92.3141 30.5264 87.3823 32.2491 81.9406 32.2491 C 76.4989 32.2491 71.567 30.5264 67.9971 27.7441 C 64.4259 24.9617 62.2155 21.1197 62.2155 16.8785 C 62.2155 12.6374 64.4259 8.7953 67.9971 6.0129 C 71.567 3.2306 76.4989 1.508 81.9406 1.508 Z "/>
  </g>
</svg>