<svg xmlns="http://www.w3.org/2000/svg" xmlns:xlink="http://www.w3.org/1999/xlink" version="1.1" width="131" height="90.5" viewBox="0.5 0 131 90.5">
  <!-- Exported by Scratch - http://scratch.mit.edu/ -->
  <g id="ID0.05731152556836605">
    <path id="ID0.32772520557045937" fill="#0033CC" stroke="#000000" stroke-width="2" stroke-linecap="round" d="M 10.5 74 L 65.5 5 L 52 88.5 L 36 86 L 18 78 L 10.5 74 Z "/>
    <path id="ID0.48996398923918605" fill="#CC0000" stroke="#000000" stroke-width="2" stroke-linecap="round" d="M 92 88 L 66 5.5 L 51.5 89 L 62.5 89.5 L 83.5 89 L 92 88 Z "/>
    <path id="ID0.5238806311972439" fill="#00CC44" stroke="#000000" stroke-width="2" stroke-linecap="round" d="M 93 87.5 L 65.5 5 L 124.5 70 L 119.5 77 L 112.5 82.5 L 102 85.5 L 93 87.5 Z "/>
    <path id="ID0.23552168672904372" fill="#66004C" stroke="#000000" stroke-width="2" d="M 65.75 1 C 68.44 1 70.877 1.728 72.642 2.905 C 74.407 4.082 75.5 5.707 75.5 7.5 C 75.5 9.293 74.407 10.918 72.642 12.095 C 70.877 13.272 68.44 14 65.75 14 C 63.06 14 60.623 13.272 58.858 12.095 C 57.093 10.918 56 9.293 56 7.5 C 56 5.707 57.093 4.082 58.858 2.905 C 60.623 1.728 63.06 1 65.75 1 Z "/>
    <path id="ID0.3673971248790622" fill="#CCCC00" stroke="#000000" stroke-width="2" d="M 31.25 2 C 39.458 2 46.895 2.588 52.281 3.539 C 57.666 4.489 61 5.802 61 7.25 C 61 8.698 57.666 10.011 52.281 10.961 C 46.895 11.912 39.458 12.5 31.25 12.5 C 23.042 12.5 15.605 11.912 10.219 10.961 C 4.834 10.011 1.5 8.698 1.5 7.25 C 1.5 5.802 4.834 4.489 10.219 3.539 C 15.605 2.588 23.042 2 31.25 2 Z "/>
    <path id="ID0.3673971248790622" fill="#CCCC00" stroke="#000000" stroke-width="2" d="M 100.75 1.5 C 108.958 1.5 116.395 2.088 121.781 3.039 C 127.166 3.989 130.5 5.302 130.5 6.75 C 130.5 8.198 127.166 9.511 121.781 10.461 C 116.395 11.412 108.958 12 100.75 12 C 92.542 12 85.105 11.412 79.719 10.461 C 74.334 9.511 71 8.198 71 6.75 C 71 5.302 74.334 3.989 79.719 3.039 C 85.105 2.088 92.542 1.5 100.75 1.5 Z "/>
  </g>
</svg>