<svg xmlns="http://www.w3.org/2000/svg" xmlns:xlink="http://www.w3.org/1999/xlink" version="1.1" width="145.2609630929365" height="104.24476588834663" viewBox="1.9745187110238256 1.4116186446480932 145.2609630929365 104.24476588834663">
  <!-- Exported by Scratch - http://scratch.mit.edu/ -->
  <g id="ID0.9600786743685603">
    <path id="ID0.32302405731752515" fill="#001966" stroke="#000000" stroke-width="3.367362629069292" stroke-linecap="round" d="M 55.0089 3.0953 L 36.0707 7.1814 L 16.9957 17.2663 L 3.6582 42.5879 L 4.1747 62.9656 L 11.7842 73.592 L 45.75 90.552 L 67.5993 100.8289 L 87.1577 103.9727 L 101.9265 101.9495 L 126.1071 96.0948 L 140.9604 90.3644 L 145.5518 82.714 L 136.0648 68.3357 L 130.3096 62.4723 L 129.2303 45.2512 L 118.3104 29.1544 L 111.9272 16.398 L 88.7856 6.8333 L 73.8102 5.008 L 55.0089 3.0953 Z "/>
    <path id="ID0.22527044732123613" fill="none" stroke="#000000" stroke-width="3.367362629069292" stroke-linecap="round" d="M 129.3132 61.7239 L 119.7477 72.2955 L 101.8975 80.3178 L 83.2047 82.2515 L 46.4558 79.7269 L 24.5372 72.483 L 13.9001 65.4966 L 7.004 45.1082 "/>
    <path id="ID0.4085760647431016" fill="#FFFF99" stroke="#000000" stroke-width="3.012441577601323" stroke-linecap="round" d="M 4.6077 51.6425 L 6.3197 42.6419 L 20.1783 62.5442 L 29.093 68.0208 L 48.5657 72.985 L 71.1188 75.0063 L 95.9822 74.8203 L 112.6665 69.9279 L 128.1372 52.2016 L 130.1554 62.794 L 121.65 72.3929 L 101.8508 81.734 L 70.9642 81.7825 L 46.9053 79.7268 L 24.4725 72.4351 L 14.0863 65.4184 L 4.6077 51.6425 Z "/>
    <path id="ID0.8508272459730506" fill="#0033CC" stroke="#000000" stroke-width="3.012441577601323" stroke-linecap="round" d="M 65.9405 4.8306 C 75.8694 4.5525 85.8328 8.6383 95.1839 10.7711 C 101.3638 12.1671 108.4116 13.0963 113.1164 17.2068 C 116.8343 20.457 116.5722 26.3961 118.8304 30.8967 C 120.7041 34.2886 122.0881 34.7104 123.2104 37.0231 C 125.2482 39.8252 129.712 41.5557 128.2747 46.1783 C 124.927 55.7473 118.0074 65.5074 108.902 69.842 C 96.3425 75.7973 81.2836 74.8209 67.3714 74.1674 C 54.7384 73.5763 41.777 70.8052 30.8371 64.9434 C 21.9603 60.1848 9.7478 53.6431 8.5613 43.4464 C 7.9867 31.3231 16.7682 18.3392 26.6171 11.4663 C 37.5245 3.8974 52.7852 5.2068 65.9405 4.8306 Z "/>
    <g id="ID0.9026065808720887">
      <path id="ID0.7593314652331173" fill="#FFFFCC" stroke="#000000" stroke-width="1.8861572586854727" stroke-linecap="round" d="M 94.6329 74.0632 L 95.7888 69.1794 L 100.324 61.5079 L 95.175 64.2202 L 88.6372 63.3509 L 84.824 60.9362 L 81.0523 57.0384 L 78.7093 59.7689 L 74.1131 62.7761 L 67.526 62.7967 L 61.8872 60.7113 L 66.1864 67.6272 L 67.755 75.6302 L 69.2534 82.9324 L 73.9389 86.7464 L 81.962 89.2558 L 89.4396 87.372 L 93.4209 83.9893 L 94.0421 80.1856 L 94.6329 74.0632 Z "/>
      <path id="ID0.7593314652331173" fill="#FFFF00" stroke="#000000" stroke-width="1.1626033757445648" stroke-linecap="round" d="M 89.6598 74.8272 L 90.3724 71.8168 L 93.1678 67.0882 L 89.994 68.76 L 85.9642 68.2242 L 83.6138 66.7358 L 81.289 64.3333 L 79.8447 66.0163 L 77.0117 67.8699 L 72.9515 67.8826 L 69.4758 66.5972 L 72.1258 70.8601 L 73.0926 75.793 L 74.0163 80.294 L 76.9043 82.6449 L 81.8497 84.1916 L 86.4588 83.0305 L 88.9128 80.9454 L 89.2957 78.6009 L 89.6598 74.8272 Z "/>
    </g>
  </g>
</svg>