<svg xmlns="http://www.w3.org/2000/svg" xmlns:xlink="http://www.w3.org/1999/xlink" version="1.1" width="150.9088604358849" height="101.62706874887319" viewBox="0.8928178594501286 0.6015180395038395 150.9088604358849 101.62706874887319">
  <!-- Exported by Scratch - http://scratch.mit.edu/ -->
  <g id="ID0.809668458532542">
    <path id="ID0.32302405731752515" fill="#F0CD17" stroke="#000000" stroke-width="3.5007641224083366" stroke-linecap="round" d="M 51.0992 3.4033 L 33.757 8.3096 L 15.9049 19.524 L 3.6634 44.0556 L 2.6432 59.8259 L 10.8042 70.6899 L 46.5086 87.5116 L 69.4614 97.6746 L 89.8639 100.4782 L 105.1658 98.0251 L 130.1588 91.3665 L 145.4607 85.0584 L 150.0513 76.998 L 139.85 62.2791 L 133.7293 56.3214 L 132.1991 38.4484 L 120.4677 21.9772 L 107.206 11.4637 L 83.7432 3.0528 L 67.9312 2.3519 L 51.0992 3.4033 Z "/>
    <path id="ID0.22527044732123613" fill="none" stroke="#000000" stroke-width="3.5007641224083366" stroke-linecap="round" d="M 132.7092 57.0223 L 123.018 68.2367 L 104.6557 76.998 L 85.2734 79.4512 L 47.0187 77.6989 L 24.0659 70.6899 L 12.8445 63.6809 L 5.1935 42.6538 "/>
    <path id="ID0.7593314652331173" fill="#EF8601" stroke="#000000" stroke-width="3.5007641224083366" stroke-linecap="round" d="M 105.1658 76.6476 L 124.0381 66.134 L 119.4475 56.6719 L 90.884 65.0827 L 93.4344 78.0494 L 105.1658 76.6476 Z "/>
    <path id="ID0.13241016771644354" fill="#EF8601" stroke="#000000" stroke-width="3.5007641224083366" stroke-linecap="round" d="M 93.9444 7.9592 L 104.1457 10.0619 L 103.1255 46.8592 L 45.4885 20.9259 L 23.5558 15.6691 L 29.6765 10.7628 L 51.0992 15.3186 L 77.6224 25.8322 L 94.9645 36.3457 L 93.4344 7.9592 Z "/>
    <path id="ID0.03654159139841795" fill="#EF8601" stroke="#000000" stroke-width="3.5007641224083366" stroke-linecap="round" d="M 48.5489 4.4547 L 59.7702 3.0528 L 92.9243 25.4817 L 94.9645 35.2943 L 78.1325 26.1826 L 48.5489 4.4547 Z "/>
  </g>
</svg>