<svg xmlns="http://www.w3.org/2000/svg" xmlns:xlink="http://www.w3.org/1999/xlink" version="1.1" width="204.98132249949137" height="137.92372057078043" viewBox="0.5900820630900023 -0.3238093715794923 204.98132249949137 137.92372057078043">
  <defs>
    <radialGradient id="grad_1" cx="0.8115000000000001" cy="0.2852" r="1.05495">
      <stop offset="0" stop-color="#E5E5E5" stop-opacity="1"/>
      <stop offset="1" stop-color="#B2B2B2" stop-opacity="1"/>
    </radialGradient>
    <radialGradient id="grad_2" cx="0.8115000000000001" cy="0.21760000000000002" r="1.05495">
      <stop offset="0" stop-color="#E5E5E5" stop-opacity="1"/>
      <stop offset="1" stop-color="#B2B2B2" stop-opacity="1"/>
    </radialGradient>
    <radialGradient id="grad_3" cx="0.8115000000000001" cy="0.2852" r="1.05495">
      <stop offset="0" stop-color="#E5E5E5" stop-opacity="1"/>
      <stop offset="1" stop-color="#B2B2B2" stop-opacity="1"/>
    </radialGradient>
    <radialGradient id="grad_4" cx="0.8115000000000001" cy="0.21760000000000002" r="1.05495">
      <stop offset="0" stop-color="#E5E5E5" stop-opacity="1"/>
      <stop offset="1" stop-color="#B2B2B2" stop-opacity="1"/>
    </radialGradient>
  <radialGradient id="grad_1-.2692307233810425,0,0,1.7171945571899414,-179.4,-482.45" cx="26.8195" cy="117.3283" r="31.8777" gradientUnits="userSpaceOnUse">
      <stop offset="0" stop-color="#E5E5E5" stop-opacity="1"/>
      <stop offset="1" stop-color="#B2B2B2" stop-opacity="1"/>
    </radialGradient><radialGradient id="grad_2-.2692307233810425,0,0,1.7171945571899414,-179.4,-482.45" cx="26.8195" cy="115.587" r="31.8777" gradientUnits="userSpaceOnUse">
      <stop offset="0" stop-color="#E5E5E5" stop-opacity="1"/>
      <stop offset="1" stop-color="#B2B2B2" stop-opacity="1"/>
    </radialGradient><radialGradient id="grad_3-.2692307233810425,0,0,1.7171945571899414,-7.9,-482.1" cx="198.3195" cy="117.6783" r="31.8777" gradientUnits="userSpaceOnUse">
      <stop offset="0" stop-color="#E5E5E5" stop-opacity="1"/>
      <stop offset="1" stop-color="#B2B2B2" stop-opacity="1"/>
    </radialGradient><radialGradient id="grad_4-.2692307233810425,0,0,1.7171945571899414,-7.9,-482.1" cx="198.3195" cy="115.937" r="31.8777" gradientUnits="userSpaceOnUse">
      <stop offset="0" stop-color="#E5E5E5" stop-opacity="1"/>
      <stop offset="1" stop-color="#B2B2B2" stop-opacity="1"/>
    </radialGradient></defs>
  <!-- Exported by Scratch - http://scratch.mit.edu/ -->
  <path id="ID0.25189981516450644" fill="#FFFFFF" stroke="#CCCCCC" stroke-width="2.0000000695283466" stroke-linecap="round" d="M 125.3749 45.4177 L 130.7689 16.4884 L 190.5253 108.3098 L 173.3364 122.0772 L 125.3749 45.4177 Z "/>
  <path id="ID0.25189981516450644" fill="#FFFFFF" stroke="#CCCCCC" stroke-width="1.999999950330089" stroke-linecap="round" d="M 80.4751 45.6676 L 80.9672 12.0078 L 15.3247 108.5598 L 32.5136 122.3272 L 80.4751 45.6676 Z "/>
  <path id="ID0.854837907012552" fill="#FFFFFF" stroke="#CCCCCC" stroke-width="1.9191346581701576" stroke-linecap="round" d="M 127.4911 2.9634 C 132.7461 7.3586 133.6317 14.0159 134.7806 19.5904 C 137.6387 33.4598 138.3731 47.5587 139.2413 61.5635 C 139.6504 68.2257 138.4982 74.8416 139.2413 81.4349 C 139.7167 85.7384 140.9472 89.6567 143.2124 93.1143 C 147.4806 101.0158 164.7772 109.687 158.7161 115.2972 C 150.231 123.1257 128.3865 119.8757 113.7826 120.9747 C 94.5243 122.4452 69.6172 130.182 55.7389 121.7858 C 45.9439 115.8528 63.1655 102.1813 65.2044 91.9383 C 66.7515 86.9161 66.3446 81.5508 66.4555 76.1629 C 66.5317 72.7207 65.9736 71.0482 66.9995 65.8217 C 71.1023 44.9146 74.0649 23.5436 81.0344 2.9634 C 82.723 -2.1821 84.8184 5.3739 87.0183 6.451 C 89.3031 6.7714 91.7032 6.6846 94.0358 7.0593 C 97.1528 7.4908 100.382 7.2929 103.5012 7.6271 C 105.9524 7.8696 108.0598 8.576 110.5187 8.2354 C 113.1809 8.383 115.9183 7.7609 118.5153 7.0593 C 121.6313 6.2109 125.0018 1.3948 127.4911 2.9634 Z "/>
  <path id="ID0.2605703976005316" fill="url(#grad_1-.2692307233810425,0,0,1.7171945571899414,-179.4,-482.45)" stroke="url(#grad_2-.2692307233810425,0,0,1.7171945571899414,-179.4,-482.45)" stroke-width="3.019835683085132" d="M 17.3308 109.9821 C 21.5332 109.9821 25.3409 111.4246 28.0976 113.7565 C 30.8544 116.0885 32.5615 119.3082 32.5615 122.8611 C 32.5615 126.414 30.8544 129.6337 28.0976 131.9656 C 25.3409 134.2976 21.5332 135.74 17.3308 135.74 C 13.1283 135.74 9.3206 134.2976 6.5639 131.9656 C 3.8071 129.6337 2.1 126.414 2.1 122.8611 C 2.1 119.3082 3.8071 116.0885 6.5639 113.7565 C 9.3206 111.4246 13.1283 109.9821 17.3308 109.9821 Z " style="stroke-linejoin: round; stroke-linecap: round;"/>
  <path id="ID0.2605703976005316" fill="url(#grad_3-.2692307233810425,0,0,1.7171945571899414,-7.9,-482.1)" stroke="url(#grad_4-.2692307233810425,0,0,1.7171945571899414,-7.9,-482.1)" stroke-width="3.019835683085132" d="M 188.8308 110.3321 C 193.0332 110.3321 196.8409 111.7746 199.5976 114.1065 C 202.3544 116.4385 204.0615 119.6582 204.0615 123.2111 C 204.0615 126.764 202.3544 129.9837 199.5976 132.3156 C 196.8409 134.6476 193.0332 136.09 188.8308 136.09 C 184.6283 136.09 180.8206 134.6476 178.0639 132.3156 C 175.3071 129.9837 173.6 126.764 173.6 123.2111 C 173.6 119.6582 175.3071 116.4385 178.0639 114.1065 C 180.8206 111.7746 184.6283 110.3321 188.8308 110.3321 Z " style="stroke-linejoin: round; stroke-linecap: round;"/>
</svg>