<svg xmlns="http://www.w3.org/2000/svg" xmlns:xlink="http://www.w3.org/1999/xlink" version="1.1" width="45.53405973007868" height="7.817565646674143" viewBox="1.2606591150631972 0.10098244403506007 45.53405973007868 7.817565646674143">
  <defs>
    <radialGradient id="grad_1" cx="0.5177" cy="0.7137" r="0.92781">
      <stop offset="0" stop-color="#FF090D" stop-opacity="1"/>
      <stop offset="1" stop-color="#960A10" stop-opacity="1"/>
    </radialGradient>
  <radialGradient id="grad_1-.1738579273223877,0,0,0.5381679534912109,-300.7,-71.8" cx="24.8013" cy="5.2901" r="23.2813" gradientUnits="userSpaceOnUse">
      <stop offset="0" stop-color="#FF090D" stop-opacity="1"/>
      <stop offset="1" stop-color="#960A10" stop-opacity="1"/>
    </radialGradient></defs>
  <!-- Exported by Scratch - http://scratch.mit.edu/ -->
  <g id="ID0.5249166153371334">
    <path id="ID0.8148315674625337" fill="url(#grad_1-.1738579273223877,0,0,0.5381679534912109,-300.7,-71.8)" stroke="#561610" stroke-width="1.8262350230474336" stroke-linecap="round" d="M 2.2727 1.5523 L 19.2937 1.2294 L 20.3501 1.6599 L 21.8175 2.0905 L 24.4586 2.1443 L 26.102 1.6599 L 27.0998 1.0141 L 45.8816 1.0141 C 45.7055 1.3101 45.1995 2.1195 44.7077 2.4672 C 44.2029 2.8234 43.4305 3.0845 42.7708 3.3821 C 42.1604 3.6576 41.5829 3.9563 40.8927 4.1893 C 40.166 4.4342 39.322 4.5983 38.5449 4.8082 C 37.7972 5.0106 37.0811 5.2398 36.3146 5.4271 C 35.6126 5.5988 34.8989 5.7705 34.143 5.8845 C 32.273 6.166 30.3843 6.4464 28.4498 6.6111 C 26.1337 6.808 23.8271 7.0771 21.524 6.9878 C 18.5917 6.8306 15.7803 6.2946 13.0135 5.8845 C 12.132 5.7538 11.2809 5.5729 10.4897 5.3464 C 8.3075 4.6279 7.5856 4.4272 6.5573 4.1355 C 5.8847 3.9477 5.1111 3.8271 4.5031 3.5973 C 3.8621 3.3546 3.2541 3.0715 2.8597 2.7363 C 2.5474 2.4699 1.7586 1.9118 2.4488 1.8483 Z "/>
    <path id="ID0.011943691410124302" fill="none" stroke="#551510" stroke-width="0.9131175115237168" stroke-linecap="round" d="M 3.6335 2.3649 L 12.0266 3.5489 L 18.8937 4.087 L 27.5802 4.087 L 36.0907 3.3874 L 44.7185 1.6115 "/>
  </g>
</svg>