<svg xmlns="http://www.w3.org/2000/svg" xmlns:xlink="http://www.w3.org/1999/xlink" version="1.1" width="43.11013672019654" height="16.24304840232545" viewBox="0.6303464310089062 0.5150379078308056 43.11013672019654 16.24304840232545">
  <!-- Exported by Scratch - http://scratch.mit.edu/ -->
  <path id="ID0.5728180012665689" fill="#000000" stroke="#000000" stroke-width="2.0835864543914795" d="M 7.487 5.157 L 35.0945 5.157 L 35.0945 7.5011 L 7.487 7.5011 L 7.487 5.157 Z "/>
  <path id="ID0.7261524321511388" fill="#FFFFFF" stroke="#FFFFFF" stroke-width="3.225197140573556" stroke-linecap="round" d="M 6.7141 4.6241 L 31.6794 4.6241 C 39.9927 4.6241 36.8859 4.7292 36.5871 5.9473 C 36.0784 7.9126 32.5807 9.6048 30.3138 11.0513 C 28.8978 11.8483 27.2224 12.1946 25.7048 12.5636 C 24.0362 12.9764 22.2907 13.3197 20.5837 13.3197 C 18.6206 13.2441 16.6149 13.0551 14.8225 12.3745 C 12.518 11.4672 10.3569 10.1999 8.6345 8.5938 C 7.495 7.5307 4.6725 4.9606 6.7141 4.6241 Z "/>
  <g id="ID0.4310898073017597">
    <path id="ID0.7261524321511388" fill="none" stroke="#000000" stroke-width="4.1569468703430275" stroke-linecap="round" d="M 3.5852 2.6265 L 33.9079 2.6265 C 44.0051 2.6265 41.3284 2.2296 41.372 4.1892 C 41.4445 6.9146 37.0252 10.0254 34.0634 12.0027 C 31.9289 13.4622 29.1828 13.8446 26.6512 14.3988 C 24.6048 14.7186 22.49 14.7301 20.4312 14.6072 C 18.0644 14.4467 15.6106 14.2425 13.4336 13.3049 C 10.6346 12.0548 8.0097 10.3087 5.9177 8.096 C 4.5338 6.6312 1.1055 3.0901 3.5852 2.6265 Z "/>
    <path id="ID0.2612773203290999" fill="#000000" stroke="#000000" stroke-width="2.0835864543914795" stroke-linecap="round" d="M 22.0581 14.0863 L 7.2125 8.8773 L 34.82 8.8773 L 22.0581 14.0863 Z "/>
  </g>
</svg>