<svg xmlns="http://www.w3.org/2000/svg" xmlns:xlink="http://www.w3.org/1999/xlink" version="1.1" width="12.339339220963511" height="18.875025713883435" viewBox="1.764837282676203 -0.3165627541356255 12.339339220963511 18.875025713883435">
  <!-- Exported by Scratch - http://scratch.mit.edu/ -->
  <path id="ID0.3605181877501309" fill="none" stroke="#000000" stroke-width="2.4699735174413866" stroke-linecap="round" d="M 3.0039 17.3194 C 3.0039 17.3194 7.0436 16.656 8.5717 16.2835 C 9.8539 15.9709 11.0553 15.6402 11.545 15.3132 C 12.449 14.4969 13.0148 13.6768 12.6995 12.8935 C 12.4054 12.0893 11.506 11.2716 9.5287 10.5627 C 8.2707 10.1216 3.3999 9.4599 3.3999 9.4599 "/>
  <path id="ID0.3605181877501309" fill="none" stroke="#000000" stroke-width="2.4781255368814805" stroke-linecap="round" d="M 3.0478 8.7822 C 3.0478 8.7822 7.1012 8.1181 8.6345 7.7454 C 9.9211 7.4325 11.1266 7.1017 11.618 6.7745 C 12.5251 5.9582 13.0931 5.138 12.7769 4.3547 C 12.4819 3.5505 11.5797 2.7329 9.5959 2.0243 C 8.3337 1.5835 3.4467 0.9225 3.4467 0.9225 "/>
</svg>