<svg xmlns="http://www.w3.org/2000/svg" xmlns:xlink="http://www.w3.org/1999/xlink" version="1.1" width="204.98132249949137" height="138.8832847797648" viewBox="0.5900820630900023 -0.2833716732152345 204.98132249949137 138.8832847797648">
  <defs>
    <radialGradient id="grad_1" cx="0.5" cy="0.40700000000000003" r="0.7709">
      <stop offset="0" stop-color="#003FFF" stop-opacity="1"/>
      <stop offset="1" stop-color="#0033CC" stop-opacity="1"/>
    </radialGradient>
    <radialGradient id="grad_2" cx="0.5007" cy="0.39759999999999995" r="0.7831199999999999">
      <stop offset="0" stop-color="#003FFF" stop-opacity="1"/>
      <stop offset="1" stop-color="#0033CC" stop-opacity="1"/>
    </radialGradient>
    <radialGradient id="grad_3" cx="0.5656" cy="0.4415" r="0.73528">
      <stop offset="0" stop-color="#003FFF" stop-opacity="1"/>
      <stop offset="1" stop-color="#0033CC" stop-opacity="1"/>
    </radialGradient>
    <radialGradient id="grad_4" cx="0.5228" cy="0.4142" r="0.76154">
      <stop offset="0" stop-color="#003FFF" stop-opacity="1"/>
      <stop offset="1" stop-color="#0033CC" stop-opacity="1"/>
    </radialGradient>
    <radialGradient id="grad_5" cx="0.6583" cy="0.3237" r="0.8791900000000001">
      <stop offset="0" stop-color="#003FFF" stop-opacity="1"/>
      <stop offset="1" stop-color="#0033CC" stop-opacity="1"/>
    </radialGradient>
    <radialGradient id="grad_6" cx="0.7676000000000001" cy="0.1998" r="1.04026">
      <stop offset="0" stop-color="#003FFF" stop-opacity="1"/>
      <stop offset="1" stop-color="#0033CC" stop-opacity="1"/>
    </radialGradient>
    <radialGradient id="grad_7" cx="0.8115000000000001" cy="0.2852" r="1.05495">
      <stop offset="0" stop-color="#E5E5E5" stop-opacity="1"/>
      <stop offset="1" stop-color="#B2B2B2" stop-opacity="1"/>
    </radialGradient>
    <radialGradient id="grad_8" cx="0.8115000000000001" cy="0.21760000000000002" r="1.05495">
      <stop offset="0" stop-color="#E5E5E5" stop-opacity="1"/>
      <stop offset="1" stop-color="#B2B2B2" stop-opacity="1"/>
    </radialGradient>
    <radialGradient id="grad_9" cx="0.8115000000000001" cy="0.2852" r="1.05495">
      <stop offset="0" stop-color="#E5E5E5" stop-opacity="1"/>
      <stop offset="1" stop-color="#B2B2B2" stop-opacity="1"/>
    </radialGradient>
    <radialGradient id="grad_10" cx="0.8115000000000001" cy="0.21760000000000002" r="1.05495">
      <stop offset="0" stop-color="#E5E5E5" stop-opacity="1"/>
      <stop offset="1" stop-color="#B2B2B2" stop-opacity="1"/>
    </radialGradient>
  <radialGradient id="grad_1-0.9999074935913086,-0.013604182749986649,-0.013604182749986649,0.9999074935913086,350.15,-229.55" cx="158.185" cy="60.6003" r="67.6045" gradientUnits="userSpaceOnUse">
      <stop offset="0" stop-color="#003FFF" stop-opacity="1"/>
      <stop offset="1" stop-color="#0033CC" stop-opacity="1"/>
    </radialGradient><radialGradient id="grad_2-0.9999074935913086,-0.013604182749986649,-0.013604182749986649,0.9999074935913086,350.15,-229.55" cx="158.1522" cy="59.6128" r="68.6761" gradientUnits="userSpaceOnUse">
      <stop offset="0" stop-color="#003FFF" stop-opacity="1"/>
      <stop offset="1" stop-color="#0033CC" stop-opacity="1"/>
    </radialGradient><radialGradient id="grad_3-.9999074339866638,-0.013604182749986649,0.013604182749986649,0.9999074339866638,-144.3,-229.3" cx="52.5454" cy="61.8095" r="66.7961" gradientUnits="userSpaceOnUse">
      <stop offset="0" stop-color="#003FFF" stop-opacity="1"/>
      <stop offset="1" stop-color="#0033CC" stop-opacity="1"/>
    </radialGradient><radialGradient id="grad_4-.9999074339866638,-0.013604182749986649,0.013604182749986649,0.9999074339866638,-144.3,-229.3" cx="49.6395" cy="58.8553" r="69.1817" gradientUnits="userSpaceOnUse">
      <stop offset="0" stop-color="#003FFF" stop-opacity="1"/>
      <stop offset="1" stop-color="#0033CC" stop-opacity="1"/>
    </radialGradient><radialGradient id="grad_5-.087978482246399,0,0,0.817538321018219,-159.3,-193.6" cx="123.3456" cy="41.8318" r="109.1032" gradientUnits="userSpaceOnUse">
      <stop offset="0" stop-color="#003FFF" stop-opacity="1"/>
      <stop offset="1" stop-color="#0033CC" stop-opacity="1"/>
    </radialGradient><radialGradient id="grad_6-.087978482246399,0,0,0.817538321018219,-159.3,-193.6" cx="135.0672" cy="26.2897" r="129.0912" gradientUnits="userSpaceOnUse">
      <stop offset="0" stop-color="#003FFF" stop-opacity="1"/>
      <stop offset="1" stop-color="#0033CC" stop-opacity="1"/>
    </radialGradient><radialGradient id="grad_7-.2692307233810425,0,0,1.7171945571899414,-179.4,-481.45" cx="26.8195" cy="118.3283" r="31.8777" gradientUnits="userSpaceOnUse">
      <stop offset="0" stop-color="#E5E5E5" stop-opacity="1"/>
      <stop offset="1" stop-color="#B2B2B2" stop-opacity="1"/>
    </radialGradient><radialGradient id="grad_8-.2692307233810425,0,0,1.7171945571899414,-179.4,-481.45" cx="26.8195" cy="116.587" r="31.8777" gradientUnits="userSpaceOnUse">
      <stop offset="0" stop-color="#E5E5E5" stop-opacity="1"/>
      <stop offset="1" stop-color="#B2B2B2" stop-opacity="1"/>
    </radialGradient><radialGradient id="grad_9-.2692307233810425,0,0,1.7171945571899414,-7.9,-481.1" cx="198.3195" cy="118.6783" r="31.8777" gradientUnits="userSpaceOnUse">
      <stop offset="0" stop-color="#E5E5E5" stop-opacity="1"/>
      <stop offset="1" stop-color="#B2B2B2" stop-opacity="1"/>
    </radialGradient><radialGradient id="grad_10-.2692307233810425,0,0,1.7171945571899414,-7.9,-481.1" cx="198.3195" cy="116.937" r="31.8777" gradientUnits="userSpaceOnUse">
      <stop offset="0" stop-color="#E5E5E5" stop-opacity="1"/>
      <stop offset="1" stop-color="#B2B2B2" stop-opacity="1"/>
    </radialGradient></defs>
  <!-- Exported by Scratch - http://scratch.mit.edu/ -->
  <path id="ID0.25189981516450644" fill="url(#grad_1-0.9999074935913086,-0.013604182749986649,-0.013604182749986649,0.9999074935913086,350.15,-229.55)" stroke="url(#grad_2-0.9999074935913086,-0.013604182749986649,-0.013604182749986649,0.9999074935913086,350.15,-229.55)" stroke-width="2.0000000695283466" stroke-linecap="round" d="M 125.3749 46.4177 L 130.7689 17.4884 L 190.5253 109.3098 L 173.3364 123.0772 L 125.3749 46.4177 Z " style="stroke-linejoin: round; stroke-linecap: round;"/>
  <path id="ID0.25189981516450644" fill="url(#grad_3-.9999074339866638,-0.013604182749986649,0.013604182749986649,0.9999074339866638,-144.3,-229.3)" stroke="url(#grad_4-.9999074339866638,-0.013604182749986649,0.013604182749986649,0.9999074339866638,-144.3,-229.3)" stroke-width="1.999999950330089" stroke-linecap="round" d="M 80.4751 46.6676 L 80.9672 13.0078 L 15.3247 109.5598 L 32.5136 123.3272 L 80.4751 46.6676 Z " style="stroke-linejoin: round; stroke-linecap: round;"/>
  <path id="ID0.854837907012552" fill="url(#grad_5-.087978482246399,0,0,0.817538321018219,-159.3,-193.6)" stroke="url(#grad_6-.087978482246399,0,0,0.817538321018219,-159.3,-193.6)" stroke-width="1.924612212454481" stroke-linecap="round" d="M 127.4911 3.018 C 132.7461 7.4482 133.6317 14.1586 134.7806 19.7775 C 137.6387 33.7574 138.3731 47.9687 139.2413 62.0851 C 139.6504 68.8004 138.4982 75.469 139.2413 82.1148 C 139.7167 86.4527 140.9472 90.4022 143.2124 93.8874 C 147.4806 101.8518 164.7772 110.5921 158.7161 116.247 C 150.231 124.1379 128.3865 120.862 113.7826 121.9698 C 94.5243 123.452 69.6172 131.2505 55.7389 122.7873 C 45.9439 116.807 63.1655 103.0266 65.2044 92.7019 C 66.7515 87.6397 66.3446 82.2317 66.4555 76.8008 C 66.5317 73.3312 65.9736 71.6454 66.9995 66.3772 C 71.1023 45.3035 74.0649 23.7622 81.0344 3.018 C 82.723 -2.1685 84.8184 5.4477 87.0183 6.5334 C 89.3031 6.8563 91.7032 6.7688 94.0358 7.1465 C 97.1528 7.5815 100.382 7.382 103.5012 7.7188 C 105.9524 7.9633 108.0598 8.6753 110.5187 8.332 C 113.1809 8.4808 115.9183 7.8537 118.5153 7.1465 C 121.6313 6.2914 125.0018 1.4368 127.4911 3.018 Z " style="stroke-linejoin: round; stroke-linecap: round;"/>
  <path id="ID0.2605703976005316" fill="url(#grad_7-.2692307233810425,0,0,1.7171945571899414,-179.4,-481.45)" stroke="url(#grad_8-.2692307233810425,0,0,1.7171945571899414,-179.4,-481.45)" stroke-width="3.019835683085132" d="M 17.3308 110.9821 C 21.5332 110.9821 25.3409 112.4246 28.0976 114.7565 C 30.8544 117.0885 32.5615 120.3082 32.5615 123.8611 C 32.5615 127.414 30.8544 130.6337 28.0976 132.9656 C 25.3409 135.2976 21.5332 136.74 17.3308 136.74 C 13.1283 136.74 9.3206 135.2976 6.5639 132.9656 C 3.8071 130.6337 2.1 127.414 2.1 123.8611 C 2.1 120.3082 3.8071 117.0885 6.5639 114.7565 C 9.3206 112.4246 13.1283 110.9821 17.3308 110.9821 Z " style="stroke-linejoin: round; stroke-linecap: round;"/>
  <path id="ID0.2605703976005316" fill="url(#grad_9-.2692307233810425,0,0,1.7171945571899414,-7.9,-481.1)" stroke="url(#grad_10-.2692307233810425,0,0,1.7171945571899414,-7.9,-481.1)" stroke-width="3.019835683085132" d="M 188.8308 111.3321 C 193.0332 111.3321 196.8409 112.7746 199.5976 115.1065 C 202.3544 117.4385 204.0615 120.6582 204.0615 124.2111 C 204.0615 127.764 202.3544 130.9837 199.5976 133.3156 C 196.8409 135.6476 193.0332 137.09 188.8308 137.09 C 184.6283 137.09 180.8206 135.6476 178.0639 133.3156 C 175.3071 130.9837 173.6 127.764 173.6 124.2111 C 173.6 120.6582 175.3071 117.4385 178.0639 115.1065 C 180.8206 112.7746 184.6283 111.3321 188.8308 111.3321 Z " style="stroke-linejoin: round; stroke-linecap: round;"/>
</svg>