<svg version="1.1" xmlns="http://www.w3.org/2000/svg" xmlns:xlink="http://www.w3.org/1999/xlink" width="41.68977" height="22.68798" viewBox="0,0,41.68977,22.68798"><g transform="translate(-227.7806,-191.2596)"><g data-paper-data="{&quot;isPaintingLayer&quot;:true}" fill-rule="nonzero" stroke-linejoin="miter" stroke-miterlimit="10" stroke-dasharray="" stroke-dashoffset="0" style="mix-blend-mode: normal"><path d="M245.98191,197.59641c2.1377,0 4.0741,0.8193 5.4751,2.1446c1.4027,1.3236 2.2702,3.1514 2.2702,5.1704c0,2.0189 -0.8675,3.8468 -2.2702,5.1704c-1.401,1.3253 -3.3374,2.1446 -5.4751,2.1446c-2.1377,0 -4.074,-0.8193 -5.475,-2.1446c-1.4028,-1.3236 -2.2703,-3.1515 -2.2703,-5.1704c0,-2.019 0.8675,-3.8468 2.2703,-5.1704c1.401,-1.3253 3.3373,-2.1446 5.475,-2.1446z" fill="#000000" stroke="#663b00" stroke-width="3.44235" stroke-linecap="butt"/><path d="M229.91801,207.82441l5.8778,-8.5496l10.1527,-5.8778h10.687l6.4122,4.2748l1.6031,5.8778l0.5343,7.4809" fill="none" stroke="#000000" stroke-width="4.27481" stroke-linecap="round"/><path d="M261.75651,197.78511l6.9466,-2.6717z" fill="none" stroke="#000000" stroke-width="4.27481" stroke-linecap="round"/></g></g></svg>