<svg version="1.1" xmlns="http://www.w3.org/2000/svg" xmlns:xlink="http://www.w3.org/1999/xlink" width="33.49447" height="24.06814" viewBox="0,0,33.49447,24.06814"><g transform="translate(-227.58967,-243.8636)"><g data-paper-data="{&quot;isPaintingLayer&quot;:true}" fill-rule="nonzero" stroke-linejoin="miter" stroke-miterlimit="10" stroke-dasharray="" stroke-dashoffset="0" style="mix-blend-mode: normal"><g><path d="M229.65,260.05l1.7,-6l4,-4.4l6,-3.3l6.55,-0.45l4.5,1.95l3.95,2.75l2.3,4.2v10.25l-28.5,1.25z" fill="#ffffff" stroke="#ffffff" stroke-width="2" stroke-linecap="round"/><g><path d="M245.4068,251.1588c2.1466,0 4.091,0.8228 5.4979,2.1536c1.4086,1.3291 2.2797,3.1647 2.2797,5.192c0,2.0274 -0.8711,3.8629 -2.2797,5.1921c-1.4069,1.3308 -3.3513,2.1535 -5.4979,2.1535c-2.1467,0 -4.0911,-0.8227 -5.498,-2.1535c-1.4086,-1.3292 -2.2797,-3.1647 -2.2797,-5.1921c0,-2.0273 0.8711,-3.8629 2.2797,-5.192c1.4069,-1.3308 3.3513,-2.1536 5.498,-2.1536z" fill="#000000" stroke="#663b00" stroke-width="3.45675" stroke-linecap="butt"/><path d="M229.9622,265.7854l-0.2146,-5.5805l1.7171,-6.0098l3.9707,-4.4l6.0097,-3.3268l6.5464,-0.4293l4.5073,1.9317l3.9707,2.7903l2.2537,4.1854l0.2146,8.6926" fill="none" stroke="#000000" stroke-width="4.29268" stroke-linecap="round"/></g></g></g></g></svg>