<svg version="1.1" xmlns="http://www.w3.org/2000/svg" xmlns:xlink="http://www.w3.org/1999/xlink" width="37.42984" height="20.63181" viewBox="0,0,37.42984,20.63181"><g transform="translate(-293.10278,-193.15455)"><g data-paper-data="{&quot;isPaintingLayer&quot;:true}" fill-rule="nonzero" stroke-linejoin="miter" stroke-miterlimit="10" stroke-dasharray="" stroke-dashoffset="0" style="mix-blend-mode: normal"><g><path d="M299.4448,195.0823h17.5424l8.4821,2.3133l2.8916,5.7833l-2.6988,5.0121l-6.9399,3.47l-12.1448,0.1927l-9.3496,-3.0844l-1.4458,-6.3615l0.9639,-4.0483z" fill="#ffffff" stroke="#000000" stroke-width="3.85549" stroke-linecap="round"/><g stroke-linecap="butt"><path d="M311.2844,195.7162c1.9963,-0.0771 4.1514,0.2371 5.7896,1.253c1.1965,0.7421 2.1615,2.051 2.1443,3.4216c-0.0257,1.6924 -0.9006,3.4215 -2.3566,4.5993c-1.456,1.1778 -3.4652,1.9065 -5.6845,1.9065c-2.2194,0 -4.2286,-0.7287 -5.6846,-1.9065c-1.4559,-1.1778 -2.3437,-2.9069 -2.3565,-4.5993c-0.0108,-1.4477 1.2479,-2.826 2.5731,-3.6144c1.6125,-0.9599 3.6689,-1.2047 5.5752,-1.0602z" fill="#663b00" stroke="#663b00" stroke-width="4.07771"/><path d="M311.1201,197.4268c1.2158,0 2.3165,0.444 3.1141,1.1617c0.7976,0.7177 1.2909,1.7092 1.2909,2.8028c0,1.0936 -0.4933,2.085 -1.2909,2.8027c-0.7976,0.7177 -1.8983,1.1617 -3.1141,1.1617c-1.2157,0 -2.3164,-0.444 -3.114,-1.1617c-0.7976,-0.7177 -1.2909,-1.7091 -1.2909,-2.8027c0,-1.0936 0.4933,-2.0851 1.2909,-2.8028c0.7976,-0.7177 1.8983,-1.1617 3.114,-1.1617z" fill="#000000" stroke="#000000" stroke-width="2.34932"/></g><path d="M298.7448,195.0823h17.5424l8.4821,2.3133l2.8916,5.7833l-2.6988,5.0121l-6.9399,3.47l-12.1448,0.1927l-9.3496,-3.0844l-1.4458,-6.3615l0.9639,-4.0483z" fill="none" stroke="#000000" stroke-width="3.85549" stroke-linecap="round"/><path d="M296.0459,198.3595l2.4097,-2.4097z" fill="none" stroke="#000000" stroke-width="3.85549" stroke-linecap="round"/></g></g></g></svg>