<svg version="1.1" xmlns="http://www.w3.org/2000/svg" xmlns:xlink="http://www.w3.org/1999/xlink" width="42.21781" height="22.8578" viewBox="0,0,42.21781,22.8578"><g transform="translate(-295.96577,-137.62365)"><g data-paper-data="{&quot;isPaintingLayer&quot;:true}" fill-rule="nonzero" stroke-linejoin="miter" stroke-miterlimit="10" stroke-dasharray="" stroke-dashoffset="0" style="mix-blend-mode: normal"><g><g fill="#000000" stroke="#000000"><path d="M310.4905,144.6008c2.1601,0 4.1169,0.8067 5.5343,2.1114c1.4174,1.3037 2.2941,3.1043 2.2941,5.0912c0,1.9869 -0.8767,3.7876 -2.2941,5.0912c-1.4174,1.3047 -3.3742,2.1114 -5.5343,2.1114c-2.1601,0 -4.1169,-0.8067 -5.5343,-2.1114c-1.4174,-1.3036 -2.2942,-3.1043 -2.2942,-5.0912c0,-1.9869 0.8768,-3.7875 2.2942,-5.0912c1.4174,-1.3047 3.3742,-2.1114 5.5343,-2.1114z" stroke-width="2.12882" stroke-linecap="butt"/><path d="M298.8964,149.4987l-0.3246,2.4579l-1.5304,0.0464l0.6956,-4.823l0.6956,-1.7159l1.0667,-1.6695l3.0143,-2.6898l5.1013,-2.3187l3.1071,-0.2319l1.5768,0.1392l1.2985,0.2782l2.226,0.371l2.6897,1.0666l2.4115,2.0869l1.6231,1.7622l0.8348,1.9478l8.3475,-0.4638l-7.5128,2.6434l0.7884,4.5448l-2.0869,-0.2319l-1.855,-5.7969l-2.7825,-3.9419l-2.2723,-1.113l-4.081,-0.8347l-3.9883,0.1391l-3.0607,1.0666l-3.1072,1.7623l-2.5506,3.6172z" stroke-width="1.855" stroke-linecap="round"/></g><path d="M310.7823,147.7273c1.0722,0 2.0427,0.4899 2.7461,1.2817c0.7033,0.7919 1.1384,1.8856 1.1384,3.0922c0,1.2065 -0.4351,2.3003 -1.1384,3.0921c-0.7034,0.7918 -1.6739,1.2817 -2.7461,1.2817c-1.0721,0 -2.0426,-0.4899 -2.746,-1.2817c-0.7033,-0.7918 -1.1384,-1.8856 -1.1384,-3.0921c0,-1.2066 0.4351,-2.3003 1.1384,-3.0922c0.7034,-0.7918 1.6739,-1.2817 2.746,-1.2817z" fill="#000000" stroke="#000000" stroke-width="2.34626" stroke-linecap="butt"/><path d="M310.774,146.1344c1.7605,-0.085 3.6608,0.2616 5.1055,1.3824c1.0551,0.8187 1.906,2.2628 1.8909,3.7748c-0.0227,1.8673 -0.7942,3.7749 -2.0781,5.0743c-1.284,1.2994 -3.0557,2.1033 -5.0128,2.1033c-1.9571,0 -3.7289,-0.8039 -5.0128,-2.1033c-1.2839,-1.2994 -2.0667,-3.207 -2.0781,-5.0743c-0.0094,-1.5971 1.1005,-3.1177 2.2691,-3.9875c1.4219,-1.0591 3.2353,-1.3292 4.9163,-1.1697z" fill="#663b00" stroke="#663b00" stroke-width="4.02451" stroke-linecap="butt"/><path d="M310.5323,147.7773c1.0722,0 2.0427,0.4899 2.7461,1.2817c0.7033,0.7919 1.1384,1.8856 1.1384,3.0922c0,1.2065 -0.4351,2.3003 -1.1384,3.0921c-0.7034,0.7918 -1.6739,1.2817 -2.7461,1.2817c-1.0721,0 -2.0426,-0.4899 -2.746,-1.2817c-0.7033,-0.7918 -1.1384,-1.8856 -1.1384,-3.0921c0,-1.2066 0.4351,-2.3003 1.1384,-3.0922c0.7034,-0.7918 1.6739,-1.2817 2.746,-1.2817z" fill="#000000" stroke="#000000" stroke-width="2.34626" stroke-linecap="butt"/></g></g></g></svg>