<svg version="1.1" xmlns="http://www.w3.org/2000/svg" xmlns:xlink="http://www.w3.org/1999/xlink" width="34.21201" height="41.12821" viewBox="0,0,34.21201,41.12821"><g transform="translate(-424.75059,-126.43359)"><g data-paper-data="{&quot;isPaintingLayer&quot;:true}" fill-rule="nonzero" stroke-linejoin="miter" stroke-miterlimit="10" stroke-dasharray="" stroke-dashoffset="0" style="mix-blend-mode: normal"><path d="M441.8566,128.2347c4.2223,0 8.0494,2.1032 10.8192,5.4997c2.7716,3.3966 4.4857,8.0865 4.4857,13.2633c0,5.1768 -1.7141,9.8667 -4.4857,13.2632c-2.7698,3.3966 -6.5969,5.4998 -10.8192,5.4998c-4.2223,0 -8.0495,-2.1032 -10.8192,-5.4998c-2.7716,-3.3965 -4.4857,-8.0864 -4.4857,-13.2632c0,-5.1768 1.7141,-9.8667 4.4857,-13.2633c2.7697,-3.3965 6.5969,-5.4997 10.8192,-5.4997z" fill="#ffffff" stroke="#cccccc" stroke-width="3.60221" stroke-linecap="butt"/><g fill="none" stroke="#000000"><path d="M434.1104,143.6813c1.5717,0 2.9962,0.4786 4.028,1.2527c1.0318,0.7732 1.67,1.8417 1.67,3.0208c0,1.179 -0.6382,2.2476 -1.67,3.0208c-1.0318,0.7741 -2.4563,1.2527 -4.028,1.2527c-1.5718,0 -2.9963,-0.4786 -4.0281,-1.2527c-1.0318,-0.7732 -1.6699,-1.8418 -1.6699,-3.0208c0,-1.1791 0.6381,-2.2476 1.6699,-3.0208c1.0318,-0.7741 2.4563,-1.2527 4.0281,-1.2527z" stroke-width="0.87662" stroke-linecap="butt"/><path d="M449.1104,143.7813c1.5717,0 2.9962,0.4786 4.028,1.2527c1.0318,0.7732 1.67,1.8417 1.67,3.0208c0,1.179 -0.6382,2.2476 -1.67,3.0208c-1.0318,0.7741 -2.4563,1.2527 -4.028,1.2527c-1.5718,0 -2.9963,-0.4786 -4.0281,-1.2527c-1.0318,-0.7732 -1.6699,-1.8418 -1.6699,-3.0208c0,-1.1791 0.6381,-2.2476 1.6699,-3.0208c1.0318,-0.7741 2.4563,-1.2527 4.0281,-1.2527z" stroke-width="0.87662" stroke-linecap="butt"/><path d="M440.0726,148.3069h3.9664z" stroke-width="1.19347" stroke-linecap="round"/></g></g></g></svg>