<svg version="1.1" xmlns="http://www.w3.org/2000/svg" xmlns:xlink="http://www.w3.org/1999/xlink" width="34.21201" height="41.12821" viewBox="0,0,34.21201,41.12821"><g transform="translate(-294.95059,-126.93359)"><g data-paper-data="{&quot;isPaintingLayer&quot;:true}" fill-rule="nonzero" stroke-linejoin="miter" stroke-miterlimit="10" stroke-dasharray="" stroke-dashoffset="0" style="mix-blend-mode: normal"><path d="M312.0566,128.7347c4.2223,0 8.0494,2.1032 10.8192,5.4997c2.7716,3.3966 4.4857,8.0865 4.4857,13.2633c0,5.1768 -1.7141,9.8667 -4.4857,13.2632c-2.7698,3.3966 -6.5969,5.4998 -10.8192,5.4998c-4.2223,0 -8.0495,-2.1032 -10.8192,-5.4998c-2.7716,-3.3965 -4.4857,-8.0864 -4.4857,-13.2632c0,-5.1768 1.7141,-9.8667 4.4857,-13.2633c2.7697,-3.3965 6.5969,-5.4997 10.8192,-5.4997z" fill="#ffffff" stroke="#cccccc" stroke-width="3.60221" stroke-linecap="butt"/><g fill="none" stroke="#000000"><path d="M298.12809,144.3468h11.892v4.8527h-11.892z" stroke-width="0.75504" stroke-linecap="butt"/><path d="M313.4178,144.3703h11.0426v4.7163h-11.0426z" stroke-width="0.75654" stroke-linecap="butt"/><path d="M312.68129,146.3467h-1.9961z" stroke-width="0.75504" stroke-linecap="round"/></g></g></g></svg>