<svg version="1.1" xmlns="http://www.w3.org/2000/svg" xmlns:xlink="http://www.w3.org/1999/xlink" width="46.80255" height="7.81757" viewBox="0,0,46.80255,7.81757"><defs><radialGradient cx="311.1013" cy="206.6401" r="23.2813" gradientUnits="userSpaceOnUse" id="color-1"><stop offset="0" stop-color="#ff090d"/><stop offset="1" stop-color="#960a10"/></radialGradient></defs><g transform="translate(-286.98479,-201.45098)"><g data-paper-data="{&quot;isPaintingLayer&quot;:true}" fill-rule="nonzero" stroke-linecap="round" stroke-linejoin="miter" stroke-miterlimit="10" stroke-dasharray="" stroke-dashoffset="0" style="mix-blend-mode: normal"><g><path d="M288.5727,202.9023l17.021,-0.3229l1.0564,0.4305l1.4674,0.4306l2.6411,0.0538l1.6434,-0.4844l0.9978,-0.6458h18.7818c-0.1761,0.296 -0.6821,1.1054 -1.1739,1.4531c-0.5048,0.3562 -1.2772,0.6173 -1.9369,0.9149c-0.6104,0.2755 -1.1879,0.5742 -1.8781,0.8072c-0.7267,0.2449 -1.5707,0.409 -2.3478,0.6189c-0.7477,0.2024 -1.4638,0.4316 -2.2303,0.6189c-0.702,0.1717 -1.4157,0.3434 -2.1716,0.4574c-1.87,0.2815 -3.7587,0.5619 -5.6932,0.7266c-2.3161,0.1969 -4.6227,0.466 -6.9258,0.3767c-2.9323,-0.1572 -5.7437,-0.6932 -8.5105,-1.1033c-0.8815,-0.1307 -1.7326,-0.3116 -2.5238,-0.5381c-2.1822,-0.7185 -2.9041,-0.9192 -3.9324,-1.2109c-0.6726,-0.1878 -1.4462,-0.3084 -2.0542,-0.5382c-0.641,-0.2427 -1.249,-0.5258 -1.6434,-0.861c-0.3123,-0.2664 -1.1011,-0.8245 -0.4109,-0.888z" fill="url(#color-1)" stroke="#561610" stroke-width="1.82624"/><path d="M331.0185,202.9615l-8.6278,1.7759l-8.5105,0.6996h-8.6865l-6.8671,-0.5381l-8.3931,-1.184" fill="none" stroke="#551510" stroke-width="0.91312"/></g></g></g></svg>