<svg xmlns="http://www.w3.org/2000/svg" xmlns:xlink="http://www.w3.org/1999/xlink" version="1.1" width="135.3020976347969" height="163.00125534964064" viewBox="0.02422436260949168 0.1512854912258247 135.3020976347969 163.00125534964064">
  <defs>
    <radialGradient id="grad_1" cx="0.5356000000000001" cy="0.5268" r="0.69628">
      <stop offset="0" stop-color="#FFE9CC" stop-opacity="1"/>
      <stop offset="1" stop-color="#FFD499" stop-opacity="1"/>
    </radialGradient>
    <linearGradient id="grad_2" y2="1" x2="0">
      <stop offset="0" stop-color="#EBCFBC" stop-opacity="0"/>
      <stop offset="1" stop-color="#EBCFBC" stop-opacity="1"/>
    </linearGradient>
  <radialGradient id="grad_1-,0,0,0.9362252354621887,-175,-70" cx="72.423" cy="85.9684" r="103.8099" gradientUnits="userSpaceOnUse">
      <stop offset="0" stop-color="#FFE9CC" stop-opacity="1"/>
      <stop offset="1" stop-color="#FFD499" stop-opacity="1"/>
    </radialGradient><linearGradient id="grad_2-,0,0,0.9362252354621887,-175,-70" y2="162.1839" x2="0.9929" x1="0.9929" y1="1.1199" gradientUnits="userSpaceOnUse">
      <stop offset="0" stop-color="#EBCFBC" stop-opacity="0"/>
      <stop offset="1" stop-color="#EBCFBC" stop-opacity="1"/>
    </linearGradient></defs>
  <!-- Exported by Scratch - http://scratch.mit.edu/ -->
  <path id="ID0.3985812682658434" fill="url(#grad_1-,0,0,0.9362252354621887,-175,-70)" stroke="url(#grad_2-,0,0,0.9362252354621887,-175,-70)" stroke-width="1.9372752471015733" stroke-linecap="round" d="M 59 1.1531 C 80.719 0.4229 104.456 11.827 118 27.3674 C 132.3 43.7663 135.566 68.5819 134 89.1583 C 132.581 108.2901 121.661 127.1952 108.294 141.4671 C 98.194 152.2533 83.726 162.1839 68 162.1839 C 52.274 162.1839 38.335 151.7796 27.706 141.4671 C 14.846 129.0003 3.416 113.5516 2 96.6481 C -1.071 73.9165 2.775 48.9933 15 29.2399 C 23.889 14.8772 41.499 1.7635 59 1.1531 Z " style="stroke-linejoin: round; stroke-linecap: round;"/>
</svg>