<svg xmlns="http://www.w3.org/2000/svg" xmlns:xlink="http://www.w3.org/1999/xlink" version="1.1" width="136.9242442412422" height="159.83978684378127" viewBox="0.06536921047936473 0.1512854912258247 136.9242442412422 159.83978684378127">
  <defs>
    <radialGradient id="grad_1" cx="0.5472" cy="0.5183" r="0.71136">
      <stop offset="0" stop-color="#FFDBAB" stop-opacity="1"/>
      <stop offset="1" stop-color="#D99029" stop-opacity="1"/>
    </radialGradient>
    <radialGradient id="grad_2" cx="0.905" cy="0.2118" r="1.1765">
      <stop offset="0" stop-color="#D99029" stop-opacity="1"/>
      <stop offset="1" stop-color="#FFDBAB" stop-opacity="1"/>
    </radialGradient>
  <radialGradient id="grad_1-,0,0,0.9362252354621887,-175,-70" cx="74.8989" cy="82.9608" r="105.2548" gradientUnits="userSpaceOnUse">
      <stop offset="0" stop-color="#FFDBAB" stop-opacity="1"/>
      <stop offset="1" stop-color="#D99029" stop-opacity="1"/>
    </radialGradient><radialGradient id="grad_2-,0,0,0.9362252354621887,-175,-70" cx="123.1972" cy="34.5637" r="174.0782" gradientUnits="userSpaceOnUse">
      <stop offset="0" stop-color="#D99029" stop-opacity="1"/>
      <stop offset="1" stop-color="#FFDBAB" stop-opacity="1"/>
    </radialGradient></defs>
  <!-- Exported by Scratch - http://scratch.mit.edu/ -->
  <path id="ID0.3985812682658434" fill="url(#grad_1-,0,0,0.9362252354621887,-175,-70)" stroke="url(#grad_2-,0,0,0.9362252354621887,-175,-70)" stroke-width="1.9372752471015733" stroke-linecap="round" d="M 59 1.1531 C 80.719 0.4229 104.456 11.827 118 27.3674 C 132.3 43.7663 130.642 68.2215 134 89.1583 C 135.989 101.5876 137.211 114.0497 134.25 125.9988 C 132.058 134.848 127.073 144.4723 118.5 148.749 C 104.339 156.2866 87.059 159.3125 70.75 159.0007 C 51.926 158.6356 33.063 155.1116 16.5 147.5319 C 9.252 143.9312 5.247 136.9844 3 130.0245 C 0.217 119.3328 0.881 108.2844 2 96.6481 C 4.281 73.9493 2.86 49.0326 15 29.2399 C 23.829 14.8445 41.499 1.7635 59 1.1531 Z " style="stroke-linejoin: round; stroke-linecap: round;"/>
</svg>