<svg version="1.1" xmlns="http://www.w3.org/2000/svg" xmlns:xlink="http://www.w3.org/1999/xlink" width="136.92426" height="159.83978" viewBox="0,0,136.92426,159.83978"><defs><radialGradient cx="253.8697" cy="168.9609" r="108.0631" gradientUnits="userSpaceOnUse" id="color-1"><stop offset="0" stop-color="#ffffea"/><stop offset="1" stop-color="#ffdbab"/></radialGradient><linearGradient x1="178.034" y1="84.1199" x2="178.034" y2="242.0224" gradientUnits="userSpaceOnUse" id="color-2"><stop offset="0" stop-color="#ebcfbc" stop-opacity="0"/><stop offset="1" stop-color="#ebcfbc"/></linearGradient></defs><g transform="translate(-177.06537,-83.15129)"><g data-paper-data="{&quot;isPaintingLayer&quot;:true}" fill="url(#color-1)" fill-rule="nonzero" stroke="url(#color-2)" stroke-width="1.93728" stroke-linecap="round" stroke-linejoin="round" stroke-miterlimit="10" stroke-dasharray="" stroke-dashoffset="0" style="mix-blend-mode: normal"><path d="M236,84.1531c21.719,-0.7302 45.456,10.6739 59,26.2143c14.3,16.3989 12.642,40.8541 16,61.7909c1.989,12.4293 3.211,24.8914 0.25,36.8405c-2.192,8.8492 -7.177,18.4735 -15.75,22.7502c-14.161,7.5376 -31.441,10.5635 -47.75,10.2517c-18.824,-0.3651 -37.687,-3.8891 -54.25,-11.4688c-7.248,-3.6007 -11.253,-10.5475 -13.5,-17.5074c-2.783,-10.6917 -2.119,-21.7401 -1,-33.3764c2.281,-22.6988 0.86,-47.6155 13,-67.4082c8.829,-14.3954 26.499,-27.4764 44,-28.0868z"/></g></g></svg>