<svg xmlns="http://www.w3.org/2000/svg" xmlns:xlink="http://www.w3.org/1999/xlink" version="1.1" width="38.5" height="10.499999523162842" viewBox="0.9000000953674316 0.6500000953674316 38.5 10.499999523162842">
  <!-- Exported by Scratch - http://scratch.mit.edu/ -->
  <path id="ID0.3714268137700856" fill="none" stroke="#000000" stroke-width="3" stroke-linecap="round" d="M 2.4 9.4 C 2.4 9.4 3.828 7.965 4.65 7.15 C 5.538 6.274 6.571 5.529 7.65 4.9 C 8.585 4.355 9.666 4.101 10.65 3.65 C 11.665 3.185 12.533 2.15 13.65 2.15 C 14.767 2.15 15.692 3.079 16.65 3.65 C 17.58 4.201 18.496 5.28 19.65 5.4 C 20.616 5.504 21.517 4.764 22.4 4.4 C 23.192 3.926 23.767 3.059 24.65 2.9 C 26.003 2.67 27.876 2.944 29.4 3.4 C 30.747 3.81 31.936 4.844 33.15 5.65 C 34.032 6.228 34.705 6.965 35.4 7.65 C 36.291 8.293 37.9 9.65 37.9 9.65 "/>
</svg>