<svg xmlns="http://www.w3.org/2000/svg" xmlns:xlink="http://www.w3.org/1999/xlink" version="1.1" width="28.13908515228322" height="9.186998703613785" viewBox="0.17180747859929602 0.8367074238583903 28.13908515228322 9.186998703613785">
  <!-- Exported by Scratch - http://scratch.mit.edu/ -->
  <path id="ID0.3605181877501309" fill="none" stroke="#000000" stroke-width="2.46138510955861" stroke-linecap="round" d="M 1.4025 2.0674 C 1.4025 2.0674 2.3213 4.6418 2.8612 5.6202 C 3.3143 6.4411 3.7986 7.2118 4.3004 7.5332 C 5.563 8.1345 6.8427 8.5225 8.0928 8.3531 C 9.3753 8.1979 10.6989 7.6611 11.8853 6.4401 C 12.6244 5.6628 13.8302 2.614 13.8302 2.614 "/>
  <path id="ID0.3605181877501309" fill="none" stroke="#000000" stroke-width="2.46138510955861" stroke-linecap="round" d="M 14.6525 2.4674 C 14.6525 2.4674 15.5713 5.0418 16.1112 6.0202 C 16.5643 6.8411 17.0486 7.6118 17.5504 7.9332 C 18.813 8.5345 20.0927 8.9225 21.3428 8.7531 C 22.6253 8.5979 23.9489 8.0611 25.1353 6.8401 C 25.8744 6.0628 27.0802 3.014 27.0802 3.014 "/>
</svg>