<svg xmlns="http://www.w3.org/2000/svg" xmlns:xlink="http://www.w3.org/1999/xlink" version="1.1" width="44.25" height="17.69999885559082" viewBox="1.3499999046325684 0.8499999046325684 44.25 17.69999885559082">
  <!-- Exported by Scratch - http://scratch.mit.edu/ -->
  <g id="ID0.5146120772697031">
    <path id="ID0.5728180012665689" fill="#000000" stroke="#000000" stroke-width="2" d="M 11.75 5.8 L 38.25 5.8 L 38.25 8.05 L 11.75 8.05 L 11.75 5.8 Z "/>
    <g id="ID0.8644797909073532">
      <path id="ID0.07198257185518742" fill="#FFFFFF" stroke="#000000" stroke-width="3" stroke-linecap="round" d="M 6.1 8.8 L 4.5 6.1 L 2.85 2.55 L 11.1 3.3 L 22.6 3.8 L 34 3.7 L 39.35 3.05 L 44.1 2.35 L 43.6 4 L 42.5 6.35 L 40.5 9.6 L 38.25 11.7 L 35.25 14 L 30.5 15.75 L 24.75 17 L 21.25 17 L 17.25 16.25 L 13 14.2 L 9 11.5 L 6.1 8.8 Z "/>
      <path id="ID0.8768860641866922" fill="none" stroke="#000000" stroke-width="3" stroke-linecap="round" d="M 13.85 13.8 L 14.6 5.05 "/>
      <path id="ID0.3391853985376656" fill="none" stroke="#000000" stroke-width="3" stroke-linecap="round" d="M 23.1 17.05 L 23.35 5.05 "/>
      <path id="ID0.6721019088290632" fill="none" stroke="#000000" stroke-width="3" stroke-linecap="round" d="M 32.6 13.8 L 32.6 5.05 "/>
    </g>
  </g>
</svg>