<svg xmlns="http://www.w3.org/2000/svg" xmlns:xlink="http://www.w3.org/1999/xlink" version="1.1" width="43" height="19.549999237060547" viewBox="0.8499999046325684 0.9500000476837158 43 19.549999237060547">
  <!-- Exported by Scratch - http://scratch.mit.edu/ -->
  <g id="ID0.10812246659770608">
    <path id="ID0.3641520459204912" fill="none" stroke="#000000" stroke-width="3" stroke-linecap="round" d="M 2.35 2.75 C 2.35 2.75 3.774 4.525 4.35 5.5 C 4.862 6.366 5.382 7.268 5.6 8.25 C 6.055 10.296 6.581 12.417 6.35 14.5 C 6.23 15.579 5.266 16.393 4.6 17.25 C 4.094 17.901 2.85 19 2.85 19 "/>
    <path id="ID0.3641520459204912" fill="none" stroke="#000000" stroke-width="3" stroke-linecap="round" d="M 42.35 2.45 C 42.35 2.45 40.926 4.225 40.35 5.2 C 39.838 6.066 39.318 6.968 39.1 7.95 C 38.645 9.996 38.119 12.117 38.35 14.2 C 38.47 15.279 39.434 16.093 40.1 16.95 C 40.606 17.601 41.85 18.7 41.85 18.7 "/>
    <path id="ID0.2537380908615887" fill="none" stroke="#000000" stroke-width="3" stroke-linecap="round" d="M 6.1 11 L 37.85 11 "/>
  </g>
</svg>