<svg xmlns="http://www.w3.org/2000/svg" xmlns:xlink="http://www.w3.org/1999/xlink" version="1.1" width="44.25" height="17.65000057220459" viewBox="1.5 0.5499999523162842 44.25 17.65000057220459">
  <!-- Exported by Scratch - http://scratch.mit.edu/ -->
  <path id="ID0.5728180012665689" fill="#000000" stroke="#000000" stroke-width="2" d="M 11.9 5.5 L 38.4 5.5 L 38.4 7.75 L 11.9 7.75 L 11.9 5.5 Z "/>
  <path id="ID0.07198257185518742" fill="#000000" stroke="#000000" stroke-width="3" stroke-linecap="round" d="M 6.25 8.5 L 4.65 5.8 L 3 2.25 L 11.25 3 L 22.75 3.5 L 34.15 3.4 L 39.5 2.75 L 44.25 2.05 L 43.75 3.7 L 42.65 6.05 L 40.65 9.3 L 38.4 11.4 L 35.4 13.7 L 30.65 15.45 L 24.9 16.7 L 21.4 16.7 L 17.4 15.95 L 13.15 13.9 L 9.15 11.2 L 6.25 8.5 Z "/>
  <path id="ID0.14373733708634973" fill="#FFFFFF" stroke="#FFFFFF" stroke-width="2.6662707123996467" stroke-linecap="round" d="M 12.4313 6.2 L 16.5649 6.6031 L 22.1507 7.2079 L 28.4627 7.0927 L 27.569 7.2079 L 35.0541 6.4015 L 35.2216 9.3964 L 31.0881 11.0666 L 26.6753 11.8729 L 22.5976 12.1609 L 17.8496 11.7578 L 12.5989 10.2891 L 12.4313 6.2 Z "/>
</svg>