<svg xmlns="http://www.w3.org/2000/svg" xmlns:xlink="http://www.w3.org/1999/xlink" version="1.1" width="37.25" height="8.029633522033691" viewBox="0.40000009536743164 0.7348978519439697 37.25 8.029633522033691">
  <!-- Exported by Scratch - http://scratch.mit.edu/ -->
  <path id="ID0.08602854050695896" fill="none" stroke="#000000" stroke-width="3" stroke-linecap="round" d="M 1.9 5.85 C 1.9 5.85 4.21 6.621 5.4 6.85 C 6.384 7.039 7.419 7.304 8.4 7.1 C 9.493 6.872 10.438 6.168 11.4 5.6 C 12.275 5.083 13.018 4.354 13.9 3.85 C 14.773 3.351 15.677 2.854 16.65 2.6 C 17.62 2.347 18.686 2.075 19.65 2.35 C 21.691 2.933 23.537 4.084 25.4 5.1 C 26.292 5.587 26.951 6.491 27.9 6.85 C 29.036 7.279 30.278 7.397 31.4 7.1 C 33.101 6.884 36.15 5.35 36.15 5.35 "/>
</svg>