<svg xmlns="http://www.w3.org/2000/svg" xmlns:xlink="http://www.w3.org/1999/xlink" version="1.1" width="31.98040008544922" height="21.06170082092285" viewBox="2.5097999572753906 0.6821999549865723 31.98040008544922 21.06170082092285">
  <!-- Exported by Scratch - http://scratch.mit.edu/ -->
  <path id="ID0.7177718966268003" fill="none" stroke="#000000" stroke-width="2.9999999244717914" stroke-linecap="round" d="M 29.3872 2.1822 C 29.3872 2.1822 29.9789 4.2701 30.3533 5.2853 C 30.714 6.264 31.3178 7.1559 31.5916 8.1626 C 31.8834 9.2343 31.8485 10.373 32.0367 11.4682 C 32.228 12.5838 32.6066 13.6716 32.7307 14.797 C 32.9246 16.5526 32.9902 20.0939 32.9902 20.0939 "/>
  <path id="ID0.7177718966268003" fill="none" stroke="#000000" stroke-width="2.9999999244717914" stroke-linecap="round" d="M 7.6128 2.3322 C 7.6128 2.3322 7.0211 4.4201 6.6467 5.4353 C 6.286 6.414 5.6822 7.3059 5.4084 8.3126 C 5.1166 9.3843 5.1515 10.523 4.9633 11.6182 C 4.772 12.7338 4.3934 13.8216 4.2693 14.947 C 4.0754 16.7026 4.0098 20.2439 4.0098 20.2439 "/>
  <path id="ID0.1697807307355106" fill="none" stroke="#000000" stroke-width="3" stroke-linecap="round" d="M 5.5 10.05 L 31.25 10.3 "/>
</svg>