<svg version="1.1" xmlns="http://www.w3.org/2000/svg" xmlns:xlink="http://www.w3.org/1999/xlink" width="26.0554" height="24.9903" viewBox="0,0,26.0554,24.9903"><g transform="translate(-359.4785,-145.5569)"><g data-paper-data="{&quot;isPaintingLayer&quot;:true}" fill-rule="nonzero" stroke="#000000" stroke-width="0" stroke-linejoin="miter" stroke-miterlimit="10" stroke-dasharray="" stroke-dashoffset="0" style="mix-blend-mode: normal"><path d="M372.5062,162.7761c3.5943,0 6.8512,0.4355 9.2095,1.1389c2.3583,0.7034 3.8182,1.6747 3.8182,2.7467c0,1.0719 -1.4599,2.0433 -3.8182,2.7467c-2.3583,0.7034 -5.6152,1.1388 -9.2095,1.1388c-3.5943,0 -6.8512,-0.4354 -9.2095,-1.1388c-2.3583,-0.7034 -3.8182,-1.6748 -3.8182,-2.7467c0,-1.072 1.4599,-2.0433 3.8182,-2.7467c2.3583,-0.7034 5.6152,-1.1389 9.2095,-1.1389z" fill="#ffffff" stroke-linecap="butt"/><path d="M372.3844,145.5569c2.2373,0 4.2645,0.3725 5.7324,0.9742c1.4679,0.6014 2.3766,1.4322 2.3766,2.3492c0,0.917 -0.9087,1.7479 -2.3766,2.3493c-1.4679,0.6016 -3.4951,0.9741 -5.7324,0.9741c-2.2373,0 -4.2646,-0.3725 -5.7325,-0.9741c-1.4679,-0.6014 -2.3766,-1.4323 -2.3766,-2.3493c0,-0.917 0.9087,-1.7478 2.3766,-2.3492c1.4679,-0.6017 3.4952,-0.9742 5.7325,-0.9742z" fill="#ffffff" stroke-linecap="butt"/><path d="M369.4598,152.2037l5.1845,0.1329l3.7222,-1.0634l2.2599,-2.127l-0.3988,16.7499l-1.9941,0.6646l-5.7162,0.2659l-4.9186,-0.3988l-3.1905,-0.6647l-0.1329,-16.8828l1.7282,2.2599z" fill="#ffffff" stroke-linecap="round"/><path d="M364.6741,166.029l-0.1329,-2.7916l7.4444,0.6646l5.0515,-0.1329l3.3234,-0.5317l-0.2659,2.7916l-3.7222,0.5317l-4.9186,0.133l-3.0575,-0.133z" fill="#cccccc" stroke-linecap="round"/></g></g></svg>