<svg version="1.1" xmlns="http://www.w3.org/2000/svg" xmlns:xlink="http://www.w3.org/1999/xlink" width="34.21201" height="44.63772" viewBox="0,0,34.21201,44.63772"><g transform="translate(-294.9506,-126.93359)"><g data-paper-data="{&quot;isPaintingLayer&quot;:true}" fill-rule="nonzero" stroke-linejoin="miter" stroke-miterlimit="10" stroke-dasharray="" stroke-dashoffset="0" style="mix-blend-mode: normal"><path d="M312.0566,128.7347c4.2223,0 8.0494,2.1032 10.8192,5.4997c2.7716,3.3966 4.4857,8.0865 4.4857,13.2633c0,5.1768 -1.7141,9.8667 -4.4857,13.2632c-2.7698,3.3966 -6.5969,5.4998 -10.8192,5.4998c-4.2223,0 -8.0495,-2.1032 -10.8192,-5.4998c-2.7716,-3.3965 -4.4857,-8.0864 -4.4857,-13.2632c0,-5.1768 1.7141,-9.8667 4.4857,-13.2633c2.7697,-3.3965 6.5969,-5.4997 10.8192,-5.4997z" fill="#ffffff" stroke="#cccccc" stroke-width="3.60221" stroke-linecap="butt"/><g fill="#000000" stroke="#000000" stroke-linecap="round"><g><path d="M314.2183,151.9629l-0.2984,-1.9849h3.0836l3.6805,1.9022l-0.4973,1.4887l-3.3821,-1.3233z" stroke-width="0.73179"/><path d="M307.7048,150.2261l3.2517,-0.3308l0.2097,1.9849l-3.4614,0.1654l-3.3566,1.6541v-1.9022z" stroke-width="0.75563"/></g><path d="M313.4373,170.5477l-5.0537,-7.5182l8.5321,0.3001z" stroke-width="1.02061"/></g></g></g></svg>