<svg version="1.1" xmlns="http://www.w3.org/2000/svg" xmlns:xlink="http://www.w3.org/1999/xlink" width="34.23738" height="45.31674" viewBox="0,0,34.23738,45.31674"><g transform="translate(-424.72523,-126.43359)"><g data-paper-data="{&quot;isPaintingLayer&quot;:true}" fill-rule="nonzero" stroke-linejoin="miter" stroke-miterlimit="10" stroke-dasharray="" stroke-dashoffset="0" style="mix-blend-mode: normal"><path d="M441.8566,128.2347c4.2223,0 8.0494,2.1032 10.8192,5.4997c2.7716,3.3966 4.4857,8.0865 4.4857,13.2633c0,5.1768 -1.7141,9.8667 -4.4857,13.2632c-2.7698,3.3966 -6.5969,5.4998 -10.8192,5.4998c-4.2223,0 -8.0495,-2.1032 -10.8192,-5.4998c-2.7716,-3.3965 -4.4857,-8.0864 -4.4857,-13.2632c0,-5.1768 1.7141,-9.8667 4.4857,-13.2633c2.7697,-3.3965 6.5969,-5.4997 10.8192,-5.4997z" fill="#ffffff" stroke="#cccccc" stroke-width="3.60221" stroke-linecap="butt"/><path d="M427.191,159.654l-1.6011,-11.0189l2.4791,2.6884l5.3712,6.837l5.0098,0.8297l4.5449,0.1991l4.5191,-0.3982l4.6998,-1.4604l5.3196,-8.6956l-2.3241,14.7361l-1.7301,3.7504l-3.5378,-2.4892l-1.2912,5.1775l-3.2538,-3.3189l-2.3241,4.1487l-2.7114,-3.8168l-4.4933,3.3853l-1.8076,-4.5469l-2.8922,2.0909l-1.2912,-3.7504l-2.1175,1.0289z" fill="#000000" stroke="#000000" stroke-width="1.18941" stroke-linecap="round"/></g></g></svg>