<svg xmlns="http://www.w3.org/2000/svg" xmlns:xlink="http://www.w3.org/1999/xlink" version="1.1" width="133.27471161928588" height="46.11722184267455" viewBox="1.2612900681951948 0.30449008421692336 133.27471161928588 46.11722184267455">
  <!-- Exported by Scratch - http://scratch.mit.edu/ -->
  <path id="ID0.8031766437925398" fill="#99B2FF" stroke="#CCD8FF" stroke-width="2.78582001772338" d="M 32.4668 2.4995 C 40.6916 2.4995 48.1448 4.8821 53.5417 8.7315 C 58.9386 12.5809 62.2793 17.8971 62.2793 23.7642 C 62.2793 29.6312 58.9386 34.9474 53.5417 38.7968 C 48.1448 42.6462 40.6916 45.0288 32.4668 45.0288 C 24.2419 45.0288 16.7888 42.6462 11.3918 38.7968 C 5.9949 34.9474 2.6542 29.6312 2.6542 23.7642 C 2.6542 17.8971 5.9949 12.5809 11.3918 8.7315 C 16.7888 4.8821 24.2419 2.4995 32.4668 2.4995 Z "/>
  <path id="ID0.8031766437925398" fill="#99B2FF" stroke="#CCD8FF" stroke-width="2.7232876045254653" d="M 103.9997 1.6974 C 112.04 1.6974 119.3258 4.0266 124.6016 7.7896 C 129.8774 11.5526 133.1431 16.7494 133.1431 22.4848 C 133.1431 28.2202 129.8774 33.417 124.6016 37.18 C 119.3258 40.943 112.04 43.2721 103.9997 43.2721 C 95.9595 43.2721 88.6736 40.943 83.3979 37.18 C 78.1221 33.417 74.8564 28.2202 74.8564 22.4848 C 74.8564 16.7494 78.1221 11.5526 83.3979 7.7896 C 88.6736 4.0266 95.9595 1.6974 103.9997 1.6974 Z "/>
</svg>