<svg xmlns="http://www.w3.org/2000/svg" xmlns:xlink="http://www.w3.org/1999/xlink" version="1.1" width="124.39497121391504" height="35.800465903856455" viewBox="0.9858655521382406 0.6580653974522664 124.39497121391504 35.800465903856455">
  <defs>
    <radialGradient id="grad_1" cx="0.5390999999999999" cy="0.5222" r="0.70083">
      <stop offset="0" stop-color="#FFCCF2" stop-opacity="1"/>
      <stop offset="1" stop-color="#FF99E5" stop-opacity="1"/>
    </radialGradient>
    <radialGradient id="grad_2" cx="0.5405" cy="0.49329999999999996" r="0.70265">
      <stop offset="0" stop-color="#FFCCF2" stop-opacity="1"/>
      <stop offset="1" stop-color="#FF99E5" stop-opacity="1"/>
    </radialGradient>
  <radialGradient id="grad_1-.9333333373069763,0,0,0.7888888716697693,-78.95,-128.25" cx="109.4606" cy="19.2364" r="23.7427" gradientUnits="userSpaceOnUse">
      <stop offset="0" stop-color="#FFCCF2" stop-opacity="1"/>
      <stop offset="1" stop-color="#FF99E5" stop-opacity="1"/>
    </radialGradient><radialGradient id="grad_2-.9333333373069763,0,0,0.7888888716697693,-168.95,-128.1" cx="19.5063" cy="18.4061" r="23.8044" gradientUnits="userSpaceOnUse">
      <stop offset="0" stop-color="#FFCCF2" stop-opacity="1"/>
      <stop offset="1" stop-color="#FF99E5" stop-opacity="1"/>
    </radialGradient></defs>
  <!-- Exported by Scratch - http://scratch.mit.edu/ -->
  <path id="ID0.8031766437925398" fill="url(#grad_1-.9333333373069763,0,0,0.7888888716697693,-78.95,-128.25)" stroke="#FFCBF1" stroke-width="1.7282689434072347" d="M 108.1833 1.5222 C 112.6895 1.5222 116.7728 3.4227 119.7296 6.493 C 122.6864 9.5634 124.5167 13.8036 124.5167 18.4833 C 124.5167 23.163 122.6864 27.4033 119.7296 30.4737 C 116.7728 33.544 112.6895 35.4444 108.1833 35.4444 C 103.6772 35.4444 99.5939 33.544 96.6371 30.4737 C 93.6803 27.4033 91.85 23.163 91.85 18.4833 C 91.85 13.8036 93.6803 9.5634 96.6371 6.493 C 99.5939 3.4227 103.6772 1.5222 108.1833 1.5222 Z "/>
  <path id="ID0.8031766437925398" fill="url(#grad_2-.9333333373069763,0,0,0.7888888716697693,-168.95,-128.1)" stroke="#FFCBF1" stroke-width="1.7282689434072347" d="M 18.1833 1.6722 C 22.6895 1.6722 26.7728 3.5727 29.7296 6.643 C 32.6864 9.7134 34.5167 13.9536 34.5167 18.6333 C 34.5167 23.313 32.6864 27.5533 29.7296 30.6237 C 26.7728 33.694 22.6895 35.5944 18.1833 35.5944 C 13.6772 35.5944 9.5939 33.694 6.6371 30.6237 C 3.6803 27.5533 1.85 23.313 1.85 18.6333 C 1.85 13.9536 3.6803 9.7134 6.6371 6.643 C 9.5939 3.5727 13.6772 1.6722 18.1833 1.6722 Z "/>
</svg>