<svg version="1.1" xmlns="http://www.w3.org/2000/svg" xmlns:xlink="http://www.w3.org/1999/xlink" width="22.74965" height="32" viewBox="0,0,22.74965,32"><g transform="translate(-428.25035,-186.75)"><g data-paper-data="{&quot;isPaintingLayer&quot;:true}" fill="none" fill-rule="nonzero" stroke="#000000" stroke-width="5" stroke-linecap="round" stroke-linejoin="miter" stroke-miterlimit="10" stroke-dasharray="" stroke-dashoffset="0" style="mix-blend-mode: normal"><path d="M444.75,189.25c0,0 1.51,1.553 2,2.5c0.774,1.497 1.354,3.112 1.75,4.75c0.404,1.668 0.752,3.442 0.75,5.25c0.002,1.889 -0.411,3.802 -0.75,5.75c-0.209,1.356 -0.177,2.837 -1,4c-1.021,1.444 -2.435,2.674 -4,3.5c-1.518,0.801 -3.289,1.382 -5,1.25c-1.711,-0.132 -3.492,-0.832 -4.75,-2c-1.228,-1.14 -1.745,-2.902 -2.25,-4.5c-0.507,-1.605 -0.778,-3.317 -0.75,-5c0.056,-3.346 0.291,-6.729 1,-10c0.387,-1.784 2.25,-5 2.25,-5"/></g></g></svg>