<svg version="1.1" xmlns="http://www.w3.org/2000/svg" xmlns:xlink="http://www.w3.org/1999/xlink" width="15.66705" height="34.2869" viewBox="0,0,15.66705,34.2869"><g transform="translate(-432.60902,-237.90647)"><g data-paper-data="{&quot;isPaintingLayer&quot;:true}" fill="none" fill-rule="nonzero" stroke="#000000" stroke-linejoin="miter" stroke-miterlimit="10" stroke-dasharray="" stroke-dashoffset="0" style="mix-blend-mode: normal"><path d="M434.8449,250.8333c0,0 1.4125,0.0776 2.0991,0.2085c1.0356,0.2 1.9779,0.3017 2.7989,0.6252c0.9096,0.3093 1.6326,0.8862 2.3323,1.2505c0.5402,0.2792 1.2184,0.4143 1.6327,0.8336c0.7948,0.8086 1.349,1.854 1.8659,2.9177c0.4198,0.6803 0.8014,1.4423 0.9329,2.2926c0.1707,1.0995 0.167,2.1858 0,3.3345c-0.1549,1.0638 -0.4422,2.0158 -0.9329,3.1262c-0.2463,0.5552 -0.7343,1.0029 -1.1662,1.4589c-0.4254,0.4493 -0.877,0.8911 -1.3994,1.2504c-0.4964,0.341 -1.0589,0.6094 -1.6327,0.8337c-0.6754,0.2642 -1.3891,0.4493 -2.0991,0.6252c-0.6904,0.1709 -1.3957,0.2968 -2.0991,0.4168c-0.9283,0.1584 -2.7989,0.4169 -2.7989,0.4169" stroke-width="3.53875" stroke-linecap="round"/><path d="M438.3273,239.5779h0.6997v9.4324h-0.6997z" stroke-width="3.34286" stroke-linecap="butt"/></g></g></svg>