<svg version="1.1" xmlns="http://www.w3.org/2000/svg" xmlns:xlink="http://www.w3.org/1999/xlink" width="28.32932" height="32.67368" viewBox="0,0,28.32932,32.67368"><g transform="translate(-231.5,-238.8)"><g data-paper-data="{&quot;isPaintingLayer&quot;:true}" fill="none" fill-rule="nonzero" stroke="#000000" stroke-width="5" stroke-linecap="round" stroke-linejoin="miter" stroke-miterlimit="10" stroke-dasharray="" stroke-dashoffset="0" style="mix-blend-mode: normal"><path d="M252.25,242.05c0,0 0.065,3.337 0,5c-0.147,3.751 -1.507,7.678 -0.25,11.25c0.303,1.316 2.624,-0.017 4,0.5c1.577,0.595 3.802,1.125 4.25,2.75c0.446,1.615 -1.108,3.274 -2.25,4.5c-1.197,1.285 -2.895,2.042 -4.5,2.75c-1.836,0.801 -4.094,1.514 -6.25,1.5c-2.433,0.006 -4.611,-0.709 -6.75,-1.25c-2.288,-0.629 -4.806,-0.969 -6.5,-2.25c-1.367,-1.034 -2.601,-2.789 -2.5,-4.5c0.098,-1.662 1.628,-3.057 3,-4c1.432,-0.985 3.94,-0.122 5,-1.5c1.015,-1.32 -0.054,-3.336 0,-5c0.113,-3.499 0.5,-10.5 0.5,-10.5"/></g></g></svg>