<svg version="1.1" xmlns="http://www.w3.org/2000/svg" xmlns:xlink="http://www.w3.org/1999/xlink" width="55.96155" height="48.52884" viewBox="0,0,55.96155,48.52884"><g transform="translate(-412.19422,-177.06918)"><g data-paper-data="{&quot;isPaintingLayer&quot;:true}" fill="#000000" fill-rule="nonzero" stroke="#666666" stroke-linecap="round" stroke-linejoin="miter" stroke-miterlimit="10" stroke-dasharray="" stroke-dashoffset="0" style="mix-blend-mode: normal"><g><path d="M437.0942,177.7688l1.9492,0.994l3.3669,-1.1597l3.7214,0.8284l4.6073,3.1479l5.139,5.7988l2.1265,5.9645l0.7088,7.1243l-0.886,6.1302l-2.3037,5.7988l-3.1897,3.9764l0.886,-4.3077l-3.3669,4.639l1.2404,-6.7929l0.8861,-8.1183l-0.1772,-5.1361l-0.8861,3.9763l-3.5441,-6.7929l-0.1772,6.4615l-4.0757,-6.4615l0.3544,9.1124l-3.3669,-2.9822l-1.9493,-2.1539l-1.7721,-3.6449l2.6581,7.6213l-3.3669,-2.4852l-2.1265,-1.9882l-1.772,-2.8166l2.4809,6.4616l-2.4809,-1.8225l-1.7721,-1.6568l-1.9492,-1.8225l0.3544,5.1361l0.7088,6.4615l1.5948,8.1184l0.3545,1.8225l-4.0758,-5.6332l2.1265,5.4675l-3.1897,-3.4793l-2.4809,-4.8047l-1.2404,-4.8048l-0.5317,-3.645l-0.1772,-4.3077l0.7089,-4.4733l2.1264,-4.4734l2.8353,-3.9764l3.0125,-2.4852l2.3037,-1.4911l2.4809,-1.1598z" stroke-width="1.02924"/><path d="M455.4851,186.8518l-4.1104,-4.2436l2.0552,-1.469l3.9236,-0.6528l2.9894,0.6528l2.6157,1.7954l2.0552,3.1011l1.6816,3.9172l0.9341,4.4069v4.7333l-0.1868,4.2437l-1.8684,5.2229l-1.8683,4.7333l-1.6816,4.4069l-0.5605,4.2436l-0.9342,-5.8758l-1.3078,3.1011v-5.5494l0.1868,-4.57l-0.1868,-5.3862v-5.5494l-0.3737,-4.4069l-1.4947,-3.9172z" stroke-width="1.05255"/><path d="M422.9965,189.3897l-1.4947,3.9172l-0.3737,4.4069v5.5494l-0.1868,5.3862l0.1868,4.57v5.5494l-1.3078,-3.1011l-0.9342,5.8758l-0.5605,-4.2436l-1.6816,-4.4069l-1.8683,-4.7333l-1.8684,-5.2229l-0.1868,-4.2437v-4.7333l0.9341,-4.4069l1.6816,-3.9172l2.0552,-3.1011l2.6157,-1.7954l2.9894,-0.6528l3.9236,0.6528l2.0552,1.469l-4.1104,4.2436z" stroke-width="1.05255"/></g></g></g></svg>