<svg version="1.1" xmlns="http://www.w3.org/2000/svg" xmlns:xlink="http://www.w3.org/1999/xlink" width="39.00084" height="44.78057" viewBox="0,0,39.00084,44.78057"><g transform="translate(-354.97761,-178.33427)"><g data-paper-data="{&quot;isPaintingLayer&quot;:true}" fill="#000000" fill-rule="nonzero" stroke="#000000" stroke-width="0.48148" stroke-linecap="round" stroke-linejoin="miter" stroke-miterlimit="10" stroke-dasharray="" stroke-dashoffset="0" style="mix-blend-mode: normal"><path d="M380.0028,201.2435l-3.9963,-11.4954l0.4935,12.001l-6.2472,-0.2528l-1.5047,-11.2426l-2.3351,10.5926l-4.4537,-1.2037l0.3009,-7.2824l-0.963,7.3426l-1.1435,0.1805l0.0602,-5.537l-1.5046,9.5093l0.9629,4.9351l2.7685,5.0556l4.5741,5.4167l2.1667,3.1296l-4.9352,-0.4815l-0.2407,-4.5741l-1.5047,4.3334l-3.3703,-0.2408l-0.3612,-13.1805l-0.9027,13.3611l-1.4445,0.0602l-1.0833,-12.7593l-0.1204,-3.0092l0.3611,-11.5556l2.5278,-5.7778l3.7315,-4.6944l4.5741,-3.3704l3.6111,-1.9259l7.824,0.3611l6.0186,3.0092l3.3703,3.7315l3.6112,6.1389l2.0462,10.2315l0.6019,4.5741l0.2407,4.4537l-0.6018,5.537l-0.6019,6.2593h-1.8055l-1.8658,-16.4306l0.9028,16.3102l-3.9722,-0.1204l-1.2037,-6.3194l-0.4815,6.1991l-4.3333,-0.3611l1.8055,-2.7686l3.4908,-3.8518l2.5277,-5.6574l1.8056,-6.2593l-1.8056,-11.0139l0.1806,6.5l-1.7454,0.4213l-2.1666,-9.2685l-0.1204,10.4963z"/></g></g></svg>