<svg version="1.1" xmlns="http://www.w3.org/2000/svg" xmlns:xlink="http://www.w3.org/1999/xlink" width="33.51609" height="21.74108" viewBox="0,0,33.51609,21.74108"><g transform="translate(-223.2406,-169.26326)"><g data-paper-data="{&quot;isPaintingLayer&quot;:true}" fill="#000000" fill-rule="nonzero" stroke="#000000" stroke-width="0.47629" stroke-linecap="round" stroke-linejoin="miter" stroke-miterlimit="10" stroke-dasharray="" stroke-dashoffset="0" style="mix-blend-mode: normal"><path d="M226.43235,187.062l-0.834,3.2719l-1.4754,-2.8902l-0.6415,-4.4717l0.6415,-4.0354l1.6037,-2.9447l2.566,-3.1629l2.2453,-1.1452l3.5923,-1.4178l4.7471,-0.7635l3.7848,0.2182l4.0415,0.7089l4.4905,1.6905l2.7584,2.8902l1.6037,2.9993l0.9623,4.6352v4.3081l-0.8981,2.7812l-1.0264,0.7634l-0.5132,-0.3272l-1.0906,-6.1621l-1.6678,1.6905l-2.2453,-5.7259l-2.7584,4.4171l-3.4641,-5.1261l-2.6943,5.2897l-2.9509,-5.0715l-2.7584,4.7443l-2.4377,-3.272l-2.3735,4.6898l-2.5019,-2.563l-0.6415,4.0899z"/></g></g></svg>