<svg xmlns="http://www.w3.org/2000/svg" xmlns:xlink="http://www.w3.org/1999/xlink" version="1.1" width="120.91852529355745" height="23.5266013891385" viewBox="0.7089616879380745 0.16076179589400708 120.91852529355745 23.5266013891385">
  <!-- Exported by Scratch - http://scratch.mit.edu/ -->
  <path id="ID0.03734103264287114" fill="none" stroke="#CCCCCC" stroke-width="4.582076624123851" stroke-linecap="round" d="M 3 4.0262 C 3 4.0262 3.67 5.9503 4 6.9116 C 4.292 7.7656 4.199 8.8035 4.75 9.5908 C 6.606 11.919 8.813 14.0789 11.1 16.1036 C 12.608 17.4383 14.387 18.5974 16.25 19.5661 C 17.718 20.3303 19.364 20.9981 21 21.3385 C 24.322 21.416 25.171 21.4152 26.5 21.3385 C 28.176 21.2371 29.798 21.2124 31.25 20.8027 C 33.008 20.3765 34.584 19.7318 36 18.8653 C 39.105 16.9453 42.152 15.224 44.6 12.8884 C 46.303 11.1993 47.404 9.2726 48.5 7.3238 C 48.889 6.4194 48.816 5.3749 49 4.4384 C 49.082 4.0336 49 3.2018 49 3.2018 "/>
  <path id="ID0.03734103264287114" fill="none" stroke="#CCCCCC" stroke-width="4.582076624123851" stroke-linecap="round" d="M 73.3 3.2762 C 73.3 3.2762 73.97 5.2003 74.3 6.1616 C 74.592 7.0156 74.499 8.0535 75.05 8.8408 C 76.906 11.169 79.113 13.3289 81.4 15.3536 C 82.908 16.6883 84.687 17.8474 86.55 18.8161 C 88.018 19.5803 89.664 20.2481 91.3 20.5885 C 94.622 20.666 95.471 20.6652 96.8 20.5885 C 98.476 20.4871 100.098 20.4624 101.55 20.0527 C 103.308 19.6265 104.884 18.9818 106.3 18.1153 C 109.405 16.1953 112.452 14.474 114.9 12.1384 C 116.603 10.4493 117.704 8.5226 118.8 6.5738 C 119.189 5.6694 119.116 4.6249 119.3 3.6884 C 119.382 3.2836 119.3 2.4518 119.3 2.4518 "/>
</svg>