<svg version="1.1" xmlns="http://www.w3.org/2000/svg" xmlns:xlink="http://www.w3.org/1999/xlink" width="25.55498" height="20.58924" viewBox="0,0,25.55498,20.58924"><g transform="translate(-427.25034,-245.69648)"><g data-paper-data="{&quot;isPaintingLayer&quot;:true}" fill-rule="nonzero" stroke-linejoin="miter" stroke-miterlimit="10" stroke-dasharray="" stroke-dashoffset="0" style="mix-blend-mode: normal"><g><path d="M437.7959,248.7672c2.2785,0 4.3426,0.8689 5.8382,2.2744c1.4956,1.4035 2.4206,3.3436 2.4206,5.4838c0,2.1403 -0.925,4.0804 -2.4206,5.4838c-1.4956,1.4055 -3.5597,2.2744 -5.8382,2.2744c-2.2784,0 -4.3426,-0.8689 -5.8381,-2.2744c-1.4956,-1.4034 -2.4206,-3.3435 -2.4206,-5.4838c0,-2.1402 0.925,-4.0803 2.4206,-5.4838c1.4955,-1.4055 3.5597,-2.2744 5.8381,-2.2744z" fill="#000000" stroke="#000000" stroke-width="4.00424" stroke-linecap="butt"/><path d="M442.8508,253.6729c1.8359,-1.2573 5.0573,-4.3986 7.9524,-5.9743c0.7268,-0.3964 1.0731,0.893 0.8569,1.2694c-0.5386,1.0351 -1.858,1.2032 -2.6028,2.0021c-1.4595,1.5676 -3.3755,4.747 -4.2044,4.705c-0.6427,0.1601 1.4695,-3.7981 0.8569,-4.4367c-0.4885,-0.5106 -3.4677,2.875 -2.859,2.4345z" fill="none" stroke="#000000" stroke-width="4.00424" stroke-linecap="round"/><path d="M437.7013,248.1659c2.36,0 4.4976,0.9045 6.0444,2.3676c1.5486,1.4613 2.5063,3.4792 2.5063,5.7081c0,2.2289 -0.9577,4.2469 -2.5063,5.7081c-1.5468,1.4631 -3.6844,2.3676 -6.0444,2.3676c-2.36,0 -4.4977,-0.9045 -6.0444,-2.3676c-1.5487,-1.4612 -2.5064,-3.4792 -2.5064,-5.7081c0,-2.2289 0.9577,-4.2468 2.5064,-5.7081c1.5467,-1.4631 3.6844,-2.3676 6.0444,-2.3676z" fill="#000000" stroke="#663b00" stroke-width="3.80032" stroke-linecap="butt"/></g></g></g></svg>