<svg version="1.1" xmlns="http://www.w3.org/2000/svg" xmlns:xlink="http://www.w3.org/1999/xlink" width="57.67177" height="22.33126" viewBox="0,0,57.67177,22.33126"><g transform="translate(-410.92376,-246.86669)"><g data-paper-data="{&quot;isPaintingLayer&quot;:true}" fill-rule="nonzero" stroke="none" stroke-linecap="butt" stroke-linejoin="miter" stroke-miterlimit="10" stroke-dasharray="" stroke-dashoffset="0" style="mix-blend-mode: normal"><path d="M464.45896,249.81267c0.71499,0.73717 1.39188,1.55871 2.10155,2.40405c0.73593,0.87661 1.01495,2.00143 1.83091,2.80197c0,0 0.45925,0.45925 0,0.91849c-0.45925,0.45925 -0.91849,0 -0.91849,0c-0.94142,-0.95548 -1.68888,-2.07262 -2.43764,-3.15892c0.16265,2.99604 -0.80052,5.89868 -1.18116,8.94381c-0.80875,2.15667 -1.24599,4.03018 -2.34765,6.05894c0.38837,0.02746 0.772,0.04004 1.14876,0.03682c0.21649,0 0.43298,0 0.64947,0h0.24355c0,0 0.64947,0 0.64947,0.64947c0,0.64947 -0.64947,0.64947 -0.64947,0.64947c-0.21649,0 -0.67653,0 -0.89302,0c-3.89413,-0.026 -8.30431,-1.44335 -11.55307,-3.66599c-0.13865,-0.04436 -0.24065,-0.13854 -0.30603,-0.21749c-0.07295,-0.06338 -0.23667,-0.23035 -0.25118,-0.46304l-0.02589,-0.05289c-1.05148,-2.80394 -0.86365,-5.25961 -0.84832,-8.1822c0.42467,-1.73698 0.86101,-3.54408 1.61958,-5.13674c0.00049,-0.00835 0.00131,-0.01906 0.00264,-0.03171c0.14918,-0.22194 0.27671,-0.45647 0.37789,-0.69833c0.83918,-1.47012 2.02582,-2.69761 3.84166,-3.42433c1.13496,-0.45423 2.33743,-0.37248 3.52985,-0.37031c2.034,0.25404 3.51006,1.14375 4.80872,2.34387c0.00872,0.0004 0.01731,0.00099 0.0258,0.00178c0.16395,0.18429 0.34889,0.35134 0.54888,0.49969c0.01124,0.03122 0.02232,0.06241 0.03322,0.09359zM455.29312,261.99401c5.11645,2.93868 6.2962,-4.67601 6.71392,-8.01774c-0.00294,-1.42367 0.09447,-2.88415 -0.04911,-4.30054l-0.27249,-0.45144c0,0 -0.02995,-0.05242 -0.05561,-0.13443c-0.74715,-0.46075 -1.61558,-0.78799 -2.66819,-0.91971c-0.9915,0.00204 -2.02075,-0.09821 -2.96484,0.27916c-1.66259,0.66457 -2.69523,1.82662 -3.40882,3.20618c-0.0135,3.29293 -0.26316,8.2284 2.70515,10.3385zM456.76968,263.83859c-0.84,-0.05552 -1.45812,-0.34152 -2.17717,-0.75079c-2.44248,-1.75114 -3.08444,-4.86986 -3.24944,-7.90186c-0.132,0.50623 -0.25607,1.01214 -0.38311,1.50792c0.0161,2.72194 -0.20497,4.95322 0.77535,7.5674l0.03921,0.0761c2.32673,1.61511 5.41212,2.83788 8.37066,3.29032l0.07896,-0.21327c0.41253,-0.7199 0.72866,-1.4126 1.00076,-2.10261c-1.04631,0.14646 -1.96318,-0.85997 -2.06545,-1.85058c-0.67235,0.2969 -1.46125,0.43871 -2.38976,0.37734zM463.30346,254.05699c-0.27914,2.23316 -0.64889,5.17455 -1.86547,7.2494c0.37763,0.08211 0.72322,0.29294 0.96365,0.62898c0.06142,-0.17261 0.12496,-0.34718 0.19127,-0.52402c0.45344,-3.62754 1.93543,-7.19401 0.7479,-10.86224c-0.01242,-0.01373 -0.02487,-0.02743 -0.03736,-0.04109c0.05888,1.17939 0.00214,2.37427 0,3.54898zM461.45821,262.7462c-0.15399,-0.65475 -1.32843,0.20593 -1.11126,0.80168c0.37142,1.0189 0.92699,0.09358 1.02874,-0.35266l-0.01939,-0.08603c0,0 0,-0.18893 0.1019,-0.36299z" fill="#000000" stroke-width="0.5"/><path d="M463.01534,251.92236c0.88485,4.19729 -0.5974,8.36192 -3.55165,11.07433c-0.27754,0.06099 -0.55839,0.11103 -0.84096,0.14904c-0.11233,-0.02815 -0.18924,-0.03366 -0.18924,-0.03366l-1.06531,-0.07383c-0.93255,-0.18798 -1.8058,-0.31182 -2.69201,-0.57036c0.13475,-0.48019 -0.14968,-0.93528 -0.14968,-0.93528l-0.56605,-0.85076c-0.42013,-0.41914 -0.8224,-0.82321 -1.1957,-1.22925c-0.56009,-2.51397 -1.0062,-4.9252 -1.06313,-7.54991c0.30569,-0.57025 0.59901,-1.14023 0.86345,-1.71249c0,0 0.12698,-0.27514 0.10775,-0.60685c0.45306,-0.32287 0.92032,-0.63328 1.40436,-0.93105c0,0 0.36259,-0.22314 0.50737,-0.61819c0.3036,-0.07642 0.61081,-0.14688 0.92114,-0.21264c0,0 0.35728,-0.07656 0.62328,-0.34544c0.56393,-0.04033 1.14095,-0.07681 1.73625,-0.11933c0,0 0.39277,-0.02805 0.69942,-0.28232c0.95052,0.34953 1.86672,0.75874 2.7213,1.15481c0,0 0.11236,0.05186 0.28005,0.08427c0.66741,1.09286 1.16476,2.30733 1.44936,3.60891z" fill="#000000" stroke-width="1.6814"/><path d="M462.57406,248.73971c0.12715,0 0.24942,-0.02087 0.36357,-0.05939c0.07348,0.14649 0.1777,0.27491 0.3042,0.37678l0.79934,0.65401c0.15957,0.28238 0.32171,0.56328 0.48754,0.84203l0.64855,0.47748c0.05105,0.19732 0.09433,0.40029 0.12944,0.60882c0.23731,0.54855 0.47158,1.09491 0.58487,1.68967c0.26399,1.386 0.01172,2.73085 -0.15634,4.09662c-0.39212,3.09416 -1.57466,6.3886 -2.72087,9.25414c-0.31861,0.79653 -0.62502,1.90294 -1.44303,2.38956c-0.0561,-0.00725 -0.11222,-0.01437 -0.16836,-0.02135c-0.03829,-0.01663 -0.07767,-0.03123 -0.11801,-0.04364l-1.19289,-0.39762l-0.07407,0.2222l-0.0042,-0.00053c-0.14601,-0.07727 -0.29468,-0.14714 -0.44621,-0.20785l0.01532,0.00465c0.12682,-0.22198 0.25209,-0.4379 0.37405,-0.65005c0.37471,-0.09473 0.62518,-0.3765 0.62518,-0.3765l0.8007,-0.9469c0.81236,-1.53933 0.85523,-3.03685 1.38039,-4.65651c1.13865,-3.51177 2.31898,-8.22761 0.70977,-11.72178l-0.00589,-0.07253c0,0 0,-0.0336 0.00764,-0.08552c-0.02956,-0.05322 -0.06003,-0.10566 -0.09139,-0.15731c0.02756,0.09811 0.05433,0.1965 0.08029,0.29518c-0.24941,-0.53723 -0.56506,-1.04539 -0.9573,-1.51563c0.02241,0.00132 0.045,0.00198 0.06773,0.00198z" fill="#ffffff" stroke-width="0.5"/><path d="M460.97452,262.20383c0.12657,-0.01261 0.27356,0.01832 0.43455,0.13332c0.5285,0.3775 0.151,0.90599 0.151,0.90599l-0.40089,0.56124c-0.11731,0.16864 -0.31252,0.27902 -0.53353,0.27902c-0.35869,0 -0.64947,-0.29077 -0.64947,-0.64947c0,-0.12137 0.03329,-0.23495 0.09123,-0.33213l0.31908,-0.55838c0,0 0.21015,-0.36776 0.58802,-0.33958z" fill="#ffffff" stroke-width="0.5"/><path d="M454.35593,252.92703c-0.51275,-0.53781 -0.75236,-1.30128 -0.50149,-2.0034c0.09199,-0.29846 0.27456,-0.57754 0.56917,-0.81137c0.03934,-0.0345 0.08058,-0.06841 0.12375,-0.1017c2.18208,-1.68234 3.74426,2.20444 2.28748,3.43679c-0.81365,0.68831 -1.84709,0.26525 -2.47892,-0.52031z" fill="#ffffff" stroke-width="0.5"/><path d="M417.01294,248.81891c-0.39224,0.47024 -0.7079,0.9784 -0.9573,1.51563c0.02597,-0.09868 0.05273,-0.19707 0.0803,-0.29518c-0.03135,0.05165 -0.06182,0.1041 -0.09138,0.15731c0.00764,0.05192 0.00764,0.08552 0.00764,0.08552l-0.00589,0.07253c-1.60921,3.49417 -0.42888,8.21001 0.70977,11.72178c0.52515,1.61966 0.56802,3.11717 1.38039,4.65651l0.8007,0.9469c0,0 0.25046,0.28177 0.62517,0.3765c0.12196,0.21216 0.24723,0.42808 0.37405,0.65005l0.01531,-0.00465c-0.15154,0.06071 -0.3002,0.13058 -0.44621,0.20785l-0.0042,0.00053l-0.07407,-0.2222l-1.19289,0.39762c-0.04034,0.0124 -0.07972,0.027 -0.11801,0.04364c-0.05614,0.00698 -0.11225,0.01409 -0.16836,0.02135c-0.81801,-0.48663 -1.12442,-1.59304 -1.44303,-2.38956c-1.14621,-2.86554 -2.32875,-6.15998 -2.72087,-9.25414c-0.16806,-1.36577 -0.42033,-2.71062 -0.15634,-4.09662c0.11329,-0.59476 0.34755,-1.14112 0.58487,-1.68967c0.03511,-0.20853 0.07839,-0.41149 0.12944,-0.60882l0.64855,-0.47748c0.16582,-0.27875 0.32796,-0.55965 0.48754,-0.84203l0.79934,-0.65401c0.12649,-0.10187 0.23072,-0.23029 0.3042,-0.37678c0.11415,0.03851 0.23642,0.05939 0.36357,0.05939c0.02274,0 0.04532,-0.00066 0.06773,-0.00198z" data-paper-data="{&quot;index&quot;:null}" fill="#ffffff" stroke-width="0.5"/><path d="M415.09353,249.80026c0.19999,-0.14835 0.38493,-0.3154 0.54888,-0.49969c0.00848,-0.00078 0.01708,-0.00138 0.0258,-0.00178c1.29866,-1.20013 2.77472,-2.08983 4.80872,-2.34387c1.19242,-0.00217 2.39488,-0.08392 3.52985,0.37031c1.81583,0.72672 3.00247,1.95421 3.84166,3.42433c0.10117,0.24186 0.2287,0.47639 0.37788,0.69833c0.00133,0.01266 0.00214,0.02336 0.00264,0.03171c0.75857,1.59266 1.1949,3.39976 1.61958,5.13674c0.01533,2.92259 0.20315,5.37827 -0.84832,8.1822l-0.02589,0.05289c-0.01451,0.23269 -0.17823,0.39967 -0.25118,0.46304c-0.06538,0.07896 -0.16739,0.17314 -0.30603,0.21749c-3.24875,2.22265 -7.65894,3.64 -11.55307,3.66599c-0.21649,0 -0.67653,0 -0.89302,0c0,0 -0.64947,0 -0.64947,-0.64947c0,-0.64947 0.64947,-0.64947 0.64947,-0.64947h0.24355c0.21649,0 0.43297,0 0.64947,0c0.37676,0.00321 0.76038,-0.00936 1.14876,-0.03682c-1.10167,-2.02876 -1.5389,-3.90227 -2.34765,-6.05894c-0.38064,-3.04513 -1.34381,-5.94778 -1.18116,-8.94381c-0.74875,1.0863 -1.49622,2.20344 -2.43764,3.15892c0,0 -0.45925,0.45925 -0.91849,0c-0.45925,-0.45925 0,-0.91849 0,-0.91849c0.81596,-0.80055 1.09498,-1.92537 1.83091,-2.80197c0.70967,-0.84533 1.38655,-1.66688 2.10155,-2.40405c0.0109,-0.03118 0.02197,-0.06238 0.03322,-0.09359zM426.9313,251.7367c-0.71358,-1.37956 -1.74622,-2.54162 -3.40881,-3.20618c-0.94409,-0.37737 -1.97334,-0.27712 -2.96484,-0.27916c-1.05261,0.13171 -1.92104,0.45896 -2.66819,0.91971c-0.02566,0.08201 -0.05561,0.13443 -0.05561,0.13443l-0.27249,0.45144c-0.14358,1.4164 -0.04618,2.87687 -0.04911,4.30054c0.41772,3.34173 1.59746,10.95642 6.71392,8.01774c2.9683,-2.1101 2.71864,-7.04557 2.70515,-10.3385zM420.35984,263.54242c-0.10227,0.99061 -1.01914,1.99703 -2.06545,1.85058c0.27209,0.69 0.58824,1.3827 1.00077,2.10261l0.07896,0.21327c2.95855,-0.45244 6.04393,-1.67521 8.37066,-3.29032l0.03921,-0.0761c0.98032,-2.61419 0.75925,-4.84546 0.77535,-7.5674c-0.12704,-0.49578 -0.25112,-1.00168 -0.38311,-1.50792c-0.165,3.032 -0.80696,6.15072 -3.24944,7.90186c-0.71905,0.40927 -1.33718,0.69527 -2.17717,0.75079c-0.92852,0.06137 -1.71741,-0.08043 -2.38976,-0.37734zM416.21582,250.5892c-0.01249,0.01366 -0.02494,0.02736 -0.03736,0.04109c-1.18753,3.66822 0.29446,7.2347 0.7479,10.86224c0.06631,0.17684 0.12985,0.35141 0.19127,0.52402c0.24043,-0.33603 0.58602,-0.54687 0.96365,-0.62898c-1.21658,-2.07484 -1.58633,-5.01624 -1.86547,-7.2494c-0.00214,-1.17471 -0.05887,-2.36958 0,-3.54898zM418.16296,263.19037l-0.01939,0.08603c0.10176,0.44624 0.65733,1.37156 1.02874,0.35266c0.21717,-0.59575 -0.95726,-1.45643 -1.11125,-0.80168c0.1019,0.17406 0.1019,0.36299 0.1019,0.36299z" data-paper-data="{&quot;index&quot;:null}" fill="#000000" stroke-width="0.5"/><path d="M422.68443,253.52852c-1.45678,-1.23235 0.10541,-5.11913 2.28749,-3.43679c0.04316,0.03328 0.0844,0.06719 0.12374,0.1017c0.29461,0.23383 0.47718,0.51292 0.56917,0.81137c0.25088,0.70212 0.01126,1.46559 -0.50149,2.0034c-0.63182,0.78556 -1.66526,1.20861 -2.47892,0.52031z" data-paper-data="{&quot;index&quot;:null}" fill="#ffffff" stroke-width="0.5"/><path d="M416.07809,248.93736c0.42508,-0.16137 0.84975,-0.34376 1.27171,-0.52712c-0.02677,1.40835 -0.21929,4.54487 0.16369,6.41823c0.31037,1.5182 0.62572,3.05475 1.00492,4.57152c0.06202,0.24808 0.13529,0.48412 0.21882,0.70766c-0.00396,0.07727 -0.00598,0.15766 -0.00598,0.2413c0,2.51551 3.8514,3.4389 5.51143,2.01601c2.81091,-2.40935 3.75074,-6.68529 3.89068,-10.47942c0.32961,0.86323 0.63751,1.83685 0.9589,2.79413c-0.59013,1.97085 -0.04747,5.34319 0.18282,7.72388c-0.81916,1.04223 -1.47675,2.30177 -2.0477,3.44045c-1.11996,0.7825 -2.27977,1.49421 -3.60165,1.9396c-1.28942,0.43446 -2.50305,0.49798 -3.79466,0.79636c-3.99417,-4.9451 -5.75129,-11.39531 -4.25296,-17.88185c0.13999,-0.59736 0.30714,-1.18457 0.49999,-1.76076z" data-paper-data="{&quot;index&quot;:null}" fill="#231f20" stroke-width="1.6814"/><path d="M417.95328,248.39464c0.16769,-0.03241 0.28005,-0.08427 0.28005,-0.08427c0.85458,-0.39607 1.77079,-0.80527 2.72131,-1.15481c0.30665,0.25427 0.69942,0.28232 0.69942,0.28232c0.5953,0.04252 1.17233,0.079 1.73625,0.11933c0.266,0.26887 0.62328,0.34544 0.62328,0.34544c0.31033,0.06577 0.61754,0.13622 0.92114,0.21264c0.14478,0.39505 0.50737,0.61819 0.50737,0.61819c0.48405,0.29777 0.9513,0.60818 1.40436,0.93105c-0.01924,0.33171 0.10775,0.60685 0.10775,0.60685c0.26444,0.57227 0.55776,1.14225 0.86345,1.71249c-0.05693,2.6247 -0.50304,5.03593 -1.06313,7.54991c-0.37331,0.40603 -0.77558,0.81011 -1.19571,1.22925l-0.56605,0.85076c0,0 -0.28443,0.45508 -0.14968,0.93528c-0.88621,0.25854 -1.75946,0.38238 -2.69201,0.57036l-1.06531,0.07383c0,0 -0.07691,0.00549 -0.18924,0.03366c-0.28257,-0.03801 -0.56341,-0.08805 -0.84096,-0.14904c-2.95425,-2.71241 -4.4365,-6.87705 -3.55166,-11.07433c0.28459,-1.30157 0.78194,-2.51605 1.44936,-3.60891z" data-paper-data="{&quot;index&quot;:null}" fill="#000000" stroke-width="1.6814"/><path d="M422.68442,253.52852c-1.45678,-1.23235 0.10541,-5.11913 2.28749,-3.43679c0.04316,0.03328 0.0844,0.06719 0.12374,0.1017c0.29461,0.23383 0.47718,0.51292 0.56917,0.81137c0.25088,0.70212 0.01126,1.46559 -0.50149,2.0034c-0.63182,0.78556 -1.66526,1.20861 -2.47892,0.52031z" data-paper-data="{&quot;index&quot;:null}" fill="#ffffff" stroke-width="0.5"/><path d="M419.13277,262.6246l0.31908,0.55838c0.05794,0.09718 0.09123,0.21077 0.09123,0.33213c0,0.35869 -0.29077,0.64947 -0.64947,0.64947c-0.22099,0 -0.41621,-0.11038 -0.53353,-0.27902l-0.40089,-0.56124c0,0 -0.3775,-0.52849 0.151,-0.90599c0.161,-0.115 0.30798,-0.14592 0.43455,-0.13332c0.37787,-0.02818 0.58802,0.33958 0.58802,0.33958z" data-paper-data="{&quot;index&quot;:null}" fill="#ffffff" stroke-width="0.5"/><path d="M463.94115,250.61694c1.49832,6.48654 -0.25879,12.93674 -4.25296,17.88185c-1.29161,-0.29839 -2.50524,-0.36191 -3.79466,-0.79636c-1.32188,-0.44539 -2.48168,-1.1571 -3.60165,-1.9396c-0.57095,-1.13867 -1.22853,-2.39822 -2.0477,-3.44045c0.23029,-2.38068 0.77295,-5.75302 0.18282,-7.72388c0.32139,-0.95728 0.6293,-1.9309 0.95891,-2.79413c0.13994,3.79412 1.07976,8.07006 3.89068,10.47942c1.66003,1.42288 5.51143,0.49949 5.51143,-2.01601c0,-0.08365 -0.00203,-0.16404 -0.00598,-0.2413c0.08352,-0.22354 0.15679,-0.45958 0.21881,-0.70766c0.37919,-1.51676 0.69455,-3.05331 1.00492,-4.57152c0.38297,-1.87336 0.19046,-5.00988 0.16369,-6.41823c0.42196,0.18336 0.84663,0.36575 1.27171,0.52712c0.19285,0.57619 0.36,1.1634 0.49999,1.76076z" fill="#231f20" stroke-width="1.6814"/><path d="M460.97451,262.20383c0.12657,-0.01261 0.27356,0.01832 0.43455,0.13332c0.5285,0.3775 0.151,0.90599 0.151,0.90599l-0.40089,0.56124c-0.11731,0.16864 -0.31252,0.27902 -0.53353,0.27902c-0.35869,0 -0.64947,-0.29077 -0.64947,-0.64947c0,-0.12137 0.03329,-0.23495 0.09123,-0.33213l0.31908,-0.55838c0,0 0.21015,-0.36776 0.58802,-0.33958z" fill="#ffffff" stroke-width="0.5"/><path d="M464.45895,249.81267c0.71499,0.73717 1.39188,1.55871 2.10155,2.40405c0.73593,0.87661 1.01495,2.00143 1.83091,2.80197c0,0 0.45925,0.45925 0,0.91849c-0.45925,0.45925 -0.91849,0 -0.91849,0c-0.94142,-0.95548 -1.68888,-2.07262 -2.43764,-3.15892c0.16265,2.99604 -0.80052,5.89868 -1.18116,8.94381c-0.80875,2.15667 -1.24599,4.03018 -2.34765,6.05894c0.38837,0.02746 0.772,0.04004 1.14876,0.03682c0.21649,0 0.43298,0 0.64947,0h0.24355c0,0 0.64947,0 0.64947,0.64947c0,0.64947 -0.64947,0.64947 -0.64947,0.64947c-0.21649,0 -0.67653,0 -0.89302,0c-3.89413,-0.026 -8.30431,-1.44335 -11.55307,-3.66599c-0.13865,-0.04436 -0.24065,-0.13854 -0.30603,-0.21749c-0.07295,-0.06338 -0.23667,-0.23035 -0.25118,-0.46304l-0.02589,-0.05289c-1.05148,-2.80394 -0.86365,-5.25961 -0.84832,-8.1822c0.42467,-1.73698 0.86101,-3.54408 1.61958,-5.13674c0.00049,-0.00835 0.00131,-0.01906 0.00264,-0.03171c0.14918,-0.22194 0.27671,-0.45647 0.37789,-0.69833c0.83918,-1.47012 2.02582,-2.69761 3.84166,-3.42433c1.13496,-0.45423 2.33743,-0.37248 3.52985,-0.37031c2.034,0.25404 3.51006,1.14375 4.80872,2.34387c0.00872,0.0004 0.01731,0.00099 0.0258,0.00178c0.16395,0.18429 0.34889,0.35134 0.54888,0.49969c0.01124,0.03122 0.02232,0.06241 0.03322,0.09359zM455.29311,261.99401c5.11645,2.93868 6.2962,-4.67601 6.71392,-8.01774c-0.00294,-1.42367 0.09447,-2.88415 -0.04911,-4.30054l-0.27249,-0.45144c0,0 -0.02995,-0.05242 -0.05561,-0.13443c-0.74715,-0.46075 -1.61558,-0.78799 -2.66819,-0.91971c-0.9915,0.00204 -2.02075,-0.09821 -2.96484,0.27916c-1.66259,0.66457 -2.69523,1.82662 -3.40882,3.20618c-0.0135,3.29293 -0.26316,8.2284 2.70515,10.3385zM456.76967,263.83859c-0.84,-0.05552 -1.45812,-0.34152 -2.17717,-0.75079c-2.44248,-1.75114 -3.08444,-4.86986 -3.24944,-7.90186c-0.132,0.50623 -0.25607,1.01214 -0.38311,1.50792c0.0161,2.72194 -0.20497,4.95322 0.77535,7.5674l0.03921,0.0761c2.32673,1.61511 5.41212,2.83788 8.37066,3.29032l0.07896,-0.21327c0.41253,-0.7199 0.72866,-1.4126 1.00076,-2.10261c-1.04631,0.14646 -1.96318,-0.85997 -2.06545,-1.85058c-0.67235,0.2969 -1.46125,0.43871 -2.38976,0.37734zM463.30345,254.05699c-0.27914,2.23316 -0.64889,5.17455 -1.86547,7.2494c0.37763,0.08211 0.72322,0.29294 0.96365,0.62898c0.06142,-0.17261 0.12496,-0.34718 0.19127,-0.52402c0.45344,-3.62754 1.93543,-7.19401 0.7479,-10.86224c-0.01242,-0.01373 -0.02487,-0.02743 -0.03736,-0.04109c0.05888,1.17939 0.00214,2.37427 0,3.54898zM461.4582,262.7462c-0.15399,-0.65475 -1.32843,0.20593 -1.11126,0.80168c0.37142,1.0189 0.92699,0.09358 1.02874,-0.35266l-0.01939,-0.08603c0,0 0,-0.18893 0.1019,-0.36299z" fill="#000000" stroke-width="0.5"/></g></g></svg>