<svg version="1.1" xmlns="http://www.w3.org/2000/svg" xmlns:xlink="http://www.w3.org/1999/xlink" width="26.58693" height="23.86538" viewBox="0,0,26.58693,23.86538"><g transform="translate(-428.00098,-189.56422)"><g data-paper-data="{&quot;isPaintingLayer&quot;:true}" fill-rule="nonzero" stroke-linejoin="miter" stroke-miterlimit="10" stroke-dasharray="" stroke-dashoffset="0" style="mix-blend-mode: normal"><g><path d="M437.5844,198.2995c1.6428,0 3.1309,0.6296 4.2076,1.6481c1.078,1.0172 1.7446,2.4219 1.7446,3.9735c0,1.5515 -0.6666,2.9563 -1.7446,3.9734c-1.0767,1.0185 -2.5648,1.6481 -4.2076,1.6481c-1.6428,0 -3.1309,-0.6296 -4.2076,-1.6481c-1.078,-1.0171 -1.7447,-2.4219 -1.7447,-3.9734c0,-1.5516 0.6667,-2.9563 1.7447,-3.9735c1.0767,-1.0185 2.5648,-1.6481 4.2076,-1.6481z" fill="#000000" stroke="#663b00" stroke-width="2.64545" stroke-linecap="butt"/><path d="M450.6781,212.8547l1.9549,-6.3535z" fill="none" stroke="#000000" stroke-width="3.90984" stroke-linecap="round"/><path d="M429.9559,194.283l4.8873,-2.1504l6.8422,-0.5865l6.8423,2.2482l3.9098,4.8873l0.1955,7.8196" fill="none" stroke="#000000" stroke-width="3.90984" stroke-linecap="round"/></g></g></g></svg>