<svg xmlns="http://www.w3.org/2000/svg" xmlns:xlink="http://www.w3.org/1999/xlink" version="1.1" width="15.793694604530339" height="34.38485061038971" viewBox="1.0090236121940588 -0.09147625619888555 15.793694604530339 34.38485061038971">
  <!-- Exported by Scratch - http://scratch.mit.edu/ -->
  <path id="ID0.0918692690320313" fill="none" stroke="#000000" stroke-width="3.5387526642227223" stroke-linecap="round" d="M 3.2449 12.9333 C 3.2449 12.9333 4.6574 13.0109 5.344 13.1418 C 6.3796 13.3418 7.3219 13.4435 8.1429 13.767 C 9.0525 14.0763 9.7755 14.6532 10.4752 15.0175 C 11.0154 15.2967 11.6936 15.4318 12.1079 15.8511 C 12.9027 16.6597 13.4569 17.7051 13.9738 18.7688 C 14.3936 19.4491 14.7752 20.2111 14.9067 21.0614 C 15.0774 22.1609 15.0737 23.2472 14.9067 24.3959 C 14.7518 25.4597 14.4645 26.4117 13.9738 27.5221 C 13.7275 28.0773 13.2395 28.525 12.8076 28.981 C 12.3822 29.4303 11.9306 29.8721 11.4082 30.2314 C 10.9118 30.5724 10.3493 30.8408 9.7755 31.0651 C 9.1001 31.3293 8.3864 31.5144 7.6764 31.6903 C 6.986 31.8612 6.2807 31.9871 5.5773 32.1071 C 4.649 32.2655 2.7784 32.524 2.7784 32.524 "/>
  <path id="ID0.9710979810915887" fill="none" stroke="#000000" stroke-width="3.3428636202448985" d="M 6.8273 1.6779 L 7.527 1.6779 L 7.527 11.1103 L 6.8273 11.1103 L 6.8273 1.6779 Z "/>
</svg>