<svg xmlns="http://www.w3.org/2000/svg" xmlns:xlink="http://www.w3.org/1999/xlink" version="1.1" width="69.74052460065228" height="93.3066180454765" viewBox="0.5006901866657463 0.6327901727421013 69.74052460065228 93.3066180454765">
  <!-- Exported by Scratch - http://scratch.mit.edu/ -->
  <path id="ID0.1926768901757896" fill="#663B00" stroke="#000000" stroke-linecap="round" d="M 3.3566 41.7544 L 12.4494 52.7416 L 12.8283 20.5378 L 15.4804 16.3702 L 19.269 12.9604 L 23.0577 9.9295 L 45.411 10.6872 L 52.2306 14.097 L 54.8827 17.5068 L 58.2925 22.0533 L 57.9137 53.8782 L 67.0065 40.9967 L 68.1431 36.0714 L 69.2797 30.3884 L 67.3854 19.0223 L 62.4601 12.9604 L 56.3982 7.2774 L 50.7152 4.2464 L 40.1068 2.3521 L 31.014 1.5943 L 22.6789 2.3521 L 16.9958 4.6253 L 7.5241 10.6872 L 3.3566 16.7491 L 1.4622 27.7363 L 3.3566 41.7544 Z " stroke-width="1.5154749155044556"/>
  <path id="ID0.21534982463344932" fill="#663B00" stroke="#000000" stroke-linecap="round" d="M 42.9914 51.9834 L 30.9749 52.9712 L 36.9546 92.9779 L 42.9914 51.9834 Z " stroke-width="1.923019717839772"/>
</svg>