<svg version="1.1" xmlns="http://www.w3.org/2000/svg" xmlns:xlink="http://www.w3.org/1999/xlink" width="27.165" height="32.03029" viewBox="0,0,27.165,32.03029"><g transform="translate(-226.42728,-163.98351)"><g data-paper-data="{&quot;isPaintingLayer&quot;:true}" fill-rule="nonzero" stroke="#488f18" stroke-width="0.5297" stroke-linejoin="miter" stroke-miterlimit="10" stroke-dasharray="" stroke-dashoffset="0" style="mix-blend-mode: normal"><g><path d="M240.03525,164.25105c3.6616,0 6.9795,1.7646 9.3819,4.6157c2.4024,2.851 3.8897,6.7883 3.8897,11.1332c0,4.345 -1.4873,8.2822 -3.8897,11.1333c-2.4024,2.851 -5.7203,4.6157 -9.3819,4.6157c-3.6615,0 -6.9794,-1.7647 -9.3818,-4.6157c-2.4024,-2.8511 -3.8897,-6.7883 -3.8897,-11.1333c0,-4.3449 1.4873,-8.2822 3.8897,-11.1332c2.4024,-2.8511 5.7203,-4.6157 9.3818,-4.6157z" fill="none" stroke-linecap="butt"/><path d="M226.69315,178.95415l1.2001,-6.0904l2.5413,-3.8757l2.8238,-2.7684l3.1061,-1.2919l3.6708,-0.6767l3.8827,0.4307l3.3884,1.8455l2.5414,2.7684l1.906,2.8299l1.2001,3.199l0.2118,3.199l0.1412,2.7683l-5.7887,-2.2762l-1.553,-0.9843l-1.7649,-1.5995l-2.1884,-2.3377l-1.6942,-1.7225l-8.1888,5.106l-5.3651,3.2606z" fill="#488f18" stroke-linecap="round"/></g></g></g></svg>