<svg xmlns="http://www.w3.org/2000/svg" xmlns:xlink="http://www.w3.org/1999/xlink" version="1.1" width="90.0448989868164" height="19.008800506591797" viewBox="0.08509999513626099 0.749500036239624 90.0448989868164 19.008800506591797">
  <!-- Exported by Scratch - http://scratch.mit.edu/ -->
  <g id="ID0.35141076799482107">
    <path id="ID0.49225207744166255" fill="#CCCCCC" stroke="#CCCCCC" stroke-width="0.9915541013705306" d="M 3.4319 5.1914 C 4.2172 5.1914 4.9291 5.4601 5.4443 5.8945 C 5.9599 6.3284 6.2787 6.928 6.2787 7.59 C 6.2787 8.252 5.9599 8.8517 5.4443 9.2856 C 4.9291 9.72 4.2172 9.9886 3.4319 9.9886 C 2.6466 9.9886 1.9347 9.72 1.4195 9.2856 C 0.9039 8.8517 0.5851 8.252 0.5851 7.59 C 0.5851 6.928 0.9039 6.3284 1.4195 5.8945 C 1.9347 5.4601 2.6466 5.1914 3.4319 5.1914 Z "/>
    <path id="ID0.49225207744166255" fill="#CCCCCC" stroke="#CCCCCC" stroke-width="0.9915541013705306" d="M 9.5565 14.4611 C 10.3418 14.4611 11.0537 14.7298 11.5689 15.1642 C 12.0845 15.5981 12.4034 16.1977 12.4034 16.8597 C 12.4034 17.5217 12.0845 18.1214 11.5689 18.5553 C 11.0537 18.9897 10.3418 19.2583 9.5565 19.2583 C 8.7713 19.2583 8.0593 18.9897 7.5442 18.5553 C 7.0285 18.1214 6.7097 17.5217 6.7097 16.8597 C 6.7097 16.1977 7.0285 15.5981 7.5442 15.1642 C 8.0593 14.7298 8.7713 14.4611 9.5565 14.4611 Z "/>
    <path id="ID0.49225207744166255" fill="#CCCCCC" stroke="#CCCCCC" stroke-width="0.9915541013705306" d="M 19.3063 11.316 C 20.0915 11.316 20.8035 11.5847 21.3186 12.0191 C 21.8343 12.453 22.1531 13.0526 22.1531 13.7146 C 22.1531 14.3767 21.8343 14.9763 21.3186 15.4102 C 20.8035 15.8446 20.0915 16.1133 19.3063 16.1133 C 18.521 16.1133 17.8091 15.8446 17.2939 15.4102 C 16.7783 14.9763 16.4594 14.3767 16.4594 13.7146 C 16.4594 13.0526 16.7783 12.453 17.2939 12.0191 C 17.8091 11.5847 18.521 11.316 19.3063 11.316 Z "/>
    <path id="ID0.49225207744166255" fill="#CCCCCC" stroke="#CCCCCC" stroke-width="0.9915541013705306" d="M 13.1816 2.0463 C 13.9669 2.0463 14.6788 2.315 15.194 2.7494 C 15.7096 3.1833 16.0285 3.7829 16.0285 4.445 C 16.0285 5.107 15.7096 5.7066 15.194 6.1405 C 14.6788 6.5749 13.9669 6.8436 13.1816 6.8436 C 12.3964 6.8436 11.6844 6.5749 11.1693 6.1405 C 10.6537 5.7066 10.3348 5.107 10.3348 4.445 C 10.3348 3.7829 10.6537 3.1833 11.1693 2.7494 C 11.6844 2.315 12.3964 2.0463 13.1816 2.0463 Z "/>
  </g>
  <path id="ID0.49225207744166255" fill="#CCCCCC" stroke="#CCCCCC" stroke-width="0.9915540947252452" d="M 86.7832 4.3995 C 85.9979 4.3995 85.286 4.6682 84.7708 5.1026 C 84.2552 5.5365 83.9364 6.1361 83.9364 6.7981 C 83.9364 7.4602 84.2552 8.0598 84.7708 8.4937 C 85.286 8.9281 85.9979 9.1967 86.7832 9.1967 C 87.5685 9.1967 88.2804 8.9281 88.7956 8.4937 C 89.3112 8.0598 89.63 7.4602 89.63 6.7981 C 89.63 6.1361 89.3112 5.5365 88.7956 5.1026 C 88.2804 4.6682 87.5685 4.3995 86.7832 4.3995 Z "/>
  <path id="ID0.49225207744166255" fill="#CCCCCC" stroke="#CCCCCC" stroke-width="0.9915540947252452" d="M 80.7332 13.6495 C 79.9479 13.6495 79.236 13.9182 78.7208 14.3526 C 78.2052 14.7865 77.8864 15.3861 77.8864 16.0481 C 77.8864 16.7102 78.2052 17.3098 78.7208 17.7437 C 79.236 18.1781 79.9479 18.4467 80.7332 18.4467 C 81.5185 18.4467 82.2304 18.1781 82.7456 17.7437 C 83.2612 17.3098 83.58 16.7102 83.58 16.0481 C 83.58 15.3861 83.2612 14.7865 82.7456 14.3526 C 82.2304 13.9182 81.5185 13.6495 80.7332 13.6495 Z "/>
  <path id="ID0.49225207744166255" fill="#CCCCCC" stroke="#CCCCCC" stroke-width="0.9915540947252452" d="M 70.8832 10.4995 C 70.0979 10.4995 69.386 10.7682 68.8708 11.2026 C 68.3552 11.6365 68.0364 12.2361 68.0364 12.8981 C 68.0364 13.5602 68.3552 14.1598 68.8708 14.5937 C 69.386 15.0281 70.0979 15.2967 70.8832 15.2967 C 71.6685 15.2967 72.3804 15.0281 72.8956 14.5937 C 73.4112 14.1598 73.73 13.5602 73.73 12.8981 C 73.73 12.2361 73.4112 11.6365 72.8956 11.2026 C 72.3804 10.7682 71.6685 10.4995 70.8832 10.4995 Z "/>
  <path id="ID0.49225207744166255" fill="#CCCCCC" stroke="#CCCCCC" stroke-width="0.9915540947252452" d="M 77.0832 1.2495 C 76.2979 1.2495 75.586 1.5182 75.0708 1.9526 C 74.5552 2.3865 74.2364 2.9861 74.2364 3.6481 C 74.2364 4.3102 74.5552 4.9098 75.0708 5.3437 C 75.586 5.7781 76.2979 6.0467 77.0832 6.0467 C 77.8685 6.0467 78.5804 5.7781 79.0956 5.3437 C 79.6112 4.9098 79.93 4.3102 79.93 3.6481 C 79.93 2.9861 79.6112 2.3865 79.0956 1.9526 C 78.5804 1.5182 77.8685 1.2495 77.0832 1.2495 Z "/>
</svg>