<svg xmlns="http://www.w3.org/2000/svg" xmlns:xlink="http://www.w3.org/1999/xlink" version="1.1" width="124.84282568071566" height="88.22312048052035" viewBox="0.5869390816773856 0.6343390793885673 124.84282568071566 88.22312048052035">
  <defs>
    <radialGradient id="grad_1" cx="0.5390999999999999" cy="0.5222" r="0.70083">
      <stop offset="0" stop-color="#FFCCF2" stop-opacity="1"/>
      <stop offset="1" stop-color="#FF99E5" stop-opacity="1"/>
    </radialGradient>
    <radialGradient id="grad_2" cx="0.5405" cy="0.49329999999999996" r="0.70265">
      <stop offset="0" stop-color="#FFCCF2" stop-opacity="1"/>
      <stop offset="1" stop-color="#FF99E5" stop-opacity="1"/>
    </radialGradient>
  <radialGradient id="grad_1-.9333333373069763,0,0,0.7888888716697693,-79.3,-76.25" cx="109.1106" cy="71.2364" r="23.7427" gradientUnits="userSpaceOnUse">
      <stop offset="0" stop-color="#FFCCF2" stop-opacity="1"/>
      <stop offset="1" stop-color="#FF99E5" stop-opacity="1"/>
    </radialGradient><radialGradient id="grad_2-.9333333373069763,0,0,0.7888888716697693,-168.95,-76.1" cx="19.5063" cy="70.4061" r="23.8044" gradientUnits="userSpaceOnUse">
      <stop offset="0" stop-color="#FFCCF2" stop-opacity="1"/>
      <stop offset="1" stop-color="#FF99E5" stop-opacity="1"/>
    </radialGradient></defs>
  <!-- Exported by Scratch - http://scratch.mit.edu/ -->
  <path id="ID0.8031766437925398" fill="#99B2FF" stroke="#CCD8FF" stroke-width="2.5261218843289446" d="M 30.4776 3.6995 C 37.6589 3.6995 44.1663 6.0821 48.8785 9.9315 C 53.5906 13.7809 56.5074 19.0971 56.5074 24.9642 C 56.5074 30.8312 53.5906 36.1474 48.8785 39.9968 C 44.1663 43.8462 37.6589 46.2288 30.4776 46.2288 C 23.2963 46.2288 16.7889 43.8462 12.0767 39.9968 C 7.3646 36.1474 4.4478 30.8312 4.4478 24.9642 C 4.4478 19.0971 7.3646 13.7809 12.0767 9.9315 C 16.7889 6.0821 23.2963 3.6995 30.4776 3.6995 Z "/>
  <path id="ID0.8031766437925398" fill="#99B2FF" stroke="#CCD8FF" stroke-width="2.412918014059539" d="M 98.2134 1.8974 C 105.0006 1.8974 111.151 4.2266 115.6046 7.9896 C 120.0582 11.7526 122.8149 16.9494 122.8149 22.6848 C 122.8149 28.4202 120.0582 33.617 115.6046 37.38 C 111.151 41.143 105.0006 43.4721 98.2134 43.4721 C 91.4262 43.4721 85.2758 41.143 80.8222 37.38 C 76.3686 33.617 73.6119 28.4202 73.6119 22.6848 C 73.6119 16.9494 76.3686 11.7526 80.8222 7.9896 C 85.2758 4.2266 91.4262 1.8974 98.2134 1.8974 Z "/>
  <path id="ID0.8031766437925398" fill="url(#grad_1-.9333333373069763,0,0,0.7888888716697693,-79.3,-76.25)" stroke="#FFCBF1" stroke-width="1.7282689434072347" d="M 107.8333 53.5222 C 112.3395 53.5222 116.4228 55.4227 119.3796 58.493 C 122.3364 61.5634 124.1667 65.8036 124.1667 70.4833 C 124.1667 75.163 122.3364 79.4033 119.3796 82.4737 C 116.4228 85.544 112.3395 87.4444 107.8333 87.4444 C 103.3272 87.4444 99.2439 85.544 96.2871 82.4737 C 93.3303 79.4033 91.5 75.163 91.5 70.4833 C 91.5 65.8036 93.3303 61.5634 96.2871 58.493 C 99.2439 55.4227 103.3272 53.5222 107.8333 53.5222 Z "/>
  <path id="ID0.8031766437925398" fill="url(#grad_2-.9333333373069763,0,0,0.7888888716697693,-168.95,-76.1)" stroke="#FFCBF1" stroke-width="1.7282689434072347" d="M 18.1833 53.6722 C 22.6895 53.6722 26.7728 55.5727 29.7296 58.643 C 32.6864 61.7134 34.5167 65.9536 34.5167 70.6333 C 34.5167 75.313 32.6864 79.5533 29.7296 82.6237 C 26.7728 85.694 22.6895 87.5944 18.1833 87.5944 C 13.6772 87.5944 9.5939 85.694 6.6371 82.6237 C 3.6803 79.5533 1.85 75.313 1.85 70.6333 C 1.85 65.9536 3.6803 61.7134 6.6371 58.643 C 9.5939 55.5727 13.6772 53.6722 18.1833 53.6722 Z "/>
</svg>