<svg version="1.1" xmlns="http://www.w3.org/2000/svg" xmlns:xlink="http://www.w3.org/1999/xlink" width="40.18345" height="45.31522" viewBox="0,0,40.18345,45.31522"><g transform="translate(-290.40828,-178.40901)"><g data-paper-data="{&quot;isPaintingLayer&quot;:true}" fill="#000000" fill-rule="nonzero" stroke="#000000" stroke-linecap="round" stroke-linejoin="miter" stroke-miterlimit="10" stroke-dasharray="" stroke-dashoffset="0" style="mix-blend-mode: normal"><path d="M293.3135,193.8477l0.7748,-5.2098l2.2506,-3.661l2.2876,-2.7458l2.1768,-1.7249l3.6896,-0.9152l5.6451,-0.4576l5.4237,0.5984l4.0585,1.232l4.0955,3.4498l1.8079,4.3651l1.3651,3.3089l0.5534,5.4563l-1.4758,4.9283l-2.6196,-2.3586l-3.2468,-2.8865l-2.3983,-2.7457l-2.1399,-3.4146l-0.6272,-1.8305l-9.9619,-0.1408l-0.7748,1.7601l-1.4759,3.6962l-2.5458,2.8161l-3.0992,2.7457l-2.841,2.3586l-1.6603,-4.4003z" stroke-width="1.44235"/><path d="M323.2815,208.7159l2.5414,-7.0645l2.7726,3.917l-1.3203,2.8677l2.4425,2.658l-2.0464,3.1475l2.1124,3.0776l-2.7725,4.6164l-2.3105,-2.3781l-2.8385,2.6579l-2.7065,-2.6579l-3.3666,2.7978l-2.4095,-5.9803l2.2115,-0.9093l2.0463,-0.9093l3.2346,-2.3082z" stroke-width="1.36015"/><path d="M300.128,212.4982l3.2346,2.3082l2.0463,0.9093l2.2115,0.9093l-2.4095,5.9803l-3.3666,-2.7978l-2.7065,2.6579l-2.8385,-2.6579l-2.3105,2.3781l-2.7725,-4.6164l2.1124,-3.0776l-2.0464,-3.1475l2.4425,-2.6579l-1.3203,-2.8678l2.7726,-3.9169l2.5414,7.0644z" stroke-width="1.36015"/></g></g></svg>