<svg version="1.1" xmlns="http://www.w3.org/2000/svg" xmlns:xlink="http://www.w3.org/1999/xlink" width="53.58538" height="24.63545" viewBox="0,0,53.58538,24.63545"><g transform="translate(-412.63911,-181.77924)"><g data-paper-data="{&quot;isPaintingLayer&quot;:true}" fill-rule="nonzero" stroke="#000000" stroke-linejoin="miter" stroke-miterlimit="10" stroke-dasharray="" stroke-dashoffset="0" style="mix-blend-mode: normal"><g><path d="M425.0743,204.5487l-2.1082,-6.9582l0.6201,-4.0866l1.5501,-2.9821l0.6944,-2.7612l2.9885,-2.6508l3.4226,-2.0985l4.7494,-0.994l4.1915,0.5522l4.3154,0.9941l4.5262,2.4298l2.3933,3.5344l1.5501,3.0373l0.93,4.6941l0.2108,4.6388l-0.8804,3.7552l-1.1037,-2.6507l-1.6368,-4.3627l-1.6121,1.7119l-2.1701,-9.1672l-0.9921,3.6448l-1.2152,2.4299l-1.8725,2.4298l-0.5581,-2.9821l-0.558,-2.0985l-0.3224,-2.209l-4.303,7.7314l-1.6493,-6.0746l-2.6661,4.8045l-0.3348,-3.0374l-0.5457,-2.8716l-1.2152,-2.5403l-1.5501,3.0925l-0.8804,3.0926l-0.1241,3.7l-2.4181,-2.5956z" fill="#000000" stroke-width="0.46969" stroke-linecap="round"/><g><path d="M425.821,187.4925l1.4707,1.4058l-1.34,0.9252l-0.6948,-0.0436l-1.8031,0.586l-1.4313,2.0445l-0.5835,3.5491l-0.936,2.582l-2.6979,1.144l-3.0608,0.0389l-1.3627,0.9724l0.0552,-1.6018l1.4171,-0.7136l0.0917,-2.0495l-2.1045,-5.6655l0.3003,-1.3675l0.8725,-1.441l3.7426,-1.4555l4.5777,-0.5882z" fill="#000000" stroke-width="0.38852" stroke-linecap="round"/><path d="M425.994,190.2157l-0.5658,-0.4249l1.4411,-1.1752l0.5658,0.4248z" fill="#001966" stroke-width="0.32141" stroke-linecap="butt"/></g><g><path d="M454.9983,186.4933l4.6149,-0.0647l3.9107,0.912l1.0674,1.3032l0.4906,1.3114l-1.2829,5.906l0.3805,2.016l1.5037,0.5062l0.281,1.5779l-1.4865,-0.7701l-3.0355,0.3941l-2.8325,-0.7513l-1.2915,-2.4238l-1.0792,-3.4311l-1.7059,-1.8216l-1.8678,-0.3254l-0.6816,0.1414l-1.4574,-0.7266l1.2573,-1.5995z" fill="#000000" stroke-width="0.38852" stroke-linecap="round"/><path d="M450.3815,190.3725l0.5002,-0.5006l1.5927,0.9599l-0.5001,0.5005z" fill="#001966" stroke-width="0.32141" stroke-linecap="butt"/></g></g></g></g></svg>