<svg version="1.1" xmlns="http://www.w3.org/2000/svg" xmlns:xlink="http://www.w3.org/1999/xlink" width="40.77128" height="29.1556" viewBox="0,0,40.77128,29.1556"><g transform="translate(-219.61448,-165.49761)"><g data-paper-data="{&quot;isPaintingLayer&quot;:true}" fill="#000000" fill-rule="nonzero" stroke="#000000" stroke-width="0.47213" stroke-linecap="round" stroke-linejoin="miter" stroke-miterlimit="10" stroke-dasharray="" stroke-dashoffset="0" style="mix-blend-mode: normal"><path d="M240.50485,178.8343h-2.8919l-2.655,0.444l-1.7825,0.6662l-2.5553,1.1102l-2.2187,2.3314l-1.5581,2.1094l-0.6607,3.8857l-0.7728,3.9967l-2.3434,-2.1094l-1.77,-2.4424l-1.1094,-3.4416l-0.3365,-1.8874v-2.3314l0.3365,-2.9976l0.7729,-2.8865l1.4459,-2.6645l1.7825,-1.9984l2.5428,-2.1093l3.1162,-1.5543l2.5428,-0.7772l4.1882,-0.3885l3.8143,-0.0555l3.4403,0.444l3.004,0.5551l2.842,0.9437l2.4805,1.1657l2.5553,1.6653l1.77,1.5543l1.3337,2.1094l0.9972,2.1094l0.6482,2.3869l0.5734,2.831l0.1122,3.4417l-0.2244,3.4416l-0.885,1.9984l-1.3337,2.2204l-2.5429,1.6653l-0.6731,-3.2196l-0.3365,-2.6645l-0.885,-2.5535l-1.5581,-2.2204l-2.1066,-2.1094l-3.2159,-1.4432l-2.2188,-0.8882z"/></g></g></svg>