<svg xmlns="http://www.w3.org/2000/svg" xmlns:xlink="http://www.w3.org/1999/xlink" version="1.1" width="101.77549314498901" height="25.373591899871826" viewBox="4.587254762649536 0.18915486335754395 101.77549314498901 25.373591899871826">
  <!-- Exported by Scratch - http://scratch.mit.edu/ -->
  <g id="ID0.08573023043572903">
    <path id="ID0.7268805736675858" fill="#FFFFFF" stroke="#FFFFFF" stroke-width="3.725490093231201" stroke-linecap="round" d="M 80.2323 3.449 C 82.0206 3.8569 83.1531 6.0587 84.8892 6.7088 C 87.2754 7.6104 90.1608 7.4129 92.3402 8.5716 C 93.6776 9.6762 94.5308 11.3377 94.6686 12.9956 C 94.8214 14.836 94.6593 17.3842 93.0853 18.4441 C 90.9748 19.8821 87.9963 19.9529 85.448 19.5618 C 81.2829 18.7384 76.7825 17.591 73.5265 14.9049 C 71.7922 13.4538 71.8407 10.5852 72.1294 8.3853 C 72.0139 7.1875 73.0533 6.0773 74.0015 5.5893 C 75.8586 4.6225 78.0101 3.4434 80.2323 3.449 Z "/>
    <path id="ID0.5894868997856975" fill="none" stroke="#000000" stroke-width="3.725490093231201" stroke-linecap="round" d="M 103.5167 15.4637 Z "/>
    <path id="ID0.9226711289957166" fill="#000000" stroke="#663B00" stroke-width="3.0000040531158447" d="M 81.6753 3.4002 C 83.5383 3.4002 85.2258 4.1142 86.4468 5.2692 C 87.6693 6.4227 88.4253 8.0157 88.4253 9.7752 C 88.4253 11.5347 87.6693 13.1277 86.4468 14.2812 C 85.2258 15.4362 83.5383 16.1502 81.6753 16.1502 C 79.8123 16.1502 78.1248 15.4362 76.9038 14.2812 C 75.6813 13.1277 74.9253 11.5347 74.9253 9.7752 C 74.9253 8.0157 75.6813 6.4227 76.9038 5.2692 C 78.1248 4.1142 79.8123 3.4002 81.6753 3.4002 Z "/>
    <path id="ID0.9445898924022913" fill="none" stroke="#000000" stroke-width="3.725490093231201" stroke-linecap="round" d="M 69.0559 10.4343 L 71.198 7.2676 L 74.4578 3.5421 L 79.301 2.0519 L 84.5167 2.0519 L 89.7323 3.5421 L 93.2716 6.7088 L 96.0657 12.7627 L 96.0657 17.8853 L 93.551 21.4245 "/>
  </g>
  <path id="ID0.986533219460398" fill="none" stroke="#000000" stroke-width="2" stroke-linecap="round" d="M 96.75 13.5 L 104.5 14.75 "/>
  <path id="ID0.44407584331929684" fill="none" stroke="#000000" stroke-width="2" stroke-linecap="round" d="M 103 23.25 L 96 21.25 "/>
  <g id="ID0.5968848285265267">
    <g id="ID0.08573023043572903">
      <path id="ID0.7268805736675858" fill="#FFFFFF" stroke="#FFFFFF" stroke-width="3.725490093231201" stroke-linecap="round" d="M 30.7177 3.849 C 28.9294 4.2569 27.7969 6.4587 26.0608 7.1088 C 23.6746 8.0104 20.7892 7.8129 18.6098 8.9716 C 17.2724 10.0762 16.4192 11.7377 16.2814 13.3956 C 16.1286 15.236 16.2907 17.7842 17.8647 18.8441 C 19.9752 20.2821 22.9537 20.3529 25.502 19.9618 C 29.6671 19.1384 34.1675 17.991 37.4235 15.3049 C 39.1578 13.8538 39.1093 10.9852 38.8206 8.7853 C 38.9361 7.5875 37.8967 6.4773 36.9485 5.9893 C 35.0914 5.0225 32.9399 3.8434 30.7177 3.849 Z "/>
      <path id="ID0.5894868997856975" fill="none" stroke="#000000" stroke-width="3.725490093231201" stroke-linecap="round" d="M 7.4333 15.8637 Z "/>
      <path id="ID0.9226711289957166" fill="#000000" stroke="#663B00" stroke-width="3.0000040531158447" d="M 29.2747 3.8002 C 27.4117 3.8002 25.7242 4.5142 24.5032 5.6692 C 23.2807 6.8227 22.5247 8.4157 22.5247 10.1752 C 22.5247 11.9347 23.2807 13.5277 24.5032 14.6812 C 25.7242 15.8362 27.4117 16.5502 29.2747 16.5502 C 31.1377 16.5502 32.8252 15.8362 34.0462 14.6812 C 35.2687 13.5277 36.0247 11.9347 36.0247 10.1752 C 36.0247 8.4157 35.2687 6.8227 34.0462 5.6692 C 32.8252 4.5142 31.1377 3.8002 29.2747 3.8002 Z "/>
      <path id="ID0.9445898924022913" fill="none" stroke="#000000" stroke-width="3.725490093231201" stroke-linecap="round" d="M 41.8941 10.8343 L 39.752 7.6676 L 36.4922 3.9421 L 31.649 2.4519 L 26.4333 2.4519 L 21.2177 3.9421 L 17.6784 7.1088 L 14.8843 13.1627 L 14.8843 18.2853 L 17.399 21.8245 "/>
    </g>
    <path id="ID0.986533219460398" fill="none" stroke="#000000" stroke-width="2" stroke-linecap="round" d="M 14.2 13.95 L 6.45 15.2 "/>
    <path id="ID0.44407584331929684" fill="none" stroke="#000000" stroke-width="2" stroke-linecap="round" d="M 7.95 23.7 L 14.95 21.7 "/>
  </g>
</svg>