<svg xmlns="http://www.w3.org/2000/svg" xmlns:xlink="http://www.w3.org/1999/xlink" version="1.1" width="86.76320600509644" height="21.265685558319092" viewBox="0.9184000492095947 0.46713685989379883 86.76320600509644 21.265685558319092">
  <!-- Exported by Scratch - http://scratch.mit.edu/ -->
  <g id="ID0.4275400950573385">
    <path id="ID0.5060144835151732" fill="#000000" stroke="#000000" stroke-width="4.004241466522217" d="M 71.7511 4.1632 C 74.0295 4.1632 76.0937 5.0322 77.5893 6.4376 C 79.0849 7.8411 80.0099 9.7812 80.0099 11.9215 C 80.0099 14.0617 79.0849 16.0018 77.5893 17.4053 C 76.0937 18.8107 74.0295 19.6797 71.7511 19.6797 C 69.4727 19.6797 67.4085 18.8107 65.9129 17.4053 C 64.4174 16.0018 63.4924 14.0617 63.4924 11.9215 C 63.4924 9.7812 64.4174 7.8411 65.9129 6.4376 C 67.4085 5.0322 69.4727 4.1632 71.7511 4.1632 Z "/>
    <path id="ID0.9001830890774727" fill="none" stroke="#000000" stroke-width="4.004241466522217" stroke-linecap="round" d="M 76.8065 9.0684 C 78.6424 7.8111 81.8638 4.6698 84.7589 3.0941 C 85.4857 2.6977 85.832 3.987 85.6158 4.3634 C 85.0772 5.3985 83.7578 5.5667 83.0131 6.3656 C 81.5535 7.9332 79.6375 11.1126 78.8086 11.0705 C 78.1659 11.2307 80.2782 7.2725 79.6655 6.6338 C 79.177 6.1233 76.1978 9.5089 76.8065 9.0684 Z "/>
    <path id="ID0.9226711289957166" fill="#000000" stroke="#663B00" stroke-width="3.800321824086353" d="M 71.6737 3.5793 C 74.0337 3.5793 76.1714 4.4838 77.7181 5.9469 C 79.2668 7.4081 80.2245 9.4261 80.2245 11.655 C 80.2245 13.8839 79.2668 15.9018 77.7181 17.3631 C 76.1714 18.8262 74.0337 19.7307 71.6737 19.7307 C 69.3137 19.7307 67.1761 18.8262 65.6293 17.3631 C 64.0807 15.9018 63.123 13.8839 63.123 11.655 C 63.123 9.4261 64.0807 7.4081 65.6293 5.9469 C 67.1761 4.4838 69.3137 3.5793 71.6737 3.5793 Z "/>
  </g>
  <g id="ID0.4275400950573385">
    <path id="ID0.5060144835151732" fill="#000000" stroke="#000000" stroke-width="4.004241466522217" d="M 16.8489 3.6132 C 14.5705 3.6132 12.5063 4.4822 11.0107 5.8876 C 9.5151 7.2911 8.5901 9.2312 8.5901 11.3715 C 8.5901 13.5117 9.5151 15.4518 11.0107 16.8553 C 12.5063 18.2607 14.5705 19.1297 16.8489 19.1297 C 19.1273 19.1297 21.1915 18.2607 22.6871 16.8553 C 24.1826 15.4518 25.1076 13.5117 25.1076 11.3715 C 25.1076 9.2312 24.1826 7.2911 22.6871 5.8876 C 21.1915 4.4822 19.1273 3.6132 16.8489 3.6132 Z "/>
    <path id="ID0.9001830890774727" fill="none" stroke="#000000" stroke-width="4.004241466522217" stroke-linecap="round" d="M 11.7935 8.5184 C 9.9576 7.2611 6.7362 4.1198 3.8411 2.5441 C 3.1143 2.1477 2.768 3.437 2.9842 3.8134 C 3.5228 4.8485 4.8422 5.0167 5.5869 5.8156 C 7.0465 7.3832 8.9625 10.5626 9.7914 10.5205 C 10.4341 10.6807 8.3218 6.7225 8.9345 6.0838 C 9.423 5.5733 12.4022 8.9589 11.7935 8.5184 Z "/>
    <path id="ID0.9226711289957166" fill="#000000" stroke="#663B00" stroke-width="3.800321824086353" d="M 16.9263 3.0293 C 14.5663 3.0293 12.4286 3.9338 10.8819 5.3969 C 9.3332 6.8581 8.3755 8.8761 8.3755 11.105 C 8.3755 13.3339 9.3332 15.3518 10.8819 16.8131 C 12.4286 18.2762 14.5663 19.1807 16.9263 19.1807 C 19.2863 19.1807 21.4239 18.2762 22.9707 16.8131 C 24.5193 15.3518 25.477 13.3339 25.477 11.105 C 25.477 8.8761 24.5193 6.8581 22.9707 5.3969 C 21.4239 3.9338 19.2863 3.0293 16.9263 3.0293 Z "/>
  </g>
</svg>