<svg xmlns="http://www.w3.org/2000/svg" xmlns:xlink="http://www.w3.org/1999/xlink" version="1.1" width="95.4297285079956" height="25.402525901794434" viewBox="0.5851366519927979 0.4372367858886719 95.4297285079956 25.402525901794434">
  <!-- Exported by Scratch - http://scratch.mit.edu/ -->
  <g id="ID0.9595028758049011">
    <path id="ID0.46980115957558155" fill="none" stroke="#000000" stroke-width="4.238726615905762" stroke-linecap="round" d="M 58.0461 17.872 L 61.755 23.7002 Z "/>
    <path id="ID0.3091262876987457" fill="#FFFFFF" stroke="#000000" stroke-width="4.238726615905762" stroke-linecap="round" d="M 59.4558 22.6607 L 92.3059 23.7204 L 93.8955 15.7728 L 89.1269 7.2953 L 82.239 4.1163 L 73.2317 3.0566 L 64.2244 6.2357 L 59.4558 12.5937 L 58.3961 18.422 Z "/>
    <path id="ID0.9226711289957166" fill="#000000" stroke="#663B00" stroke-width="3.413295269012451" d="M 76.2102 7.0581 C 78.3299 7.0581 80.2499 7.8705 81.6391 9.1846 C 83.03 10.497 83.8901 12.3095 83.8901 14.3114 C 83.8901 16.3133 83.03 18.1257 81.6391 19.4381 C 80.2499 20.7523 78.3299 21.5646 76.2102 21.5646 C 74.0906 21.5646 72.1706 20.7523 70.7814 19.4381 C 69.3905 18.1257 68.5303 16.3133 68.5303 14.3114 C 68.5303 12.3095 69.3905 10.497 70.7814 9.1846 C 72.1706 7.8705 74.0906 7.0581 76.2102 7.0581 Z "/>
    <path id="ID0.3091262876987457" fill="none" stroke="#000000" stroke-width="4.238726615905762" stroke-linecap="round" d="M 59.4558 22.6607 L 92.3059 23.7204 L 93.8955 15.7728 L 89.1269 7.2953 L 82.239 4.1163 L 73.2317 3.0566 L 64.2244 6.2357 L 59.4558 12.5937 L 58.3961 18.422 Z "/>
  </g>
  <g id="ID0.9595028758049011">
    <path id="ID0.46980115957558155" fill="none" stroke="#000000" stroke-width="4.238726615905762" stroke-linecap="round" d="M 38.5539 17.372 L 34.845 23.2002 Z "/>
    <path id="ID0.3091262876987457" fill="#FFFFFF" stroke="#000000" stroke-width="4.238726615905762" stroke-linecap="round" d="M 37.1442 22.1607 L 4.2941 23.2204 L 2.7045 15.2728 L 7.4731 6.7953 L 14.361 3.6163 L 23.3683 2.5566 L 32.3756 5.7357 L 37.1442 12.0937 L 38.2039 17.922 Z "/>
    <path id="ID0.9226711289957166" fill="#000000" stroke="#663B00" stroke-width="3.413295269012451" d="M 20.3898 6.5581 C 18.2701 6.5581 16.3501 7.3705 14.9609 8.6846 C 13.57 9.997 12.7099 11.8095 12.7099 13.8114 C 12.7099 15.8133 13.57 17.6257 14.9609 18.9381 C 16.3501 20.2523 18.2701 21.0646 20.3898 21.0646 C 22.5094 21.0646 24.4294 20.2523 25.8186 18.9381 C 27.2095 17.6257 28.0697 15.8133 28.0697 13.8114 C 28.0697 11.8095 27.2095 9.997 25.8186 8.6846 C 24.4294 7.3705 22.5094 6.5581 20.3898 6.5581 Z "/>
    <path id="ID0.3091262876987457" fill="none" stroke="#000000" stroke-width="4.238726615905762" stroke-linecap="round" d="M 37.1442 22.1607 L 4.2941 23.2204 L 2.7045 15.2728 L 7.4731 6.7953 L 14.361 3.6163 L 23.3683 2.5566 L 32.3756 5.7357 L 37.1442 12.0937 L 38.2039 17.922 Z "/>
  </g>
</svg>