<svg xmlns="http://www.w3.org/2000/svg" xmlns:xlink="http://www.w3.org/1999/xlink" version="1.1" width="87.6682858467102" height="25.492681980133057" viewBox="0.26585841178894043 0.4536583423614502 87.6682858467102 25.492681980133057">
  <!-- Exported by Scratch - http://scratch.mit.edu/ -->
  <g id="ID0.32962934812530875">
    <path id="ID0.6625482658855617" fill="#FFFFFF" stroke="#FFFFFF" stroke-width="2" stroke-linecap="round" d="M 31.2 23.8 L 2.7 22.55 L 2.7 12.3 L 5 8.1 L 8.95 5.35 L 13.45 3.4 L 20 3.85 L 26 7.15 L 30 11.55 L 31.7 17.55 L 31.2 23.8 Z "/>
    <g id="ID0.7384558152407408">
      <path id="ID0.9226711289957166" fill="#000000" stroke="#663B00" stroke-width="3.456744432449341" d="M 15.9432 8.6588 C 13.7966 8.6588 11.8522 9.4816 10.4453 10.8124 C 9.0367 12.1415 8.1656 13.9771 8.1656 16.0044 C 8.1656 18.0318 9.0367 19.8673 10.4453 21.1965 C 11.8522 22.5273 13.7966 23.35 15.9432 23.35 C 18.0899 23.35 20.0343 22.5273 21.4412 21.1965 C 22.8498 19.8673 23.7209 18.0318 23.7209 16.0044 C 23.7209 13.9771 22.8498 12.1415 21.4412 10.8124 C 20.0343 9.4816 18.0899 8.6588 15.9432 8.6588 Z "/>
      <path id="ID0.2959736557677388" fill="none" stroke="#000000" stroke-width="4.292683124542236" stroke-linecap="round" d="M 2.4122 21.139 L 2.6268 12.4464 L 4.8805 8.261 L 8.8512 5.4707 L 13.3585 3.539 L 19.9049 3.9683 L 25.9146 7.2951 L 29.8853 11.6951 L 31.6024 17.7049 L 31.3878 23.2854 "/>
    </g>
  </g>
  <g id="ID0.32962934812530875">
    <path id="ID0.6625482658855617" fill="#FFFFFF" stroke="#FFFFFF" stroke-width="2" stroke-linecap="round" d="M 57 23 L 85.5 21.75 L 85.5 11.5 L 83.2 7.3 L 79.25 4.55 L 74.75 2.6 L 68.2 3.05 L 62.2 6.35 L 58.2 10.75 L 56.5 16.75 L 57 23 Z "/>
    <g id="ID0.7384558152407408">
      <path id="ID0.9226711289957166" fill="#000000" stroke="#663B00" stroke-width="3.456744432449341" d="M 72.2568 7.8588 C 74.4034 7.8588 76.3478 8.6816 77.7547 10.0124 C 79.1633 11.3415 80.0344 13.1771 80.0344 15.2044 C 80.0344 17.2318 79.1633 19.0673 77.7547 20.3965 C 76.3478 21.7273 74.4034 22.55 72.2568 22.55 C 70.1101 22.55 68.1657 21.7273 66.7588 20.3965 C 65.3502 19.0673 64.4791 17.2318 64.4791 15.2044 C 64.4791 13.1771 65.3502 11.3415 66.7588 10.0124 C 68.1657 8.6816 70.1101 7.8588 72.2568 7.8588 Z "/>
      <path id="ID0.2959736557677388" fill="none" stroke="#000000" stroke-width="4.292683124542236" stroke-linecap="round" d="M 85.7878 20.339 L 85.5732 11.6464 L 83.3195 7.461 L 79.3488 4.6707 L 74.8415 2.739 L 68.2951 3.1683 L 62.2854 6.4951 L 58.3147 10.8951 L 56.5976 16.9049 L 56.8122 22.4854 "/>
    </g>
  </g>
</svg>