<svg xmlns="http://www.w3.org/2000/svg" xmlns:xlink="http://www.w3.org/1999/xlink" version="1.1" width="86.17919278144836" height="19.61648964881897" viewBox="1.9604052305221558 6.194904685020447 86.17919278144836 19.61648964881897">
  <!-- Exported by Scratch - http://scratch.mit.edu/ -->
  <g id="ID0.6190517898648977">
    <path id="ID0.9226711289957166" fill="#000000" stroke="#663B00" stroke-width="3.0073318481445312" d="M 71.0235 11.1629 C 72.891 11.1629 74.5826 11.8787 75.8066 13.0365 C 77.0321 14.1928 77.79 15.7897 77.79 17.5535 C 77.79 19.3173 77.0321 20.9142 75.8066 22.0705 C 74.5826 23.2283 72.891 23.9441 71.0235 23.9441 C 69.1559 23.9441 67.4643 23.2283 66.2403 22.0705 C 65.0148 20.9142 64.257 19.3173 64.257 17.5535 C 64.257 15.7897 65.0148 14.1928 66.2403 13.0365 C 67.4643 11.8787 69.1559 11.1629 71.0235 11.1629 Z "/>
    <path id="ID0.30083973752334714" fill="#000000" stroke="#000000" stroke-width="2.9329753594300265" stroke-linecap="round" d="M 56.3973 16.2026 L 61.7239 15.3292 L 71.3453 14.4792 L 79.7431 15.4274 L 86.2723 16.591 L 82.5575 12.961 L 73.231 11.1053 L 64.3602 11.2826 L 57.8137 13.2774 Z "/>
    <path id="ID0.45630025304853916" fill="none" stroke="#000000" stroke-width="3.7345898151397705" stroke-linecap="round" d="M 73.1959 8.4622 L 73.1959 8.4622 Z "/>
    <path id="ID0.9226711289957166" fill="#000000" stroke="#663B00" stroke-width="3.0073318481445312" d="M 19.5765 11.0129 C 17.709 11.0129 16.0174 11.7287 14.7934 12.8865 C 13.5679 14.0428 12.81 15.6397 12.81 17.4035 C 12.81 19.1673 13.5679 20.7642 14.7934 21.9205 C 16.0174 23.0783 17.709 23.7941 19.5765 23.7941 C 21.4441 23.7941 23.1357 23.0783 24.3597 21.9205 C 25.5852 20.7642 26.343 19.1673 26.343 17.4035 C 26.343 15.6397 25.5852 14.0428 24.3597 12.8865 C 23.1357 11.7287 21.4441 11.0129 19.5765 11.0129 Z "/>
    <path id="ID0.30083973752334714" fill="#000000" stroke="#000000" stroke-width="2.9329753594300265" stroke-linecap="round" d="M 33.7027 16.0026 L 28.3761 15.1292 L 18.7547 14.2792 L 10.3569 15.2274 L 3.8277 16.391 L 7.5425 12.761 L 16.869 10.9053 L 25.7398 11.0826 L 32.2863 13.0774 Z "/>
    <path id="ID0.45630025304853916" fill="none" stroke="#000000" stroke-width="3.7345898151397705" stroke-linecap="round" d="M 17.4041 8.0622 L 17.4041 8.0622 Z "/>
  </g>
</svg>