<svg xmlns="http://www.w3.org/2000/svg" xmlns:xlink="http://www.w3.org/1999/xlink" version="1.1" width="101.41841745376587" height="23.304209232330322" viewBox="-1.909204676747322 0.7595953941345215 101.41841745376587 23.304209232330322">
  <!-- Exported by Scratch - http://scratch.mit.edu/ -->
  <path id="ID0.9226711289957166" fill="#000000" stroke="#663B00" stroke-width="3.4423513412475586" d="M 73.5819 7.1964 C 75.7196 7.1964 77.656 8.0157 79.057 9.341 C 80.4597 10.6646 81.3272 12.4924 81.3272 14.5114 C 81.3272 16.5303 80.4597 18.3582 79.057 19.6818 C 77.656 21.0071 75.7196 21.8264 73.5819 21.8264 C 71.4442 21.8264 69.5079 21.0071 68.1069 19.6818 C 66.7041 18.3582 65.8366 16.5303 65.8366 14.5114 C 65.8366 12.4924 66.7041 10.6646 68.1069 9.341 C 69.5079 8.0157 71.4442 7.1964 73.5819 7.1964 Z "/>
  <path id="ID0.5639965198934078" fill="none" stroke="#000000" stroke-width="4.27480936050415" stroke-linecap="round" d="M 57.518 17.3244 L 63.3958 8.7748 L 73.5485 2.897 L 84.2355 2.897 L 90.6477 7.1718 L 92.2508 13.0496 L 92.7851 20.5305 "/>
  <path id="ID0.333406716119498" fill="none" stroke="#000000" stroke-width="4.27480936050415" stroke-linecap="round" d="M 89.3565 7.3851 L 96.3031 4.7134 Z "/>
  <path id="ID0.09422161988914013" fill="none" stroke="#000000" stroke-width="4.27480936050415" stroke-linecap="round" d="M 92.5626 12.7286 L 97.3718 12.7286 Z "/>
  <path id="ID0.9226711289957166" fill="#000000" stroke="#663B00" stroke-width="3.4423513412475586" d="M 24.0181 7.2964 C 21.8804 7.2964 19.944 8.1157 18.543 9.441 C 17.1403 10.7646 16.2728 12.5924 16.2728 14.6114 C 16.2728 16.6303 17.1403 18.4582 18.543 19.7818 C 19.944 21.1071 21.8804 21.9264 24.0181 21.9264 C 26.1558 21.9264 28.0921 21.1071 29.4931 19.7818 C 30.8959 18.4582 31.7634 16.6303 31.7634 14.6114 C 31.7634 12.5924 30.8959 10.7646 29.4931 9.441 C 28.0921 8.1157 26.1558 7.2964 24.0181 7.2964 Z "/>
  <path id="ID0.5639965198934078" fill="none" stroke="#000000" stroke-width="4.27480936050415" stroke-linecap="round" d="M 40.082 17.4244 L 34.2042 8.8748 L 24.0515 2.997 L 13.3645 2.997 L 6.9523 7.2718 L 5.3492 13.1496 L 4.8149 20.6305 "/>
  <path id="ID0.333406716119498" fill="none" stroke="#000000" stroke-width="4.27480936050415" stroke-linecap="round" d="M 8.2435 7.4351 L 1.2969 4.7634 Z "/>
  <path id="ID0.09422161988914013" fill="none" stroke="#000000" stroke-width="4.27480936050415" stroke-linecap="round" d="M 5.0374 12.7786 L 0.2282 12.7786 Z "/>
</svg>