<svg xmlns="http://www.w3.org/2000/svg" xmlns:xlink="http://www.w3.org/1999/xlink" version="1.1" width="90.62439799308777" height="23.229592084884644" viewBox="0.4377537965774536 0.8689538240432739 90.62439799308777 23.229592084884644">
  <!-- Exported by Scratch - http://scratch.mit.edu/ -->
  <g id="ID0.3532337094657123">
    <path id="ID0.9226711289957166" fill="#000000" stroke="#663B00" stroke-width="3.1340017318725586" d="M 19.8871 8.1331 C 17.9409 8.1331 16.178 8.879 14.9025 10.0856 C 13.6254 11.2906 12.8356 12.9547 12.8356 14.7928 C 12.8356 16.6309 13.6254 18.2951 14.9025 19.5001 C 16.178 20.7067 17.9409 21.4526 19.8871 21.4526 C 21.8333 21.4526 23.5962 20.7067 24.8717 19.5001 C 26.1488 18.2951 26.9386 16.6309 26.9386 14.7928 C 26.9386 12.9547 26.1488 11.2906 24.8717 10.0856 C 23.5962 8.879 21.8333 8.1331 19.8871 8.1331 Z "/>
    <path id="ID0.5639965198934078" fill="none" stroke="#000000" stroke-width="3.891892194747925" stroke-linecap="round" d="M 34.4918 17.2149 L 31.9621 12.5446 L 29.5297 8.5554 L 24.2756 3.7879 L 19.9945 2.8149 L 15.0324 2.8149 L 10.1675 4.0797 L 4.3297 7.9716 L 2.8702 13.323 L 2.3837 20.1338 "/>
  </g>
  <g id="ID0.3532337094657123">
    <path id="ID0.9226711289957166" fill="#000000" stroke="#663B00" stroke-width="3.1340017318725586" d="M 71.6129 8.8331 C 73.5591 8.8331 75.322 9.579 76.5975 10.7856 C 77.8746 11.9906 78.6644 13.6547 78.6644 15.4928 C 78.6644 17.3309 77.8746 18.9951 76.5975 20.2001 C 75.322 21.4067 73.5591 22.1526 71.6129 22.1526 C 69.6667 22.1526 67.9038 21.4067 66.6283 20.2001 C 65.3512 18.9951 64.5614 17.3309 64.5614 15.4928 C 64.5614 13.6547 65.3512 11.9906 66.6283 10.7856 C 67.9038 9.579 69.6667 8.8331 71.6129 8.8331 Z "/>
    <path id="ID0.5639965198934078" fill="none" stroke="#000000" stroke-width="3.8918919563293457" stroke-linecap="round" d="M 57.0081 17.9149 L 59.5378 13.2446 L 61.9703 9.2554 L 67.2243 4.4878 L 71.5054 3.5149 L 76.4676 3.5149 L 81.3324 4.7797 L 87.1703 8.6716 L 88.6297 14.023 L 89.1162 20.8338 "/>
  </g>
</svg>