<svg xmlns="http://www.w3.org/2000/svg" xmlns:xlink="http://www.w3.org/1999/xlink" version="1.1" width="103.37462387490118" height="50.90230331826055" viewBox="11.901786992908297 6.210839460254489 103.37462387490118 50.90230331826055">
  <!-- Exported by Scratch - http://scratch.mit.edu/ -->
  <g id="Layer_7">
    <path id="ID0.648050123360008" fill="#FFFFFF" stroke="#231F20" d="M 49.3123 32.1472 C 49.6191 45.2886 41.7662 55.5538 31.7904 55.0699 C 21.8023 54.5951 13.4634 43.5458 13.1587 30.4059 C 12.8476 17.2616 20.6914 6.9961 30.6769 7.4749 C 40.6631 7.9571 49.0017 18.9975 49.3123 32.1472 Z " stroke-width="2.4959388773425846"/>
    <path id="ID0.12803860753774643" fill="#231F20" d="M 37.5974 41.2795 C 36.1527 43.4304 33.2547 44.0132 31.108 42.5713 C 28.9741 41.1381 28.403 38.2194 29.845 36.0725 C 31.2883 33.9236 34.2049 33.3503 36.3387 34.7836 C 38.4812 36.2226 39.0407 39.1306 37.5974 41.2795 " stroke-width="2.4959388773425846"/>
  </g>
  <g id="Layer_7">
    <path id="ID0.648050123360008" fill="#FFFFFF" stroke="#231F20" d="M 78.0846 34.3422 C 78.8592 47.4643 87.5295 57.0491 97.4318 55.7467 C 107.347 54.4523 114.7492 42.7548 113.9725 29.6343 C 113.202 16.5089 104.5407 6.9231 94.6284 8.2212 C 84.7156 9.5229 77.313 21.2115 78.0846 34.3422 Z " stroke-width="2.4959388187673293"/>
    <path id="ID0.12803860753774643" fill="#231F20" d="M 90.5106 42.4804 C 92.1272 44.5052 95.0633 44.8478 97.0843 43.2343 C 99.0931 41.6305 99.4223 38.6747 97.8087 36.6536 C 96.1936 34.6307 93.2398 34.2991 91.231 35.9029 C 89.2141 37.5132 88.8955 40.4574 90.5106 42.4804 " stroke-width="2.4959388187673293"/>
  </g>
</svg>