<svg xmlns="http://www.w3.org/2000/svg" xmlns:xlink="http://www.w3.org/1999/xlink" version="1.1" width="93.75590507986475" height="20.949005055450684" viewBox="1.0970473647001948 0.49034742115771435 93.75590507986475 20.949005055450684">
  <!-- Exported by Scratch - http://scratch.mit.edu/ -->
  <g id="ID0.6509060664102435">
    <path id="ID0.4850202314555645" fill="#FFFFFF" stroke="#000000" stroke-width="3.8554909229278564" stroke-linecap="round" d="M 63.8979 2.5292 L 81.4404 2.5292 L 89.9225 4.8425 L 92.8141 10.6257 L 90.1153 15.6378 L 83.1754 19.1078 L 71.0306 19.3005 L 61.681 16.2162 L 60.2352 9.8546 L 61.1991 5.8063 Z "/>
    <g id="ID0.6876808349043131">
      <path id="ID0.18508467869833112" fill="#663B00" stroke="#663B00" stroke-width="4.077705311798341" d="M 75.7624 3.1862 C 77.7588 3.1091 79.9138 3.4233 81.552 4.4391 C 82.7485 5.1813 83.7135 6.4902 83.6963 7.8607 C 83.6706 9.5532 82.7957 11.2823 81.3397 12.4601 C 79.8838 13.6379 77.8745 14.3665 75.6552 14.3665 C 73.4358 14.3665 71.4266 13.6379 69.9707 12.4601 C 68.5147 11.2823 67.6269 9.5532 67.6141 7.8607 C 67.6034 6.4131 68.8621 5.0348 70.1872 4.2464 C 71.7997 3.2864 73.8561 3.0416 75.7624 3.1862 Z "/>
      <path id="ID0.18508467869833112" fill="#000000" stroke="#000000" stroke-width="2.349319593056876" d="M 75.5354 4.8769 C 76.7512 4.8769 77.8519 5.3209 78.6495 6.0386 C 79.4471 6.7564 79.9404 7.7478 79.9404 8.8414 C 79.9404 9.935 79.4471 10.9264 78.6495 11.6441 C 77.8519 12.3618 76.7512 12.8059 75.5354 12.8059 C 74.3197 12.8059 73.219 12.3618 72.4214 11.6441 C 71.6238 10.9264 71.1305 9.935 71.1305 8.8414 C 71.1305 7.7478 71.6238 6.7564 72.4214 6.0386 C 73.219 5.3209 74.3197 4.8769 75.5354 4.8769 Z "/>
    </g>
    <path id="ID0.4850202314555645" fill="none" stroke="#000000" stroke-width="3.8554909229278564" stroke-linecap="round" d="M 63.2232 2.5292 L 80.7657 2.5292 L 89.2478 4.8425 L 92.1394 10.6257 L 89.4406 15.6378 L 82.5007 19.1078 L 70.3559 19.3005 L 61.0063 16.2162 L 59.5605 9.8546 L 60.5244 5.8063 Z "/>
    <path id="ID0.8654000656679273" fill="none" stroke="#000000" stroke-width="3.8554909229278564" stroke-linecap="round" d="M 60.5244 5.8063 L 62.9341 3.3966 Z "/>
  </g>
  <g id="ID0.6509060664102435">
    <path id="ID0.4850202314555645" fill="#FFFFFF" stroke="#000000" stroke-width="3.8554909229278564" stroke-linecap="round" d="M 32.0521 2.6292 L 14.5096 2.6292 L 6.0275 4.9425 L 3.1359 10.7257 L 5.8347 15.7378 L 12.7746 19.2078 L 24.9194 19.4005 L 34.269 16.3162 L 35.7148 9.9546 L 34.7509 5.9063 Z "/>
    <g id="ID0.6876808349043131">
      <path id="ID0.18508467869833112" fill="#663B00" stroke="#663B00" stroke-width="4.077705311798341" d="M 20.1876 3.2862 C 18.1912 3.2091 16.0362 3.5233 14.398 4.5391 C 13.2015 5.2813 12.2365 6.5902 12.2537 7.9607 C 12.2794 9.6532 13.1543 11.3823 14.6103 12.5601 C 16.0662 13.7379 18.0755 14.4665 20.2948 14.4665 C 22.5142 14.4665 24.5234 13.7379 25.9793 12.5601 C 27.4353 11.3823 28.3231 9.6532 28.3359 7.9607 C 28.3466 6.5131 27.0879 5.1348 25.7628 4.3464 C 24.1503 3.3864 22.0939 3.1416 20.1876 3.2862 Z "/>
      <path id="ID0.18508467869833112" fill="#000000" stroke="#000000" stroke-width="2.349319593056876" d="M 20.4146 4.9769 C 19.1988 4.9769 18.0981 5.4209 17.3005 6.1386 C 16.5029 6.8564 16.0096 7.8478 16.0096 8.9414 C 16.0096 10.035 16.5029 11.0264 17.3005 11.7441 C 18.0981 12.4618 19.1988 12.9059 20.4146 12.9059 C 21.6303 12.9059 22.731 12.4618 23.5286 11.7441 C 24.3262 11.0264 24.8195 10.035 24.8195 8.9414 C 24.8195 7.8478 24.3262 6.8564 23.5286 6.1386 C 22.731 5.4209 21.6303 4.9769 20.4146 4.9769 Z "/>
    </g>
    <path id="ID0.4850202314555645" fill="none" stroke="#000000" stroke-width="3.8554909229278564" stroke-linecap="round" d="M 32.7268 2.6292 L 15.1843 2.6292 L 6.7022 4.9425 L 3.8106 10.7257 L 6.5094 15.7378 L 13.4493 19.2078 L 25.5941 19.4005 L 34.9437 16.3162 L 36.3895 9.9546 L 35.4256 5.9063 Z "/>
    <path id="ID0.8654000656679273" fill="none" stroke="#000000" stroke-width="3.8554909229278564" stroke-linecap="round" d="M 35.4256 5.9063 L 33.0159 3.4966 Z "/>
  </g>
</svg>