<svg version="1.1" xmlns="http://www.w3.org/2000/svg" xmlns:xlink="http://www.w3.org/1999/xlink" width="52.10573" height="48.49892" viewBox="0,0,52.10573,48.49892"><g transform="translate(-237.76125,-201.32763)"><g data-paper-data="{&quot;isPaintingLayer&quot;:true}" fill="#ff0000" fill-rule="nonzero" stroke="#ffcccc" stroke-linejoin="miter" stroke-miterlimit="10" stroke-dasharray="" stroke-dashoffset="0" style="mix-blend-mode: normal"><g><g stroke-width="1.65842" stroke-linecap="round"><path d="M288.3447,221.5167l-22.8944,4.5737l7.6195,-23.0768z"/><path d="M239.3055,228.6286l24.2667,-1.3109l-10.409,20.8979z"/></g><path d="M261.7671,222.7207c1.3377,-1.0231 2.8475,-1.5628 4.2049,-1.6068c1.3584,-0.0447 2.5637,0.4055 3.295,1.3617c0.7313,0.9561 0.8502,2.2373 0.4514,3.5365c-0.3979,1.2986 -1.3141,2.6144 -2.6519,3.6375c-1.3377,1.0231 -2.8475,1.5629 -4.2049,1.6068c-1.3584,0.0447 -2.5637,-0.4054 -3.295,-1.3616c-0.7313,-0.9562 -0.8502,-2.2373 -0.4514,-3.5366c0.3979,-1.2985 1.3142,-2.6143 2.6519,-3.6375z" stroke-width="2.32617" stroke-linecap="butt"/></g></g></g></svg>