<svg version="1.1" xmlns="http://www.w3.org/2000/svg" xmlns:xlink="http://www.w3.org/1999/xlink" width="52.6745" height="47.22597" viewBox="0,0,52.6745,47.22597"><g transform="translate(-218.91275,-179.09692)"><g data-paper-data="{&quot;isPaintingLayer&quot;:true}" fill="#000000" fill-rule="nonzero" stroke="#666666" stroke-linecap="round" stroke-linejoin="miter" stroke-miterlimit="10" stroke-dasharray="" stroke-dashoffset="0" style="mix-blend-mode: normal"><path d="M228.3912,198.5773l0.0267,-5.8919l0.6674,-3.5049l1.4282,-2.6145l0.9878,-2.3113l1.4282,-1.2788l1.6685,-1.1841l2.3226,-1.042l1.4816,-0.5683l2.3493,-0.4736l1.6284,-0.1895l1.1346,-0.1895l1.8154,0.0474l1.9354,0.2558l1.6018,0.0568l1.6018,0.2179l1.2146,0.2084l1.6018,0.322l1.3348,0.4737l1.0945,0.701l0.8143,0.5588l1.0144,0.5684l1.0145,0.8525l0.7341,0.8999l0.8276,1.2788l1.6685,2.605l1.0011,4.0259l0.2269,3.9785l-1.6018,6.8677l-1.0545,1.9703l-1.3214,1.6577l0.8543,-5.551l-0.5874,-4.3574l-1.1879,4.9258l-0.6274,1.885l-2.109,2.4724l0.5873,-1.7051l0.6941,-7.6918l0.2803,-2.8797l-0.614,-2.2923l-1.2146,-1.7525l0.1735,1.9703l-0.2269,1.4399l-0.4405,1.2788l-1.2147,0.8999l0.0534,-1.1178l-0.4939,-1.5914l-1.6017,-1.8661l-1.3882,-1.2314l-1.0545,-0.6347l-0.0534,0.1042l0.7742,1.4872l1.3882,1.5535l0.8809,1.0136l-1.9354,-0.0569l-1.6018,-1.1177l1.4416,2.6618l1.495,1.383l1.4282,1.0704l0.8276,0.9567l-2.376,0.5305l-2.8164,0.1137l-2.5361,-0.8715l-1.6552,-1.4399l-1.7753,-1.6577l1.4416,3.3155l-3.4304,-1.762l-1.6552,-2.4344l-0.5606,-1.9893l-0.2136,-0.9378l0.1068,-0.9946l0.2136,-0.8904l0.614,-1.6009l-1.9355,3.0976l-0.4671,1.8471l-0.4939,2.3966l-0.2803,3.7891l1.9221,7.417l-1.7887,-0.9472l-1.1879,-1.1368l-0.8276,-1.8945l-0.3604,-0.7578l-0.7074,-3.3154l-0.2403,5.7783l-0.1068,2.766l-1.6018,-1.3356l-1.0545,-1.4399l-0.6807,-2.3587z" stroke-width="0.46295"/><path d="M264.4678,186.2395l2.538,-0.6633h1.768l1.3308,0.5528l0.5513,1.5477l0.6654,2.3215l-0.7129,4.9747l0.5608,3.8693l-0.2282,3.8692l-0.6273,3.3165l-3.5931,8.844l-0.6654,3.9797l0.7985,2.6532l-0.5323,3.0954l-0.6654,-3.0954l-2.2623,-2.8743l-1.5969,-4.643l0.2281,-5.7644l0.8365,-7.2805l-0.3327,-5.1958l-1.1311,-2.7638l-0.5323,-0.5527l-0.6654,-2.9848l1.5969,-1.3266z" stroke-width="0.52136"/><path d="M228.7032,188.4689l1.5969,1.3266l-0.6654,2.9848l-0.5323,0.5527l-1.1311,2.7638l-0.3327,5.1958l0.8365,7.2805l0.2281,5.7644l-1.5969,4.643l-2.2623,2.8743l-0.6654,3.0954l-0.5323,-3.0954l0.7985,-2.6532l-0.6654,-3.9797l-3.5931,-8.844l-0.6273,-3.3165l-0.2282,-3.8692l0.5608,-3.8693l-0.7129,-4.9747l0.6654,-2.3215l0.5513,-1.5477l1.3308,-0.5528h1.768l2.538,0.6633z" stroke-width="0.52136"/></g></g></svg>