<svg version="1.1" xmlns="http://www.w3.org/2000/svg" xmlns:xlink="http://www.w3.org/1999/xlink" width="36.6679" height="41.43834" viewBox="0,0,36.6679,41.43834"><g transform="translate(-227.57986,-126.0279)"><g data-paper-data="{&quot;isPaintingLayer&quot;:true}" fill="#000000" fill-rule="nonzero" stroke="#000000" stroke-width="0.44853" stroke-linecap="round" stroke-linejoin="miter" stroke-miterlimit="10" stroke-dasharray="" stroke-dashoffset="0" style="mix-blend-mode: normal"><path d="M248.5492,138.9801l-1.4017,1.3456l-1.3456,1.0652l-1.4016,1.1214l-1.626,1.2895l-1.6259,1.5138l-1.7381,1.2334l-1.5137,0.8971l-2.1866,0.9531l-1.7942,0.5607l-2.2987,0.9531l0.8971,4.5975l2.579,4.7096l4.2611,5.0459l2.0184,2.9155l-3.5883,-0.4485l-1.2334,-0.5607l-1.1774,-0.841l-0.9532,-0.841l-1.1774,-1.1774l-1.1774,-1.4017l-0.9531,-1.4577l-0.7288,-1.1213l-0.6728,-1.4017l-0.5607,-1.1774l-0.3364,-1.0092l-0.1682,-0.9531l-0.2243,-1.3456l-0.056,-1.1213l-0.2804,-1.5699l-0.1121,-1.738l-0.0561,-1.4017l-0.1121,-1.9063l0.1121,-1.5698l0.1122,-1.2335l0.2803,-1.0652l0.3925,-1.3456l0.4485,-1.0653l0.5607,-1.3456l0.6728,-1.2334l0.6728,-1.1774l0.7288,-1.1774l0.7289,-0.9532l1.0092,-1.0652l1.0092,-1.1774l1.4016,-1.2895l1.626,-1.1214l1.2334,-0.7288l1.5699,-0.785l1.5138,-0.4485l1.4016,-0.4485l2.5791,-0.2243l1.9623,0.1682l1.6259,0.2803l2.0184,0.6728l1.682,0.785l1.7941,1.2334l1.1774,1.1774l0.9532,1.1213l1.1213,1.2896l1.1213,1.682l0.6728,1.1213l1.0092,1.6259l0.5607,1.2895l0.841,2.0184l0.6167,2.2427l0.2803,1.7941l0.2804,1.4017l0.2803,1.5698l0.1121,1.7942l0.0561,0.1682v2.8033l-0.0561,2.0744l-0.5046,2.4109l-0.7849,1.7381l-1.0092,1.8501l-2.0184,2.9155l-0.897,1.2895l-1.1214,1.0092l-1.1774,0.5607l-1.4016,0.5046l-3.8125,0.1121l1.682,-2.579l3.2518,-3.5883l2.3548,-5.2702l1.682,-5.8309l-2.1305,-2.1866l-1.7942,-2.2427l-1.4016,-1.738l-1.0092,-1.3456l-1.0092,-1.5699l-1.7381,-3.1397z"/></g></g></svg>