<svg version="1.1" xmlns="http://www.w3.org/2000/svg" xmlns:xlink="http://www.w3.org/1999/xlink" width="41.382" height="41.01266" viewBox="0,0,41.382,41.01266"><g transform="translate(-225.2456,-182.01325)"><g data-paper-data="{&quot;isPaintingLayer&quot;:true}" fill="#000000" fill-rule="nonzero" stroke="#000000" stroke-width="0.47848" stroke-linecap="round" stroke-linejoin="miter" stroke-miterlimit="10" stroke-dasharray="" stroke-dashoffset="0" style="mix-blend-mode: normal"><path d="M237.3718,220.5646l-9.7776,-0.3375l-2.0338,1.1251l0.7832,-4.8381l0.6821,-8.326l0.6696,-6.7508l0.7832,-6.0758l0.6821,-3.8254l1.6928,-3.3755l3.1581,-2.4753l2.2107,-1.1813l3.5371,-1.4627l4.674,-0.7876l3.7266,0.225l3.9793,0.7313l4.0297,1.2377l3.0318,1.9127l2.7034,3.8255l1.0106,5.4007l1.0106,10.1262l0.6822,4.6131l0.3284,3.3754l1.3643,8.776l-2.2991,-1.7439l-9.2975,-0.0563l1.7938,-7.5384l0.7958,-4.7256l0.1011,-11.3639h-22.827l-0.6821,8.326l0.5684,6.5258z"/></g></g></svg>