<svg version="1.1" xmlns="http://www.w3.org/2000/svg" xmlns:xlink="http://www.w3.org/1999/xlink" width="40.62508" height="43.89658" viewBox="0,0,40.62508,43.89658"><g transform="translate(-225.33549,-234.10712)"><g data-paper-data="{&quot;isPaintingLayer&quot;:true}" fill="#000000" fill-rule="nonzero" stroke="#000000" stroke-linecap="round" stroke-linejoin="miter" stroke-miterlimit="10" stroke-dasharray="" stroke-dashoffset="0" style="mix-blend-mode: normal"><g><path d="M229.9953,258.8671l-2.3765,-3.9609l-1.7824,-2.1784l2.1785,-2.9706l1.5843,-3.7628l1.9805,-4.1589l2.5745,-3.3667l5.9413,-3.3667l6.7334,-0.5942l6.5354,1.7824l4.3569,3.1687l3.1687,3.7628l2.3765,7.9216l2.1784,1.7824l-1.7824,2.9707l-2.9706,3.1686l-4.1589,-3.9608l-4.3569,-5.1491l-3.5647,-5.5452l-2.9707,4.3569l-2.5745,2.7726l-3.5648,2.1785l0.3961,-4.753z" stroke-width="0.79217"/><path d="M259.8267,254.4456l1.508,3.7104l2.6229,2.4222l-2.9787,6.2211l0.1605,4.0361l-1.1467,5.3708l-2.4304,-2.4688l-1.4598,2.3903l1.0136,-6.7648l1.7581,-3.6849l0.4762,-5.6162l-0.8776,-4.474z" stroke-width="0.79217"/><path d="M233.4772,255.2378l-0.8776,4.474l0.4762,5.6162l1.758,3.6849l1.0136,6.7648l-1.4597,-2.3903l-2.4304,2.4688l-1.1468,-5.3708l0.1606,-4.0361l-2.9787,-6.2211l2.6229,-2.4222l1.508,-3.7104z" stroke-width="0.79217"/><path d="M231.485,257.743l-1.1926,1.7348l-0.8132,-3.7948l2.7106,-3.2527l1.7889,1.1927z" stroke-width="0.43369"/><path d="M261.6263,257.0509l-1.1927,0.8674l-0.4879,-0.3795l-1.9516,-1.8432l-0.7047,-1.1384l2.8732,-1.5721z" stroke-width="0.43369"/></g></g></g></svg>