<svg version="1.1" xmlns="http://www.w3.org/2000/svg" xmlns:xlink="http://www.w3.org/1999/xlink" width="40.91959" height="37.62625" viewBox="0,0,40.91959,37.62625"><g transform="translate(-353.91521,-127.92404)"><g data-paper-data="{&quot;isPaintingLayer&quot;:true}" fill-rule="nonzero" stroke="#000000" stroke-linejoin="miter" stroke-miterlimit="10" stroke-dasharray="" stroke-dashoffset="0" style="mix-blend-mode: normal"><g><path d="M362.3031,144.7861l-1.5111,2.4471l-2.1558,1.6l0.8454,-3.4824l0.8454,-3.953l0.5284,-3.4825l1.3209,-2.5412l0.5918,-2.353l2.5467,-2.2588l2.9165,-1.7883l4.0473,-0.8471l3.5718,0.4706l3.6774,0.8471l3.857,2.0706l2.0395,3.0118l1.3209,2.5883l0.7926,4.0001l1.025,3.4824l0.465,1.7883l0.2853,1.6941l0.2853,1.9766l-1.7859,-1.6942l-1.1307,-2.0706l-2.05,-4.0001l-1.3738,1.4588l-1.8492,-4.9412l-2.272,3.8118l-2.8532,-4.4236l-2.2191,4.5648l-2.4305,-4.3766l-2.272,4.0942l-2.0077,-2.8235l-1.955,4.0471l-2.0606,-2.2118z" fill="#000000" stroke-width="0.40025" stroke-linecap="round"/><g><path d="M389.9798,137.0874h-0.4034l2.2858,0.9412l2.4202,3.6304l0.2689,22.4542l-1.479,-3.0925l-1.2101,2.958l-0.4034,-2.4202l-0.9412,2.4202l0.4034,-11.8321l-0.8068,-12.1011l-2.1513,-1.2101l-0.8067,-1.479l2.2858,-0.4034z" fill="#000000" stroke-width="0.53783" stroke-linecap="round"/><path d="M386.507,136.4212h0.8471v2.0706h-0.8471z" fill="#001966" stroke-width="0.37648" stroke-linecap="butt"/></g><g><path d="M359.308,136.353l2.2858,0.4034l-0.8067,1.479l-2.1513,1.2101l-0.8068,12.1011l0.4034,11.8321l-0.9412,-2.4202l-0.4034,2.4202l-1.2101,-2.958l-1.479,3.0925l0.2689,-22.4542l2.4202,-3.6304l2.2858,-0.9412h-0.4034z" fill="#000000" stroke-width="0.53783" stroke-linecap="round"/><path d="M362.243,137.8918h-0.8471v-2.0706h0.8471z" fill="#001966" stroke-width="0.37648" stroke-linecap="butt"/></g></g></g></g></svg>