<svg version="1.1" xmlns="http://www.w3.org/2000/svg" xmlns:xlink="http://www.w3.org/1999/xlink" width="38.43721" height="47.02666" viewBox="0,0,38.43721,47.02666"><g transform="translate(-291.04315,-232.35063)"><g data-paper-data="{&quot;isPaintingLayer&quot;:true}" fill="#000000" fill-rule="nonzero" stroke="#000000" stroke-width="0.78711" stroke-linecap="round" stroke-linejoin="miter" stroke-miterlimit="10" stroke-dasharray="" stroke-dashoffset="0" style="mix-blend-mode: normal"><path d="M299.3738,269.2618l-2.0352,3.4164l2.6457,2.2776l-2.0351,3.2266l-0.2035,-2.2776l-3.2563,-2.847l1.4246,-3.0368l-3.4597,-5.1245l-1.0176,-7.592v-4.3654l0.4071,-3.4164l2.4421,-3.7959l2.8492,-3.2266l2.8492,-3.0368l1.2211,-6.0736l5.9019,2.2776l4.0703,-2.847l4.6808,2.847l3.8668,-2.0878l1.4246,5.8838l2.0351,1.898l2.6457,2.847l2.0351,3.796l1.2211,3.6061v4.5552l-1.6281,3.9858l0.814,3.6062l-0.6105,2.6571l-1.2211,2.0878l-1.0175,0.949l1.221,3.0368l-2.6456,3.0368l-0.6106,2.4674l-2.0351,-2.2776l3.0527,-2.847l-2.4422,-3.4164l2.8492,-5.5041l0.407,-4.9348l-5.2506,-3.1507l-4.111,-3.5302l-4.0296,-4.0238l-3.9889,-4.5172l-3.5818,6.1115l-2.2387,3.6062l-3.6632,3.6062l-4.2738,3.2266l1.8316,3.9858z"/></g></g></svg>