<svg version="1.1" xmlns="http://www.w3.org/2000/svg" xmlns:xlink="http://www.w3.org/1999/xlink" width="54.35421" height="42.95316" viewBox="0,0,54.35421,42.95316"><g transform="translate(-347.09789,-180.03576)"><g data-paper-data="{&quot;isPaintingLayer&quot;:true}" fill-rule="nonzero" stroke="#666666" stroke-linejoin="miter" stroke-miterlimit="10" stroke-dasharray="" stroke-dashoffset="0" style="mix-blend-mode: normal"><path d="M357.6003,200.0776l-0.5646,-3.6144v-4.5345l0.3764,-4.3373l2.0325,-2.7602l1.8067,-1.4786l2.5594,-1.3472l4.8554,-1.3801l4.7802,0.2629l6.2856,-0.4929l3.8392,1.8072l3.3875,2.6287l1.6938,2.8587l1.2044,2.4973l1.1292,3.1216v3.943l-1.5056,3.4502l-0.2258,0.5586l-1.0539,0.46l-1.0163,-0.3615l-1.5432,-1.5772l-0.6022,-1.5772l-0.8657,-1.8729l-0.7904,-2.1359l-4.2908,-4.3373l-4.8178,-1.1501l-0.7904,-7.1303l-0.3388,5.7174l-0.0752,1.5115l-3.0488,1.3472l-3.7262,3.3516l-3.7263,4.5674l-0.7904,1.7743l-0.6775,1.8073l-0.7151,0.6571l-0.8657,0.0986l-0.7152,-0.0328l-0.414,-0.3943z" fill="#000000" stroke-width="0.7066" stroke-linecap="round"/><g><path d="M359.6847,199.8137l0.7352,0.9084l0.2548,4.377l0.3725,1.7435l1.8723,3.2575l2.3821,3.3676l-0.8234,0.2018l-3.8231,0.3671l-3.1368,-1.2847l-1.9605,-2.2022l-1.1763,-2.8446l0.098,-3.5786l2.0585,-2.5693z" fill="#000000" stroke-width="0.37978" stroke-linecap="round"/><path d="M357.032,211.4588c1.2294,0 2.3433,0.3609 3.1501,0.9438c0.8065,0.5831 1.3058,1.3884 1.3058,2.2769c0,0.8885 -0.4993,1.6938 -1.3058,2.2769c-0.8068,0.5829 -1.9207,0.9438 -3.1501,0.9438c-1.2293,0 -2.3432,-0.3609 -3.15,-0.9438c-0.8065,-0.5831 -1.3058,-1.3884 -1.3058,-2.2769c0,-0.8885 0.4993,-1.6938 1.3058,-2.2769c0.8068,-0.5829 1.9207,-0.9438 3.15,-0.9438z" fill="#000000" stroke-width="0.43705" stroke-linecap="butt"/><path d="M347.3609,220.4226l0.564,-1.9007l2.2562,-2.5344l1.9177,-0.528l3.3842,0.4224l2.5946,0.8448l1.5793,1.584l0.4512,1.4783l-1.0153,2.4287l-3.0457,-0.3167l0.9024,-2.9568l-1.3537,3.6959l-3.9482,-0.7391l-0.7897,-0.7392l1.5793,-2.9567l-1.6921,2.9567h-1.8049z" fill="#000000" stroke-width="0.43705" stroke-linecap="round"/><path d="M358.4428,211.4308l1.1281,-2.5343" fill="none" stroke-width="0.43705" stroke-linecap="round"/></g><g><path d="M392.012,201.7072l2.0585,2.5693l0.098,3.5786l-1.1763,2.8446l-1.9605,2.2022l-3.1368,1.2847l-3.8231,-0.3671l-0.5489,0.2019l1.8723,-3.2483l1.1273,-2.8721l0.9999,-2.8813l0.4999,-4.6247l0.843,-0.4313z" fill="#000000" stroke-width="0.37978" stroke-linecap="round"/><path d="M394.718,212.5026c0.8065,0.5831 1.3058,1.3884 1.3058,2.2769c0,0.8885 -0.4993,1.6938 -1.3058,2.2769c-0.8068,0.5829 -1.9207,0.9438 -3.15,0.9438c-1.2294,0 -2.3433,-0.3609 -3.1501,-0.9438c-0.8065,-0.5831 -1.3058,-1.3884 -1.3058,-2.2769c0,-0.8885 0.4993,-1.6938 1.3058,-2.2769c0.8068,-0.5829 1.9207,-0.9438 3.1501,-0.9438c1.2293,0 2.3432,0.3609 3.15,0.9438z" fill="#000000" stroke-width="0.43705" stroke-linecap="butt"/><path d="M399.6098,221.2618h-1.8049l-1.6921,-2.9567l1.5793,2.9567l-0.7897,0.7392l-3.9482,0.7391l-1.3537,-3.6959l0.9024,2.9568l-3.0457,0.3167l-1.0153,-2.4287l0.4512,-1.4783l1.5793,-1.584l2.5946,-0.8448l3.3842,-0.4224l1.9177,0.528l2.2562,2.5344l0.564,1.9007z" fill="#000000" stroke-width="0.43705" stroke-linecap="round"/><path d="M390.1572,211.5308l-1.1281,-2.5343" fill="none" stroke-width="0.43705" stroke-linecap="round"/></g></g></g></svg>