<svg version="1.1" xmlns="http://www.w3.org/2000/svg" xmlns:xlink="http://www.w3.org/1999/xlink" width="33.83377" height="39.50179" viewBox="0,0,33.83377,39.50179"><g transform="translate(-422.99101,-126.47288)"><g data-paper-data="{&quot;isPaintingLayer&quot;:true}" fill="#000000" fill-rule="nonzero" stroke="#000000" stroke-width="0.43305" stroke-linecap="round" stroke-linejoin="miter" stroke-miterlimit="10" stroke-dasharray="" stroke-dashoffset="0" style="mix-blend-mode: normal"><path d="M426.882,162.0766l-2.2409,3.2586l-1.4291,-4.2769l0.4687,-3.7168l0.1143,-2.8513l0.1258,-9.012l0.5031,-6.9244l0.6173,-3.4623l1.5321,-3.0549l2.8582,-2.2402l2.0008,-1.0693l3.2013,-1.3237l4.2302,-0.7129l3.3727,0.2037l3.6014,0.6619l3.6472,1.1201l2.7439,1.7311l2.4467,3.4623l0.9146,4.8878l0.6174,16.1911l0.4002,7.3318l-0.1944,3.2585l-2.2409,-1.8329l-1.6349,-2.4439l-1.0175,-2.6476l-0.9261,-18.5332l-0.7089,-0.7128l-1.8292,-0.7128l1.4291,4.9897l-5.9109,-5.7025l1.532,5.6007l-6.4253,-5.6007l2.1379,5.6007l-7.6258,-4.6842l2.5381,5.1933l-6.9284,-4.4805l0.1143,13.1361l-0.6173,4.8879z"/></g></g></svg>