<svg version="1.1" xmlns="http://www.w3.org/2000/svg" xmlns:xlink="http://www.w3.org/1999/xlink" width="56.18766" height="53.97423" viewBox="0,0,56.18766,53.97423"><g transform="translate(-236.05617,-120)"><g data-paper-data="{&quot;isPaintingLayer&quot;:true}" fill-rule="nonzero" stroke="#666666" stroke-linejoin="miter" stroke-miterlimit="10" stroke-dasharray="" stroke-dashoffset="0" style="mix-blend-mode: normal"><g><path d="M264.15,157.0018c7.6044,0 14.4951,0.9212 19.4844,2.4094c4.9894,1.4881 8.0781,3.5433 8.0781,5.8111c0,2.2679 -3.0887,4.323 -8.0781,5.8112c-4.9893,1.4882 -11.88,2.4094 -19.4844,2.4094c-7.6044,0 -14.4951,-0.9212 -19.4844,-2.4094c-4.9894,-1.4882 -8.0781,-3.5433 -8.0781,-5.8112c0,-2.2678 3.0887,-4.323 8.0781,-5.8111c4.9893,-1.4882 11.88,-2.4094 19.4844,-2.4094z" fill="#000000" stroke-width="1.06266" stroke-linecap="butt"/><path d="M263.8563,120.5625c4.7334,0 9.0224,0.7881 12.128,2.061c3.1056,1.2724 5.0282,3.0302 5.0282,4.9703c0,1.94 -1.9226,3.6978 -5.0282,4.9702c-3.1056,1.2729 -7.3946,2.061 -12.128,2.061c-4.7335,0 -9.0226,-0.7881 -12.1281,-2.061c-3.1056,-1.2724 -5.0282,-3.0302 -5.0282,-4.9702c0,-1.9401 1.9226,-3.6979 5.0282,-4.9703c3.1055,-1.2729 7.3946,-2.061 12.1281,-2.061z" fill="#000000" stroke-width="1.125" stroke-linecap="butt"/><path d="M257.6687,134.625l10.9688,0.2813l7.875,-2.25l4.7813,-4.5l-0.8438,35.4375l-4.2187,1.4062l-12.0938,0.5625l-10.4063,-0.8437l-6.75,-1.4063l-0.2812,-35.7187l3.6562,4.7812z" fill="#000000" stroke-width="1.125" stroke-linecap="round"/><path d="M247.5437,163.875l-0.2812,-5.9062l15.75,1.4062l10.6875,-0.2812l7.0313,-1.125l-0.5625,5.9062l-7.875,1.125l-10.4063,0.2813l-6.4688,-0.2813z" fill="#cccccc" stroke-width="1.125" stroke-linecap="round"/></g></g></g></svg>