<svg version="1.1" xmlns="http://www.w3.org/2000/svg" xmlns:xlink="http://www.w3.org/1999/xlink" width="51.63437" height="46.36557" viewBox="0,0,51.63437,46.36557"><g transform="translate(-214.18281,-156.81722)"><g data-paper-data="{&quot;isPaintingLayer&quot;:true}" fill-rule="nonzero" stroke-linejoin="miter" stroke-miterlimit="10" stroke-dasharray="" stroke-dashoffset="0" style="mix-blend-mode: normal"><path d="M240,158.66131c6.6139,0 12.6072,2.391 16.9471,6.2541c4.3399,3.8625 7.026,9.1972 7.026,15.0846c0,5.8874 -2.6861,11.222 -7.026,15.0846c-4.3399,3.8631 -10.3332,6.2541 -16.9471,6.2541c-6.614,0 -12.6072,-2.391 -16.9472,-6.2541c-4.3399,-3.8626 -7.0259,-9.1972 -7.0259,-15.0846c0,-5.8874 2.686,-11.2221 7.0259,-15.0846c4.34,-3.8631 10.3332,-6.2541 16.9472,-6.2541z" fill="#ffffff" stroke="#000000" stroke-width="3.68817" stroke-linecap="butt"/><path d="M231,176.925l0.3,0.3" fill="none" stroke="#666666" stroke-width="2" stroke-linecap="round"/><path d="M225,178.125l-0.3,-0.3" fill="none" stroke="#666666" stroke-width="2" stroke-linecap="round"/><path d="M232.5,181.575l0.3,0.3" fill="none" stroke="#666666" stroke-width="2" stroke-linecap="round"/><path d="M226.7,183.075l0.3,0.3" fill="none" stroke="#666666" stroke-width="2" stroke-linecap="round"/><path d="M247.85,176.425l0.3,0.3" fill="none" stroke="#666666" stroke-width="2" stroke-linecap="round"/><path d="M255,177.575l0.3,0.3" fill="none" stroke="#666666" stroke-width="2" stroke-linecap="round"/><path d="M246.35,181.925l0.3,0.3" fill="none" stroke="#666666" stroke-width="2" stroke-linecap="round"/><path d="M252,183.275l0.3,0.3" fill="none" stroke="#666666" stroke-width="2" stroke-linecap="round"/></g></g></svg>