<svg version="1.1" xmlns="http://www.w3.org/2000/svg" xmlns:xlink="http://www.w3.org/1999/xlink" width="35.85093" height="21.9886" viewBox="0,0,35.85093,21.9886"><g transform="translate(-222.11268,-169.01922)"><g data-paper-data="{&quot;isPaintingLayer&quot;:true}" fill="#000000" fill-rule="nonzero" stroke="#000000" stroke-width="0.3752" stroke-linecap="round" stroke-linejoin="miter" stroke-miterlimit="10" stroke-dasharray="" stroke-dashoffset="0" style="mix-blend-mode: normal"><path d="M256.5076,190.14205l-1.6606,-0.359l-2.3442,-1.1668l-2.1489,-2.2438l-4.4932,3.2311l-4.9816,0.2693l2.2466,-2.8721l-4.2978,2.154l1.3675,-2.8721l-8.4003,2.7824l-6.9352,1.7053l-0.0977,-3.0516l0.4884,-2.1541l-0.4884,0.8976l-2.4419,-0.7181l0.4884,-3.5901l1.3675,-3.0516l2.1489,-3.0516l3.028,-3.0516l4.0048,-1.8848l5.5676,-0.9873l0.2931,4.2184l1.5628,-2.3336l2.0513,-1.7053l2.2466,-0.8078l3.2233,-0.2692l-1.6605,5.1159l2.735,-2.6926l2.5396,-0.0898l-0.5861,3.1414l6.3491,8.2573l-1.8559,0.9873l-0.6837,-1.1668l0.9768,3.0516l0.586,4.0389z"/></g></g></svg>