<svg xmlns="http://www.w3.org/2000/svg" xmlns:xlink="http://www.w3.org/1999/xlink" version="1.1" width="130.50000039143396" height="64.9432987312777" viewBox="-0.7500001957169724 -1.957169724065011e-7 130.50000039143396 64.9432987312777">
  <!-- Exported by Scratch - http://scratch.mit.edu/ -->
  <path id="ID0.927647836972028" fill="none" stroke="#CCCCCC" stroke-width="5.000000137766676" stroke-linecap="round" d="M 20.2159 61.8422 L 16.4283 48.9328 L 17.2866 41.8255 L 20.2729 36.0305 "/>
  <path id="ID0.927647836972028" fill="none" stroke="#CCCCCC" stroke-width="4.285714476276371" stroke-linecap="round" d="M 31.2351 62.4433 L 27.9885 51.3781 L 28.7243 45.2861 L 31.2839 40.319 "/>
  <path id="ID0.927647836972028" fill="none" stroke="#CCCCCC" stroke-width="5.000000391433945" stroke-linecap="round" d="M 107.7841 61.4422 L 111.5717 48.5328 L 110.7134 41.4255 L 107.7271 35.6305 "/>
  <path id="ID0.927647836972028" fill="none" stroke="#CCCCCC" stroke-width="4.285714476276371" stroke-linecap="round" d="M 96.7649 61.9433 L 100.0115 50.8781 L 99.2757 44.7861 L 96.7161 39.819 "/>
  <path id="ID0.03734103264287114" fill="none" stroke="#CCCCCC" stroke-width="4.582076624123851" stroke-linecap="round" d="M 16.85 18.8536 C 16.85 18.8536 20.137 21.3458 22 22.3161 C 23.467 23.0811 25.114 23.7481 26.75 24.0885 C 30.072 24.166 30.921 24.1652 32.25 24.0885 C 33.926 23.9871 35.548 23.9624 37 23.5527 C 38.758 23.1265 40.334 22.4818 41.75 21.6153 C 44.855 19.6953 47.902 17.974 50.35 15.6384 C 52.053 13.9493 53.154 12.0226 54.25 10.0738 C 54.639 9.1694 54.566 8.1249 54.75 7.1884 C 54.832 6.7836 54.75 5.9518 54.75 5.9518 "/>
  <path id="ID0.03734103264287114" fill="none" stroke="#CCCCCC" stroke-width="4.582076624123851" stroke-linecap="round" d="M 72.6 5.5762 C 72.6 5.5762 73.27 7.5003 73.6 8.4616 C 73.892 9.3156 73.799 10.3535 74.35 11.1408 C 76.206 13.469 78.413 15.6289 80.7 17.6536 C 82.208 18.9883 83.987 20.1474 85.85 21.1161 C 87.318 21.8803 88.964 22.5481 90.6 22.8885 C 93.922 22.966 94.771 22.9652 96.1 22.8885 C 97.776 22.7871 99.398 22.7624 100.85 22.3527 C 102.608 21.9265 104.103 21.1845 105.6 20.4153 C 107.778 19.2785 112.5 15.9636 112.5 15.9636 "/>
  <path id="ID0.5205138134770095" fill="none" stroke="#CCCCCC" stroke-width="5" stroke-linecap="round" d="M 114.25 8.5 L 121.5 14 Z "/>
  <path id="ID0.5205138134770095" fill="none" stroke="#CCCCCC" stroke-width="5" stroke-linecap="round" d="M 120 2.5 L 127.25 8 Z "/>
  <path id="ID0.5205138134770095" fill="none" stroke="#CCCCCC" stroke-width="5" stroke-linecap="round" d="M 9 4.8 L 1.75 10.3 Z "/>
  <path id="ID0.5205138134770095" fill="none" stroke="#CCCCCC" stroke-width="5" stroke-linecap="round" d="M 14.75 10.8 L 7.5 16.3 Z "/>
</svg>