<svg version="1.1" xmlns="http://www.w3.org/2000/svg" xmlns:xlink="http://www.w3.org/1999/xlink" width="53.06694" height="32.84694" viewBox="0,0,53.06694,32.84694"><g transform="translate(-214.79653,-152.82653)"><g data-paper-data="{&quot;isPaintingLayer&quot;:true}" fill="#7f00ff" fill-rule="nonzero" stroke="#666666" stroke-width="1.84694" stroke-linecap="butt" stroke-linejoin="miter" stroke-miterlimit="10" stroke-dasharray="" stroke-dashoffset="0" style="mix-blend-mode: normal"><path d="M220.13,154c1.2163,0 2.3192,0.42 3.1172,1.099c0.7989,0.679 1.2928,1.616 1.2928,2.651c0,1.035 -0.4939,1.972 -1.2928,2.651c-0.798,0.679 -1.9009,1.099 -3.1172,1.099c-1.2163,0 -2.3192,-0.42 -3.1172,-1.099c-0.7989,-0.679 -1.2928,-1.616 -1.2928,-2.651c0,-1.035 0.4939,-1.972 1.2928,-2.651c0.798,-0.679 1.9009,-1.099 3.1172,-1.099z"/><path d="M262.53,153.75c1.2163,0 2.3192,0.42 3.1172,1.099c0.7989,0.679 1.2928,1.616 1.2928,2.651c0,1.035 -0.4939,1.972 -1.2928,2.651c-0.798,0.679 -1.9009,1.099 -3.1172,1.099c-1.2163,0 -2.3192,-0.42 -3.1172,-1.099c-0.7989,-0.679 -1.2928,-1.616 -1.2928,-2.651c0,-1.035 0.4939,-1.972 1.2928,-2.651c0.798,-0.679 1.9009,-1.099 3.1172,-1.099z"/><path d="M223.03,162.25c1.2163,0 2.3192,0.42 3.1172,1.099c0.7989,0.679 1.2928,1.616 1.2928,2.651c0,1.035 -0.4939,1.972 -1.2928,2.651c-0.798,0.679 -1.9009,1.099 -3.1172,1.099c-1.2163,0 -2.3192,-0.42 -3.1172,-1.099c-0.7989,-0.679 -1.2928,-1.616 -1.2928,-2.651c0,-1.035 0.4939,-1.972 1.2928,-2.651c0.798,-0.679 1.9009,-1.099 3.1172,-1.099z"/><path d="M262.03,161.75c1.2163,0 2.3192,0.42 3.1172,1.099c0.7989,0.679 1.2928,1.616 1.2928,2.651c0,1.035 -0.4939,1.972 -1.2928,2.651c-0.798,0.679 -1.9009,1.099 -3.1172,1.099c-1.2163,0 -2.3192,-0.42 -3.1172,-1.099c-0.7989,-0.679 -1.2928,-1.616 -1.2928,-2.651c0,-1.035 0.4939,-1.972 1.2928,-2.651c0.798,-0.679 1.9009,-1.099 3.1172,-1.099z"/><path d="M258.53,170.25c1.2163,0 2.3192,0.42 3.1172,1.099c0.7989,0.679 1.2928,1.616 1.2928,2.651c0,1.035 -0.4939,1.972 -1.2928,2.651c-0.798,0.679 -1.9009,1.099 -3.1172,1.099c-1.2163,0 -2.3192,-0.42 -3.1172,-1.099c-0.7989,-0.679 -1.2928,-1.616 -1.2928,-2.651c0,-1.035 0.4939,-1.972 1.2928,-2.651c0.798,-0.679 1.9009,-1.099 3.1172,-1.099z"/><path d="M227.03,170.25c1.2163,0 2.3192,0.42 3.1172,1.099c0.7989,0.679 1.2928,1.616 1.2928,2.651c0,1.035 -0.4939,1.972 -1.2928,2.651c-0.798,0.679 -1.9009,1.099 -3.1172,1.099c-1.2163,0 -2.3192,-0.42 -3.1172,-1.099c-0.7989,-0.679 -1.2928,-1.616 -1.2928,-2.651c0,-1.035 0.4939,-1.972 1.2928,-2.651c0.798,-0.679 1.9009,-1.099 3.1172,-1.099z"/><path d="M233.53,176.25c1.2163,0 2.3192,0.42 3.1172,1.099c0.7989,0.679 1.2928,1.616 1.2928,2.651c0,1.035 -0.4939,1.972 -1.2928,2.651c-0.798,0.679 -1.9009,1.099 -3.1172,1.099c-1.2163,0 -2.3192,-0.42 -3.1172,-1.099c-0.7989,-0.679 -1.2928,-1.616 -1.2928,-2.651c0,-1.035 0.4939,-1.972 1.2928,-2.651c0.798,-0.679 1.9009,-1.099 3.1172,-1.099z"/><path d="M242.53,177.25c1.2163,0 2.3192,0.42 3.1172,1.099c0.7989,0.679 1.2928,1.616 1.2928,2.651c0,1.035 -0.4939,1.972 -1.2928,2.651c-0.798,0.679 -1.9009,1.099 -3.1172,1.099c-1.2163,0 -2.3192,-0.42 -3.1172,-1.099c-0.7989,-0.679 -1.2928,-1.616 -1.2928,-2.651c0,-1.035 0.4939,-1.972 1.2928,-2.651c0.798,-0.679 1.9009,-1.099 3.1172,-1.099z"/><path d="M252.03,176.25c1.2163,0 2.3192,0.42 3.1172,1.099c0.7989,0.679 1.2928,1.616 1.2928,2.651c0,1.035 -0.4939,1.972 -1.2928,2.651c-0.798,0.679 -1.9009,1.099 -3.1172,1.099c-1.2163,0 -2.3192,-0.42 -3.1172,-1.099c-0.7989,-0.679 -1.2928,-1.616 -1.2928,-2.651c0,-1.035 0.4939,-1.972 1.2928,-2.651c0.798,-0.679 1.9009,-1.099 3.1172,-1.099z"/></g></g></svg>