<svg xmlns="http://www.w3.org/2000/svg" xmlns:xlink="http://www.w3.org/1999/xlink" version="1.1" width="148" height="161" viewBox="0 0.75 148 161">
  <!-- Exported by Scratch - http://scratch.mit.edu/ -->
  <path id="ID0.8468979760073125" fill="#FFFFFF" stroke="#666666" stroke-width="2" stroke-linecap="round" d="M 141.25 2.5 C 142.836 2.5 144.274 3.228 145.315 4.405 C 146.356 5.582 147 7.207 147 9 C 147 10.793 146.356 12.418 145.315 13.595 C 144.274 14.772 142.836 15.5 141.25 15.5 C 139.664 15.5 137.859 14.929 137.185 13.595 C 136.498 12.236 138.044 10.607 138 9 C 138.044 7.492 136.489 5.842 137.185 4.405 C 137.841 3.064 139.664 2.5 141.25 2.5 Z "/>
  <path id="ID0.6792392595671117" fill="#666666" stroke="#000000" stroke-width="2" d="M 101.25 133.25 L 117.75 133.25 L 117.75 160.75 L 101.25 160.75 L 101.25 133.25 Z "/>
  <path id="ID0.8468979760073125" fill="#FFFFFF" stroke="#666666" stroke-width="2" stroke-linecap="round" d="M 6.75 1.75 C 5.164 1.75 3.726 2.478 2.685 3.655 C 1.644 4.832 1 6.457 1 8.25 C 1 10.043 1.644 11.668 2.685 12.845 C 3.726 14.022 5.164 14.75 6.75 14.75 C 8.336 14.75 10.141 14.179 10.815 12.845 C 11.502 11.486 9.956 9.857 10 8.25 C 9.956 6.742 11.511 5.092 10.815 3.655 C 10.159 2.314 8.336 1.75 6.75 1.75 Z "/>
  <path id="ID0.7184171094559133" fill="none" stroke="#B2B2B2" stroke-width="2" stroke-linecap="round" d="M 145 15 L 143.5 56 L 136 80 L 112 132 "/>
  <path id="ID0.013841123320162296" fill="none" stroke="#B2B2B2" stroke-width="2" stroke-linecap="round" d="M 4 15 L 4.5 42 L 7 70.5 L 18.5 92 L 44 114 L 64.5 122.5 L 110 132 "/>
</svg>