<svg xmlns="http://www.w3.org/2000/svg" xmlns:xlink="http://www.w3.org/1999/xlink" version="1.1" width="39.920806884765625" height="22.714900970458984" viewBox="-0.18540000915527344 0.4198000431060791 39.920806884765625 22.714900970458984">
  <!-- Exported by Scratch - http://scratch.mit.edu/ -->
  <g id="ID0.9213830470107496">
    <path id="ID0.13226320734247565" fill="#003FFF" stroke="#666666" stroke-width="1.4258819334926214" stroke-linecap="round" d="M 38.7354 22.1347 L 20.7112 13.2997 L 37.9684 1.5198 L 38.7354 22.1347 Z "/>
    <path id="ID0.13226320734247565" fill="#003FFF" stroke="#666666" stroke-width="1.4258819334926214" stroke-linecap="round" d="M 0.8146 22.0347 L 18.8388 13.1997 L 1.5816 1.4198 L 0.8146 22.0347 Z "/>
  </g>
  <path id="ID0.5579480095766485" fill="#003FFF" stroke="#666666" stroke-width="2" d="M 19.75 9 C 21.198 9 22.511 9.42 23.461 10.099 C 24.412 10.778 25 11.715 25 12.75 C 25 13.785 24.412 14.722 23.461 15.401 C 22.511 16.08 21.198 16.5 19.75 16.5 C 18.302 16.5 16.989 16.08 16.039 15.401 C 15.088 14.722 14.5 13.785 14.5 12.75 C 14.5 11.715 15.088 10.778 16.039 10.099 C 16.989 9.42 18.302 9 19.75 9 Z "/>
</svg>